<?xml version="1.0" encoding="UTF-8"?>
<svg version="1.1" xmlns="http://www.w3.org/2000/svg" width="512" height="512">
<path d="M0 0 C1.02852081 -0.00701431 2.05704163 -0.01402863 3.11672974 -0.02125549 C6.42031266 -0.0386785 9.72371656 -0.04510815 13.02734375 -0.046875 C14.71665512 -0.04788712 14.71665512 -0.04788712 16.44009399 -0.04891968 C32.48575383 -0.03361044 48.15029708 0.23365856 63.96484375 3.203125 C64.88442871 3.36409668 65.80401367 3.52506836 66.75146484 3.69091797 C97.47396439 9.17012339 137.53042781 20.26940082 157.46484375 46.515625 C177.33297022 76.79739017 190.99074985 121.25613061 191.07983398 157.47851562 C191.10374963 164.2050567 191.10374963 164.2050567 194.1015625 170.1796875 C195.85096075 171.87034683 197.65561123 173.5060759 199.515625 175.07421875 C204.78215055 179.6519802 206.95285975 186.42667517 207.96484375 193.203125 C208.35916354 198.95614957 207.79267156 204.5118088 206.96484375 210.203125 C207.46113281 210.55503906 207.95742188 210.90695313 208.46875 211.26953125 C219.94796979 219.61211413 228.52227523 229.75830871 230.96484375 244.203125 C232.44872293 259.39744689 230.10932229 272.67180256 220.96484375 285.203125 C213.21145062 294.56066843 202.85394303 300.66483877 190.96484375 303.203125 C186.60492121 303.49223216 182.32519553 303.45630672 177.96484375 303.203125 C177.62839844 305.08064453 177.62839844 305.08064453 177.28515625 306.99609375 C175.96647259 312.90245706 173.48935063 318.1010648 170.83984375 323.515625 C170.34774414 324.53092285 169.85564453 325.5462207 169.34863281 326.59228516 C165.74249072 333.90662997 161.88018309 340.67740681 156.96484375 347.203125 C156.39378906 347.98171875 155.82273437 348.7603125 155.234375 349.5625 C149.41848988 357.28152372 142.88380433 364.46157367 135.96484375 371.203125 C135.4646875 371.74839844 134.96453125 372.29367187 134.44921875 372.85546875 C118.84623661 389.44211715 97.86048924 400.75840206 76.96484375 409.203125 C77.67769531 409.77160156 78.39054687 410.34007812 79.125 410.92578125 C104.39574497 431.29883136 119.11910637 458.65120848 122.74951172 490.98730469 C124.12707754 505.16280061 124.12707754 505.16280061 121.460495 509.84403896 C118.02494095 513.09159512 115.02877441 512.89752363 110.53833008 512.83131409 C109.25111793 512.84195567 109.25111793 512.84195567 107.9379015 512.85281223 C105.05710623 512.87044033 102.17765161 512.85226315 99.296875 512.83422852 C97.23382959 512.83936549 95.17078856 512.84664509 93.10775757 512.85591125 C87.50030211 512.87446156 81.89332073 512.86146359 76.28588486 512.84182096 C70.42341284 512.8254632 64.56097153 512.83424334 58.69848633 512.83934021 C48.85262458 512.84386437 39.00695261 512.82797121 29.16113281 512.80004883 C17.77074036 512.76799559 6.38069024 512.76801168 -5.00972652 512.7852636 C-15.95758809 512.80111586 -26.90532389 512.79440347 -37.85317993 512.77732658 C-42.516605 512.7704459 -47.17992958 512.77149899 -51.84335327 512.77887154 C-57.33291989 512.78652087 -62.82209595 512.77445225 -68.31159592 512.74702263 C-70.3288291 512.74012353 -72.34609865 512.74005707 -74.36333084 512.74723816 C-77.11220706 512.75589772 -79.85986821 512.74003642 -82.60864258 512.7177887 C-83.41136188 512.72602946 -84.21408117 512.73427023 -85.0411253 512.74276072 C-88.57630806 512.6897688 -90.64121617 512.49176324 -93.5308075 510.3745718 C-98.3892257 503.36170551 -94.86971739 488.9770907 -93.44384766 480.921875 C-90.74776563 466.98962427 -85.89819129 454.60020618 -79.03515625 442.203125 C-78.49117188 441.21570313 -77.9471875 440.22828125 -77.38671875 439.2109375 C-70.2469407 427.19521346 -60.0734506 417.61221932 -49.03515625 409.203125 C-49.80255127 408.88057739 -49.80255127 408.88057739 -50.58544922 408.55151367 C-76.87570521 397.39177146 -101.95063828 381.75887037 -120.03515625 359.203125 C-120.81503906 358.23761719 -121.59492187 357.27210938 -122.3984375 356.27734375 C-134.90809593 340.54673607 -144.30117123 323.11008293 -151.03515625 304.203125 C-152.55882812 304.07357422 -152.55882812 304.07357422 -154.11328125 303.94140625 C-166.67714165 302.72179248 -177.35482045 299.73103987 -187.03515625 291.203125 C-187.95941406 290.40068359 -187.95941406 290.40068359 -188.90234375 289.58203125 C-193.4679077 285.33977977 -196.39090122 280.81988741 -199.03515625 275.203125 C-199.62683594 274.07390625 -199.62683594 274.07390625 -200.23046875 272.921875 C-205.30695996 261.70389443 -204.76048408 247.00474562 -200.97265625 235.453125 C-198.50840065 229.58750251 -195.35716419 224.84836003 -191.03515625 220.203125 C-190.431875 219.54441406 -189.82859375 218.88570312 -189.20703125 218.20703125 C-186.08176764 214.93909256 -183.09473923 212.29442532 -179.03515625 210.203125 C-179.20015625 209.089375 -179.36515625 207.975625 -179.53515625 206.828125 C-180.89872072 195.43835121 -180.2288267 185.58184916 -172.92578125 176.28515625 C-171.03515625 174.203125 -171.03515625 174.203125 -169.30883789 172.81640625 C-165.35565507 169.45380115 -163.59843315 167.09703819 -163.125 161.8515625 C-163.04989733 159.76114885 -163.00068669 157.66969951 -162.97265625 155.578125 C-161.31896116 121.63663245 -150.55460505 72.07292187 -128.03515625 45.203125 C-127.184375 44.07970703 -127.184375 44.07970703 -126.31640625 42.93359375 C-111.70493937 24.76212964 -83.93582001 15.71067693 -62.47265625 9.328125 C-60.91901367 8.86200806 -60.91901367 8.86200806 -59.33398438 8.38647461 C-49.71390136 5.6099402 -49.71390136 5.6099402 -45.03515625 6.203125 C-42.16015625 8.078125 -42.16015625 8.078125 -40.03515625 10.203125 C-40.03515625 10.863125 -40.03515625 11.523125 -40.03515625 12.203125 C-38.81828125 11.873125 -37.60140625 11.543125 -36.34765625 11.203125 C-33.16305021 10.39990287 -30.33787195 9.99670527 -27.03515625 10.203125 C-26.97328125 9.275 -26.91140625 8.346875 -26.84765625 7.390625 C-26.03515625 4.203125 -26.03515625 4.203125 -24.09765625 2.390625 C-16.62281609 -0.50778241 -7.92093584 0.03616582 0 0 Z " fill="#020101" transform="translate(242.03515625,-0.203125)"/>
<path d="M0 0 C0.15855469 1.2065625 0.31710938 2.413125 0.48046875 3.65625 C2.41888871 17.4473882 2.41888871 17.4473882 10.5625 28.375 C16.96094608 32.64063072 22.36823708 33.00856804 30 32 C44.93013884 27.82200306 59.09583374 17.95148915 70.66796875 7.91015625 C73.00079533 5.99934855 75.37975861 4.48464832 78 3 C77.95359375 4.134375 77.9071875 5.26875 77.859375 6.4375 C77.35869494 19.13044775 77.35869494 19.13044775 83.61328125 29.73046875 C89.70575205 35.41767542 95.8933146 36.46661578 104.0546875 36.30859375 C121.653014 34.93209098 140.80089193 30.37181354 154 18 C158.19605631 20.42929576 161.3606784 23.27514347 164.75 26.75 C172.89739245 35.04441307 180.36384723 41.80710873 192 44 C198.75921894 80.99465366 189.33667379 119.72064252 168.29199219 150.69750977 C163.12091723 158.01566926 157.21370917 164.56180712 151 171 C150.21109375 171.85207031 149.4221875 172.70414063 148.609375 173.58203125 C123.22222407 200.27216509 84.08313241 216.79831129 47.47802734 218.12792969 C32.41048336 218.43121054 17.7061274 218.66170712 3 215 C1.50026737 214.66676315 0.00025387 214.33478851 -1.5 214.00390625 C-29.6454283 207.49669722 -56.16528586 193.10491751 -76 172 C-76.804375 171.21625 -77.60875 170.4325 -78.4375 169.625 C-79.283125 168.75875 -80.12875 167.8925 -81 167 C-81.64453125 166.34 -82.2890625 165.68 -82.953125 165 C-104.26502918 142.34678716 -119.46704869 108.29185568 -120 77 C-120.01901367 76.26426758 -120.03802734 75.52853516 -120.05761719 74.77050781 C-120.30901115 64.29850678 -120.10487592 54.29885718 -118 44 C-117.31035156 43.79246094 -116.62070313 43.58492187 -115.91015625 43.37109375 C-108.46148837 40.92907506 -102.57120414 37.57120414 -97 32 C-95.2686071 31.96109016 -93.53566783 31.98872434 -91.8046875 32.04296875 C-58.84381931 32.77887533 -30.20627484 26.42860969 -5 4 C-4.2575 3.25105469 -3.515 2.50210938 -2.75 1.73046875 C-1 0 -1 0 0 0 Z " fill="#F9C4A9" transform="translate(219,186)"/>
<path d="M0 0 C1.10843262 0.00223572 1.10843262 0.00223572 2.23925781 0.0045166 C15.20182294 0.05124991 27.78840095 1.01475926 40.5625 3.3125 C41.28550293 3.43044922 42.00850586 3.54839844 42.75341797 3.66992188 C76.13988948 9.20177814 111.16845922 23.97002573 134.78344727 48.5324707 C136.54328296 50.29327241 138.36548263 51.91765207 140.25390625 53.5390625 C144.54768455 57.27034354 148.68750526 61.14649863 152.8125 65.0625 C157.41401433 69.41915109 162.02542925 73.75759102 166.73022461 78.00268555 C180.49137585 90.42861826 180.49137585 90.42861826 181 100 C180.9374488 106.04065875 178.56173251 109.91427213 174.5625 114.3125 C169.86898878 118.09020415 164.57780321 117.70508387 158.78125 117.80859375 C151.95333285 116.75623273 147.31339528 111.41398479 142.5 106.8125 C141.1656921 105.55173663 139.83105105 104.29132575 138.49609375 103.03125 C137.83335449 102.40347656 137.17061523 101.77570313 136.48779297 101.12890625 C133.70103473 98.49975569 130.88363771 95.90464784 128.0625 93.3125 C124.62405275 90.15142402 121.20008591 86.97687416 117.8046875 83.76953125 C84.047335 51.90395701 41.83749393 37.06665154 -4.62890625 38.04296875 C-29.98604829 38.89770387 -55.74461682 45.9382485 -78.4375 57.3125 C-79.8915625 57.99505859 -79.8915625 57.99505859 -81.375 58.69140625 C-95.27714077 65.62272927 -106.28431984 77.82396222 -117.41992188 88.40380859 C-120.83367174 91.63332171 -124.28683283 94.81950418 -127.75024414 97.99560547 C-130.49442672 100.51294253 -133.21893096 103.04751079 -135.91796875 105.61328125 C-136.49643555 106.15887695 -137.07490234 106.70447266 -137.67089844 107.26660156 C-138.76930672 108.30332273 -139.86281413 109.34527338 -140.95019531 110.39355469 C-147.40578502 116.45789653 -152.61130463 117.95038724 -161.3046875 117.72265625 C-167.487085 116.91324012 -170.12201842 113.96528454 -173.875 109.25 C-176.35346583 104.35744408 -176.38887597 98.62201736 -175.4375 93.3125 C-172.93918975 88.86596616 -169.80922158 85.43980881 -166.1875 81.875 C-164.84945312 80.54662109 -164.84945312 80.54662109 -163.484375 79.19140625 C-160.58894421 76.40600865 -157.55920227 73.7868221 -154.52587891 71.15356445 C-151.02003705 68.06289886 -147.64068021 64.84080949 -144.25 61.625 C-142.74493082 60.2081855 -141.23972133 58.79152003 -139.734375 57.375 C-137.16614502 54.95359056 -134.61228957 52.51949756 -132.078125 50.0625 C-108.19709958 27.12681206 -81.13479451 15.03822054 -49.36328125 7.05126953 C-46.80937912 6.40640072 -44.26313722 5.73980775 -41.71875 5.05859375 C-27.87186704 1.41535355 -14.29989648 -0.07177367 0 0 Z " fill="#FB737E" transform="translate(253.4375,97.6875)"/>
<path d="M0 0 C1.8125 2.4375 1.8125 2.4375 3 5 C3.97229718 6.20507954 3.97229718 6.20507954 5.76464844 6.02172852 C6.5384082 5.97459717 7.31216797 5.92746582 8.109375 5.87890625 C8.99383301 5.83024414 9.87829102 5.78158203 10.78955078 5.73144531 C11.76649902 5.67569336 12.74344727 5.61994141 13.75 5.5625 C37.74642406 4.40486075 61.16081536 4.83427952 85 8 C85.79116211 8.10151367 86.58232422 8.20302734 87.39746094 8.30761719 C99.98388909 10.00526604 112.14618023 14.11027058 124.17041016 18.07763672 C125.92359152 18.64912241 127.68797693 19.18864542 129.46630859 19.67626953 C133.20082821 20.79450594 134.7402973 21.53302285 136.6640625 24.9921875 C136.98117187 26.27351563 137.29828125 27.55484375 137.625 28.875 C137.81046387 29.60477051 137.99592773 30.33454102 138.18701172 31.08642578 C138.83439033 33.7158362 139.41789782 36.35538765 140 39 C140.24492187 40.05703125 140.48984375 41.1140625 140.7421875 42.203125 C145.07152622 60.97788102 149.2490892 80.63222215 149 100 C148.36723145 99.72849121 147.73446289 99.45698242 147.08251953 99.17724609 C128.5821937 91.27052337 110.41471519 84.7464618 90.9375 79.75 C90.27443848 79.57692322 89.61137695 79.40384644 88.92822266 79.2255249 C72.87094053 75.06154987 57.12357668 73.62120649 40.5625 73.75 C39.79465179 73.75443115 39.02680359 73.7588623 38.23568726 73.76342773 C1.82222671 74.00909753 -36.55937761 83.10044629 -69 100 C-69.19914659 92.49615634 -68.46238789 85.30505876 -67.4375 77.875 C-67.17948608 76.00279785 -67.17948608 76.00279785 -66.91625977 74.09277344 C-65.50103033 64.38110093 -63.61266779 54.81854477 -61.4375 45.25 C-61.28997284 44.5975531 -61.14244568 43.9451062 -60.990448 43.27288818 C-60.05405396 39.16548652 -59.03886869 35.08246126 -58 31 C-57.80817139 30.0915332 -57.61634277 29.18306641 -57.41870117 28.24707031 C-56.61037001 25.00055379 -56.03724339 22.75910893 -53.2746582 20.73730469 C-51.02628197 19.69252507 -48.81523362 18.95107201 -46.4375 18.25 C-45.60283203 17.9718042 -44.76816406 17.6936084 -43.90820312 17.40698242 C-39.5921862 15.99844008 -35.23168923 14.774967 -30.84765625 13.59765625 C-30.03304932 13.37883789 -29.21844238 13.16001953 -28.37915039 12.93457031 C-26.82460989 12.52810862 -25.26515406 12.13988885 -23.70092773 11.77246094 C-20.58565453 10.99426505 -18.38716958 10.37858315 -16.0625 8.10546875 C-15.02990823 6.05926667 -14.40219454 4.25228943 -14 2 C-4.24497258 -0.69104205 -4.24497258 -0.69104205 0 0 Z " fill="#E8E8E8" transform="translate(216,10)"/>
<path d="M0 0 C0.07476562 0.58265625 0.14953125 1.1653125 0.2265625 1.765625 C2.00897202 12.87947263 6.82546021 23.16854334 16 30 C27.54923579 36.70648126 38.51655297 39.07482032 51.66015625 36.19921875 C63.52108257 32.08535754 71.54210336 24.18390049 77 13 C78.7637226 8.71667368 79.4488291 4.59309082 80 0 C97.88082056 6.7363508 113.3305108 23.26167905 122 40 C122 40.99 122 41.98 122 43 C121.26885986 43.0093457 120.53771973 43.01869141 119.78442383 43.02832031 C116.45977282 43.08212664 113.13651322 43.16575504 109.8125 43.25 C108.08676758 43.27126953 108.08676758 43.27126953 106.32617188 43.29296875 C105.21435547 43.32519531 104.10253906 43.35742188 102.95703125 43.390625 C101.42526245 43.4220459 101.42526245 43.4220459 99.86254883 43.45410156 C96.33096424 43.89650598 96.33096424 43.89650598 92 48 C91.67 59.55 91.34 71.1 91 83 C57.34 83 23.68 83 -11 83 C-11.33 71.78 -11.66 60.56 -12 49 C-16.9618061 43.71089211 -16.9618061 43.71089211 -23.17578125 43.29296875 C-24.33271484 43.26396484 -25.48964844 43.23496094 -26.68164062 43.20507812 C-27.87982422 43.19927734 -29.07800781 43.19347656 -30.3125 43.1875 C-32.1387793 43.14979492 -32.1387793 43.14979492 -34.00195312 43.11132812 C-37.00162687 43.05251099 -39.99984298 43.01618961 -43 43 C-40.11967779 36.87912286 -37.13278028 31.26712421 -32.875 26 C-32.16114136 25.11018433 -32.16114136 25.11018433 -31.43286133 24.20239258 C-25.24618391 16.66374748 -10.93249877 0 0 0 Z " fill="#FB737E" transform="translate(216,414)"/>
<path d="M0 0 C1.02513702 0.00173721 1.02513702 0.00173721 2.07098389 0.00350952 C11.83096208 0.03619599 21.24914082 0.46847511 30.75878906 2.80029297 C32.42193784 3.20284098 34.0922086 3.57597486 35.76464844 3.93798828 C65.09792808 10.36810337 87.25489889 21.71048932 107.875 43.3125 C106.49813287 47.44310139 104.65517949 47.80483304 100.8125 49.75 C88.86967387 55.60565809 74.2612522 59.56942509 60.875 58.3125 C58.68041992 56.78491211 58.68041992 56.78491211 56.875 54.3125 C56.58570289 51.54297494 56.52317879 49.19092253 56.66015625 46.44140625 C56.69612816 44.88216525 56.73193021 43.32292032 56.76757812 41.76367188 C56.84840091 39.31663297 56.93768902 36.87012103 57.0324707 34.42358398 C57.11711989 32.05459909 57.1710333 29.68630623 57.22265625 27.31640625 C57.26101089 26.58917862 57.29936554 25.86195099 57.33888245 25.11268616 C57.41582932 21.13206332 57.02266355 19.4989411 54.51733398 16.33569336 C52.0731893 14.12226638 52.0731893 14.12226638 49.25 13.9375 C46.73457587 14.26797527 46.73457587 14.26797527 43.875 15.3125 C43.18437025 16.63358015 42.52155067 17.96929694 41.875 19.3125 C29.9396534 33.03159071 8.85660291 50.97891412 -9.671875 54.84375 C-12.44049684 54.96500351 -14.48732195 54.78256418 -16.75415039 53.11157227 C-18.55200073 50.75211382 -18.86384235 48.81982844 -19.37109375 45.90234375 C-19.56896484 44.82919922 -19.76683594 43.75605469 -19.97070312 42.65039062 C-20.16599609 41.52826172 -20.36128906 40.40613281 -20.5625 39.25 C-22.55866462 27.37914617 -22.55866462 27.37914617 -27.125 16.3125 C-29.99824145 13.98546934 -29.99824145 13.98546934 -33.54296875 14.375 C-37.87112498 15.50777807 -38.87046954 16.72364189 -41.4375 20.3125 C-54.38812411 37.22938969 -75.19983114 49.88411971 -96.4453125 53 C-102.6714342 53.80723786 -108.83529692 54.43080163 -115.125 54.3125 C-110.85060888 49.1567228 -106.34583566 44.48938084 -101.4375 39.9375 C-100.73197998 39.28193115 -100.02645996 38.6263623 -99.29956055 37.95092773 C-72.16879407 12.90928282 -37.12878475 -0.15192553 0 0 Z " fill="#555459" transform="translate(254.125,149.6875)"/>
<path d="M0 0 C1.134375 0.020625 2.26875 0.04125 3.4375 0.0625 C2.7775 0.7225 2.1175 1.3825 1.4375 2.0625 C-9.57994086 32.66203466 -2.43016057 70.82133812 10.38671875 99.5859375 C12.23576032 103.50897403 14.2819287 107.30051019 16.4375 111.0625 C16.81100586 111.7215332 17.18451172 112.38056641 17.56933594 113.05957031 C23.47944413 123.34935901 30.35802679 132.38655561 38.4375 141.0625 C38.93008301 141.59359375 39.42266602 142.1246875 39.93017578 142.671875 C54.48016985 158.18674826 71.57725193 168.95213908 90.65185547 178.19384766 C93.25797787 179.4616332 95.84777268 180.76163234 98.4375 182.0625 C93.26830424 184.64709788 82.77071746 179.78536482 77.4375 178.0625 C54.75799201 169.90449284 34.01227834 157.69871735 17.4375 140.0625 C16.633125 139.27875 15.82875 138.495 15 137.6875 C14.154375 136.82125 13.30875 135.955 12.4375 135.0625 C11.79296875 134.4025 11.1484375 133.7425 10.484375 133.0625 C-10.82752918 110.40928716 -26.02954869 76.35435568 -26.5625 45.0625 C-26.58151367 44.32676758 -26.60052734 43.59103516 -26.62011719 42.83300781 C-26.87151115 32.36100678 -26.66737592 22.36135718 -24.5625 12.0625 C-23.87285156 11.85496094 -23.18320313 11.64742187 -22.47265625 11.43359375 C-14.93981654 8.96397964 -7.15311772 0.12549329 0 0 Z " fill="#DFAF93" transform="translate(125.5625,217.9375)"/>
<path d="M0 0 C-0.38091797 1.670625 -0.38091797 1.670625 -0.76953125 3.375 C-3.95237657 17.43295517 -6.76331944 31.44926762 -8.625 45.75 C-8.7597876 46.76989014 -8.8945752 47.78978027 -9.03344727 48.84057617 C-9.64652244 53.81006365 -10.07089068 58.65814352 -10.0234375 63.66796875 C-9.9103186 76.47839257 -9.9103186 76.47839257 -12.94140625 80.7109375 C-15.28144085 82.58715004 -17.67246117 84.18481117 -20.21826172 85.76367188 C-23.85912204 88.29002384 -26.94383222 91.49274948 -30.125 94.5625 C-31.49072832 95.85831049 -32.8578803 97.15262241 -34.2265625 98.4453125 C-34.87141602 99.05536133 -35.51626953 99.66541016 -36.18066406 100.29394531 C-39.71612584 103.60927098 -43.34249841 106.82000556 -47 110 C-52.09416194 95.15729793 -41.09793634 70.3815009 -36.25 56.0625 C-35.8541571 54.88568161 -35.8541571 54.88568161 -35.45031738 53.68508911 C-17.34324129 0 -17.34324129 0 0 0 Z " fill="#ED6163" transform="translate(143,42)"/>
<path d="M0 0 C11.06955072 3.4592346 17.75436479 12.77068909 22.96484375 22.61328125 C32.72132165 41.99321615 39.03392076 62.95149623 44 84 C44.17257324 84.71285156 44.34514648 85.42570312 44.52294922 86.16015625 C46.4321605 94.08860432 47.56743807 101.85590303 48 110 C42.52954288 106.19900119 37.86112504 101.97591571 33.20703125 97.21875 C31.25369445 95.2550415 29.26829476 93.389119 27.1875 91.5625 C26.54941406 90.98242188 25.91132813 90.40234375 25.25390625 89.8046875 C22.95706899 87.86568386 22.95706899 87.86568386 19.90234375 86.2578125 C15.23989671 83.31252415 11.76433291 80.9263814 10.31884766 75.39208984 C9.37373348 68.76758994 9.27172701 62.09456301 9.11865234 55.41308594 C8.93876008 50.23840737 8.39382993 45.1352081 7.75 40 C7.57235107 38.55995605 7.57235107 38.55995605 7.39111328 37.09082031 C5.89852209 25.97295314 3.22966896 15.10295353 0.50317383 4.23291016 C0 2 0 2 0 0 Z " fill="#EE6163" transform="translate(369,42)"/>
<path d="M0 0 C3.09772005 1.50207411 6.02588801 3.26880049 9 5 C8.89606934 5.95398682 8.89606934 5.95398682 8.79003906 6.92724609 C7.08536618 23.83141333 6.6604393 41.31901751 10.34375 57.97265625 C11 61 11 61 11 64 C1.30887655 63.77318647 -6.11438666 60.9518878 -13.3125 54.375 C-20.91495946 46.29546312 -23.39864333 36.42228852 -23.265625 25.63671875 C-22.52899865 15.5514374 -17.31021263 8.71849221 -10 2 C-6.29107371 -0.77144097 -4.43088307 -1.50942171 0 0 Z " fill="#DEAE93" transform="translate(77,224)"/>
<path d="M0 0 C7.62159623 4.95735128 12.81923437 12.33729275 15.63671875 20.9453125 C17.58084552 31.94112625 15.54048577 41.15801373 9.25 50.25 C3.71374718 57.1149535 -3.45953332 61.72432706 -12 64 C-13.99905616 64.06143671 -16.00141836 64.07530887 -18 64 C-17.68981396 61.4372008 -17.37693109 58.8747789 -17.0625 56.3125 C-16.97548828 55.59126953 -16.88847656 54.87003906 -16.79882812 54.12695312 C-16.66831055 53.06831055 -16.66831055 53.06831055 -16.53515625 51.98828125 C-16.456604 51.34415283 -16.37805176 50.70002441 -16.29711914 50.03637695 C-16 48 -16 48 -15.47485352 45.6262207 C-14.94557471 42.69899596 -14.87042909 39.96657558 -14.8671875 36.9921875 C-14.86589844 35.83976562 -14.86460937 34.68734375 -14.86328125 33.5 C-14.86714844 32.30375 -14.87101562 31.1075 -14.875 29.875 C-14.87113281 28.70195312 -14.86726563 27.52890625 -14.86328125 26.3203125 C-14.87123952 19.1578713 -15.20460157 12.11872539 -16 5 C-14.28133783 3.9615789 -12.54955402 2.94485365 -10.8125 1.9375 C-9.84957031 1.36902344 -8.88664062 0.80054688 -7.89453125 0.21484375 C-4.57169432 -1.17976122 -3.34365059 -1.23899027 0 0 Z " fill="#DEAE92" transform="translate(442,224)"/>
<path d="M0 0 C15.84 0 31.68 0 48 0 C46.78787415 7.27275511 44.44866693 10.25380583 39 15 C32.26879738 19.22814235 24.79363622 20.19010931 17 19 C10.32040951 16.74926842 4.66070195 12.02490529 1 6 C0.67 4.02 0.34 2.04 0 0 Z " fill="#DEAE92" transform="translate(232,418)"/>
<path d="M0 0 C0.804375 0.680625 1.60875 1.36125 2.4375 2.0625 C5.34544924 4.26119333 7.30859058 4.57430785 10.93359375 4.40234375 C14.7232373 3.66447364 18.25443104 1.74556896 21 -1 C24.52371092 -1.39152344 26.37616451 -1.41041808 29.375 0.5625 C31.63326454 3.94989681 31.56116268 6.0017159 31 10 C28.12294273 15.49256388 22.72108597 18.16054323 17 20 C8.01306379 21.28531696 0.45186296 20.34284514 -7 15 C-9.41920489 13.04313205 -10.38284178 11.78820382 -12 9 C-12.06562608 5.12806099 -11.83318187 3.02545461 -9.375 0 C-5.86785042 -1.47669456 -3.64319548 -0.95873565 0 0 Z " fill="#060404" transform="translate(246,273)"/>
<path d="M0 0 C7.59 0 15.18 0 23 0 C25.88650091 9.62166969 27 15.15814532 27 25 C18.09 25 9.18 25 0 25 C0 16.75 0 8.5 0 0 Z " fill="#F1BEA4" transform="translate(322,472)"/>
<path d="M0 0 C7.59 0 15.18 0 23 0 C23 8.25 23 16.5 23 25 C14.09 25 5.18 25 -4 25 C-4 18.76046654 -3.99532422 14.84258566 -2.5625 9.125 C-2.16224609 7.48917969 -2.16224609 7.48917969 -1.75390625 5.8203125 C-1.23062891 3.86276721 -0.64076538 1.92229615 0 0 Z " fill="#F1BEA4" transform="translate(167,472)"/>
<path d="M0 0 C1.7634375 -0.01643555 1.7634375 -0.01643555 3.5625 -0.03320312 C13.53722506 0.05180874 13.53722506 0.05180874 18 4.5625 C18.5625 8.0625 18.5625 8.0625 18 11.5625 C15.85881491 14.3913696 14.66710043 15.43777899 11.14672852 16.09594727 C7.61730921 16.1315447 4.0920726 16.1563986 0.5625 16.125 C-1.27924805 16.16077148 -1.27924805 16.16077148 -3.15820312 16.19726562 C-13.18543538 16.18089018 -13.18543538 16.18089018 -16.30859375 13.18359375 C-18 10.5625 -18 10.5625 -18.625 8.0625 C-17.93632738 5.30780953 -16.95797464 3.59812263 -14.90380859 1.62744141 C-10.47205385 -0.85156785 -4.92734469 -0.09995162 0 0 Z " fill="#FC757F" transform="translate(335,278.4375)"/>
<path d="M0 0 C1.14210937 0.00386719 2.28421875 0.00773437 3.4609375 0.01171875 C4.64945313 0.03621094 5.83796875 0.06070312 7.0625 0.0859375 C8.25101563 0.08722656 9.43953125 0.08851563 10.6640625 0.08984375 C20.58421392 0.19061278 20.58421392 0.19061278 24.0625 2.4609375 C25.60836876 5.55267502 25.35609521 8.05523302 25.0625 11.4609375 C22.93111174 14.32061375 21.73451151 15.3397101 18.19335938 15.97851562 C17.10861328 15.98302734 16.02386719 15.98753906 14.90625 15.9921875 C13.71902344 15.99734375 12.53179687 16.0025 11.30859375 16.0078125 C10.07238281 15.99234375 8.83617187 15.976875 7.5625 15.9609375 C6.32628906 15.97640625 5.09007812 15.991875 3.81640625 16.0078125 C2.03556641 16.00007813 2.03556641 16.00007813 0.21875 15.9921875 C-0.86599609 15.98767578 -1.95074219 15.98316406 -3.06835938 15.97851562 C-6.60806412 15.3399712 -7.79369756 14.30662544 -9.9375 11.4609375 C-10.4375 7.9609375 -10.4375 7.9609375 -9.9375 4.4609375 C-6.95214177 0.52289877 -4.85124951 -0.03822833 0 0 Z " fill="#FC757F" transform="translate(168.9375,278.5390625)"/>
<path d="M0 0 C2.85903767 2.05598444 4.71879316 3.6668877 5.46508789 7.20483398 C5.63769058 9.82062649 5.63275443 12.37969965 5.5625 15 C5.57345703 15.88945312 5.58441406 16.77890625 5.59570312 17.6953125 C5.54855956 21.90680472 5.35089895 24.40309447 3.18359375 28.08984375 C1 30 1 30 -2.5 30.5625 C-6 30 -6 30 -8.1875 28.65234375 C-11.09944291 24.39111696 -10.57806383 20.03511687 -10.5 15 C-10.51546875 14.00226563 -10.5309375 13.00453125 -10.546875 11.9765625 C-10.5080155 4.72926538 -10.5080155 4.72926538 -8.15234375 1.34765625 C-5.14123669 -0.53770117 -3.48994933 -0.6410111 0 0 Z " fill="#050403" transform="translate(338,241)"/>
<path d="M0 0 C3.33445656 0.98798713 4.35950765 1.32351887 6.375 4 C7.01099654 7.61499663 6.83832403 11.27283494 6.8125 14.9375 C6.83248047 15.93974609 6.85246094 16.94199219 6.87304688 17.97460938 C6.86817625 25.27568067 6.86817625 25.27568067 4.56640625 28.65625 C1.29311327 30.66340292 -0.87173651 30.60320306 -4.625 30 C-7.98353277 27.06203484 -8.89673787 24.63019846 -9.19140625 20.3125 C-9.21122777 18.54177713 -9.20931296 16.77069946 -9.1875 15 C-9.21134766 14.11054688 -9.23519531 13.22109375 -9.25976562 12.3046875 C-9.24957487 7.75281878 -9.08822122 5.6270338 -6.31640625 1.875 C-3.625 0 -3.625 0 0 0 Z " fill="#030302" transform="translate(177.625,241)"/>
</svg>
