<?xml version="1.0" encoding="UTF-8"?>
<svg version="1.1" xmlns="http://www.w3.org/2000/svg" width="100" height="100">
<path d="M0 0 C8.18221134 5.05898156 13.88129565 14.50287617 16.50390625 23.625 C19.11171828 36.10964342 17.95313982 47.15239056 11 58 C5.26771947 65.47457461 -3.5976617 71.37708232 -13 73 C-25.74305951 73.9242885 -35.99349566 72.34030365 -46 63.90625 C-54.2186957 56.07280566 -58.05588565 47.27957671 -58.47387695 35.95458984 C-58.61605237 22.25525767 -55.25828259 14.46528468 -45.8515625 4.6640625 C-34.15998138 -6.25875712 -14.05231919 -8.01912312 0 0 Z M-26 68 C-26 68.33 -26 68.66 -26 69 C-24.41705218 69.05437607 -22.83355744 69.09296271 -21.25 69.125 C-20.36828125 69.14820312 -19.4865625 69.17140625 -18.578125 69.1953125 C-15.8864142 68.99139502 -14.30095026 68.36551721 -12 67 C-16.72186796 66.84768168 -21.32289529 67.42937285 -26 68 Z " fill="#3258A5" transform="translate(71,17)"/>
<path d="M0 0 C2.52750327 1.06396737 3.92722406 2.1575325 6 4 C5.6875 5.9375 5.6875 5.9375 5 8 C4.01 8.33 3.02 8.66 2 9 C1.01 8.34 0.02 7.68 -1 7 C-4.04189659 6.52608133 -6.95871127 6.51294073 -10 7 C-12.12355567 8.82271927 -12.12355567 8.82271927 -13 11 C-11.88625 11.12375 -10.7725 11.2475 -9.625 11.375 C-6 12 -6 12 -4 14 C-4 15.32 -4 16.64 -4 18 C-7.63 18 -11.26 18 -15 18 C-15 19.32 -15 20.64 -15 22 C-11.7 22 -8.4 22 -5 22 C-4.61781233 23.65614657 -4.28604898 25.32457024 -4 27 C-5 28 -5 28 -6.84765625 28.09765625 C-8.8984375 28.06510417 -10.94921875 28.03255208 -13 28 C-11.91256712 30.11922127 -11.91256712 30.11922127 -10 32 C-6.64220658 32.43797305 -4.5153774 32.20860514 -1.375 30.9375 C1.28887319 29.88597111 2.36444539 30.02386866 5 31 C5.495 32.98 5.495 32.98 6 35 C0.13212698 38.04260083 -4.35460119 39.87152771 -11 39 C-14.87284225 36.95397013 -17.7829942 34.81817665 -20 31 C-20 30.01 -20 29.02 -20 28 C-21.98 28 -23.96 28 -26 28 C-26.38218767 26.34385343 -26.71395102 24.67542976 -27 23 C-26 22 -26 22 -23.4375 21.9375 C-22.2309375 21.9684375 -22.2309375 21.9684375 -21 22 C-21 20.68 -21 19.36 -21 18 C-22.65 18 -24.3 18 -26 18 C-26.625 16.125 -26.625 16.125 -27 14 C-25 12 -25 12 -22.375 11.875 C-21.59125 11.91625 -20.8075 11.9575 -20 12 C-19.938125 11.29875 -19.87625 10.5975 -19.8125 9.875 C-18.69528762 5.92178696 -16.79812617 4.00286711 -14 1 C-9.82757272 -1.08621364 -4.54313381 -0.45549649 0 0 Z " fill="#E9B225" transform="translate(60,31)"/>
<path d="M0 0 C13.36753102 -0.56571056 23.37551992 1.43519295 34 10 C41.0056118 17.90748367 42.98655007 28.73770709 43 39 C42.16831746 49.20701302 37.84659537 58.17060188 30.38671875 65.17578125 C19.95290289 73.15056359 9.76470551 74.89621804 -3 74 C-13.24875214 71.8653791 -21.78556744 65.8071168 -27.71484375 57.21875 C-32.32236492 49.26412379 -34.21813146 41.17847891 -33 32 C-32.01 30.515 -32.01 30.515 -31 29 C-30.97421875 29.81082031 -30.9484375 30.62164062 -30.921875 31.45703125 C-30.38043029 42.02750864 -28.63937185 51.34086217 -21.12109375 59.21484375 C-13.32498143 65.77621268 -3.94835869 69.54960043 6.25 69.31640625 C15.38570426 68.26528119 23.91640267 64.85939557 29.87109375 57.7734375 C36.9320855 48.29027602 38.89896036 40.1465649 37.75390625 28.49609375 C36.61175086 20.97199797 33.62219756 14.40701751 28.02734375 9.14453125 C19.84618935 3.13116005 9.8857794 1.82381495 0 1 C0 0.67 0 0.34 0 0 Z " fill="#010306" transform="translate(46,16)"/>
<path d="M0 0 C0.99 0.33 1.98 0.66 3 1 C2.34 4.63 1.68 8.26 1 12 C0.01 12.33 -0.98 12.66 -2 13 C-2.19294408 8.17639811 -1.75747614 4.50353262 0 0 Z " fill="#254381" transform="translate(15,35)"/>
<path d="M0 0 C4.02511753 0.61924885 6.82648821 2.51638207 10 5 C11.375 7.75 11.375 7.75 12 10 C8.92748873 9.67080236 8.0664519 9.07683501 6 6.6875 C5.34 5.800625 4.68 4.91375 4 4 C2.68505488 2.64852862 1.35735142 1.30887458 0 0 Z " fill="#080F1C" transform="translate(70,21)"/>
</svg>
