<?xml version="1.0" encoding="UTF-8"?>
<svg version="1.1" xmlns="http://www.w3.org/2000/svg" width="100" height="100">
<path d="M0 0 C9.40707465 5.68464327 15.68680199 13.83643636 18.546875 24.5390625 C19.81816587 35.18018906 19.08411233 45.14253855 13.546875 54.5390625 C12.556875 55.5290625 12.556875 55.5290625 11.546875 56.5390625 C13.031875 57.0340625 13.031875 57.0340625 14.546875 57.5390625 C14.546875 58.8590625 14.546875 60.1790625 14.546875 61.5390625 C13.226875 61.5390625 11.906875 61.5390625 10.546875 61.5390625 C10.216875 60.8790625 9.886875 60.2190625 9.546875 59.5390625 C9.01320313 59.99796875 8.47953125 60.456875 7.9296875 60.9296875 C-2.56169886 69.56965274 -11.91574525 71.83539098 -25.31445312 70.80957031 C-34.8744138 69.60038807 -42.8797787 64.22976046 -48.828125 56.828125 C-51.453125 53.09114583 -51.453125 53.09114583 -51.453125 50.5390625 C-52.2575 50.5596875 -53.061875 50.5803125 -53.890625 50.6015625 C-56.453125 50.5390625 -56.453125 50.5390625 -57.453125 49.5390625 C-57.578125 46.5390625 -57.578125 46.5390625 -57.453125 43.5390625 C-56.958125 43.0440625 -56.958125 43.0440625 -56.453125 42.5390625 C-56.37687052 40.5797461 -56.30610979 38.62003955 -56.26513672 36.65966797 C-55.96707395 24.96481162 -53.82146128 15.03480794 -45.4765625 6.2890625 C-32.87910695 -4.60603419 -15.10756629 -7.47031593 0 0 Z " fill="#FBDFA0" transform="translate(68.453125,16.4609375)"/>
<path d="M0 0 C6.79064682 4.02654792 10.50702117 8.7375596 12.99609375 16.18359375 C14.42902565 25.04285096 11.8703678 31.49959159 7.30859375 38.93359375 C1.24323954 44.83501947 -5.94727727 47.55415419 -14.3046875 47.46875 C-20.66230659 46.79710573 -26.45206761 43.60537986 -31.00390625 39.18359375 C-36.46523719 32.00584452 -38.1641385 25.09079341 -37.00390625 16.18359375 C-34.26102193 7.64881531 -29.35475811 2.69370059 -21.75390625 -1.69140625 C-14.09475102 -3.98915282 -7.14240681 -3.67942169 0 0 Z " fill="#48A2B7" transform="translate(62.00390625,27.81640625)"/>
<path d="M0 0 C6.79064682 4.02654792 10.50702117 8.7375596 12.99609375 16.18359375 C14.42902565 25.04285096 11.8703678 31.49959159 7.30859375 38.93359375 C1.24323954 44.83501947 -5.94727727 47.55415419 -14.3046875 47.46875 C-20.66230659 46.79710573 -26.45206761 43.60537986 -31.00390625 39.18359375 C-36.46523719 32.00584452 -38.1641385 25.09079341 -37.00390625 16.18359375 C-34.26102193 7.64881531 -29.35475811 2.69370059 -21.75390625 -1.69140625 C-14.09475102 -3.98915282 -7.14240681 -3.67942169 0 0 Z M-31.00390625 7.18359375 C-35.18560348 12.6024795 -35.68293633 18.21029604 -35.44921875 24.92578125 C-34.64095926 30.83883754 -32.56842033 35.84162014 -28.11328125 39.91015625 C-26.03447481 41.47038316 -26.03447481 41.47038316 -23.00390625 43.18359375 C-22.34390625 42.19359375 -21.68390625 41.20359375 -21.00390625 40.18359375 C-20.34390625 40.51359375 -19.68390625 40.84359375 -19.00390625 41.18359375 C-16.79661395 41.25452217 -14.58723173 41.267744 -12.37890625 41.24609375 C-10.59613281 41.23255859 -10.59613281 41.23255859 -8.77734375 41.21875 C-7.86210938 41.20714844 -6.946875 41.19554687 -6.00390625 41.18359375 C-8.76842658 42.56585391 -11.05004255 42.27884762 -14.12890625 42.24609375 C-15.22460938 42.23707031 -16.3203125 42.22804687 -17.44921875 42.21875 C-18.29226562 42.20714844 -19.1353125 42.19554687 -20.00390625 42.18359375 C-19.67390625 43.17359375 -19.34390625 44.16359375 -19.00390625 45.18359375 C-10.34766301 45.79414382 -3.05883505 45.72311365 3.99609375 40.18359375 C9.91299132 33.28859679 11.36924959 27.45511894 11.26953125 18.48046875 C10.74888202 12.20292665 8.31490041 8.16780475 3.80859375 3.87109375 C-0.91828732 0.14842132 -6.09022669 -1.45219631 -12.00390625 -2.19140625 C-19.6881385 -1.23087722 -25.8257415 1.3078524 -31.00390625 7.18359375 Z " fill="#5C4E48" transform="translate(62.00390625,27.81640625)"/>
<path d="M0 0 C-0.99 1.485 -0.99 1.485 -2 3 C-4.1015625 3.15234375 -4.1015625 3.15234375 -6.625 2.9375 C-12.69603151 2.77105036 -17.0552418 4.26504646 -21.53515625 8.42578125 C-26.26680775 13.76440845 -27.4784281 18.46851999 -27.3125 25.4375 C-26.61535551 31.15408479 -24.11105457 35.31067185 -19.75 39 C-18.8425 39.66 -17.935 40.32 -17 41 C-17.33 41.99 -17.66 42.98 -18 44 C-24.40646343 40.2314921 -27.80215408 36.17703667 -30 29 C-30.92428502 22.23812537 -30.92308407 15.6819645 -27.3203125 9.7109375 C-20.10802857 0.36484176 -11.36089979 -1.96859015 0 0 Z " fill="#47B4CC" transform="translate(57,27)"/>
<path d="M0 0 C1.65 0 3.3 0 5 0 C5.19777236 3.3953164 5.38139685 6.79125692 5.5625 10.1875 C5.61857422 11.14720703 5.67464844 12.10691406 5.73242188 13.09570312 C5.78076172 14.02705078 5.82910156 14.95839844 5.87890625 15.91796875 C5.9260376 16.77156982 5.97316895 17.6251709 6.02172852 18.50463867 C5.99892429 21.12353758 5.59213206 23.45403152 5 26 C3.35 26 1.7 26 0 26 C0 17.42 0 8.84 0 0 Z " fill="#FBFBF1" transform="translate(53,37)"/>
<path d="M0 0 C1.65 0 3.3 0 5 0 C5 8.58 5 17.16 5 26 C3.35 26 1.7 26 0 26 C-0.19777236 22.6046836 -0.38139685 19.20874308 -0.5625 15.8125 C-0.61857422 14.85279297 -0.67464844 13.89308594 -0.73242188 12.90429688 C-0.78076172 11.97294922 -0.82910156 11.04160156 -0.87890625 10.08203125 C-0.9260376 9.22843018 -0.97316895 8.3748291 -1.02172852 7.49536133 C-0.99892429 4.87646242 -0.59213206 2.54596848 0 0 Z " fill="#FBFBF1" transform="translate(42,37)"/>
<path d="M0 0 C3 0.125 3 0.125 4 1.125 C4.125 4.125 4.125 4.125 4 7.125 C3 8.125 3 8.125 0 8.25 C-3 8.125 -3 8.125 -4 7.125 C-4.125 4.125 -4.125 4.125 -4 1.125 C-3 0.125 -3 0.125 0 0 Z " fill="#F0BB19" transform="translate(83,10.875)"/>
<path d="M0 0 C2.5625 0.1875 2.5625 0.1875 4.5625 2.1875 C4.00694444 6.74305556 4.00694444 6.74305556 2.5625 8.1875 C0.0625 8.3125 0.0625 8.3125 -2.4375 8.1875 C-3.4375 7.1875 -3.4375 7.1875 -3.5625 4.1875 C-3.39891479 0.26145498 -3.39891479 0.26145498 0 0 Z " fill="#FACD5A" transform="translate(14.4375,58.8125)"/>
<path d="M0 0 C-2.38953566 2.76683076 -4.53050164 3.88205053 -8 5 C-11.33203125 5.1953125 -11.33203125 5.1953125 -14.8125 5.125 C-15.97394531 5.10695313 -17.13539062 5.08890625 -18.33203125 5.0703125 C-19.21246094 5.04710938 -20.09289063 5.02390625 -21 5 C-21.33 4.01 -21.66 3.02 -22 2 C-21.21496094 2.03480469 -20.42992187 2.06960937 -19.62109375 2.10546875 C-13.72447617 2.25740614 -4.74032712 -1.58010904 0 0 Z " fill="#47B7D0" transform="translate(64,68)"/>
<path d="M0 0 C0.99 0.33 1.98 0.66 3 1 C3.4485551 9.17367067 3.40744316 14.97563746 -1 22 C-1.66 21.67 -2.32 21.34 -3 21 C-2.69320312 20.30519531 -2.38640625 19.61039063 -2.0703125 18.89453125 C-0.93099536 15.81338527 -0.37401091 12.93107092 0.125 9.6875 C0.29257813 8.61886719 0.46015625 7.55023438 0.6328125 6.44921875 C0.75398438 5.64097656 0.87515625 4.83273438 1 4 C0.34 3.67 -0.32 3.34 -1 3 C-0.67 2.01 -0.34 1.02 0 0 Z " fill="#47B9D2" transform="translate(70,42)"/>
<path d="M0 0 C0.52722656 0.16242188 1.05445313 0.32484375 1.59765625 0.4921875 C4.58749272 1.12418545 7.38236962 1.13206389 10.4375 1.125 C11.54996094 1.12757812 12.66242187 1.13015625 13.80859375 1.1328125 C16.66377492 1.01399223 19.22507946 0.65353269 22 0 C19.77905037 2.55409208 18.30215326 3.3775115 15 4 C13.48123046 4.08949422 11.95889529 4.13014855 10.4375 4.125 C9.29087891 4.12886719 9.29087891 4.12886719 8.12109375 4.1328125 C6 4 6 4 3 3 C2.67 3.66 2.34 4.32 2 5 C1.34 3.35 0.68 1.7 0 0 Z " fill="#47707B" transform="translate(39,67)"/>
<path d="M0 0 C0.66 0.66 1.32 1.32 2 2 C1.625 4.125 1.625 4.125 1 6 C-0.875 6.625 -0.875 6.625 -3 7 C-3.66 6.34 -4.32 5.68 -5 5 C-3.35 3.35 -1.7 1.7 0 0 Z " fill="#478A9A" transform="translate(66,61)"/>
<path d="M0 0 C3.35595828 0.59927826 5.37801226 1.84622436 8 4 C7.67 4.99 7.34 5.98 7 7 C5.82780457 6.21654285 4.66236332 5.42297164 3.5 4.625 C2.8503125 4.18414062 2.200625 3.74328125 1.53125 3.2890625 C1.0259375 2.86367187 0.520625 2.43828125 0 2 C0 1.34 0 0.68 0 0 Z " fill="#47B1C9" transform="translate(32,64)"/>
<path d="M0 0 C1.98 0.495 1.98 0.495 4 1 C3.67 2.32 3.34 3.64 3 5 C1.68 4.67 0.36 4.34 -1 4 C-0.67 2.68 -0.34 1.36 0 0 Z " fill="#FEFBF4" transform="translate(17,51)"/>
<path d="M0 0 C1.32 0 2.64 0 4 0 C4 1.32 4 2.64 4 4 C2.68 4 1.36 4 0 4 C0 2.68 0 1.36 0 0 Z " fill="#ED3D53" transform="translate(23,85)"/>
<path d="M0 0 C1.32 0 2.64 0 4 0 C4 1.32 4 2.64 4 4 C2.68 4 1.36 4 0 4 C0 2.68 0 1.36 0 0 Z " fill="#ED3D53" transform="translate(11,27)"/>
<path d="M0 0 C1.32 0 2.64 0 4 0 C4 1.32 4 2.64 4 4 C2.68 4 1.36 4 0 4 C0 2.68 0 1.36 0 0 Z " fill="#ED3D53" transform="translate(85,22)"/>
<path d="M0 0 C0.66 0 1.32 0 2 0 C2 0.66 2 1.32 2 2 C1.34 2 0.68 2 0 2 C0 1.34 0 0.68 0 0 Z " fill="#F0BB18" transform="translate(76,12)"/>
</svg>
