<?xml version="1.0" encoding="UTF-8"?>
<svg version="1.1" xmlns="http://www.w3.org/2000/svg" width="64" height="64">
<path d="M0 0 C6.22957981 0.26422361 11.31989853 3.49711449 16.6875 6.375 C17.69248535 6.90939697 18.6974707 7.44379395 19.73291016 7.99438477 C22.82876235 9.65059496 25.91499881 11.32367966 29 13 C29.96083496 13.51578613 30.92166992 14.03157227 31.91162109 14.56298828 C34.57783287 16.00093994 37.22851526 17.46361866 39.875 18.9375 C40.68283936 19.37304199 41.49067871 19.80858398 42.32299805 20.25732422 C47.76994594 23.357097 47.76994594 23.357097 49.0078125 26.81640625 C49.00523438 27.53699219 49.00265625 28.25757812 49 29 C42.59863734 33.11461542 36.01765513 36.78045128 29.3125 40.375 C27.17691862 41.52052631 25.04150059 42.66635722 22.90625 43.8125 C21.88789063 44.3590625 20.86953125 44.905625 19.8203125 45.46875 C17.43524343 46.76369055 15.07151114 48.08512549 12.71875 49.4375 C11.5946875 50.076875 10.470625 50.71625 9.3125 51.375 C7.91451172 52.19097656 7.91451172 52.19097656 6.48828125 53.0234375 C3.50718092 54.19341408 2.0526604 53.7305023 -1 53 C-1.02526692 45.61271898 -1.0428316 38.22544902 -1.05493164 30.83813477 C-1.05997363 28.32283105 -1.06680703 25.80753028 -1.07543945 23.29223633 C-1.08751094 19.68570225 -1.09322949 16.07920677 -1.09765625 12.47265625 C-1.10281754 11.34038101 -1.10797882 10.20810577 -1.11329651 9.04151917 C-1.11337204 8.00051559 -1.11344757 6.95951202 -1.11352539 5.88696289 C-1.115746 4.96540909 -1.11796661 4.04385529 -1.12025452 3.09437561 C-1 1 -1 1 0 0 Z " fill="#74C1AD" transform="translate(7,5)"/>
<path d="M0 0 C6.22957981 0.26422361 11.31989853 3.49711449 16.6875 6.375 C17.69248535 6.90939697 18.6974707 7.44379395 19.73291016 7.99438477 C22.82876235 9.65059496 25.91499881 11.32367966 29 13 C29.96083496 13.51578613 30.92166992 14.03157227 31.91162109 14.56298828 C34.57783287 16.00093994 37.22851526 17.46361866 39.875 18.9375 C40.68283936 19.37304199 41.49067871 19.80858398 42.32299805 20.25732422 C47.76994594 23.357097 47.76994594 23.357097 49.0078125 26.81640625 C49.00523438 27.53699219 49.00265625 28.25757812 49 29 C42.59863734 33.11461542 36.01765513 36.78045128 29.3125 40.375 C27.17691862 41.52052631 25.04150059 42.66635722 22.90625 43.8125 C21.88789063 44.3590625 20.86953125 44.905625 19.8203125 45.46875 C17.43524343 46.76369055 15.07151114 48.08512549 12.71875 49.4375 C11.5946875 50.076875 10.470625 50.71625 9.3125 51.375 C7.91451172 52.19097656 7.91451172 52.19097656 6.48828125 53.0234375 C3.50718092 54.19341408 2.0526604 53.7305023 -1 53 C-1.02526692 45.61271898 -1.0428316 38.22544902 -1.05493164 30.83813477 C-1.05997363 28.32283105 -1.06680703 25.80753028 -1.07543945 23.29223633 C-1.08751094 19.68570225 -1.09322949 16.07920677 -1.09765625 12.47265625 C-1.10281754 11.34038101 -1.10797882 10.20810577 -1.11329651 9.04151917 C-1.11337204 8.00051559 -1.11344757 6.95951202 -1.11352539 5.88696289 C-1.115746 4.96540909 -1.11796661 4.04385529 -1.12025452 3.09437561 C-1 1 -1 1 0 0 Z M1 3 C1 18.84 1 34.68 1 51 C2.485 50.505 2.485 50.505 4 50 C3.67 49.34 3.34 48.68 3 48 C3.68610352 48.23154785 4.37220703 48.4630957 5.07910156 48.70166016 C8.9957327 49.10170389 11.42599619 47.63843272 14.734375 45.7734375 C15.37183655 45.4287442 16.0092981 45.0840509 16.66607666 44.72891235 C18.70159435 43.62416132 20.72563044 42.50002481 22.75 41.375 C24.0956462 40.64062833 25.44199469 39.90754198 26.7890625 39.17578125 C30.53617517 37.13519576 34.269478 35.07076474 38 33 C39.46469727 32.18837402 39.46469727 32.18837402 40.95898438 31.36035156 C42.97390056 30.24244387 44.98775861 29.12271273 47 28 C47 27.34 47 26.68 47 26 C46.20940186 25.57702637 45.41880371 25.15405273 44.60424805 24.71826172 C41.6164296 23.11949187 38.6288258 21.52032225 35.64135742 19.92089844 C34.35856302 19.23421954 33.075688 18.54769122 31.79272461 17.86132812 C30.54647625 17.19458282 29.30039199 16.52753068 28.05447388 15.86016846 C26.81805617 15.19840543 25.58097448 14.53788147 24.3432312 13.87860107 C21.47329909 12.34607542 18.62651427 10.78607431 15.80322266 9.16894531 C14.84335449 8.62077148 13.88348633 8.07259766 12.89453125 7.5078125 C12.0641333 7.02199707 11.23373535 6.53618164 10.37817383 6.03564453 C7.73027603 4.8825409 5.8574751 4.79587192 3 5 C3 4.34 3 3.68 3 3 C2.34 3 1.68 3 1 3 Z " fill="#8D6EA0" transform="translate(7,5)"/>
<path d="M0 0 C0.66 0 1.32 0 2 0 C2 0.66 2 1.32 2 2 C2.66 2 3.32 2 4 2 C4 2.99 4 3.98 4 5 C3.34 5 2.68 5 2 5 C2 5.66 2 6.32 2 7 C2.66 7 3.32 7 4 7 C4 7.99 4 8.98 4 10 C3.34 10 2.68 10 2 10 C2 10.66 2 11.32 2 12 C2.66 12 3.32 12 4 12 C4 12.99 4 13.98 4 15 C3.34 15 2.68 15 2 15 C2 15.66 2 16.32 2 17 C2.66 17 3.32 17 4 17 C4 17.99 4 18.98 4 20 C3.34 20 2.68 20 2 20 C2 20.66 2 21.32 2 22 C2.66 22 3.32 22 4 22 C4 22.99 4 23.98 4 25 C3.34 25 2.68 25 2 25 C2 25.66 2 26.32 2 27 C2.66 27 3.32 27 4 27 C4 27.99 4 28.98 4 30 C3.34 30 2.68 30 2 30 C2 30.66 2 31.32 2 32 C2.66 32 3.32 32 4 32 C4 32.99 4 33.98 4 35 C3.34 35 2.68 35 2 35 C2 35.66 2 36.32 2 37 C2.66 37 3.32 37 4 37 C4 37.99 4 38.98 4 40 C3.34 40 2.68 40 2 40 C2 40.66 2 41.32 2 42 C2.66 42 3.32 42 4 42 C4 42.99 4 43.98 4 45 C3.34 45 2.68 45 2 45 C2.33 45.99 2.66 46.98 3 48 C2.01 48 1.02 48 0 48 C0 32.16 0 16.32 0 0 Z " fill="#96DFBA" transform="translate(8,8)"/>
<path d="M0 0 C-17.76632302 11 -17.76632302 11 -22 11 C-22 10.34 -22 9.68 -22 9 C-18.90454428 7.29614072 -15.79740166 5.61482602 -12.6875 3.9375 C-11.80642578 3.45216797 -10.92535156 2.96683594 -10.01757812 2.46679688 C-9.17001953 2.01240234 -8.32246094 1.55800781 -7.44921875 1.08984375 C-6.66893311 0.66566162 -5.88864746 0.24147949 -5.0847168 -0.19555664 C-3 -1 -3 -1 0 0 Z " fill="#887AA1" transform="translate(39,38)"/>
</svg>
