<?xml version="1.0" standalone="no"?>
<!DOCTYPE svg PUBLIC "-//W3C//DTD SVG 20010904//EN"
 "http://www.w3.org/TR/2001/REC-SVG-20010904/DTD/svg10.dtd">
<svg version="1.0" xmlns="http://www.w3.org/2000/svg"
 width="64.000000pt" height="64.000000pt" viewBox="0 0 64.000000 64.000000"
 preserveAspectRatio="xMidYMid meet">

<g transform="translate(0.000000,64.000000) scale(0.100000,-0.100000)"
fill="#000000" stroke="none">
<path d="M290 512 c-8 -3 -35 -21 -58 -40 -35 -29 -56 -37 -105 -43 -82 -10
-97 -28 -97 -120 0 -88 17 -109 89 -109 45 0 55 -5 108 -50 62 -53 82 -59 107
-34 13 13 16 44 16 185 0 94 -4 178 -10 188 -11 22 -29 30 -50 23z m-10 -202
c0 -55 -4 -100 -9 -100 -5 0 -23 12 -40 26 -26 22 -31 33 -31 72 0 41 4 51 32
74 18 15 36 28 41 28 4 0 7 -45 7 -100z m-112 3 l3 -43 -35 0 c-35 0 -36 1
-36 38 0 46 6 54 40 50 22 -3 25 -8 28 -45z"/>
<path d="M497 513 c-12 -11 -8 -36 15 -82 33 -67 36 -154 8 -218 -27 -63 -24
-88 10 -88 58 0 102 179 70 281 -26 82 -76 134 -103 107z"/>
<path d="M412 423 c-5 -10 -6 -27 -1 -38 11 -28 11 -127 0 -144 -6 -9 -6 -22
0 -34 15 -26 51 -18 67 16 17 35 18 131 2 172 -18 46 -52 60 -68 28z"/>
</g>
</svg>
