<?xml version="1.0" standalone="no"?>
<!DOCTYPE svg PUBLIC "-//W3C//DTD SVG 20010904//EN"
 "http://www.w3.org/TR/2001/REC-SVG-20010904/DTD/svg10.dtd">
<svg version="1.0" xmlns="http://www.w3.org/2000/svg"
 width="64.000000pt" height="64.000000pt" viewBox="0 0 64.000000 64.000000"
 preserveAspectRatio="xMidYMid meet">

<g transform="translate(0.000000,64.000000) scale(0.100000,-0.100000)"
fill="#000000" stroke="none">
<path d="M351 603 c-6 -21 -40 -157 -76 -303 -36 -146 -68 -273 -71 -282 -4
-13 0 -18 15 -18 15 0 23 10 30 38 6 20 40 156 76 302 36 146 68 273 71 283 4
12 0 17 -15 17 -15 0 -23 -10 -30 -37z"/>
<path d="M487 531 c-3 -12 -17 -21 -41 -25 -34 -7 -56 -29 -43 -43 4 -3 33 1
66 9 33 9 63 13 66 10 7 -7 7 -317 0 -324 -3 -3 -49 5 -102 19 -77 19 -98 22
-104 11 -15 -22 -11 -24 72 -43 61 -14 83 -24 87 -37 3 -14 14 -18 48 -18 l44
0 0 230 0 230 -44 0 c-34 0 -45 -4 -49 -19z"/>
<path d="M235 455 c-5 -2 -29 -9 -52 -15 l-43 -11 0 -109 0 -109 33 -9 c25 -7
33 -5 38 7 4 10 0 19 -12 25 -16 8 -19 21 -19 87 l0 79 45 11 c33 8 45 16 45
30 0 18 -12 22 -35 14z"/>
<path d="M53 409 l-33 -10 0 -79 c0 -85 -5 -78 63 -96 15 -5 17 4 17 95 0 56
-3 101 -7 100 -5 0 -23 -5 -40 -10z"/>
</g>
</svg>
