<?xml version="1.0" encoding="UTF-8"?>
<svg version="1.1" xmlns="http://www.w3.org/2000/svg" width="512" height="512">
<path d="M0 0 C0.67115048 -0.00297112 1.34230096 -0.00594224 2.03378934 -0.0090034 C4.2640909 -0.01761701 6.49433832 -0.01919242 8.72465515 -0.02069092 C10.33193067 -0.02532457 11.9392051 -0.03034996 13.54647827 -0.03573608 C17.90250493 -0.04881579 22.2585162 -0.05529723 26.61455941 -0.05974674 C29.34397538 -0.06268672 32.07338724 -0.0667934 34.80280113 -0.07125092 C43.36501142 -0.08491878 51.9272122 -0.09458697 60.48943263 -0.09845281 C70.33004124 -0.10292159 80.17051011 -0.12041746 90.01107627 -0.1494534 C97.64371018 -0.17118185 105.27630512 -0.18116312 112.90896958 -0.18249393 C117.45457895 -0.18353468 122.00005688 -0.18928424 126.54563332 -0.20731354 C130.83276314 -0.22398679 135.11966547 -0.22585812 139.40681648 -0.21717453 C140.9650611 -0.21641412 142.52331894 -0.22061203 144.08153152 -0.23063278 C158.90883007 -0.32025486 173.54285611 1.37041852 187.6023407 6.32794189 C188.47785583 6.62982422 189.35337097 6.93170654 190.25541687 7.24273682 C198.54135355 10.18846169 206.33439876 13.80188054 213.9773407 18.14044189 C214.9963446 18.71882813 214.9963446 18.71882813 216.03593445 19.30889893 C223.38464232 23.54945917 229.92403784 27.85813287 235.9773407 33.82794189 C239.70426855 37.50477539 239.70426855 37.50477539 244.7273407 38.45294189 C246.15597409 38.05625898 247.57145879 37.61144801 248.9773407 37.14044189 C257.77789572 34.93752167 266.11031292 33.80977768 275.1648407 33.70294189 C276.07387146 33.68094727 276.98290222 33.65895264 277.91947937 33.6362915 C284.29458428 33.65603979 284.29458428 33.65603979 287.5320282 35.95294189 C289.58579278 39.06134235 289.91231732 41.43410951 289.9773407 45.14044189 C288.82592869 47.87504541 287.18102487 49.88129674 285.35624695 52.20294189 C284.75683289 52.96606689 284.15741882 53.72919189 283.5398407 54.51544189 C282.9314032 55.28501221 282.3229657 56.05458252 281.6960907 56.84747314 C279.47179011 59.81489234 277.71723467 62.86944122 275.9773407 66.14044189 C276.88355164 66.29899658 277.78976257 66.45755127 278.72343445 66.62091064 C286.30120034 68.07231342 292.62441139 69.69721077 298.9773407 74.14044189 C299.58964539 74.55938721 300.20195007 74.97833252 300.83280945 75.40997314 C307.78385741 80.73450657 312.6574956 88.76261267 314.9773407 97.14044189 C315.3132782 99.77325439 315.3132782 99.77325439 315.3523407 102.26544189 C315.38070007 103.09302002 315.40905945 103.92059814 315.4382782 104.77325439 C314.76792819 108.21589933 313.89415313 109.14541143 310.9773407 111.14044189 C307.51348154 112.0342433 304.02857628 112.43523403 300.4773407 112.82794189 C298.59173555 113.059485 296.70631072 113.29250246 294.8210907 113.52716064 C293.98771179 113.62214844 293.15433289 113.71713623 292.29570007 113.81500244 C290.13219761 114.11870387 288.08369835 114.56749565 285.9773407 115.14044189 C286.03792664 115.79528564 286.09851257 116.45012939 286.16093445 117.12481689 C286.33915052 119.06600115 286.51469926 121.00743125 286.6882782 122.94903564 C286.87256577 124.9836701 287.06447168 127.01763899 287.2664032 129.05059814 C288.54738241 142.64727746 287.79595652 155.76415195 286.1023407 169.26544189 C285.89218766 171.00074068 285.6824907 172.73609475 285.47319031 174.47149658 C283.98512676 186.66280329 282.35194239 198.83384606 280.69863892 211.003582 C280.34839887 213.58601674 279.99988279 216.1686779 279.65202332 218.75143433 C279.53657543 219.60844877 279.42112755 220.46546322 279.30218124 221.3484478 C279.0681075 223.08638789 278.83412179 224.82433983 278.60022354 226.56230354 C277.89825414 231.76793603 277.18249728 236.97145689 276.45703411 242.17386436 C276.00050385 245.46745327 275.55530706 248.76250742 275.11282539 252.0580101 C274.90200325 253.60942283 274.68632508 255.16018428 274.46552849 256.71020889 C274.16059959 258.85503835 273.87284288 261.00153552 273.58891296 263.14923096 C273.42190384 264.35935852 273.25489471 265.56948608 273.08282471 266.81628418 C272.89645458 272.68943707 275.45351092 277.34770806 277.99687195 282.52325439 C278.29130188 283.12601196 278.58573181 283.72876953 278.88908386 284.34979248 C279.52238296 285.64606754 280.15720476 286.9415996 280.79341125 288.2364502 C282.50969257 291.73124911 284.21296254 295.23236098 285.9148407 298.73419189 C286.26114029 299.44661041 286.60743988 300.15902893 286.9642334 300.89303589 C290.15700712 307.47861638 293.23453585 314.11505679 296.2898407 320.76544189 C301.44431625 331.97011801 306.80830683 343.06202219 312.2273407 354.14044189 C322.10344278 374.34721929 322.10344278 374.34721929 326.4773407 384.01544189 C326.82055359 384.76825439 327.16376648 385.52106689 327.51737976 386.29669189 C333.04223377 398.70582771 334.45957605 413.68478878 330.3523407 426.82794189 C324.05972194 442.26349453 313.78146795 452.68898772 298.3992157 459.23809814 C284.69594147 463.75681587 268.95065075 462.14114383 256.2039032 455.74981689 C241.62995733 447.43435229 234.22841947 435.34063345 227.9773407 420.14044189 C227.9773407 419.48044189 227.9773407 418.82044189 227.9773407 418.14044189 C223.12337952 422.27147268 218.5165513 426.52140577 214.12968445 431.14825439 C211.9773407 433.14044189 211.9773407 433.14044189 210.26268005 434.10986328 C206.42471836 436.33437657 206.42471836 436.33437657 204.34869385 440.09561157 C204.137089 442.49262586 204.13855609 444.80559889 204.21562195 447.21075439 C204.21281723 448.08762909 204.21001251 448.96450378 204.2071228 449.86795044 C204.20185343 452.6683665 204.24233846 455.46546202 204.2898407 458.26544189 C204.48854216 475.67836355 203.78510119 487.99564106 191.09843445 501.07794189 C182.88473036 508.77725239 174.23003001 512.26643587 163.09843445 512.37872314 C162.33112503 512.38679489 161.56381561 512.39486664 160.77325439 512.40318298 C159.14851619 512.41699358 157.52374935 512.42772923 155.89897156 512.43560791 C154.25532894 512.44707706 152.61172207 512.46744788 150.9683075 512.49713135 C136.54633255 512.7572879 125.27453224 510.9339117 113.9773407 501.14044189 C105.62914217 492.24849097 100.9773407 482.38383967 100.9773407 470.14044189 C84.4773407 470.14044189 67.9773407 470.14044189 50.9773407 470.14044189 C50.6473407 473.44044189 50.3173407 476.74044189 49.9773407 480.14044189 C47.34578287 489.97841963 41.53196426 499.45828827 32.9773407 505.14044189 C24.73600393 509.75385775 18.53413767 512.28354277 9.09843445 512.37872314 C8.33112503 512.38679489 7.56381561 512.39486664 6.77325439 512.40318298 C5.14851619 512.41699358 3.52374935 512.42772923 1.89897156 512.43560791 C0.25532894 512.44707706 -1.38827793 512.46744788 -3.0316925 512.49713135 C-16.66089484 512.74298716 -27.39518984 511.47904804 -38.0226593 502.14044189 C-38.62851868 501.63899658 -39.23437805 501.13755127 -39.8585968 500.62091064 C-49.25927128 492.18493421 -51.91770295 481.28445976 -53.0226593 469.14044189 C-53.28964165 463.51704768 -53.21548921 457.89276438 -53.1476593 452.26544189 C-53.13759259 450.78758349 -53.12847337 449.30971832 -53.12031555 447.83184814 C-53.09863301 444.26790161 -53.06431466 440.70421774 -53.0226593 437.14044189 C-53.63456116 436.85 -54.24646301 436.55955811 -54.87690735 436.26031494 C-57.59379924 434.8423626 -59.57523246 433.02068598 -61.8351593 430.95294189 C-62.70785461 430.15501221 -63.58054993 429.35708252 -64.47969055 428.53497314 C-67.27234862 425.90532737 -69.98713045 423.21579878 -72.6476593 420.45294189 C-74.00887403 419.02479876 -74.00887403 419.02479876 -76.0226593 418.14044189 C-76.28820618 418.99122314 -76.55375305 419.84200439 -76.8273468 420.71856689 C-81.81594715 434.9996581 -89.59461495 447.56910555 -103.0226593 455.14044189 C-116.27204367 461.50874774 -130.60117121 463.6115592 -144.9601593 459.57794189 C-160.2471447 454.09079978 -170.25378886 443.91108748 -177.2804718 429.57403564 C-179.9557548 422.99807779 -180.42933983 416.65619994 -180.5226593 409.64044189 C-180.55045471 408.35979858 -180.55045471 408.35979858 -180.57881165 407.05328369 C-180.45112791 393.88057816 -173.95600652 382.33445025 -168.3445282 370.7421875 C-166.62341675 367.18652232 -164.91795086 363.62342619 -163.21151733 360.06069946 C-162.35335834 358.26933099 -161.49442445 356.47833352 -160.63470459 354.68771362 C-157.10079759 347.32368862 -153.6359336 339.93037612 -150.2101593 332.51544189 C-149.45098206 330.87418335 -149.45098206 330.87418335 -148.6764679 329.19976807 C-147.65750324 326.99667601 -146.63878566 324.79346965 -145.62031555 322.59014893 C-142.96599519 316.85886124 -140.29518254 311.13529949 -137.62345886 305.41210938 C-136.72381385 303.48223299 -135.8270896 301.55102466 -134.93110657 299.6194458 C-132.4703987 294.32208557 -129.99720001 289.03767414 -127.36250305 283.82403564 C-126.98069885 283.05728516 -126.59889465 282.29053467 -126.20552063 281.50054932 C-125.5387094 280.17046636 -124.85688883 278.8477037 -124.1542511 277.53619385 C-120.24657876 269.68700232 -122.03574702 260.55978862 -123.20014954 252.18365479 C-123.32533966 251.24401382 -123.45052979 250.30437286 -123.57951355 249.33625793 C-123.99069138 246.26102148 -124.41099549 243.1871057 -124.83125305 240.11309814 C-125.12096003 237.95664403 -125.41001677 235.80010247 -125.69845581 233.64347839 C-126.45690559 227.98351464 -127.22278683 222.32458335 -127.99067688 216.66589355 C-129.21780594 207.61446072 -130.43405977 198.5615628 -131.64941597 189.50854301 C-132.07290143 186.36263901 -132.49984202 183.21721904 -132.92730713 180.07185364 C-133.19021252 178.12345479 -133.45303905 176.1750453 -133.71577454 174.22662354 C-133.83373886 173.36550964 -133.95170319 172.50439575 -134.07324219 171.6171875 C-136.64411497 152.46175418 -136.01565902 134.30716264 -134.0226593 115.14044189 C-140.48165604 113.57342739 -146.80166702 112.61319341 -153.42304993 112.10528564 C-156.70271568 111.77004498 -158.78410201 111.31393811 -161.47187805 109.35919189 C-164.20196061 105.45317957 -163.66120441 101.71558467 -163.0226593 97.14044189 C-160.26083063 86.43631301 -153.38659971 77.86382229 -144.0226593 72.14044189 C-137.63863521 68.57808591 -131.22077585 67.16297808 -124.0226593 66.14044189 C-128.68557262 58.40682487 -128.68557262 58.40682487 -134.3976593 51.45294189 C-137.66807547 47.81525974 -138.0226593 45.00005162 -138.0226593 40.14044189 C-136.93695647 36.70238291 -136.12878718 36.21119381 -133.0226593 34.14044189 C-129.85426206 33.67616499 -126.65903129 33.76088834 -123.4601593 33.76544189 C-122.06507141 33.7635083 -122.06507141 33.7635083 -120.64179993 33.76153564 C-112.6843902 33.88054517 -105.38105977 35.25060825 -97.7101593 37.26544189 C-93.3765559 38.36083789 -93.3765559 38.36083789 -89.0226593 38.14044189 C-86.5026338 36.26095699 -86.5026338 36.26095699 -84.0851593 33.70294189 C-62.98840891 13.3843355 -29.19540454 0.07271688 0 0 Z " fill="#FBBF07" transform="translate(180.0226593017578,-0.14044189453125)"/>
<path d="M0 0 C0.67115048 -0.00297112 1.34230096 -0.00594224 2.03378934 -0.0090034 C4.2640909 -0.01761701 6.49433832 -0.01919242 8.72465515 -0.02069092 C10.33193067 -0.02532457 11.9392051 -0.03034996 13.54647827 -0.03573608 C17.90250493 -0.04881579 22.2585162 -0.05529723 26.61455941 -0.05974674 C29.34397538 -0.06268672 32.07338724 -0.0667934 34.80280113 -0.07125092 C43.36501142 -0.08491878 51.9272122 -0.09458697 60.48943263 -0.09845281 C70.33004124 -0.10292159 80.17051011 -0.12041746 90.01107627 -0.1494534 C97.64371018 -0.17118185 105.27630512 -0.18116312 112.90896958 -0.18249393 C117.45457895 -0.18353468 122.00005688 -0.18928424 126.54563332 -0.20731354 C130.83276314 -0.22398679 135.11966547 -0.22585812 139.40681648 -0.21717453 C140.9650611 -0.21641412 142.52331894 -0.22061203 144.08153152 -0.23063278 C158.90883007 -0.32025486 173.54285611 1.37041852 187.6023407 6.32794189 C188.47785583 6.62982422 189.35337097 6.93170654 190.25541687 7.24273682 C198.54135355 10.18846169 206.33439876 13.80188054 213.9773407 18.14044189 C214.9963446 18.71882813 214.9963446 18.71882813 216.03593445 19.30889893 C223.38464232 23.54945917 229.92403784 27.85813287 235.9773407 33.82794189 C239.70426855 37.50477539 239.70426855 37.50477539 244.7273407 38.45294189 C246.15597409 38.05625898 247.57145879 37.61144801 248.9773407 37.14044189 C257.77789572 34.93752167 266.11031292 33.80977768 275.1648407 33.70294189 C276.07387146 33.68094727 276.98290222 33.65895264 277.91947937 33.6362915 C284.29458428 33.65603979 284.29458428 33.65603979 287.5320282 35.95294189 C289.58579278 39.06134235 289.91231732 41.43410951 289.9773407 45.14044189 C288.82592869 47.87504541 287.18102487 49.88129674 285.35624695 52.20294189 C284.75683289 52.96606689 284.15741882 53.72919189 283.5398407 54.51544189 C282.9314032 55.28501221 282.3229657 56.05458252 281.6960907 56.84747314 C279.47179011 59.81489234 277.71723467 62.86944122 275.9773407 66.14044189 C276.88355164 66.29899658 277.78976257 66.45755127 278.72343445 66.62091064 C286.30120034 68.07231342 292.62441139 69.69721077 298.9773407 74.14044189 C299.58964539 74.55938721 300.20195007 74.97833252 300.83280945 75.40997314 C307.78385741 80.73450657 312.6574956 88.76261267 314.9773407 97.14044189 C315.3132782 99.77325439 315.3132782 99.77325439 315.3523407 102.26544189 C315.38070007 103.09302002 315.40905945 103.92059814 315.4382782 104.77325439 C314.76792819 108.21589933 313.89415313 109.14541143 310.9773407 111.14044189 C307.51348154 112.0342433 304.02857628 112.43523403 300.4773407 112.82794189 C298.59173555 113.059485 296.70631072 113.29250246 294.8210907 113.52716064 C293.98771179 113.62214844 293.15433289 113.71713623 292.29570007 113.81500244 C290.13219761 114.11870387 288.08369835 114.56749565 285.9773407 115.14044189 C286.03792664 115.79528564 286.09851257 116.45012939 286.16093445 117.12481689 C286.33915052 119.06600115 286.51469926 121.00743125 286.6882782 122.94903564 C286.87256577 124.9836701 287.06447168 127.01763899 287.2664032 129.05059814 C288.54738241 142.64727746 287.79595652 155.76415195 286.1023407 169.26544189 C285.89218766 171.00074068 285.6824907 172.73609475 285.47319031 174.47149658 C283.98512676 186.66280329 282.35194239 198.83384606 280.69863892 211.003582 C280.34839887 213.58601674 279.99988279 216.1686779 279.65202332 218.75143433 C279.53657543 219.60844877 279.42112755 220.46546322 279.30218124 221.3484478 C279.0681075 223.08638789 278.83412179 224.82433983 278.60022354 226.56230354 C277.89825414 231.76793603 277.18249728 236.97145689 276.45703411 242.17386436 C276.00050385 245.46745327 275.55530706 248.76250742 275.11282539 252.0580101 C274.90200325 253.60942283 274.68632508 255.16018428 274.46552849 256.71020889 C274.16059959 258.85503835 273.87284288 261.00153552 273.58891296 263.14923096 C273.42190384 264.35935852 273.25489471 265.56948608 273.08282471 266.81628418 C272.89645458 272.68943707 275.45351092 277.34770806 277.99687195 282.52325439 C278.29130188 283.12601196 278.58573181 283.72876953 278.88908386 284.34979248 C279.52238296 285.64606754 280.15720476 286.9415996 280.79341125 288.2364502 C282.50969257 291.73124911 284.21296254 295.23236098 285.9148407 298.73419189 C286.26114029 299.44661041 286.60743988 300.15902893 286.9642334 300.89303589 C290.15700712 307.47861638 293.23453585 314.11505679 296.2898407 320.76544189 C301.44431625 331.97011801 306.80830683 343.06202219 312.2273407 354.14044189 C322.10344278 374.34721929 322.10344278 374.34721929 326.4773407 384.01544189 C326.82055359 384.76825439 327.16376648 385.52106689 327.51737976 386.29669189 C333.04223377 398.70582771 334.45957605 413.68478878 330.3523407 426.82794189 C324.05972194 442.26349453 313.78146795 452.68898772 298.3992157 459.23809814 C284.69594147 463.75681587 268.95065075 462.14114383 256.2039032 455.74981689 C241.62995733 447.43435229 234.22841947 435.34063345 227.9773407 420.14044189 C227.9773407 419.48044189 227.9773407 418.82044189 227.9773407 418.14044189 C223.12337952 422.27147268 218.5165513 426.52140577 214.12968445 431.14825439 C211.9773407 433.14044189 211.9773407 433.14044189 210.26268005 434.10986328 C206.42471836 436.33437657 206.42471836 436.33437657 204.34869385 440.09561157 C204.137089 442.49262586 204.13855609 444.80559889 204.21562195 447.21075439 C204.21281723 448.08762909 204.21001251 448.96450378 204.2071228 449.86795044 C204.20185343 452.6683665 204.24233846 455.46546202 204.2898407 458.26544189 C204.48854216 475.67836355 203.78510119 487.99564106 191.09843445 501.07794189 C182.88473036 508.77725239 174.23003001 512.26643587 163.09843445 512.37872314 C162.33112503 512.38679489 161.56381561 512.39486664 160.77325439 512.40318298 C159.14851619 512.41699358 157.52374935 512.42772923 155.89897156 512.43560791 C154.25532894 512.44707706 152.61172207 512.46744788 150.9683075 512.49713135 C136.54633255 512.7572879 125.27453224 510.9339117 113.9773407 501.14044189 C105.62914217 492.24849097 100.9773407 482.38383967 100.9773407 470.14044189 C84.4773407 470.14044189 67.9773407 470.14044189 50.9773407 470.14044189 C50.6473407 473.44044189 50.3173407 476.74044189 49.9773407 480.14044189 C47.34578287 489.97841963 41.53196426 499.45828827 32.9773407 505.14044189 C24.73600393 509.75385775 18.53413767 512.28354277 9.09843445 512.37872314 C8.33112503 512.38679489 7.56381561 512.39486664 6.77325439 512.40318298 C5.14851619 512.41699358 3.52374935 512.42772923 1.89897156 512.43560791 C0.25532894 512.44707706 -1.38827793 512.46744788 -3.0316925 512.49713135 C-16.66089484 512.74298716 -27.39518984 511.47904804 -38.0226593 502.14044189 C-38.62851868 501.63899658 -39.23437805 501.13755127 -39.8585968 500.62091064 C-49.25927128 492.18493421 -51.91770295 481.28445976 -53.0226593 469.14044189 C-53.28964165 463.51704768 -53.21548921 457.89276438 -53.1476593 452.26544189 C-53.13759259 450.78758349 -53.12847337 449.30971832 -53.12031555 447.83184814 C-53.09863301 444.26790161 -53.06431466 440.70421774 -53.0226593 437.14044189 C-53.63456116 436.85 -54.24646301 436.55955811 -54.87690735 436.26031494 C-57.59379924 434.8423626 -59.57523246 433.02068598 -61.8351593 430.95294189 C-62.70785461 430.15501221 -63.58054993 429.35708252 -64.47969055 428.53497314 C-67.27234862 425.90532737 -69.98713045 423.21579878 -72.6476593 420.45294189 C-74.00887403 419.02479876 -74.00887403 419.02479876 -76.0226593 418.14044189 C-76.28820618 418.99122314 -76.55375305 419.84200439 -76.8273468 420.71856689 C-81.81594715 434.9996581 -89.59461495 447.56910555 -103.0226593 455.14044189 C-116.27204367 461.50874774 -130.60117121 463.6115592 -144.9601593 459.57794189 C-160.2471447 454.09079978 -170.25378886 443.91108748 -177.2804718 429.57403564 C-179.9557548 422.99807779 -180.42933983 416.65619994 -180.5226593 409.64044189 C-180.55045471 408.35979858 -180.55045471 408.35979858 -180.57881165 407.05328369 C-180.45112791 393.88057816 -173.95600652 382.33445025 -168.3445282 370.7421875 C-166.62341675 367.18652232 -164.91795086 363.62342619 -163.21151733 360.06069946 C-162.35335834 358.26933099 -161.49442445 356.47833352 -160.63470459 354.68771362 C-157.10079759 347.32368862 -153.6359336 339.93037612 -150.2101593 332.51544189 C-149.45098206 330.87418335 -149.45098206 330.87418335 -148.6764679 329.19976807 C-147.65750324 326.99667601 -146.63878566 324.79346965 -145.62031555 322.59014893 C-142.96599519 316.85886124 -140.29518254 311.13529949 -137.62345886 305.41210938 C-136.72381385 303.48223299 -135.8270896 301.55102466 -134.93110657 299.6194458 C-132.4703987 294.32208557 -129.99720001 289.03767414 -127.36250305 283.82403564 C-126.98069885 283.05728516 -126.59889465 282.29053467 -126.20552063 281.50054932 C-125.5387094 280.17046636 -124.85688883 278.8477037 -124.1542511 277.53619385 C-120.24657876 269.68700232 -122.03574702 260.55978862 -123.20014954 252.18365479 C-123.32533966 251.24401382 -123.45052979 250.30437286 -123.57951355 249.33625793 C-123.99069138 246.26102148 -124.41099549 243.1871057 -124.83125305 240.11309814 C-125.12096003 237.95664403 -125.41001677 235.80010247 -125.69845581 233.64347839 C-126.45690559 227.98351464 -127.22278683 222.32458335 -127.99067688 216.66589355 C-129.21780594 207.61446072 -130.43405977 198.5615628 -131.64941597 189.50854301 C-132.07290143 186.36263901 -132.49984202 183.21721904 -132.92730713 180.07185364 C-133.19021252 178.12345479 -133.45303905 176.1750453 -133.71577454 174.22662354 C-133.83373886 173.36550964 -133.95170319 172.50439575 -134.07324219 171.6171875 C-136.64411497 152.46175418 -136.01565902 134.30716264 -134.0226593 115.14044189 C-140.48165604 113.57342739 -146.80166702 112.61319341 -153.42304993 112.10528564 C-156.70271568 111.77004498 -158.78410201 111.31393811 -161.47187805 109.35919189 C-164.20196061 105.45317957 -163.66120441 101.71558467 -163.0226593 97.14044189 C-160.26083063 86.43631301 -153.38659971 77.86382229 -144.0226593 72.14044189 C-137.63863521 68.57808591 -131.22077585 67.16297808 -124.0226593 66.14044189 C-128.68557262 58.40682487 -128.68557262 58.40682487 -134.3976593 51.45294189 C-137.66807547 47.81525974 -138.0226593 45.00005162 -138.0226593 40.14044189 C-136.93695647 36.70238291 -136.12878718 36.21119381 -133.0226593 34.14044189 C-129.85426206 33.67616499 -126.65903129 33.76088834 -123.4601593 33.76544189 C-122.06507141 33.7635083 -122.06507141 33.7635083 -120.64179993 33.76153564 C-112.6843902 33.88054517 -105.38105977 35.25060825 -97.7101593 37.26544189 C-93.3765559 38.36083789 -93.3765559 38.36083789 -89.0226593 38.14044189 C-86.5026338 36.26095699 -86.5026338 36.26095699 -84.0851593 33.70294189 C-62.98840891 13.3843355 -29.19540454 0.07271688 0 0 Z M-24.0226593 21.14044189 C-24.74179504 21.34943115 -25.46093079 21.55842041 -26.20185852 21.77374268 C-44.49297638 27.21340459 -60.62129326 36.6852064 -75.0226593 49.14044189 C-74.6617218 49.64833252 -74.3007843 50.15622314 -73.9289093 50.67950439 C-71.71663661 53.96104222 -70.14213402 56.45014352 -69.4601593 60.39044189 C-70.18614984 63.93972898 -71.00498418 65.12865848 -74.0226593 67.14044189 C-77.4601593 67.70294189 -77.4601593 67.70294189 -81.0226593 67.14044189 C-83.4601593 64.95294189 -83.4601593 64.95294189 -86.0226593 62.14044189 C-92.73478432 56.87788378 -101.4661411 53.14044189 -110.0226593 53.14044189 C-109.73648743 53.83524658 -109.45031555 54.53005127 -109.1554718 55.24591064 C-102.00439699 73.51813974 -102.00439699 73.51813974 -104.8976593 81.57794189 C-106.0226593 83.14044189 -106.0226593 83.14044189 -108.0226593 84.14044189 C-109.35600987 84.1655859 -110.6908257 84.13069228 -112.0226593 84.06231689 C-125.36030951 83.34927222 -125.36030951 83.34927222 -137.0226593 89.14044189 C-138.77134791 91.0869063 -140.39260805 93.09009868 -142.0226593 95.14044189 C-140.24762024 95.59483643 -140.24762024 95.59483643 -138.4367218 96.05841064 C-112.04242871 102.98576082 -112.04242871 102.98576082 -104.90937805 115.04669189 C-103.48050317 118.4205991 -103.88617132 120.73097795 -105.0226593 124.14044189 C-106.5851593 126.07794189 -106.5851593 126.07794189 -109.0226593 127.14044189 C-111.74300926 127.36930499 -114.28212003 127.27746886 -117.0226593 127.14044189 C-122.57248082 146.50476631 -116.79222424 170.46785403 -114.0226593 190.14044189 C-113.80659049 191.68779321 -113.5906088 193.23515669 -113.37471008 194.78253174 C-112.32944505 202.25154 -111.26183567 209.71700898 -110.1710968 217.17950439 C-109.05376342 224.82440778 -108.02502012 232.47964014 -107.0226593 240.14044189 C-104.88946613 238.13907526 -103.7414678 236.63831421 -102.2726593 234.01544189 C-100.0226593 231.14044189 -100.0226593 231.14044189 -96.5851593 230.01544189 C-93.0226593 230.14044189 -93.0226593 230.14044189 -90.0226593 231.51544189 C-87.79419419 234.44030236 -87.77243199 234.81532716 -88.16035461 238.26422119 C-88.85062239 243.24875823 -90.58685227 247.3119649 -92.8195343 251.78497314 C-93.20443527 252.5837941 -93.58933624 253.38261505 -93.98590088 254.2056427 C-95.23609934 256.79412011 -96.50440092 259.3732727 -97.7726593 261.95294189 C-98.64894831 263.76095614 -99.52369045 265.56972087 -100.39692688 267.37921143 C-102.13638186 270.98262313 -103.88082444 274.58354794 -105.62861633 278.18292236 C-108.73278471 284.59186813 -111.73213811 291.0469229 -114.7101593 297.51544189 C-119.43650875 307.74504393 -124.21720234 317.94785736 -129.0226593 328.14044189 C-135.54601091 341.98069589 -142.01821623 355.84332456 -148.44062805 369.73077393 C-149.8194616 372.70250068 -151.20558805 375.67059 -152.59632874 378.63674927 C-153.99206697 381.6154517 -155.38153576 384.59708209 -156.7726593 387.57794189 C-157.28667297 388.66848877 -157.80068665 389.75903564 -158.33027649 390.88262939 C-158.80110657 391.89454346 -159.27193665 392.90645752 -159.7570343 393.94903564 C-160.17179016 394.83389648 -160.58654602 395.71875732 -161.01387024 396.63043213 C-164.34550724 404.92001586 -164.1551513 414.12536423 -160.9601593 422.39044189 C-156.96278516 430.98030487 -151.44840574 436.83793307 -143.0226593 441.14044189 C-142.40777649 441.46012939 -141.79289368 441.77981689 -141.15937805 442.10919189 C-133.53676066 445.51806427 -125.16389823 445.12173381 -117.3351593 442.57794189 C-100.8352473 435.75449125 -95.54085736 420.40506781 -88.4601593 405.26544189 C-87.66336285 403.57205509 -86.86615785 401.87886047 -86.06855774 400.18585205 C-80.75165119 388.88697134 -75.47551426 377.5684498 -70.25874329 366.22296143 C-60.98001196 346.09779456 -60.98001196 346.09779456 -58.0226593 343.14044189 C-55.01386285 342.80073907 -52.92479207 342.5852015 -50.0226593 343.14044189 C-47.4601593 345.26544189 -47.4601593 345.26544189 -46.0226593 348.14044189 C-46.408716 352.86118499 -47.95101742 356.57997657 -49.97187805 360.83184814 C-50.26697769 361.45840805 -50.56207733 362.08496796 -50.86611938 362.73051453 C-51.8071785 364.7247045 -52.75833787 366.71386985 -53.7101593 368.70294189 C-54.32999817 370.01055385 -54.94914439 371.31849437 -55.56758118 372.62677002 C-55.8722934 373.27060638 -56.17700562 373.91444275 -56.49095154 374.57778931 C-57.10154443 375.86858613 -57.71163441 377.15962097 -58.32121277 378.45089722 C-59.8097012 381.59958997 -61.3135154 384.73861244 -62.85322571 387.86260986 C-63.68926331 389.59148437 -63.68926331 389.59148437 -64.54219055 391.35528564 C-65.04468323 392.37614258 -65.5471759 393.39699951 -66.06489563 394.4487915 C-67.08994048 397.3295255 -67.23542637 398.38094124 -66.0226593 401.14044189 C-64.36298503 403.17627072 -62.70728827 405.06140904 -60.8976593 406.95294189 C-60.14017395 407.75622925 -60.14017395 407.75622925 -59.36738586 408.57574463 C-58.36547259 409.63494218 -57.36034988 410.69111476 -56.35176086 411.74395752 C-55.30497677 412.84381149 -54.28058019 413.96497424 -53.2648468 415.09356689 C-38.47202202 431.04813184 -13.78809675 445.65376162 7.9773407 448.14044189 C7.48362976 447.17622314 6.98991882 446.21200439 6.48124695 445.21856689 C5.83389833 443.94263338 5.1867747 442.66658569 4.5398407 441.39044189 C4.21435242 440.75622314 3.88886414 440.12200439 3.55351257 439.46856689 C0.45206614 433.32962137 -1.08292891 428.01180458 -0.0226593 421.14044189 C4.47352878 408.77592467 11.70362201 402.2783554 22.9773407 396.14044189 C23.62445007 395.77048096 24.27155945 395.40052002 24.9382782 395.01934814 C49.1547001 381.88934724 84.21369871 381.53321353 110.2585907 388.77471924 C125.7803508 393.46912143 141.51334543 400.25062859 149.6023407 415.14044189 C153.00521493 422.78724165 152.89400159 427.92545888 150.2273407 435.76544189 C148.49929157 440.15345235 146.4665811 444.13987696 143.9773407 448.14044189 C172.31850462 442.70979971 195.64950604 425.85575049 214.9773407 405.14044189 C215.78042664 404.33348877 216.58351257 403.52653564 217.41093445 402.69512939 C217.92784851 401.85208252 218.44476257 401.00903564 218.9773407 400.14044189 C217.74916175 395.29541754 215.53539484 390.85588419 213.38749695 386.36309814 C213.04230515 385.63352402 212.69711334 384.90394989 212.34146118 384.15226746 C211.24413105 381.83428748 210.14225073 379.51850964 209.0398407 377.20294189 C207.94174981 374.89059963 206.84466058 372.57779057 205.74893188 370.264328 C205.06928926 368.82997291 204.38819724 367.39630333 203.7053833 365.9634552 C197.10368844 352.05473583 197.10368844 352.05473583 197.9773407 347.14044189 C200.0398407 344.70294189 200.0398407 344.70294189 202.9773407 343.14044189 C206.4773407 342.89044189 206.4773407 342.89044189 209.9773407 344.14044189 C215.13032758 351.29736811 218.67468909 359.46193644 222.4773407 367.39044189 C223.18620997 368.85928673 223.89527853 370.32803541 224.60453796 371.79669189 C229.13623484 381.20158474 233.55152746 390.65651376 237.9148407 400.14044189 C241.46386243 407.83900581 245.04763883 415.50255499 248.9773407 423.01544189 C249.31499451 423.66899658 249.65264832 424.32255127 250.00053406 424.99591064 C255.01418128 434.35906286 261.62471889 439.64476904 271.4773407 443.51544189 C281.73014001 445.34629892 290.84077735 443.95756868 299.7273407 438.39044189 C307.75988141 432.59230511 312.24922232 425.72353568 314.9773407 416.14044189 C317.27862806 400.90369254 308.76727616 387.29762137 302.22486877 374.09619141 C300.07887799 369.76431274 297.95190621 365.42311988 295.82499695 361.08184814 C295.40275345 360.22063354 294.98050995 359.35941895 294.54547119 358.47210693 C291.06866229 351.36443687 287.71281065 344.20803989 284.4148407 337.01544189 C279.42440739 326.14515127 274.23252911 315.38458291 268.9773407 304.64044189 C262.41541067 291.22267439 255.99713028 277.75424432 249.7742157 264.17559814 C248.03122968 260.38025206 246.24059836 256.61957564 244.3679657 252.88653564 C243.98011902 252.10375244 243.59227234 251.32096924 243.19267273 250.51446533 C242.50031327 249.12602571 241.79443212 247.74418337 241.07060242 246.37188721 C238.87919435 241.94617238 238.65565971 238.89498456 239.9773407 234.14044189 C243.64040057 231.69840198 246.71808209 231.30410974 250.9773407 232.14044189 C254.33784541 235.22847325 256.06560059 239.03020066 257.9773407 243.14044189 C258.3073407 243.14044189 258.6373407 243.14044189 258.9773407 243.14044189 C259.21070129 241.24999146 259.21070129 241.24999146 259.44877625 239.3213501 C260.04934903 234.4608479 260.65275883 229.6007008 261.25682068 224.7406311 C261.52893358 222.54803614 261.80029536 220.35534782 262.07090759 218.16256714 C263.45115771 206.98241759 264.84106771 195.80816689 266.48905945 184.66387939 C271.58709345 155.81714751 271.58709345 155.81714751 268.9773407 127.14044189 C268.37405945 127.19844971 267.7707782 127.25645752 267.1492157 127.31622314 C260.66680718 127.68216556 260.66680718 127.68216556 257.3523407 125.07794189 C255.49005355 121.09941934 255.69441714 119.34558023 256.9773407 115.14044189 C261.80908939 106.0079059 270.06958012 101.89497362 279.6023407 98.89044189 C284.3686269 97.5367038 289.15431362 96.2752718 293.9773407 95.14044189 C289.69667288 89.43288481 285.2260525 85.53439172 277.9773407 84.14044189 C276.57050709 84.0953992 275.16142253 84.10032086 273.75468445 84.14825439 C272.96900085 84.16501221 272.18331726 84.18177002 271.37382507 84.19903564 C269.73036988 84.24341807 268.08710604 84.29554134 266.44413757 84.35528564 C265.65974304 84.36946533 264.87534851 84.38364502 264.06718445 84.39825439 C263.35425232 84.42032959 262.64132019 84.44240479 261.90678406 84.46514893 C259.39329926 84.04215325 258.56139762 83.0905512 256.9773407 81.14044189 C253.87711361 74.93998772 257.03079547 67.2781971 258.9773407 61.14044189 C259.91860415 58.4438493 260.92488543 55.79663853 261.9773407 53.14044189 C251.54341645 53.65358571 242.72394017 57.39384242 235.2898407 64.82794189 C233.26709648 66.85068611 231.96549348 67.14198718 229.1023407 67.51544189 C225.9773407 67.14044189 225.9773407 67.14044189 223.5398407 65.07794189 C221.46791567 61.18272285 221.79440809 59.3546393 222.9773407 55.14044189 C224.16561313 52.96432852 225.47415768 51.12852265 226.9773407 49.14044189 C215.86249228 39.36584547 203.69247709 31.75032669 189.9773407 26.14044189 C189.25602966 25.83412842 188.53471863 25.52781494 187.79154968 25.21221924 C165.52121651 15.95526039 142.62876295 16.51813682 118.9773407 17.14044189 C118.97323181 17.96246094 118.96912292 18.78447998 118.96488953 19.63140869 C118.93194827 23.36431231 118.86129966 27.09558523 118.7898407 30.82794189 C118.78113953 32.76830322 118.78113953 32.76830322 118.77226257 34.74786377 C118.72875671 36.61861572 118.72875671 36.61861572 118.68437195 38.52716064 C118.6686615 39.67402344 118.65295105 40.82088623 118.63676453 42.00250244 C117.78092858 46.07509014 116.20420437 47.58790961 112.9773407 50.14044189 C109.3523407 50.70294189 109.3523407 50.70294189 105.9773407 50.14044189 C102.60090167 46.8941114 102.56526177 43.94964266 102.46562195 39.40606689 C102.41244812 37.46280518 102.41244812 37.46280518 102.35820007 35.48028564 C102.33510203 34.11700964 102.31231956 32.75372825 102.2898407 31.39044189 C102.25665422 30.01150328 102.22216331 28.63259539 102.18632507 27.25372314 C102.10382288 23.88291921 102.03890637 20.51169321 101.9773407 17.14044189 C96.3673407 17.14044189 90.7573407 17.14044189 84.9773407 17.14044189 C84.97323181 18.47744141 84.96912292 19.81444092 84.96488953 21.19195557 C84.94309528 26.15898026 84.88880187 31.12521312 84.82475281 36.09185791 C84.80157548 38.24021813 84.78717773 40.38869194 84.78178406 42.53717041 C84.77249279 45.62830363 84.73149719 48.71765102 84.68437195 51.80841064 C84.6883046 52.76692429 84.69223724 53.72543793 84.69628906 54.71299744 C84.5961312 59.30482832 84.47239279 61.47796026 81.6558075 65.24713135 C78.9773407 67.14044189 78.9773407 67.14044189 75.4148407 67.76544189 C71.9773407 67.14044189 71.9773407 67.14044189 69.80058289 65.24713135 C67.18482021 60.79003708 67.37448223 56.8922413 67.3679657 51.80841064 C67.35142944 50.81666336 67.33489319 49.82491608 67.31785583 48.80311584 C67.26938508 45.64466147 67.24800652 42.48668856 67.2273407 39.32794189 C67.19918031 37.18273539 67.16925279 35.03755131 67.13749695 32.89239502 C67.06362603 27.64178361 67.01404547 22.39143934 66.9773407 17.14044189 C61.3673407 17.14044189 55.7573407 17.14044189 49.9773407 17.14044189 C49.95155945 19.18747314 49.9257782 21.23450439 49.8992157 23.34356689 C49.8574858 25.33269185 49.81561667 27.32181655 49.76982117 29.31085205 C49.74164971 30.68995841 49.72041598 32.06922508 49.7063446 33.44854736 C49.68486525 35.43467139 49.63610938 37.42044098 49.5867157 39.40606689 C49.56576843 40.60006104 49.54482117 41.79405518 49.52323914 43.02423096 C48.87512392 46.72393695 47.96751947 47.92693294 44.9773407 50.14044189 C41.4773407 50.70294189 41.4773407 50.70294189 37.9773407 50.14044189 C34.16877839 46.43464084 33.46354571 43.76016609 33.3679657 38.52716064 C33.33573914 37.27999268 33.30351257 36.03282471 33.27030945 34.74786377 C33.25612976 33.45428955 33.24195007 32.16071533 33.2273407 30.82794189 C33.19769226 29.51503174 33.16804382 28.20212158 33.13749695 26.84942627 C33.06688481 23.61303654 33.01414193 20.37736379 32.9773407 17.14044189 C4.16792929 16.12778665 4.16792929 16.12778665 -24.0226593 21.14044189 Z " fill="#020100" transform="translate(180.0226593017578,-0.14044189453125)"/>
<path d="M0 0 C1.22380875 -0.00686325 2.44761749 -0.0137265 3.70851135 -0.02079773 C7.04556922 -0.03590316 10.38206563 -0.0375762 13.71911573 -0.03185534 C16.51458783 -0.02875107 19.31001009 -0.03486977 22.10547507 -0.04089409 C28.70593883 -0.05491151 35.30627308 -0.05340184 41.90673828 -0.04199219 C48.69376429 -0.03051857 55.48039478 -0.04457993 62.26736867 -0.07138866 C68.11479976 -0.09361297 73.96210731 -0.10016782 79.80957758 -0.09431225 C83.29302296 -0.09095688 86.77621502 -0.09326198 90.25962448 -0.11056328 C94.14849846 -0.12903759 98.03689379 -0.11477625 101.92578125 -0.09765625 C103.06480392 -0.10732422 104.2038266 -0.11699219 105.37736511 -0.12695312 C114.07872554 -0.04703929 122.30725014 1.66292953 128.96728516 7.65405273 C129.87607422 8.43522461 129.87607422 8.43522461 130.80322266 9.23217773 C135.45483308 14.87911091 137.19175725 20.37829574 137.10986328 27.60498047 C137.11687256 28.38173126 137.12388184 29.15848206 137.13110352 29.95877075 C137.14857127 32.50210341 137.13710039 35.04430439 137.12353516 37.58764648 C137.12623359 39.37069408 137.13011892 41.15374024 137.13513184 42.93678284 C137.14101192 46.66470417 137.13251328 50.39224077 137.11376953 54.12011719 C137.09099738 58.87909096 137.10410133 63.63716137 137.12805939 68.39610195 C137.14257205 72.07577719 137.13788615 75.75524128 137.12754822 79.43492317 C137.12489515 81.18866141 137.12810028 82.94241933 137.13746643 84.69613457 C137.21043165 102.19782573 137.21043165 102.19782573 132.59228516 109.40405273 C132.03541016 110.31155273 131.47853516 111.21905273 130.90478516 112.15405273 C125.04511285 117.85535552 118.30890318 120.51467243 110.22979736 120.55122375 C109.14201996 120.55837906 108.05424255 120.56553436 106.9335022 120.57290649 C105.74485565 120.5755954 104.55620911 120.5782843 103.33154297 120.58105469 C102.07584503 120.58762589 100.82014709 120.59419708 99.52639771 120.60096741 C95.36608142 120.62196206 91.20576496 120.63236551 87.04541016 120.64233398 C85.61048107 120.64638326 84.17555217 120.65050024 82.74062347 120.65468407 C75.99808076 120.67372568 69.25554893 120.68795884 62.51298451 120.69629604 C54.74198643 120.70606483 46.97127345 120.73237904 39.2003758 120.77279693 C33.18578011 120.8030015 27.17126597 120.81776901 21.15659595 120.82107705 C17.5680466 120.82342259 13.9798022 120.83231781 10.39133453 120.85753822 C6.38424359 120.88524689 2.37778625 120.88097463 -1.62939453 120.87402344 C-2.80994415 120.8868335 -3.99049377 120.89964355 -5.20681763 120.9128418 C-14.99663733 120.85098992 -21.34237799 118.30881375 -28.40771484 111.40405273 C-32.76160269 105.22793068 -33.55750131 100.03464398 -33.5847168 92.64135742 C-33.59128799 91.86358444 -33.59785919 91.08581146 -33.60462952 90.2844696 C-33.62431141 87.71495458 -33.63601396 85.14549788 -33.64599609 82.57592773 C-33.65007162 81.69594368 -33.65414715 80.81595963 -33.65834618 79.90930939 C-33.67918556 75.25114682 -33.69349625 70.59301352 -33.70288086 65.93481445 C-33.71393831 61.13537374 -33.74833658 56.33639752 -33.78805256 51.53712082 C-33.81425626 47.83609177 -33.82257604 44.13517279 -33.82616234 40.43405914 C-33.83101891 38.66550816 -33.84260632 36.89696179 -33.86120033 35.12850189 C-33.88567151 32.64674029 -33.88461261 30.16617265 -33.87768555 27.68432617 C-33.89049561 26.96196274 -33.90330566 26.2395993 -33.91650391 25.49534607 C-33.85060513 18.97777067 -31.55540138 13.9110327 -27.32958984 8.97827148 C-26.61287109 8.3556543 -25.89615234 7.73303711 -25.15771484 7.09155273 C-24.45130859 6.45604492 -23.74490234 5.82053711 -23.01708984 5.16577148 C-15.61365141 0.16734224 -8.67547162 -0.03416578 0 0 Z " fill="#040201" transform="translate(204.40771484375,246.595947265625)"/>
<path d="M0 0 C2.96484375 1.828125 2.96484375 1.828125 5.9375 4.25 C6.48543213 4.68965088 7.03336426 5.12930176 7.59790039 5.58227539 C9.40986146 7.04152358 11.20480613 8.52019077 13 10 C14.30112798 11.05716649 15.60323365 12.11313066 16.90625 13.16796875 C19.61945116 15.36649469 22.32666409 17.57213854 25.03125 19.78125 C28.63141061 22.71290883 32.27501485 25.58433397 35.9375 28.4375 C41.94223511 33.11990205 47.81660533 37.94988205 53.68115234 42.80615234 C58.64935149 46.91129405 63.67853128 50.92533817 68.76171875 54.88671875 C73.90416376 58.90205252 78.96319751 63.01567826 84.01293945 67.14672852 C87.30737359 69.83552975 90.61816516 72.49515563 93.984375 75.09375 C94.61859375 75.58423828 95.2528125 76.07472656 95.90625 76.58007812 C97.09491857 77.49550403 98.28736791 78.40605166 99.484375 79.31054688 C102.84257689 81.8978154 105.61341407 84.4835328 108 88 C108.37641837 97.41045927 101.69681155 105.64158562 95.625 112.25 C93.77662766 114.19612577 91.89566617 116.09887081 90 118 C89.35289062 118.6703125 88.70578125 119.340625 88.0390625 120.03125 C72.66887526 134.79736875 51.89265266 138.47353383 31.453125 138.203125 C12.07953658 137.66092901 -6.75869159 127.30145502 -20.02734375 113.37890625 C-27.40225873 104.4851969 -32.37144439 94.95852939 -36 84 C-36.35191406 83.030625 -36.70382813 82.06125 -37.06640625 81.0625 C-42.76384972 62.37297834 -39.01772075 41.68163876 -30.27319336 24.66503906 C-24.42902122 13.92872282 -13.63219536 -3.01358229 0 0 Z " fill="#030201" transform="translate(133,92)"/>
<path d="M0 0 C15.09252085 8.62429763 25.08835382 25.65592783 29.97265625 41.90795898 C35.33122318 61.89590979 31.96300693 82.85037932 22.4375 100.97265625 C11.39459232 119.4217448 -6.07724649 132.66109048 -27 138 C-42.81656372 140.87573886 -59.17515831 140.31305056 -74 134 C-75.62808594 133.31357422 -75.62808594 133.31357422 -77.2890625 132.61328125 C-92.2267901 125.71167293 -103.84189644 114.1333632 -112 100 C-112.66 98.9275 -113.32 97.855 -114 96.75 C-115.45095141 92.75988362 -115.44228333 91.05212936 -114 87 C-110.99878048 83.59128732 -107.54524861 80.82533222 -104 78 C-103.47680176 77.58234375 -102.95360352 77.1646875 -102.41455078 76.734375 C-99.54948549 74.45399939 -96.66634203 72.1980406 -93.7734375 69.953125 C-89.80072239 66.86069197 -85.89842249 63.68526205 -82 60.5 C-76.47689686 55.99204666 -70.908148 51.55156762 -65.2890625 47.1640625 C-60.81563292 43.66223753 -56.40132798 40.09188836 -52 36.5 C-46.4806291 31.99568582 -40.9189538 27.55445387 -35.30004883 23.17504883 C-31.41596607 20.13876359 -27.59087949 17.03757486 -23.7824707 13.90698242 C-5.88479089 -0.78283915 -5.88479089 -0.78283915 0 0 Z " fill="#030201" transform="translate(386,91)"/>
<path d="M0 0 C3.54833328 3.5169092 6.91219377 7.11345974 10.125 10.9375 C10.59292969 11.49163574 11.06085938 12.04577148 11.54296875 12.61669922 C15.60523544 17.4602752 19.52167323 22.41314799 23.38330078 27.41772461 C27.21753012 32.92061921 27.21753012 32.92061921 32.9375 35.5625 C37.8576842 35.41594132 41.87976683 32.62289465 46.03515625 30.21484375 C49.61141624 28.7494724 51.32111866 28.93193768 55 30 C57.30859375 31.19140625 57.30859375 31.19140625 59.4375 32.5625 C63.6222408 34.93987767 66.1077478 35.91211482 71 35 C74.08757119 33.51462791 77.07050908 31.93285873 80.03515625 30.21484375 C83.62092655 28.74557555 85.30772364 28.94086097 89 30 C91.5625 31.19140625 91.5625 31.19140625 94 32.5625 C99.22972426 35.27589744 99.22972426 35.27589744 105 35 C109.39810617 31.69690795 112.75614005 28.0838134 116.0625 23.6875 C117.00787426 22.45868019 117.95454747 21.2308589 118.90234375 20.00390625 C119.64653564 19.03735107 119.64653564 19.03735107 120.40576172 18.05126953 C123.265565 14.37162678 126.19284592 10.74707269 129.125 7.125 C129.69355713 6.41690186 130.26211426 5.70880371 130.84790039 4.97924805 C132.20842075 3.30017087 133.60099365 1.64714815 135 0 C135.33 0 135.66 0 136 0 C136.09266788 9.57925361 136.16374845 19.158353 136.20724869 28.737957 C136.22812638 33.18614277 136.25644702 37.63402194 136.30175781 42.08203125 C136.34520957 46.37439234 136.36913574 50.66645848 136.37950897 54.95902252 C136.3869016 56.59692275 136.40133775 58.23480677 136.42292023 59.87258148 C136.45194647 62.16638609 136.45595651 64.45897106 136.45410156 66.75292969 C136.46298401 68.05864929 136.47186646 69.3643689 136.48101807 70.70965576 C135.92017295 74.54604702 135.02946752 75.67430095 132 78 C129.512314 79.243843 127.83180531 79.13691614 125.0476532 79.15390015 C124.00036041 79.16250061 122.95306763 79.17110107 121.8740387 79.17996216 C120.72024216 79.18422211 119.56644562 79.18848206 118.37768555 79.19287109 C116.56050018 79.20513733 116.56050018 79.20513733 114.706604 79.21765137 C110.68331231 79.24253702 106.66005822 79.25917882 102.63671875 79.2734375 C101.25187485 79.27879718 99.86703103 79.28417469 98.48218727 79.28956985 C92.72175721 79.31119846 86.96132995 79.32993529 81.20086956 79.34119225 C72.94451214 79.35743259 64.68862525 79.39061182 56.43244523 79.44759309 C50.6277038 79.48628993 44.82308824 79.50582458 39.0182212 79.51111281 C35.55093702 79.5147667 32.08415469 79.52679042 28.61701012 79.55921555 C24.74803219 79.59487996 20.87964505 79.59092592 17.01049805 79.58349609 C15.8627742 79.59990143 14.71505035 79.61630676 13.532547 79.63320923 C8.7298614 79.59536792 5.87974749 79.56815964 1.78482056 76.92356873 C-0.46702909 73.23499781 -0.60436922 70.95294672 -0.56762695 66.6394043 C-0.56872215 65.55566277 -0.56872215 65.55566277 -0.56983948 64.45002747 C-0.56637001 62.07398053 -0.52754413 59.69992096 -0.48828125 57.32421875 C-0.47895072 55.67227754 -0.47183574 54.02032245 -0.46684265 52.36836243 C-0.44779141 48.0295462 -0.39870766 43.69157265 -0.34332275 39.35308838 C-0.29208929 34.92235716 -0.26931992 30.4914892 -0.24414062 26.06054688 C-0.19058628 17.37331207 -0.10529726 8.68676099 0 0 Z " fill="#AA1356" transform="translate(188,271)"/>
<path d="M0 0 C19.8103117 -0.65882442 43.27841687 2.06469589 58.72900391 15.77392578 C61.46264804 18.65585721 62.73823741 20.81488395 63.94775391 24.64501953 C63.7650508 29.66935505 61.76847833 32.06473124 58.34619141 35.61376953 C42.11219228 50.69369289 16.95760704 51.78780264 -3.95849609 51.45751953 C-20.33213916 50.84980213 -39.1496246 47.07251288 -51.42724609 35.39501953 C-54.51892445 32.05632563 -56.17724609 29.39080353 -56.17724609 24.77001953 C-54.35713499 18.05835983 -50.20965465 14.5192693 -44.42724609 10.89501953 C-30.48618027 3.09466127 -15.82617644 0.59982593 0 0 Z " fill="#FD5621" transform="translate(252.17724609375,400.91748046875)"/>
<path d="M0 0 C2.71033085 1.27405873 5.01170741 2.66056239 7.34765625 4.53125 C7.95287109 5.01207031 8.55808594 5.49289063 9.18164062 5.98828125 C9.80232422 6.48714844 10.42300781 6.98601562 11.0625 7.5 C12.30261128 8.49055328 13.54347004 9.48017165 14.78515625 10.46875 C15.33051025 10.90638672 15.87586426 11.34402344 16.43774414 11.79492188 C17.9093247 12.93005575 19.45362199 13.96908133 21 15 C19.33248852 18.94139078 16.77289351 21.7892812 14 25 C16.64 25.33 19.28 25.66 22 26 C20 32 20 32 18.875 34.75 C16.8482233 42.27802773 17.57510239 48.28492131 21.125 55.1875 C22 57 22 57 22 59 C19.29120665 60.35439668 16.99066732 60.06501451 14 60 C18.82075584 67.72104798 25.12362538 72.76884405 33.9375 75.375 C43.95231484 77.28162807 52.05250293 75.96667202 61 71 C66.11576779 67.41145164 69.85277116 63.37651593 73 58 C77.67356492 60.58634175 81.68240407 63.83204407 85.8125 67.1875 C86.85180664 68.02571289 86.85180664 68.02571289 87.91210938 68.88085938 C89.61031334 70.2511343 91.30546593 71.62518934 93 73 C89.66806853 82.75284107 80.73352307 90.03364153 72 95 C57.479713 102.09167608 40.24640028 105.40790456 24.375 100.375 C22.56222398 99.63294296 20.7685508 98.84204135 19 98 C18.09507812 97.59910156 17.19015625 97.19820313 16.2578125 96.78515625 C1.44538489 89.54678865 -8.56443038 77.38244066 -14.4375 62.125 C-19.3379749 47.07816737 -17.91700366 30.48694684 -11.63671875 16.078125 C-8.58620641 10.34112328 -4.60088262 4.60088262 0 0 Z " fill="#FCFCFC" transform="translate(128,111)"/>
<path d="M0 0 C4.1550824 1.51093905 6.12203298 4.46609781 8.5 8 C8.89582275 8.58233398 9.29164551 9.16466797 9.69946289 9.76464844 C12.90202582 14.60395901 15.28816517 19.43890121 17 25 C17.33451172 25.98226562 17.33451172 25.98226562 17.67578125 26.984375 C21.95431624 42.00290598 19.18128743 58.30324067 11.99365234 71.90429688 C3.47463925 86.57659431 -9.23887864 95.53737525 -25.0625 100.9375 C-37.56763859 103.90607889 -52.35913476 103.54244181 -64 98 C-64.90492188 97.59910156 -65.80984375 97.19820313 -66.7421875 96.78515625 C-76.65178258 91.94264874 -85.17590374 84.36261338 -91 75 C-89.45161795 70.64008212 -86.06103011 68.42617093 -82.5 65.75 C-81.23666668 64.78035491 -79.97364828 63.81029939 -78.7109375 62.83984375 C-78.08541992 62.36272949 -77.45990234 61.88561523 -76.81542969 61.39404297 C-74.22226002 59.40278439 -71.67342154 57.36072992 -69.125 55.3125 C-68.32320313 54.66925781 -67.52140625 54.02601563 -66.6953125 53.36328125 C-66.13585937 52.91339844 -65.57640625 52.46351563 -65 52 C-62.9375 54.3125 -62.9375 54.3125 -61 57 C-61.33 57.99 -61.66 58.98 -62 60 C-64.31 60 -66.62 60 -69 60 C-64.59922179 67.70136187 -57.99101713 72.29771594 -49.69140625 75.30078125 C-39.04962931 78.06548092 -29.44744007 75.19574089 -20.05859375 69.90625 C-14.2984419 65.69517293 -10.13897192 57.69887113 -8 51 C-6.83000885 40.09883244 -7.55395529 31.2690198 -14 22 C-15.58017911 20.14624983 -17.16930142 18.61532228 -19 17 C-19 16.34 -19 15.68 -19 15 C-16.80644768 13.12998922 -14.60515924 11.36568034 -12.3125 9.625 C-11.05849131 8.65898713 -9.80458335 7.69284349 -8.55078125 6.7265625 C-7.64706787 6.03481934 -7.64706787 6.03481934 -6.72509766 5.32910156 C-4.45885852 3.58307753 -2.22639124 1.79643805 0 0 Z " fill="#FCFCFC" transform="translate(382,111)"/>
<path d="M0 0 C-0.26554687 0.54527344 -0.53109375 1.09054688 -0.8046875 1.65234375 C-4.35284669 9.22779311 -6.6638684 16.53567795 -6 25 C-4.98263229 27.76142665 -4.63829259 28.68085371 -2 30 C1.670252 29.99255527 5.32872468 29.92411752 8.99609375 29.78515625 C16.71207826 29.64440031 22.78926934 31.28270134 28.5 36.6875 C29.1703125 37.31011719 29.840625 37.93273437 30.53125 38.57421875 C31.0159375 39.04472656 31.500625 39.51523438 32 40 C28.4312572 42.04056579 24.79342725 42.85886299 20.8125 43.8125 C14.62125739 45.38515183 9.28167889 47.37161976 4 51 C3.14148438 51.58587891 3.14148438 51.58587891 2.265625 52.18359375 C-1.81606959 55.2650711 -4.00606368 58.37406773 -6 63 C-5.9415881 66.50471391 -5.86158924 68.84855512 -3.734375 71.69140625 C-1.46662365 73.40243486 -0.11921213 73.30953096 2.6875 73.1875 C3.49574219 73.16042969 4.30398438 73.13335937 5.13671875 73.10546875 C6.05904297 73.05326172 6.05904297 73.05326172 7 73 C12.82671552 93.67019193 6.23646744 119.46866369 3.24647522 140.19522095 C1.73473788 150.71724616 0.42315828 161.26236344 -0.875 171.8125 C-1.09185175 173.5627676 -1.30888699 175.31301248 -1.52612305 177.06323242 C-2.01957038 181.04189164 -2.5106109 185.02083965 -3 189 C-5.88118274 186.31143115 -7.26862296 183.53803134 -9 180 C-11.5654594 177.4345406 -13.47686668 177.45953913 -17 177 C-16.36510309 171.62610714 -15.72847956 166.25242183 -15.09091187 160.87884521 C-14.74910811 157.99246838 -14.40928484 155.10586282 -14.06958008 152.21923828 C-13.03339836 143.44717937 -11.98172362 134.68042503 -10.77734375 125.9296875 C-6.67182154 95.90794623 -4.80686921 68.34679783 -19.75 41.1875 C-20.34554688 40.08857422 -20.94109375 38.98964844 -21.5546875 37.85742188 C-25.14067619 31.27146646 -28.85889645 24.7831726 -32.72363281 18.35668945 C-34 16 -34 16 -34 14 C-32.7625 13.608125 -31.525 13.21625 -30.25 12.8125 C-27.2378492 11.69475066 -26.16649527 11.21089401 -24.125 8.625 C-19.08821501 2.40308913 -7.8604442 -2.38929802 0 0 Z " fill="#EE9A1E" transform="translate(442,54)"/>
<path d="M0 0 C2.46915109 3.07158373 4.19341479 6.20148128 5.8984375 9.75 C6.45305664 10.90048828 7.00767578 12.05097656 7.57910156 13.23632812 C8.17791929 14.49079716 8.77654671 15.74535706 9.375 17 C10.00470006 18.31193669 10.63458601 19.62378417 11.26464844 20.93554688 C15.87414956 30.55285775 20.35970797 40.22557915 24.82177734 49.91210938 C29.41579058 59.83990811 34.19396926 69.67338469 39 79.5 C44.96362955 91.69399197 50.8188577 103.92412765 56.49316406 116.25585938 C60.45029115 124.85211359 64.51441641 133.39278583 68.66381836 141.89794922 C69.08928955 142.77725098 69.51476074 143.65655273 69.953125 144.5625 C70.32598633 145.32691406 70.69884766 146.09132813 71.08300781 146.87890625 C74.54562465 154.88828194 74.06940247 164.21599355 71 172.25 C66.2959482 182.25271689 59.35021809 188.89522224 49.00390625 192.7421875 C43.72036586 194.29429393 38.46535332 194.2015909 33 194 C33 193.67 33 193.34 33 193 C34.051875 192.938125 35.10375 192.87625 36.1875 192.8125 C42.31962918 191.5056528 44.70381289 187.55083696 48.125 182.625 C54.31977382 173.02230433 56.98564432 162.24742926 54.53857422 150.85107422 C52.67337319 144.00830021 49.68643622 137.79115604 46.53601074 131.45727539 C44.94277367 128.25286853 43.37537422 125.03581601 41.8046875 121.8203125 C41.48278442 121.16287048 41.16088135 120.50542847 40.82922363 119.82806396 C37.70415792 113.43057589 34.72061422 106.97048123 31.75 100.5 C24.78499801 85.3798703 17.46380079 70.43678074 10.15856934 55.47897339 C6.9136642 48.8314272 3.69544512 42.17148993 0.5 35.5 C0.06155762 34.58758545 -0.37688477 33.6751709 -0.82861328 32.73510742 C-2.67806076 28.86538449 -4.4854913 25.01674047 -6 21 C-4.625 19.5 -4.625 19.5 -3 18 C-2.34 18 -1.68 18 -1 18 C-1.020625 16.700625 -1.04125 15.40125 -1.0625 14.0625 C-1.07004972 9.30617675 -0.59887117 4.71611047 0 0 Z " fill="#EF9A1E" transform="translate(422,250)"/>
<path d="M0 0 C0.14688806 4.12461681 0.23460044 8.24854924 0.3125 12.375 C0.35439453 13.53128906 0.39628906 14.68757813 0.43945312 15.87890625 C0.56375794 24.67968707 -0.87074107 31.55326157 -6.9909668 38.14404297 C-15.42439512 46.17202851 -23.16957118 46.49950461 -34.4375 46.4375 C-35.72205078 46.45748047 -37.00660156 46.47746094 -38.33007812 46.49804688 C-48.79882977 46.49265339 -55.33419737 44.49157985 -63 37 C-67.0100899 31.47257879 -67.72809393 26.75686585 -68 20 C-65.08983667 19.02994556 -62.49531014 18.75262788 -59.45532227 18.50732422 C-39.9205897 16.82913318 -17.30957554 0 0 0 Z " fill="#FABD08" transform="translate(367,449)"/>
<path d="M0 0 C1.67449219 0.85271484 1.67449219 0.85271484 3.3828125 1.72265625 C23.97368586 11.97572488 45.05348878 18.17884832 68 20 C67.66701987 27.19237074 66.57904241 33.56100707 61.203125 38.7265625 C52.42286546 45.63506128 45.17950297 46.52300786 34.1875 46.5 C32.96740234 46.52835937 31.74730469 46.55671875 30.49023438 46.5859375 C21.58808698 46.60507162 14.52618474 45.2057971 7.8581543 39.00976562 C0.03139114 30.7945907 -0.42086068 23.53045183 -0.1875 12.5625 C-0.16719727 10.74975586 -0.16719727 10.74975586 -0.14648438 8.90039062 C-0.11129946 5.93312918 -0.06206696 2.96680063 0 0 Z " fill="#FABE07" transform="translate(145,449)"/>
<path d="M0 0 C33 0 66 0 100 0 C96.11766078 5.17645229 92.23057193 10.33773679 88.25 15.4375 C87.76917969 16.06076172 87.28835938 16.68402344 86.79296875 17.32617188 C83.2320173 21.88399135 83.2320173 21.88399135 81 23 C78.8984375 22.00390625 78.8984375 22.00390625 76.375 20.5625 C71.85903962 18.26581158 68.057764 16.66381767 63 18 C59.8857531 19.50357159 56.8994208 21.11042525 53.9296875 22.8828125 C51 24 51 24 47.875 23.3125 C45.54783537 22.25009876 43.33555951 21.15579628 41.125 19.875 C37.06239275 17.83985648 33.49049407 17.0484242 29 18 C25.214996 19.44882934 21.60206195 21.14599753 18 23 C0 1.9403255 0 1.9403255 0 0 Z " fill="#FCE8B0" transform="translate(206,265)"/>
<path d="M0 0 C9.15601738 0.52823177 18.1940508 3.72022502 25 10 C26.0296795 11.64849565 27.03419885 13.31328547 28 15 C13.2730078 41.73582738 13.2730078 41.73582738 7.6875 51.125 C7.33373291 51.72642822 6.97996582 52.32785645 6.61547852 52.94750977 C4.24526706 56.87736647 4.24526706 56.87736647 2 58 C1.29875 57.2575 0.5975 56.515 -0.125 55.75 C-5.0665635 51.02328709 -9.87830742 48.45126258 -16.375 46.375 C-17.36028687 46.05752808 -17.36028687 46.05752808 -18.36547852 45.73364258 C-22.87342271 44.29937271 -27.38561813 43.03588164 -32 42 C-28.05233481 36.34167989 -23.74738759 32.82059689 -17 31 C-12.83334364 30.70218947 -8.68229426 30.79030285 -4.51318359 31.00830078 C-3.71605957 31.0442334 -2.91893555 31.08016602 -2.09765625 31.1171875 C-1.38101807 31.16472168 -0.66437988 31.21225586 0.07397461 31.26123047 C2.6176038 30.91623323 3.41328496 29.96478674 5 28 C8.17982285 21.6403543 5.09490527 14.31202184 3.0703125 8.05078125 C2.11681062 5.33295291 1.09672719 2.66277458 0 0 Z " fill="#ECC018" transform="translate(70,53)"/>
<path d="M0 0 C7.0026242 5.04188942 11.83786827 11.30437075 13.35009766 20.01708984 C14.4713482 30.26413954 12.79631107 38.31245024 7 47 C6.59394531 47.62390625 6.18789063 48.2478125 5.76953125 48.890625 C0.91348986 55.45373896 -7.15489655 59.37644779 -15 61 C-25.05394356 62.26894433 -33.50937874 59.98385595 -41.71875 54.02734375 C-48.3401119 48.42223518 -48.3401119 48.42223518 -49 44 C-45.97084777 43.32012361 -43.10986189 42.87191673 -40 43 C-36.9375 45.25 -36.9375 45.25 -35.5078125 46.65234375 C-30.5478117 51.08550509 -24.04767976 51.48785842 -17.67578125 51.28515625 C-10.84637379 50.55735078 -5.82754197 47.93725883 -1 43 C3.34828504 35.90104263 4.96884602 29.31683551 4 21 C1.86824259 14.80817349 -1.59459802 9.78300787 -6 5 C-4.02 3.35 -2.04 1.7 0 0 Z " fill="#F04537" transform="translate(362,127)"/>
<path d="M0 0 C0.14688806 4.12461681 0.23460044 8.24854924 0.3125 12.375 C0.35439453 13.53128906 0.39628906 14.68757813 0.43945312 15.87890625 C0.56375794 24.67968707 -0.87074107 31.55326157 -6.9909668 38.14404297 C-15.61199584 46.3506102 -23.47156452 46.40791878 -34.9375 46.1875 C-36.30271966 46.17242992 -37.66795535 46.15874561 -39.03320312 46.14648438 C-42.35588096 46.11126164 -45.67773181 46.06200041 -49 46 C-49 45.67 -49 45.34 -49 45 C-48.36497559 45.01683838 -47.72995117 45.03367676 -47.07568359 45.05102539 C-44.17411358 45.10156341 -41.27690541 45.08262671 -38.375 45.0625 C-37.37597656 45.09021484 -36.37695312 45.11792969 -35.34765625 45.14648438 C-29.69897796 45.08846092 -29.69897796 45.08846092 -25.05566406 42.20654297 C-23.43563909 39.87468885 -22.18889167 37.57657156 -21 35 C-20.66492432 34.33234619 -20.32984863 33.66469238 -19.98461914 32.97680664 C-17.65314175 27.71302484 -17.64240881 22.67842883 -17.8125 17 C-17.82603516 16.12988281 -17.83957031 15.25976562 -17.85351562 14.36328125 C-17.88848322 12.24191373 -17.9422747 10.12087026 -18 8 C-17.19175781 7.67386719 -16.38351562 7.34773438 -15.55078125 7.01171875 C-14.48214844 6.57472656 -13.41351563 6.13773437 -12.3125 5.6875 C-11.25675781 5.25824219 -10.20101562 4.82898438 -9.11328125 4.38671875 C-6.54188724 3.24136759 -2.76369778 0 0 0 Z " fill="#ED991D" transform="translate(367,449)"/>
<path d="M0 0 C2.31 1.65 4.62 3.3 7 5 C5.02263224 12.03064091 -0.36139868 17.33450634 -6.5625 20.875 C-15.37941244 25.27604705 -23.47518331 26.41521654 -33.125 23.875 C-40.94558368 21.22669424 -47.24882525 16.74360288 -52 10 C-52 9.34 -52 8.68 -52 8 C-49.00783674 6.97653675 -46.1679207 6.17095019 -43 6 C-40.25 8.1875 -40.25 8.1875 -38 11 C-31.62687141 15.3523805 -25.56390204 15.57699669 -18 15 C-11.76078286 13.64550329 -6.36143308 10.52748234 -2.7421875 5.12109375 C-1.77347308 3.44447265 -0.87946758 1.72510948 0 0 Z " fill="#EF4638" transform="translate(194,163)"/>
<path d="M0 0 C2.39843783 2.99981605 4.16057822 6.03429667 5.8125 9.5 C6.27269531 10.4384375 6.73289062 11.376875 7.20703125 12.34375 C8 15 8 15 7.39453125 17.046875 C4.31383968 21.36156907 0.61419132 25.13351935 -3 29 C-3.6084375 29.67417969 -4.216875 30.34835937 -4.84375 31.04296875 C-13.33396723 40.073134 -23.90268887 47.03040857 -34.625 53.125 C-35.28757812 53.50325928 -35.95015625 53.88151855 -36.6328125 54.27124023 C-40.05771854 56.15607902 -43.10683778 57.5077611 -47 58 C-44.17226749 55.02101669 -41.24386426 52.65499017 -37.875 50.3125 C-32.20431078 46.24046253 -27.066742 41.7953094 -22 37 C-21.2265625 36.27941406 -20.453125 35.55882812 -19.65625 34.81640625 C-8.71748218 24.30844607 -3.54302265 14.52979962 0 0 Z " fill="#ED991D" transform="translate(391,383)"/>
<path d="M0 0 C4.0553591 1.35178637 5.39946313 2.33855434 7.375 6.125 C7.375 10.04516134 6.92726285 12.29660572 4.75 15.5625 C1.37262021 17.78446039 -0.66023594 17.75101538 -4.625 17.125 C-7.40364206 14.95041056 -9.15132834 13.27534547 -10.5 10 C-10.625 8.125 -10.625 8.125 -9.625 5.125 C-4.89404376 0.16876013 -4.89404376 0.16876013 0 0 Z " fill="#2A2D35" transform="translate(342.625,144.875)"/>
<path d="M0 0 C3.53716409 1.1790547 5.50312877 2.20937921 8 5 C8.625 8.4375 8.625 8.4375 8 12 C5.41370196 15.68351539 3.93024874 16.81727257 -0.5 17.6875 C-4 17 -4 17 -7 14.4375 C-9 11 -9 11 -9.125 7.375 C-7.47916098 2.43748293 -5.38246057 0 0 0 Z " fill="#2A2D36" transform="translate(171,145)"/>
<path d="M0 0 C11.44239598 4.00747509 21.7281949 10.04232781 31.375 17.3125 C32.22348511 17.94309326 32.22348511 17.94309326 33.08911133 18.58642578 C34.6484375 19.80078125 34.6484375 19.80078125 37 22 C37 25.99904969 35.27413033 27.80200422 33 31 C32.484375 30.34 31.96875 29.68 31.4375 29 C30.633125 28.01 29.82875 27.02 29 26 C28.53722656 25.41863281 28.07445312 24.83726563 27.59765625 24.23828125 C20.40036043 15.5628122 11.66992111 8.51329066 1.765625 3.15625 C0.89164062 2.58390625 0.89164062 2.58390625 0 2 C0 1.34 0 0.68 0 0 Z " fill="#EA971D" transform="translate(369,26)"/>
<path d="M0 0 C2.31 1.65 4.62 3.3 7 5 C4.35751295 9.31606218 4.35751295 9.31606218 2 11 C-1.45188796 11.23715261 -4.6272371 10.72039596 -8 10 C-5.83735988 6.01618925 -3.28788824 3.11016455 0 0 Z " fill="#EC483B" transform="translate(149,127)"/>
<path d="M0 0 C2.0625 2.3125 2.0625 2.3125 4 5 C3.67 5.99 3.34 6.98 3 8 C0.36 8.33 -2.28 8.66 -5 9 C-5.33 7.68 -5.66 6.36 -6 5 C-4.02 3.35 -2.04 1.7 0 0 Z " fill="#F2E1DF" transform="translate(317,163)"/>
<path d="M0 0 C0 0.99 0 1.98 0 3 C-4.455 4.485 -4.455 4.485 -9 6 C-3.2 0 -3.2 0 0 0 Z " fill="#E1921B" transform="translate(353,435)"/>
</svg>
