<?xml version="1.0" encoding="UTF-8"?>
<svg version="1.1" xmlns="http://www.w3.org/2000/svg" width="512" height="512">
<path d="M0 0 C2.51453484 3.19152498 2.75041302 5.82626613 2.75630188 9.75305176 C2.76231415 11.19945541 2.76231415 11.19945541 2.76844788 12.67507935 C2.7676548 14.26000687 2.7676548 14.26000687 2.7668457 15.87695312 C2.77032013 16.99113617 2.77379456 18.10531921 2.77737427 19.25326538 C2.78473516 21.67757161 2.79007876 24.10188459 2.79366493 26.52619934 C2.8008281 30.36888084 2.81649551 34.21143448 2.83500671 38.05407715 C2.88747051 48.98167026 2.93584786 59.90919703 2.95092773 70.83691406 C2.96024336 77.51895283 2.99043236 84.20062674 3.03224754 90.8825531 C3.04452833 93.42449016 3.04968417 95.96647237 3.04744911 98.50843811 C3.04508446 102.07693252 3.06735434 105.64451929 3.0949707 109.21289062 C3.08836929 110.25331512 3.08176788 111.29373962 3.07496643 112.36569214 C3.20656026 122.78148212 6.20228489 132.50723641 13.625 140.0625 C21.12916602 146.51139267 30.46166878 149.76801684 40.37890625 149.34375 C49.2537039 148.23247099 57.31282123 144.77953398 63.4140625 138.10546875 C64.93466249 136.14666631 66.30356181 134.15975028 67.625 132.0625 C68.2025 131.155 68.78 130.2475 69.375 129.3125 C73.69002351 118.09343887 72.97685468 105.56925579 73.00585938 93.73413086 C73.0153791 91.41726875 73.04908594 89.10172233 73.0859375 86.78515625 C73.08089203 86.08302505 73.07584656 85.38089386 73.07064819 84.65748596 C73.16667846 79.86716532 74.23765809 77.43125622 77.625 74.0625 C79.89748238 72.92625881 81.40802764 72.79803157 83.9375 72.6875 C85.07638672 72.61402344 85.07638672 72.61402344 86.23828125 72.5390625 C89.90071995 73.34228146 91.2466582 75.20402347 93.625 78.0625 C95.3409685 80.77016694 96.80376364 83.57826726 98.25 86.4375 C98.67676025 87.26910645 99.10352051 88.10071289 99.54321289 88.95751953 C100.91681663 91.65280813 102.27174229 94.35694673 103.625 97.0625 C104.07182129 97.94292969 104.51864258 98.82335937 104.97900391 99.73046875 C118.29393725 126.0624192 129.35909966 154.65719726 135.90625 183.49609375 C138.05201566 192.8358211 140.70271318 198.21677034 147.90625 204.55859375 C160.24865657 215.92566647 165.68929823 234.53376545 166.61621094 250.7878418 C167.22479947 270.6114428 159.76519068 288.45783006 146.625 303.0625 C144.39442217 305.240053 142.13373631 307.2973143 139.73046875 309.28125 C134.15835876 313.99531708 131.15321815 318.46605844 128 324.9375 C120.83877213 339.03147783 111.55889288 350.72551429 100.625 362.0625 C99.96113281 362.77792969 99.29726563 363.49335938 98.61328125 364.23046875 C76.26224675 387.70608361 43.33449247 401.80504935 11.625 406.0625 C10.76519531 406.19269531 9.90539062 406.32289063 9.01953125 406.45703125 C-27.02050625 411.10935967 -66.85364621 401.09871362 -96.375 380 C-98.0539907 378.70330256 -99.72101167 377.39094142 -101.375 376.0625 C-102.24898437 375.38960938 -103.12296875 374.71671875 -104.0234375 374.0234375 C-136.98800733 348.04848992 -155.88808232 311.41765269 -161.77734375 270.25 C-170.23327715 194.26243407 -133.73280265 102.13423613 -87 43.25 C-67.92631495 19.78358748 -45.0422045 0.36193664 -14.0625 -3.75 C-8.64245528 -4.16759574 -4.31063154 -3.51656784 0 0 Z " fill="#F05651" transform="translate(264.375,43.9375)"/>
<path d="M0 0 C2.51453484 3.19152498 2.75041302 5.82626613 2.75630188 9.75305176 C2.76231415 11.19945541 2.76231415 11.19945541 2.76844788 12.67507935 C2.7676548 14.26000687 2.7676548 14.26000687 2.7668457 15.87695312 C2.77032013 16.99113617 2.77379456 18.10531921 2.77737427 19.25326538 C2.78473516 21.67757161 2.79007876 24.10188459 2.79366493 26.52619934 C2.8008281 30.36888084 2.81649551 34.21143448 2.83500671 38.05407715 C2.88747051 48.98167026 2.93584786 59.90919703 2.95092773 70.83691406 C2.96024336 77.51895283 2.99043236 84.20062674 3.03224754 90.8825531 C3.04452833 93.42449016 3.04968417 95.96647237 3.04744911 98.50843811 C3.04508446 102.07693252 3.06735434 105.64451929 3.0949707 109.21289062 C3.08836929 110.25331512 3.08176788 111.29373962 3.07496643 112.36569214 C3.20656026 122.78148212 6.20228489 132.50723641 13.625 140.0625 C21.12916602 146.51139267 30.46166878 149.76801684 40.37890625 149.34375 C49.2537039 148.23247099 57.31282123 144.77953398 63.4140625 138.10546875 C64.93466249 136.14666631 66.30356181 134.15975028 67.625 132.0625 C68.2025 131.155 68.78 130.2475 69.375 129.3125 C73.69002351 118.09343887 72.97685468 105.56925579 73.00585938 93.73413086 C73.0153791 91.41726875 73.04908594 89.10172233 73.0859375 86.78515625 C73.08089203 86.08302505 73.07584656 85.38089386 73.07064819 84.65748596 C73.16667846 79.86716532 74.23765809 77.43125622 77.625 74.0625 C79.89748238 72.92625881 81.40802764 72.79803157 83.9375 72.6875 C85.07638672 72.61402344 85.07638672 72.61402344 86.23828125 72.5390625 C89.90071995 73.34228146 91.2466582 75.20402347 93.625 78.0625 C95.3409685 80.77016694 96.80376364 83.57826726 98.25 86.4375 C98.67676025 87.26910645 99.10352051 88.10071289 99.54321289 88.95751953 C100.91681663 91.65280813 102.27174229 94.35694673 103.625 97.0625 C104.07182129 97.94292969 104.51864258 98.82335937 104.97900391 99.73046875 C118.29393725 126.0624192 129.35909966 154.65719726 135.90625 183.49609375 C138.05201566 192.8358211 140.70271318 198.21677034 147.90625 204.55859375 C160.24865657 215.92566647 165.68929823 234.53376545 166.61621094 250.7878418 C167.22479947 270.6114428 159.76519068 288.45783006 146.625 303.0625 C144.39442217 305.240053 142.13373631 307.2973143 139.73046875 309.28125 C134.15835876 313.99531708 131.15321815 318.46605844 128 324.9375 C120.83877213 339.03147783 111.55889288 350.72551429 100.625 362.0625 C99.96113281 362.77792969 99.29726563 363.49335938 98.61328125 364.23046875 C76.26224675 387.70608361 43.33449247 401.80504935 11.625 406.0625 C10.76519531 406.19269531 9.90539062 406.32289063 9.01953125 406.45703125 C-27.02050625 411.10935967 -66.85364621 401.09871362 -96.375 380 C-98.0539907 378.70330256 -99.72101167 377.39094142 -101.375 376.0625 C-102.24898437 375.38960938 -103.12296875 374.71671875 -104.0234375 374.0234375 C-136.98800733 348.04848992 -155.88808232 311.41765269 -161.77734375 270.25 C-170.23327715 194.26243407 -133.73280265 102.13423613 -87 43.25 C-67.92631495 19.78358748 -45.0422045 0.36193664 -14.0625 -3.75 C-8.64245528 -4.16759574 -4.31063154 -3.51656784 0 0 Z M-58.375 43.0625 C-59.02082031 43.65675781 -59.66664063 44.25101563 -60.33203125 44.86328125 C-76.00135207 59.65189083 -87.4473734 80.16463604 -97.375 99.0625 C-97.81166992 99.88669434 -98.24833984 100.71088867 -98.69824219 101.56005859 C-111.08835495 125.09592075 -120.41399516 149.71544378 -128.375 175.0625 C-128.716521 176.14144531 -128.716521 176.14144531 -129.06494141 177.2421875 C-143.31446294 222.76382663 -148.89658251 271.67415325 -126.20019531 315.32177734 C-119.74435707 327.15024127 -111.51600701 337.21463129 -102.375 347.0625 C-101.50681641 348.04669922 -101.50681641 348.04669922 -100.62109375 349.05078125 C-89.89762692 360.63788299 -75.62229915 368.63883988 -61.375 375.0625 C-60.33859375 375.54332031 -59.3021875 376.02414062 -58.234375 376.51953125 C-29.03165006 389.44212745 6.85024773 389.73176789 36.71411133 378.55395508 C63.59521296 367.82597884 88.58603837 350.24970403 103.625 325.0625 C103.625 324.7325 103.625 324.4025 103.625 324.0625 C103.01615967 324.04791748 102.40731934 324.03333496 101.7800293 324.01831055 C79.50816784 323.42206262 79.50816784 323.42206262 70.625 320.0625 C69.81675781 319.79695313 69.00851562 319.53140625 68.17578125 319.2578125 C60.91919053 316.68326069 54.83045074 312.56035153 48.625 308.0625 C47.95339844 307.57910156 47.28179687 307.09570312 46.58984375 306.59765625 C35.23607556 297.67499105 26.82299421 282.06517364 24.0625 268.00390625 C21.70234931 246.74147729 23.80630201 226.88990555 36.90478516 209.34863281 C47.10752328 196.69888134 62.50194903 185.77915221 78.92578125 183.3359375 C80.26189453 183.20058594 80.26189453 183.20058594 81.625 183.0625 C82.81480469 182.93101562 84.00460937 182.79953125 85.23046875 182.6640625 C94.97315782 181.7468914 103.96810784 182.57440553 113.625 184.0625 C111.75431878 174.28529688 109.18804362 165.07823463 105.875 155.6875 C105.65700745 155.06162994 105.43901489 154.43575989 105.2144165 153.79092407 C101.80488764 144.00424412 98.07703771 134.42357266 93.625 125.0625 C91.88908708 127.66636938 91.20616182 129.16408955 90.375 132.0625 C85.70012016 146.38949494 76.98873304 157.09463919 63.625 164.0625 C48.85894717 170.57643873 34.13166922 172.61247411 18.625 167.0625 C11.29282344 163.99384833 5.47521268 160.40399854 -0.375 155.0625 C-1.035 155.0625 -1.695 155.0625 -2.375 155.0625 C-2.63539063 154.49789062 -2.89578125 153.93328125 -3.1640625 153.3515625 C-4.4893512 150.84633934 -6.05589861 148.70863155 -7.75 146.4375 C-15.05412605 136.11150059 -17.66527955 125.0878864 -17.69384766 112.60742188 C-17.70389328 111.59188232 -17.7139389 110.57634277 -17.72428894 109.5300293 C-17.75500413 106.19710825 -17.77212368 102.8642671 -17.7890625 99.53125 C-17.80778352 97.21097125 -17.82735762 94.89069925 -17.8477478 92.57043457 C-17.89897622 86.48124168 -17.9386517 80.39202674 -17.97589111 74.30273438 C-18.01598902 68.08197618 -18.06705495 61.86130898 -18.1171875 55.640625 C-18.21383681 43.44798067 -18.29827676 31.25528486 -18.375 19.0625 C-34.01328744 19.0625 -47.7666822 32.82586049 -58.375 43.0625 Z " fill="#015650" transform="translate(264.375,43.9375)"/>
<path d="M0 0 C13.81125665 10.52585166 25.40041491 26.62201852 28.265625 44.08984375 C30.37810776 65.89299151 26.69572134 86.1062957 13.140625 103.83984375 C4.94306264 113.29000477 -5.21669295 120.25302189 -16.734375 125.08984375 C-18.08402344 125.70859375 -18.08402344 125.70859375 -19.4609375 126.33984375 C-34.24884048 132.0796228 -53.62105254 131.14364083 -68.33203125 125.6328125 C-89.46944529 116.04695883 -103.00478997 101.2131056 -111.546875 79.71484375 C-113.92014218 72.47013342 -113.94873233 65.45413433 -113.984375 57.90234375 C-114.005 56.82919922 -114.025625 55.75605469 -114.046875 54.65039062 C-114.09756869 44.17580732 -111.78994733 35.23852835 -106.984375 25.96484375 C-106.63511963 25.28107666 -106.28586426 24.59730957 -105.92602539 23.89282227 C-103.07921864 18.46281391 -99.84914512 13.65228562 -95.734375 9.08984375 C-95.239375 8.50332031 -94.744375 7.91679687 -94.234375 7.3125 C-86.66638987 -1.03120361 -75.47154905 -7.62935307 -64.734375 -10.91015625 C-63.29578125 -11.35488281 -63.29578125 -11.35488281 -61.828125 -11.80859375 C-40.15618339 -17.65572651 -18.21922828 -12.72743233 0 0 Z " fill="#75A655" transform="translate(247.734375,238.91015625)"/>
<path d="M0 0 C3.07365786 1.80803404 4.43019732 2.86039464 6 6 C6.12128293 8.33786335 6.17754956 10.6791771 6.20532227 13.02001953 C6.21522186 13.74207581 6.22512146 14.46413208 6.23532104 15.20806885 C6.26696031 17.59961648 6.29170299 19.99118399 6.31640625 22.3828125 C6.33697369 24.03905764 6.3579701 25.69529751 6.37937927 27.35153198 C6.43462167 31.71461724 6.48402137 36.07775004 6.53222656 40.44091797 C6.58242577 44.89164469 6.63812007 49.34230223 6.69335938 53.79296875 C6.80096747 62.52858736 6.90240653 71.26426379 7 80 C9.91634129 80.2502157 9.91634129 80.2502157 13 80 C15.10197918 76.84703124 15.24011323 76.10214833 15.23828125 72.5078125 C15.25439453 71.63769531 15.27050781 70.76757812 15.28710938 69.87109375 C15.30396357 68.04824756 15.3092728 66.22525613 15.30273438 64.40234375 C15.40864081 59.77662377 15.47349314 57.66855313 18.41796875 53.9296875 C22.51748318 50.86590516 24.83362527 50.41669963 30 51 C43.29394544 57.83611422 51.28919505 72.4418855 55.9375 86.0625 C59.84966067 102.59137883 57.4480878 120.65225811 48.88671875 135.2734375 C39.10629463 149.40746656 25.47617883 160.04015946 8.44702148 163.60522461 C-8.43844557 166.32933917 -25.77193049 163.7920191 -40 154 C-52.47821384 144.36797669 -61.1247686 132.47785873 -65 117 C-65.18949219 116.24976563 -65.37898438 115.49953125 -65.57421875 114.7265625 C-70.28158501 84.58214368 -58.30338242 47.7527975 -40.8125 23.3125 C-30.46117499 9.15426568 -18.63929068 -1.88656788 0 0 Z " fill="#01564F" transform="translate(455,348)"/>
<path d="M0 0 C3.07365786 1.80803404 4.43019732 2.86039464 6 6 C6.12128293 8.33786335 6.17754956 10.6791771 6.20532227 13.02001953 C6.21522186 13.74207581 6.22512146 14.46413208 6.23532104 15.20806885 C6.26696031 17.59961648 6.29170299 19.99118399 6.31640625 22.3828125 C6.33697369 24.03905764 6.3579701 25.69529751 6.37937927 27.35153198 C6.43462167 31.71461724 6.48402137 36.07775004 6.53222656 40.44091797 C6.58242577 44.89164469 6.63812007 49.34230223 6.69335938 53.79296875 C6.80096747 62.52858736 6.90240653 71.26426379 7 80 C9.91634129 80.2502157 9.91634129 80.2502157 13 80 C15.10197918 76.84703124 15.24011323 76.10214833 15.23828125 72.5078125 C15.25439453 71.63769531 15.27050781 70.76757812 15.28710938 69.87109375 C15.30396357 68.04824756 15.3092728 66.22525613 15.30273438 64.40234375 C15.40864081 59.77662377 15.47349314 57.66855313 18.41796875 53.9296875 C22.51748318 50.86590516 24.83362527 50.41669963 30 51 C43.29394544 57.83611422 51.28919505 72.4418855 55.9375 86.0625 C59.84966067 102.59137883 57.4480878 120.65225811 48.88671875 135.2734375 C39.10629463 149.40746656 25.47617883 160.04015946 8.44702148 163.60522461 C-8.43844557 166.32933917 -25.77193049 163.7920191 -40 154 C-52.47821384 144.36797669 -61.1247686 132.47785873 -65 117 C-65.18949219 116.24976562 -65.37898438 115.49953125 -65.57421875 114.7265625 C-70.28158501 84.58214368 -58.30338242 47.7527975 -40.8125 23.3125 C-30.46117499 9.15426568 -18.63929068 -1.88656788 0 0 Z " fill="#01564F" transform="translate(455,0)"/>
<path d="M0 0 C3.07365786 1.80803404 4.43019732 2.86039464 6 6 C6.11073106 8.23034317 6.15656206 10.46399612 6.17358398 12.69702148 C6.180271 13.38499817 6.18695801 14.07297485 6.19384766 14.78179932 C6.20790719 16.27740641 6.21979837 17.77303508 6.22979546 19.26867485 C6.24618792 21.63468641 6.26942439 24.00053794 6.29469299 26.36647034 C6.36552112 33.09392342 6.42562759 39.82144155 6.47680664 46.54907227 C6.50857716 50.66226687 6.54984673 54.77527724 6.59700203 58.88832283 C6.61303274 60.4571915 6.62534937 62.02610261 6.63390923 63.59502983 C6.64604731 65.78807181 6.67018972 67.98067966 6.69702148 70.17358398 C6.71248268 72.04650368 6.71248268 72.04650368 6.72825623 73.95726013 C6.7710342 77.17491142 6.7710342 77.17491142 9 80 C11.47266765 79.65555119 11.47266765 79.65555119 14 79 C15.17386894 76.65226212 15.12473702 75.22036608 15.140625 72.60546875 C15.16962891 71.29545898 15.16962891 71.29545898 15.19921875 69.95898438 C15.23285421 68.1232645 15.25128523 66.287198 15.25390625 64.45117188 C15.383292 59.81711893 15.47391389 57.66778995 18.421875 53.92578125 C22.51300713 50.86982952 24.85769236 50.57147436 30 51 C42.8956721 57.58502405 50.22083172 71.0256855 55.0546875 84.0546875 C57.02127051 90.18197505 57.18302464 95.86813175 57.1875 102.25 C57.19974609 103.15363281 57.21199219 104.05726562 57.22460938 104.98828125 C57.24436189 114.14027773 55.58827982 121.78190185 51.4375 129.9375 C51.08888916 130.6269873 50.74027832 131.31647461 50.38110352 132.02685547 C47.11789001 138.21718236 43.06041765 143.16283607 38 148 C37.2265625 148.81984375 37.2265625 148.81984375 36.4375 149.65625 C32.56599136 153.44710221 27.90493606 155.79973903 23.125 158.25 C22.13487915 158.76264404 22.13487915 158.76264404 21.12475586 159.28564453 C7.99764093 165.74381824 -8.6113707 166.09132158 -22.625 162.375 C-38.90518881 156.82668094 -51.92624913 146.28779678 -60 131 C-71.70177121 104.49976935 -64.73412464 76.76972373 -55.06884766 50.7265625 C-47.63129302 31.7538329 -35.89501742 10.81423826 -16.796875 1.76171875 C-11.30207228 -0.5675998 -5.88822117 -0.5959738 0 0 Z " fill="#01564F" transform="translate(66,0)"/>
<path d="M0 0 C3.07365786 1.80803404 4.43019732 2.86039464 6 6 C6.11073106 8.23034317 6.15656206 10.46399612 6.17358398 12.69702148 C6.180271 13.38499817 6.18695801 14.07297485 6.19384766 14.78179932 C6.20790719 16.27740641 6.21979837 17.77303508 6.22979546 19.26867485 C6.24618792 21.63468641 6.26942439 24.00053794 6.29469299 26.36647034 C6.36552112 33.09392342 6.42562759 39.82144155 6.47680664 46.54907227 C6.50857716 50.66226687 6.54984673 54.77527724 6.59700203 58.88832283 C6.61303274 60.4571915 6.62534937 62.02610261 6.63390923 63.59502983 C6.64604731 65.78807181 6.67018972 67.98067966 6.69702148 70.17358398 C6.71248268 72.04650368 6.71248268 72.04650368 6.72825623 73.95726013 C6.7710342 77.17491142 6.7710342 77.17491142 9 80 C11.47266765 79.65555119 11.47266765 79.65555119 14 79 C15.17386894 76.65226212 15.12473702 75.22036608 15.140625 72.60546875 C15.16962891 71.29545898 15.16962891 71.29545898 15.19921875 69.95898438 C15.23285421 68.1232645 15.25128523 66.287198 15.25390625 64.45117188 C15.383292 59.81711893 15.47391389 57.66778995 18.421875 53.92578125 C22.51300713 50.86982952 24.85769236 50.57147436 30 51 C42.46501775 57.36511545 50.43361424 70.73333289 54.9921875 83.48828125 C60.00470476 100.95437821 58.01246627 117.84943982 49.43359375 133.9375 C40.61314637 148.67235409 26.98978764 158.76659324 10.38671875 163.15625 C-6.39101962 166.84619933 -23.3709365 163.7695198 -38 155 C-52.40660513 145.04522135 -61.24226165 131.68023116 -65.5859375 114.7109375 C-70.37313812 83.3683221 -57.37839811 46.1391619 -39 21 C-28.41491007 8.0375102 -17.66683034 -1.78814072 0 0 Z " fill="#01564F" transform="translate(66,348)"/>
<path d="M0 0 C1.3295433 1.16838654 2.64355025 2.35481356 3.9375 3.5625 C4.535625 4.036875 5.13375 4.51125 5.75 5 C12.73432207 10.98656177 17.07393214 20.97179641 19.9375 29.5625 C20.16758406 32.95420971 20.12267052 36.35129142 20.125 39.75 C20.13724609 40.67103516 20.14949219 41.59207031 20.16210938 42.54101562 C20.19175942 56.46665364 15.07424615 68.21895076 5.421875 78.30859375 C-6.1324796 88.79108212 -19.21018875 93.01219715 -34.59765625 92.8359375 C-47.58703363 91.81084571 -60.38027372 85.3797584 -69.25 75.86328125 C-78.92603437 63.58055659 -83.3961129 50.17140597 -82.0625 34.5625 C-78.82993631 19.06466606 -71.13556679 6.49896221 -58.0625 -2.4375 C-39.48630082 -12.54225548 -17.39718506 -12.98911452 0 0 Z " fill="#75A555" transform="translate(389.0625,255.4375)"/>
<path d="M0 0 C13.81125665 10.52585166 25.40041491 26.62201852 28.265625 44.08984375 C30.37810776 65.89299151 26.69572134 86.1062957 13.140625 103.83984375 C4.94306264 113.29000477 -5.21669295 120.25302189 -16.734375 125.08984375 C-18.08402344 125.70859375 -18.08402344 125.70859375 -19.4609375 126.33984375 C-34.24884048 132.0796228 -53.62105254 131.14364083 -68.33203125 125.6328125 C-89.46944529 116.04695883 -103.00478997 101.2131056 -111.546875 79.71484375 C-113.92014218 72.47013342 -113.94873233 65.45413433 -113.984375 57.90234375 C-114.005 56.82919922 -114.025625 55.75605469 -114.046875 54.65039062 C-114.09756869 44.17580732 -111.78994733 35.23852835 -106.984375 25.96484375 C-106.63511963 25.28107666 -106.28586426 24.59730957 -105.92602539 23.89282227 C-103.07921864 18.46281391 -99.84914512 13.65228562 -95.734375 9.08984375 C-95.239375 8.50332031 -94.744375 7.91679687 -94.234375 7.3125 C-86.66638987 -1.03120361 -75.47154905 -7.62935307 -64.734375 -10.91015625 C-63.29578125 -11.35488281 -63.29578125 -11.35488281 -61.828125 -11.80859375 C-40.15618339 -17.65572651 -18.21922828 -12.72743233 0 0 Z M-73.734375 17.08984375 C-74.435625 17.62609375 -75.136875 18.16234375 -75.859375 18.71484375 C-85.60517995 26.68868416 -92.61542277 38.70235161 -93.97314453 51.30639648 C-94.85173653 66.33810051 -91.89313487 77.90381871 -82.734375 90.08984375 C-81.80625 91.42015625 -81.80625 91.42015625 -80.859375 92.77734375 C-71.93257526 102.49180229 -59.38247282 108.27182849 -46.37109375 109.375 C-30.84636847 110.00372719 -18.65258076 104.97104884 -7.046875 94.71484375 C-6.28375 93.84859375 -5.520625 92.98234375 -4.734375 92.08984375 C-4.18136719 91.47882813 -3.62835938 90.8678125 -3.05859375 90.23828125 C6.86743488 78.54809763 9.07927974 64.94657667 8.265625 50.08984375 C6.31158372 37.20641901 -0.8008233 25.59980487 -10.82421875 17.375 C-30.15431997 3.6376948 -54.73952233 2.56436818 -73.734375 17.08984375 Z " fill="#025650" transform="translate(247.734375,238.91015625)"/>
<path d="M0 0 C0.00879936 0.92175774 0.00879936 0.92175774 0.01777649 1.86213684 C0.08210115 8.30348385 0.16661797 14.74434915 0.26245117 21.18530273 C0.29554442 23.5836753 0.32362402 25.98212284 0.34643555 28.38061523 C0.38026944 31.84390983 0.43259941 35.30652703 0.48828125 38.76953125 C0.49467117 39.82831985 0.5010611 40.88710846 0.50764465 41.97798157 C0.69953022 51.86811799 1.86639901 61.06120086 9.0703125 68.33984375 C15.45311955 73.83112512 21.18015996 74.71514193 29.58984375 74.4453125 C37.39565352 73.42599713 42.24721614 69.40123477 47.00390625 63.35546875 C47.33261719 62.90816406 47.66132812 62.46085937 48 62 C48.66 62.33 49.32 62.66 50 63 C53.2089777 72.6269331 51.74335266 85.01150378 47.67578125 94.09765625 C42.11734724 103.72450117 33.55489793 111.33422707 23 115 C10.02153364 117.72300248 -1.30895185 116.52578987 -12.53125 109.390625 C-21.29075569 103.0253842 -27.30990764 94.54470802 -30 84 C-33.73626112 58.14317224 -21.98686747 27.19231928 -6.8125 6.5 C-1.81355932 0 -1.81355932 0 0 0 Z " fill="#EFB034" transform="translate(51,27)"/>
<path d="M0 0 C0.33 0 0.66 0 1 0 C1.00364563 0.66683807 1.00729126 1.33367615 1.01104736 2.02072144 C1.05304371 8.99723448 1.12250904 15.97310012 1.20751953 22.94921875 C1.2356454 25.54843655 1.25690136 28.14773855 1.27099609 30.74707031 C1.29254097 34.49587857 1.33925377 38.24368334 1.390625 41.9921875 C1.39185364 43.14363251 1.39308228 44.29507751 1.39434814 45.48141479 C1.5431938 53.78765625 2.79019504 61.0954072 8.18359375 67.65625 C8.92738281 68.2646875 9.67117188 68.873125 10.4375 69.5 C11.54931641 70.44359375 11.54931641 70.44359375 12.68359375 71.40625 C19.28586306 75.94878943 26.22214806 75.82963754 34 75 C40.63239387 72.85309794 44.94433498 68.51888533 49 63 C49.66 63.33 50.32 63.66 51 64 C53.9398586 72.8195758 53.00966825 85.15738133 49.328125 93.609375 C43.22144321 104.60140223 34.81901009 111.53762904 23.25390625 116.078125 C12.60343264 119.09554609 1.89202817 117.64109975 -7.91015625 112.82421875 C-17.39673449 107.22341971 -24.43438893 99.19748609 -28.1640625 88.734375 C-31.47030882 73.96441479 -28.47235589 59.1639541 -24 45 C-23.78069824 44.2992334 -23.56139648 43.5984668 -23.33544922 42.87646484 C-18.47323371 27.80177571 -11.23105559 11.40699902 0 0 Z " fill="#F0B034" transform="translate(439,374)"/>
<path d="M0 0 C0.66 0 1.32 0 2 0 C2.00364563 0.65653061 2.00729126 1.31306122 2.01104736 1.98948669 C2.05301299 8.85231316 2.12245721 15.7144796 2.20751953 22.5769043 C2.2356618 25.13445418 2.25690969 27.69208994 2.27099609 30.24975586 C2.29251813 33.93648027 2.33921935 37.62217934 2.390625 41.30859375 C2.39185364 42.44332626 2.39308228 43.57805878 2.39434814 44.74717712 C2.56549294 54.12469717 4.81348954 61.55829332 11.328125 68.4921875 C17.47645246 74.03717441 23.49788234 74.65375429 31.66015625 74.375 C39.69381441 73.47297522 43.74327608 69.73367123 48.75 63.609375 C49.1625 63.07828125 49.575 62.5471875 50 62 C50.66 62.33 51.32 62.66 52 63 C55.2089777 72.6269331 53.74335266 85.01150378 49.67578125 94.09765625 C44.01436713 103.90285599 34.80855035 112.31419552 23.76953125 115.5234375 C11.13169516 117.6980722 0.39325562 116.35297417 -10.5234375 109.390625 C-19.2921145 103.03988884 -25.3110198 94.54034855 -28 84 C-31.72331347 58.23277656 -20.06157629 27.0263885 -4.75 6.5 C-4.03070313 5.58734375 -4.03070313 5.58734375 -3.296875 4.65625 C-2.12442683 3.15890656 -1.05490387 1.58235581 0 0 Z " fill="#EFB034" transform="translate(49,375)"/>
<path d="M0 0 C0.00364563 0.65431 0.00729126 1.30862 0.01104736 1.98275757 C0.05305065 8.82951625 0.1225206 15.67561568 0.20751953 22.52197266 C0.23564171 25.07268664 0.25689949 27.62348635 0.27099609 30.17431641 C0.29254618 33.85363377 0.33926135 37.53192981 0.390625 41.2109375 C0.39185364 42.34050873 0.39308228 43.47007996 0.39434814 44.63388062 C0.54480771 52.87742037 1.83350385 60.14809055 7.18359375 66.65625 C7.92738281 67.2646875 8.67117188 67.873125 9.4375 68.5 C10.54931641 69.44359375 10.54931641 69.44359375 11.68359375 70.40625 C18.28586306 74.94878943 25.22214806 74.82963754 33 74 C39.63239387 71.85309794 43.94433498 67.51888533 48 62 C48.66 62.33 49.32 62.66 50 63 C52.96346391 71.89039172 51.97642111 84.17629578 48.2578125 92.6796875 C42.33475301 103.60607675 33.7100705 110.58793535 22.2578125 115.07421875 C11.6096882 118.10012458 0.89088028 116.64053567 -8.91015625 111.82421875 C-18.39673449 106.22341971 -25.43438893 98.19748609 -29.1640625 87.734375 C-32.47030882 72.96441479 -29.47235589 58.1639541 -25 44 C-24.78069824 43.2992334 -24.56139648 42.5984668 -24.33544922 41.87646484 C-21.45758148 32.95399701 -10.51928154 0 0 0 Z " fill="#F0B034" transform="translate(440,27)"/>
<path d="M0 0 C8.17755001 5.36750387 14.32612239 11.81715739 17.0234375 21.328125 C18.33230929 31.01881039 16.311826 38.18148843 11.0234375 46.328125 C5.44461741 53.05131845 -1.45130264 57.63245064 -10.203125 58.734375 C-20.06362348 59.00638875 -27.61370851 57.04122996 -35.13671875 50.4296875 C-36.94576475 48.48621133 -38.47309836 46.5142205 -39.9765625 44.328125 C-40.40839844 43.75835937 -40.84023437 43.18859375 -41.28515625 42.6015625 C-44.15388182 38.09498323 -44.35247981 33.49835978 -44.4140625 28.265625 C-44.42429443 27.59273438 -44.43452637 26.91984375 -44.44506836 26.2265625 C-44.30707662 18.33690896 -40.92368012 11.46074684 -35.48046875 5.76171875 C-25.77528488 -3.18139526 -12.14885317 -6.41314926 0 0 Z " fill="#01574F" transform="translate(228.9765625,258.671875)"/>
<path d="M0 0 C6.63671056 4.53361632 11.30753905 11.153599 13.80859375 18.78125 C15.05122439 29.25858833 13.36945295 38.18256009 7.33984375 46.90625 C1.90332059 53.08896261 -5.69089785 56.16957869 -13.7265625 57.26171875 C-21.75171772 57.58482076 -27.49412966 56.18634206 -34.19140625 51.78125 C-35.09890625 51.20375 -36.00640625 50.62625 -36.94140625 50.03125 C-43.56535539 43.40730086 -47.45101056 35.91965699 -47.56640625 26.46875 C-47.46209932 20.3563641 -46.31028036 16.00331224 -43.19140625 10.78125 C-42.84078125 10.15605469 -42.49015625 9.53085937 -42.12890625 8.88671875 C-38.34102626 2.84978501 -32.63890511 -0.5699462 -26.31640625 -3.59375 C-17.19721772 -5.41758771 -8.18606224 -4.55267633 0 0 Z " fill="#01574F" transform="translate(385.19140625,260.21875)"/>
<path d="M0 0 C3.4185354 0.79889686 5.05365451 2.80995577 7.15625 5.50390625 C7.48625 5.83390625 7.81625 6.16390625 8.15625 6.50390625 C8.55064054 10.60556784 8.60629791 12.80555605 6.34375 16.31640625 C3.7020538 18.95810245 2.04854075 20.40691813 -1.71875 20.81640625 C-5.25433347 20.4628479 -7.01931707 19.62223095 -9.84375 17.50390625 C-12.53365329 13.46905131 -12.62368882 10.24161973 -11.84375 5.50390625 C-8.72709274 0.57757703 -5.54832131 -0.28666327 0 0 Z " fill="#EAAE34" transform="translate(370.84375,276.49609375)"/>
<path d="M0 0 C3.0625 1.9375 3.0625 1.9375 5 5 C5.69131968 8.15950234 5.69814258 10.84119094 5 14 C2.55660889 17.66508667 0.30129886 19.23005206 -3.9375 20.125 C-7.23957287 20.36890311 -8.87311558 19.76489796 -11.4375 17.6875 C-14.40374361 14.57656158 -14.91331383 13.91887342 -15.3125 9.6875 C-14.95124058 5.42463889 -13.98007946 3.98007946 -11 1 C-7.50797535 -0.74601232 -3.81017721 -0.55838804 0 0 Z " fill="#EAAE34" transform="translate(220,277)"/>
</svg>
