<?xml version="1.0" encoding="UTF-8"?>
<svg version="1.1" xmlns="http://www.w3.org/2000/svg" width="512" height="512">
<path d="M0 0 C0.65983887 0.47050781 1.31967773 0.94101562 1.99951172 1.42578125 C10.24907129 7.35716959 18.0117818 13.57798997 25.40234375 20.55078125 C27.57698629 22.6011585 29.78671537 24.56443367 32.0625 26.5 C39.96088444 33.36172148 47.32838148 40.94524106 54 49 C54.41830078 49.49918945 54.83660156 49.99837891 55.26757812 50.51269531 C78.35254646 78.17291815 78.35254646 78.17291815 79.3125 86.8125 C79 90 79 90 77.625 92.875 C74.53635691 95.37533012 74.02171568 95.13164517 70.25 94.8125 C66.76419785 94.59011203 65.44095673 94.68027092 62.5703125 96.76171875 C60.60044681 98.77014053 58.75571824 100.80290008 57 103 C57.33 103.99 57.66 104.98 58 106 C58.59813084 111.12683578 58.59813084 111.12683578 58 114 C56.625 115.7265625 56.625 115.7265625 54.9375 117.375 C52.60535225 119.77769655 52.60535225 119.77769655 51.83300781 122.9284668 C51.93452148 123.65718994 52.03603516 124.38591309 52.140625 125.13671875 C52.25913818 126.02327148 52.37765137 126.90982422 52.49975586 127.82324219 C52.66483643 128.87157227 52.82991699 129.91990234 53 131 C53.19537354 132.2571582 53.39074707 133.51431641 53.59204102 134.80957031 C54.05698751 137.74667502 54.53463272 140.68148373 55.01879883 143.61547852 C57.45755703 158.39556151 59.64140539 173.17495389 61.3125 188.0625 C61.39335846 188.77767792 61.47421692 189.49285583 61.55752563 190.22970581 C67.45860493 242.8387218 66.54375434 291.70559843 38 338 C38.77214844 338.29519531 39.54429687 338.59039062 40.33984375 338.89453125 C43 340 43 340 45.5625 341.6875 C47.81520795 343.22372592 47.81520795 343.22372592 49.8125 342.6875 C50.534375 342.460625 51.25625 342.23375 52 342 C56.44366156 341.22041025 58.65618139 341.18049771 62.54296875 343.55078125 C87.51004832 363.25784117 104.11311774 392.42861842 108 424 C108.12259844 426.66824942 108.20991915 429.31189892 108.23828125 431.98046875 C108.246353 432.71574295 108.25442474 433.45101715 108.26274109 434.20857239 C108.27647597 435.75059723 108.28724472 437.29265113 108.29516602 438.8347168 C108.30676225 440.40870091 108.32733263 441.98264344 108.35668945 443.55639648 C108.39926564 445.84385573 108.41551018 448.13016317 108.42578125 450.41796875 C108.44328934 451.11907272 108.46079742 451.8201767 108.47883606 452.54252625 C108.46359015 455.97054737 108.23323286 457.70065106 106.09838867 460.44067383 C103.20137484 462.59346351 101.40510874 462.5734012 97.90625 462.390625 C94.91974312 461.77863588 93.66160366 460.49240549 92 458 C92 456.68 92 455.36 92 454 C-66.07 454 -224.14 454 -387 454 C-387.33 455.65 -387.66 457.3 -388 459 C-389.58838144 461.20152565 -390.46311248 461.88135082 -393.12109375 462.46875 C-394.26771484 462.48421875 -394.26771484 462.48421875 -395.4375 462.5 C-396.58025391 462.54640625 -396.58025391 462.54640625 -397.74609375 462.59375 C-401.11601459 461.70600655 -402.09802472 459.85222591 -404 457 C-404.50170898 454.16357422 -404.50170898 454.16357422 -404.49609375 451.0546875 C-404.49915527 449.90468262 -404.5022168 448.75467773 -404.50537109 447.56982422 C-404.48297363 446.35053223 -404.46057617 445.13124023 -404.4375 443.875 C-404.42283691 442.6183252 -404.40817383 441.36165039 -404.39306641 440.06689453 C-403.73499257 407.3015238 -392.40306577 379.21570715 -370.5625 354.75 C-370.10649414 354.23469727 -369.65048828 353.71939453 -369.18066406 353.18847656 C-366.16029649 349.90380018 -363.17949105 347.95900774 -359.3125 345.8125 C-356.59281398 343.70527871 -355.20780087 342.18846607 -354.60693359 338.75195312 C-354.29991703 333.60776223 -354.54977876 328.49180913 -354.765625 323.34765625 C-355.0916528 315.53251584 -354.75002391 307.79688971 -354.25 300 C-354.18455994 298.96069336 -354.18455994 298.96069336 -354.11779785 297.90039062 C-347.34400534 192.81867478 -347.34400534 192.81867478 -329.734375 166.078125 C-327.17122911 164.4848181 -324.94415223 164.80372318 -322 165 C-321.76216797 163.96166016 -321.76216797 163.96166016 -321.51953125 162.90234375 C-320.43616844 158.35940244 -319.37725426 153.95133682 -317.65234375 149.6015625 C-313.87516401 140.06918132 -313.88916741 132.34998883 -314.65234375 122.19140625 C-316.80206039 93.378865 -308.08589448 62.92728517 -294 38 C-293.64292969 37.35740234 -293.28585937 36.71480469 -292.91796875 36.05273438 C-288.0373957 27.33496166 -282.62823752 19.514304 -276 12 C-275.2575 11.14792969 -274.515 10.29585937 -273.75 9.41796875 C-271.533094 6.91240312 -269.28039996 4.44784192 -267 2 C-266.30390625 1.24976563 -265.6078125 0.49953125 -264.890625 -0.2734375 C-235.83549641 -30.49501286 -192.94233172 -46.8555103 -151.52783203 -47.96386719 C-97.55581947 -48.73534274 -43.85448385 -31.30649124 0 0 Z " fill="#606060" transform="translate(404,50)"/>
<path d="M0 0 C3.49414867 1.29551392 6.48469713 2.81572164 9.58984375 4.87109375 C10.44980957 5.43989258 11.30977539 6.00869141 12.19580078 6.59472656 C13.10056152 7.2028418 14.00532227 7.81095703 14.9375 8.4375 C15.87319824 9.06495117 16.80889648 9.69240234 17.77294922 10.33886719 C28.7210471 17.75052431 38.88418942 25.74692039 48.5625 34.75 C50.62225336 36.65131079 52.7226261 38.45635509 54.875 40.25 C69.85162258 53.32774609 81.72175732 69.75611393 93 86 C93.77472656 87.0415625 94.54945313 88.083125 95.34765625 89.15625 C97 92 97 92 96.97265625 94.140625 C95.76551266 96.44825693 94.3285374 97.96211009 92.4375 99.75 C91.79683594 100.36359375 91.15617187 100.9771875 90.49609375 101.609375 C90.00238281 102.06828125 89.50867188 102.5271875 89 103 C89.33 103.99 89.66 104.98 90 106 C90.59813084 111.12683578 90.59813084 111.12683578 90 114 C88.625 115.7265625 88.625 115.7265625 86.9375 117.375 C84.60535225 119.77769655 84.60535225 119.77769655 83.83300781 122.9284668 C83.93452148 123.65718994 84.03603516 124.38591309 84.140625 125.13671875 C84.25913818 126.02327148 84.37765137 126.90982422 84.49975586 127.82324219 C84.66483643 128.87157227 84.82991699 129.91990234 85 131 C85.19537354 132.2571582 85.39074707 133.51431641 85.59204102 134.80957031 C86.05698751 137.74667502 86.53463272 140.68148373 87.01879883 143.61547852 C89.45755703 158.39556151 91.64140539 173.17495389 93.3125 188.0625 C93.39335846 188.77767792 93.47421692 189.49285583 93.55752563 190.22970581 C99.45860493 242.8387218 98.54375434 291.70559843 70 338 C70.77214844 338.29519531 71.54429687 338.59039062 72.33984375 338.89453125 C75 340 75 340 77.5625 341.6875 C79.81520795 343.22372592 79.81520795 343.22372592 81.8125 342.6875 C82.534375 342.460625 83.25625 342.23375 84 342 C88.44366156 341.22041025 90.65618139 341.18049771 94.54296875 343.55078125 C119.51004832 363.25784117 136.11311774 392.42861842 140 424 C140.12259844 426.66824942 140.20991915 429.31189892 140.23828125 431.98046875 C140.246353 432.71574295 140.25442474 433.45101715 140.26274109 434.20857239 C140.27647597 435.75059723 140.28724472 437.29265113 140.29516602 438.8347168 C140.30676225 440.40870091 140.32733263 441.98264344 140.35668945 443.55639648 C140.39926564 445.84385573 140.41551018 448.13016317 140.42578125 450.41796875 C140.44328934 451.11907272 140.46079742 451.8201767 140.47883606 452.54252625 C140.46359015 455.97054737 140.23323286 457.70065106 138.09838867 460.44067383 C135.20137484 462.59346351 133.40510874 462.5734012 129.90625 462.390625 C126.91974312 461.77863588 125.66160366 460.49240549 124 458 C124 456.68 124 455.36 124 454 C-34.07 454 -192.14 454 -355 454 C-355.33 455.65 -355.66 457.3 -356 459 C-357.58838144 461.20152565 -358.46311248 461.88135082 -361.12109375 462.46875 C-362.26771484 462.48421875 -362.26771484 462.48421875 -363.4375 462.5 C-364.58025391 462.54640625 -364.58025391 462.54640625 -365.74609375 462.59375 C-369.11601459 461.70600655 -370.09802472 459.85222591 -372 457 C-372.50170898 454.16357422 -372.50170898 454.16357422 -372.49609375 451.0546875 C-372.49915527 449.90468262 -372.5022168 448.75467773 -372.50537109 447.56982422 C-372.48297363 446.35053223 -372.46057617 445.13124023 -372.4375 443.875 C-372.42283691 442.6183252 -372.40817383 441.36165039 -372.39306641 440.06689453 C-371.73499257 407.3015238 -360.40306577 379.21570715 -338.5625 354.75 C-338.10649414 354.23469727 -337.65048828 353.71939453 -337.18066406 353.18847656 C-334.16029649 349.90380018 -331.17949105 347.95900774 -327.3125 345.8125 C-324.59281398 343.70527871 -323.20780087 342.18846607 -322.60693359 338.75195312 C-322.29991703 333.60776223 -322.54977876 328.49180913 -322.765625 323.34765625 C-323.0916528 315.53251584 -322.75002391 307.79688971 -322.25 300 C-322.18455994 298.96069336 -322.18455994 298.96069336 -322.11779785 297.90039062 C-315.34400534 192.81867478 -315.34400534 192.81867478 -297.734375 166.078125 C-295.17122911 164.4848181 -292.94415223 164.80372318 -290 165 C-289.76216797 163.96166016 -289.76216797 163.96166016 -289.51953125 162.90234375 C-287.49614714 154.41754519 -284.84619947 146.23485381 -282 138 C-281.34 138 -280.68 138 -280 138 C-279.88785156 139.13695312 -279.88785156 139.13695312 -279.7734375 140.296875 C-269.61817027 228.30919102 -225.47154077 325.45263049 -162 406.84375 C-160.14771241 408.84074756 -158.42072532 410.90013086 -156.6875 413 C-147.24262832 423.69556245 -135.54543158 431.48485614 -122 436 C-117.71332213 436.13608501 -114.13299259 436.16500462 -110 435 C-109.97164063 434.26394531 -109.94328125 433.52789062 -109.9140625 432.76953125 C-109.1541314 424.99564153 -109.1541314 424.99564153 -105.78125 422.0859375 C-103.14624136 420.69868295 -100.92162123 419.59615636 -98 419 C-95.8828125 419.828125 -95.8828125 419.828125 -94 421 C-90.72565709 422.26623541 -90.72565709 422.26623541 -87 422 C-83.92375563 420.07657667 -81.52867787 417.58258379 -79 415 C-78.09507812 414.18208984 -78.09507812 414.18208984 -77.171875 413.34765625 C-19.42280064 359.84483735 14.0326485 262.55315954 45.56201172 154.29443359 C45.84776809 152.79747796 46.14572617 151.30278506 46.45751953 149.81103516 C53.7038538 115.12712452 48.52753623 78.68435457 33 47 C32.67161133 46.31486328 32.34322266 45.62972656 32.00488281 44.92382812 C24.99042831 30.4152983 15.86153463 17.75567563 4.83984375 6.015625 C3.08395646 4.09197778 1.52498844 2.1093298 0 0 Z " fill="#838383" transform="translate(372,50)"/>
<path d="M0 0 C19.08027763 16.72791463 31.53139456 38.30785565 37.50390625 62.875 C37.87322266 64.32519531 37.87322266 64.32519531 38.25 65.8046875 C44.33097697 94.74175031 36.61369223 126.04104015 20.78125 150.55078125 C12.67920111 162.59156606 2.63459747 173.64400203 -9.59765625 181.53515625 C-11.62738407 182.74350656 -11.62738407 182.74350656 -12.49609375 184.875 C-12.64988227 186.83274069 -12.74580838 188.79517352 -12.8125 190.7578125 C-12.85439453 191.92441406 -12.89628906 193.09101563 -12.93945312 194.29296875 C-12.97876953 195.51628906 -13.01808594 196.73960937 -13.05859375 198 C-13.12336914 199.84658203 -13.12336914 199.84658203 -13.18945312 201.73046875 C-13.29577998 204.77850512 -13.39646347 207.82673739 -13.49609375 210.875 C-19.76609375 210.875 -26.03609375 210.875 -32.49609375 210.875 C-32.55216797 208.54501953 -32.55216797 208.54501953 -32.609375 206.16796875 C-32.67502599 204.132788 -32.74147363 202.09763283 -32.80859375 200.0625 C-32.83115234 199.03833984 -32.85371094 198.01417969 -32.87695312 196.95898438 C-32.91240234 195.97607422 -32.94785156 194.99316406 -32.984375 193.98046875 C-33.01055908 193.07449951 -33.03674316 192.16853027 -33.0637207 191.23510742 C-33.57601119 188.43877079 -34.19810788 187.51575326 -36.49609375 185.875 C-41.09712085 185.28931271 -41.09712085 185.28931271 -45.18286133 187.0793457 C-46.92159541 189.45681162 -46.92313516 191.05063285 -47.0078125 193.98046875 C-47.04326172 194.96337891 -47.07871094 195.94628906 -47.11523438 196.95898438 C-47.13779297 197.98314453 -47.16035156 199.00730469 -47.18359375 200.0625 C-47.21775391 201.09826172 -47.25191406 202.13402344 -47.28710938 203.20117188 C-47.36961134 205.75873264 -47.43452831 208.31684963 -47.49609375 210.875 C-53.43609375 210.875 -59.37609375 210.875 -65.49609375 210.875 C-65.521875 209.40546875 -65.54765625 207.9359375 -65.57421875 206.421875 C-65.63049995 204.48955364 -65.68784729 202.55726312 -65.74609375 200.625 C-65.76027344 199.65691406 -65.77445312 198.68882812 -65.7890625 197.69140625 C-65.91020847 192.1080397 -65.91020847 192.1080397 -68.35546875 187.234375 C-71.3128455 185.35633283 -73.0585613 185.30207793 -76.49609375 185.875 C-78.8477815 187.17736778 -78.8477815 187.17736778 -80.49609375 189.875 C-81.13755224 193.45014303 -81.19298605 196.99919253 -81.24609375 200.625 C-81.29056641 202.10033203 -81.29056641 202.10033203 -81.3359375 203.60546875 C-81.40650267 206.0282064 -81.4535781 208.45160783 -81.49609375 210.875 C-87.76609375 210.875 -94.03609375 210.875 -100.49609375 210.875 C-100.55216797 208.54501953 -100.55216797 208.54501953 -100.609375 206.16796875 C-100.67502599 204.132788 -100.74147363 202.09763283 -100.80859375 200.0625 C-100.83115234 199.03833984 -100.85371094 198.01417969 -100.87695312 196.95898438 C-100.91240234 195.97607422 -100.94785156 194.99316406 -100.984375 193.98046875 C-101.01055908 193.07449951 -101.03674316 192.16853027 -101.0637207 191.23510742 C-101.57601119 188.43877079 -102.19810788 187.51575326 -104.49609375 185.875 C-109.09712085 185.28931271 -109.09712085 185.28931271 -113.18286133 187.0793457 C-114.92159541 189.45681162 -114.92313516 191.05063285 -115.0078125 193.98046875 C-115.06098633 195.45483398 -115.06098633 195.45483398 -115.11523438 196.95898438 C-115.13779297 197.98314453 -115.16035156 199.00730469 -115.18359375 200.0625 C-115.21775391 201.09826172 -115.25191406 202.13402344 -115.28710938 203.20117188 C-115.36961134 205.75873264 -115.43452831 208.31684963 -115.49609375 210.875 C-121.43609375 210.875 -127.37609375 210.875 -133.49609375 210.875 C-133.51027344 209.05613281 -133.52445313 207.23726562 -133.5390625 205.36328125 C-133.58596353 202.97132881 -133.6342109 200.57940249 -133.68359375 198.1875 C-133.68939453 196.98931641 -133.69519531 195.79113281 -133.70117188 194.55664062 C-133.75254367 187.7679605 -133.75254367 187.7679605 -136.65234375 181.84375 C-137.59078125 181.1940625 -138.52921875 180.544375 -139.49609375 179.875 C-141.00623047 178.68970703 -141.00623047 178.68970703 -142.546875 177.48046875 C-143.63312149 176.67314126 -144.7203931 175.86719153 -145.80859375 175.0625 C-168.47308749 157.83405747 -183.94536514 131.0279288 -188.17089844 102.84228516 C-188.81927023 96.9261359 -188.90125648 91.00951369 -188.93359375 85.0625 C-188.94366455 83.87140625 -188.95373535 82.6803125 -188.96411133 81.453125 C-188.88127824 72.94657766 -187.54832673 65.11564826 -185.49609375 56.875 C-185.20629639 55.6775415 -184.91649902 54.48008301 -184.61791992 53.24633789 C-180.91818076 38.40608702 -173.18743768 23.92284197 -163.28125 12.26953125 C-160.86047576 9.02240957 -161.12967001 6.8323764 -161.49609375 2.875 C-161.82609375 1.885 -162.15609375 0.895 -162.49609375 -0.125 C-161.21507488 -1.50898492 -159.89437126 -2.85628925 -158.55859375 -4.1875 C-157.82769531 -4.94160156 -157.09679687 -5.69570312 -156.34375 -6.47265625 C-153.14972357 -8.32598023 -152.66525794 -8.19928958 -149.22265625 -7.5859375 C-143.60918397 -6.6783284 -140.46167692 -8.73977567 -135.80859375 -11.6875 C-134.2281214 -12.62333823 -132.64475369 -13.55430316 -131.05859375 -14.48046875 C-130.28515625 -14.93599121 -129.51171875 -15.39151367 -128.71484375 -15.86083984 C-87.4728421 -39.35897855 -35.02825428 -29.82061085 0 0 Z " fill="#FDFDFD" transform="translate(329.49609375,88.125)"/>
<path d="M0 0 C0.65983887 0.47050781 1.31967773 0.94101562 1.99951172 1.42578125 C10.24907129 7.35716959 18.0117818 13.57798997 25.40234375 20.55078125 C27.57698629 22.6011585 29.78671537 24.56443367 32.0625 26.5 C39.96088444 33.36172148 47.32838148 40.94524106 54 49 C54.41830078 49.49918945 54.83660156 49.99837891 55.26757812 50.51269531 C78.35254646 78.17291815 78.35254646 78.17291815 79.3125 86.8125 C78.91034486 90.91448247 78.18026445 92.36270753 75 95 C71.85100867 95.80622811 69.14678362 95.82633401 66 95 C63.2114494 92.54183912 61.50119486 89.55790585 59.625 86.375 C58.5090576 84.6186421 57.38922223 82.864752 56.265625 81.11328125 C55.71712891 80.24268066 55.16863281 79.37208008 54.60351562 78.47509766 C52.36880999 75.02573016 49.93228861 71.77732441 47.375 68.5625 C46.9320459 68.0046582 46.4890918 67.44681641 46.03271484 66.87207031 C42.05710899 61.94574455 37.81114409 57.28227885 33.48046875 52.66796875 C31.43719384 50.47024156 29.48851198 48.23658936 27.5625 45.9375 C11.66653649 27.70611057 -9.68375671 13.78256037 -30 1 C-27.44731687 4.26081 -24.78867098 7.31210886 -21.9375 10.3125 C7.22927557 42.81534467 19.94718828 85.93182594 18.24267578 129.01318359 C17.56331158 140.17416689 15.3578991 151.09053175 13 162 C12.79133301 162.99563965 12.58266602 163.9912793 12.36767578 165.01708984 C8.20719577 184.46907158 1.53658504 203.24585178 -5 222 C-5.3554187 223.02275024 -5.3554187 223.02275024 -5.71801758 224.06616211 C-12.58325896 243.7925627 -20.42704728 262.96919313 -29 282 C-29.79277344 283.76706299 -29.79277344 283.76706299 -30.6015625 285.56982422 C-51.26070365 331.42319508 -75.14925281 378.21608347 -110 415 C-110.66128906 415.74894531 -111.32257813 416.49789063 -112.00390625 417.26953125 C-114.84837325 420.39399053 -116.55273298 421.84576999 -120.625 423.25 C-124 423 -124 423 -126.9375 421 C-129.51573401 417.24984144 -129.53053887 415.48064188 -129 411 C-126.98046875 408.40234375 -126.98046875 408.40234375 -124.1875 405.9375 C-117.63841557 399.86896527 -112.35273148 393.12235557 -107 386 C-106.32735107 385.11852295 -106.32735107 385.11852295 -105.64111328 384.21923828 C-86.27431236 358.82690046 -71.34206177 330.43626717 -57 302 C-56.49114258 300.99308105 -55.98228516 299.98616211 -55.45800781 298.94873047 C-34.30660288 256.79232123 -15.86831525 210.91080496 -5 165 C-4.71640625 163.82179687 -4.4328125 162.64359375 -4.140625 161.4296875 C-3.35250352 157.96356139 -2.65843759 154.49306724 -2 151 C-1.86319824 150.30986816 -1.72639648 149.61973633 -1.58544922 148.90869141 C2.34401543 128.65001968 3.15114844 107.08322245 -2 87 C-2.33448081 85.50705711 -2.66638055 84.01353429 -2.99609375 82.51953125 C-8.30176196 59.50453144 -19.43856319 38.70594577 -35 21 C-36.09441406 19.72382813 -36.09441406 19.72382813 -37.2109375 18.421875 C-59.68417962 -7.28435984 -91.33572238 -23.69612293 -125 -29 C-126.15242187 -29.18304687 -127.30484375 -29.36609375 -128.4921875 -29.5546875 C-134.67749831 -30.29666059 -140.90473707 -30.18430028 -147.125 -30.1875 C-148.96964844 -30.20586914 -148.96964844 -30.20586914 -150.8515625 -30.22460938 C-159.40063756 -30.23807956 -167.57941768 -29.46003637 -176 -28 C-176.78165527 -27.86456787 -177.56331055 -27.72913574 -178.36865234 -27.58959961 C-200.81770939 -23.36917688 -222.14804168 -13.16822089 -240 1 C-240.51127441 1.40444336 -241.02254883 1.80888672 -241.54931641 2.22558594 C-270.69820905 25.48519466 -291.27369968 59.67217298 -295.98217773 96.91650391 C-300.39421146 136.38751486 -290.09761127 173.79399584 -278 211 C-277.58845333 212.27585042 -277.17699103 213.55172805 -276.765625 214.82763672 C-266.28360155 247.08169636 -253.0321137 278.02801887 -237.83886719 308.31933594 C-236.26354736 311.46291137 -234.72167821 314.6213699 -233.1953125 317.7890625 C-216.86281988 351.52396138 -191.15647431 403.92442345 -154.203125 419.27734375 C-151.85598184 420.04724 -149.55496632 420.50245764 -147.125 420.9375 C-143.93011881 421.57982751 -143.20343397 421.78459933 -140.875 424.25 C-139.79228982 427.65280341 -139.963688 429.59497484 -141 433 C-142.58066894 434.99301736 -143.73086702 435.86543351 -146 437 C-157.38864931 438.26540548 -168.19392509 431.68801245 -177 425 C-184.99200971 418.29471038 -192.42574749 411.07435217 -198.80981445 402.80688477 C-200.91300987 400.11148428 -203.08377455 397.4892324 -205.27734375 394.8671875 C-209.76252034 389.3929037 -213.79147763 383.71651048 -217.6875 377.8125 C-218.71278809 376.26381226 -218.71278809 376.26381226 -219.75878906 374.68383789 C-231.13353236 357.3285459 -241.18762656 339.27149698 -250.58398438 320.78076172 C-251.95510435 318.08816577 -253.34340015 315.40503616 -254.734375 312.72265625 C-268.63207712 285.7026926 -279.55980691 257.49277343 -290 229 C-290.4218457 227.85321777 -290.84369141 226.70643555 -291.27832031 225.52490234 C-298.61881182 205.44427145 -304.45409703 184.89000991 -309 164 C-309.14421387 163.34322266 -309.28842773 162.68644531 -309.43701172 162.00976562 C-311.02623807 154.70897774 -312.32054848 147.5369778 -312.7890625 140.07421875 C-312.88230447 137.94003532 -312.88230447 137.94003532 -314 136 C-317.18687506 101.9712563 -310.90513309 67.91638721 -294 38 C-293.64292969 37.35740234 -293.28585937 36.71480469 -292.91796875 36.05273438 C-288.0373957 27.33496166 -282.62823752 19.514304 -276 12 C-275.2575 11.14792969 -274.515 10.29585937 -273.75 9.41796875 C-271.533094 6.91240312 -269.28039996 4.44784192 -267 2 C-266.30390625 1.24976563 -265.6078125 0.49953125 -264.890625 -0.2734375 C-235.83549641 -30.49501286 -192.94233172 -46.8555103 -151.52783203 -47.96386719 C-97.55581947 -48.73534274 -43.85448385 -31.30649124 0 0 Z " fill="#2B2B2B" transform="translate(404,50)"/>
<path d="M0 0 C0.72123047 0.20367187 1.44246094 0.40734375 2.18554688 0.6171875 C19.94929378 5.64378488 35.97843206 13.97889136 50 26 C50.51111328 26.43425293 51.02222656 26.86850586 51.54882812 27.31591797 C76.35493475 48.55944545 93.65215296 79.38163439 96.78613281 112.13232422 C97.91225415 127.23212012 97.73798929 142.29031991 94 157 C93.67515625 158.42699219 93.67515625 158.42699219 93.34375 159.8828125 C87.67361243 183.03587424 75.23337424 202.80996282 59 220 C58.39285156 220.64839844 57.78570312 221.29679688 57.16015625 221.96484375 C52.59219729 226.69853365 52.59219729 226.69853365 49.94451904 228.04637146 C47.32804854 229.43733129 45.81169473 230.63355181 44 233 C42.82829856 238.52455923 43.02543557 243.97438868 43.140625 249.59765625 C43.1432653 251.23619944 43.14179801 252.87475393 43.13641357 254.51329041 C43.13064521 258.81756828 43.16903498 263.12019731 43.22027588 267.4241333 C43.297912 274.31525534 43.32173337 281.20626408 43.3201828 288.09777641 C43.32801291 290.50075741 43.36284317 292.90227141 43.40045166 295.3049469 C43.40752995 296.78150022 43.41374076 298.25805803 43.41894531 299.73461914 C43.4341925 301.0200209 43.4494397 302.30542267 43.46514893 303.629776 C42.9193761 307.58415827 41.78671142 309.20054509 39 312 C36.373717 313.3131415 34.42048876 313.13489273 31.47819519 313.14717102 C29.71793755 313.15790398 29.71793755 313.15790398 27.92211914 313.16885376 C26.62806152 313.17154266 25.33400391 313.17423157 24.00073242 313.17700195 C22.62925544 313.18326586 21.25778017 313.1899126 19.88630676 313.19691467 C16.15480943 313.21433085 12.42332492 313.22487807 8.69179702 313.2331202 C6.3610148 313.238269 4.03023657 313.24434478 1.69945717 313.25063133 C-5.59143872 313.26968504 -12.88232447 313.28391586 -20.17324048 313.2922433 C-28.59233446 313.30201778 -37.01116565 313.32834183 -45.43016702 313.36874419 C-51.93554179 313.39889297 -58.44084119 313.41371098 -64.94628447 313.41702431 C-68.83265851 313.41937621 -72.71875188 313.42835429 -76.60505104 313.45348549 C-80.26178644 313.47674993 -83.91805607 313.48100635 -87.57484627 313.47072411 C-89.55511584 313.46999194 -91.53536167 313.48909464 -93.51553345 313.50878906 C-94.69749802 313.50184525 -95.87946259 313.49490143 -97.09724426 313.48774719 C-98.1224458 313.49013555 -99.14764734 313.4925239 -100.2039156 313.49498463 C-103.74555367 312.86801629 -105.42502864 311.45868566 -108 309 C-109.48094971 306.03810059 -109.08419245 303.41149957 -109.04663086 300.10693359 C-109.03385359 298.63667064 -109.02141331 297.16640473 -109.00926208 295.69613647 C-109.00134581 294.91483746 -108.99342953 294.13353844 -108.98527336 293.32856369 C-108.94317442 288.32084483 -108.9550016 283.31289071 -108.95516109 278.30502892 C-108.95216688 273.9060473 -108.93155496 269.50848466 -108.87329102 265.10986328 C-108.81796007 260.85340202 -108.81170656 256.5993194 -108.83798409 252.34260941 C-108.83921506 250.72472392 -108.82282955 249.10672071 -108.78806877 247.48920822 C-108.39905263 238.32422746 -108.39905263 238.32422746 -112.16789246 230.29962158 C-114.68757317 228.27736198 -117.2256366 226.64578493 -120 225 C-142.89934912 205.37675216 -160.47604131 174.82906341 -163.80517578 144.546875 C-165.05219547 128.24498348 -164.82152798 111.92599569 -161 96 C-160.79503906 94.96875 -160.59007812 93.9375 -160.37890625 92.875 C-156.62059703 75.32066128 -145.45278402 49.30185601 -130 39 C-127.625 38.5625 -127.625 38.5625 -125 39 C-122.1875 41.0625 -122.1875 41.0625 -120 44 C-119.52871798 48.06540246 -119.56489944 50.27382523 -121.6875 53.81640625 C-122.450625 54.72261719 -123.21375 55.62882812 -124 56.5625 C-144.1039546 81.66753746 -149.64565156 112.36527949 -146.73193359 143.90136719 C-142.96954289 171.79733896 -126.74605549 198.45751992 -105 216 C-102.08097329 218.17142527 -99.14081217 220.29635059 -96.15234375 222.37109375 C-94 224 -94 224 -93 226 C-92.91489795 227.9593604 -92.89282344 229.92162794 -92.90234375 231.8828125 C-92.90717773 233.63271484 -92.90717773 233.63271484 -92.91210938 235.41796875 C-92.92467773 237.25294922 -92.92467773 237.25294922 -92.9375 239.125 C-92.94201172 240.35605469 -92.94652344 241.58710938 -92.95117188 242.85546875 C-92.96298659 245.90366639 -92.9809225 248.95183916 -93 252 C-87.06 252 -81.12 252 -75 252 C-75.04640625 250.45828125 -75.0928125 248.9165625 -75.140625 247.328125 C-75.17814393 245.3021027 -75.21454396 243.27605945 -75.25 241.25 C-75.28351563 240.23421875 -75.31703125 239.2184375 -75.3515625 238.171875 C-75.4502774 230.66954291 -75.4502774 230.66954291 -73.203125 227.328125 C-69.94993916 225.3669846 -67.71928903 225.468673 -64 226 C-61.796875 227.328125 -61.796875 227.328125 -60 230 C-59.50232483 233.7602124 -59.62513372 237.46559126 -59.75 241.25 C-59.76804687 242.28125 -59.78609375 243.3125 -59.8046875 244.375 C-59.85176277 246.9170645 -59.92350454 249.45865067 -60 252 C-53.73 252 -47.46 252 -41 252 C-41.05800781 250.54207031 -41.11601562 249.08414063 -41.17578125 247.58203125 C-41.22268723 245.65888622 -41.26818649 243.73570651 -41.3125 241.8125 C-41.35439453 240.85279297 -41.39628906 239.89308594 -41.43945312 238.90429688 C-41.56310178 231.7574049 -41.56310178 231.7574049 -38.66796875 227.86328125 C-36 226 -36 226 -33 225.375 C-28.80222019 226.24953746 -27.56214038 227.55377099 -25 231 C-24.3892543 234.62430336 -24.52763527 238.15036797 -24.6875 241.8125 C-24.72133789 243.28106445 -24.72133789 243.28106445 -24.75585938 244.77929688 C-24.81458036 247.1868573 -24.90425574 249.59362754 -25 252 C-19.06 252 -13.12 252 -7 252 C-7.04640625 250.45828125 -7.0928125 248.9165625 -7.140625 247.328125 C-7.17814393 245.3021027 -7.21454396 243.27605945 -7.25 241.25 C-7.28351563 240.23421875 -7.31703125 239.2184375 -7.3515625 238.171875 C-7.4502774 230.66954291 -7.4502774 230.66954291 -5.203125 227.328125 C-1.94993916 225.3669846 0.28071097 225.468673 4 226 C6.203125 227.328125 6.203125 227.328125 8 230 C8.49767517 233.7602124 8.37486628 237.46559126 8.25 241.25 C8.23195313 242.28125 8.21390625 243.3125 8.1953125 244.375 C8.14823723 246.9170645 8.07649546 249.45865067 8 252 C14.27 252 20.54 252 27 252 C26.91298828 249.27169922 26.91298828 249.27169922 26.82421875 246.48828125 C26.77731872 244.09637982 26.73181883 241.70445065 26.6875 239.3125 C26.6246582 237.51522461 26.6246582 237.51522461 26.56054688 235.68164062 C26.43663486 226.78475776 26.43663486 226.78475776 29.2265625 222.8984375 C30.14179688 222.27195312 31.05703125 221.64546875 32 221 C32.76699219 220.37738281 33.53398437 219.75476563 34.32421875 219.11328125 C35.10410156 218.51902344 35.88398438 217.92476562 36.6875 217.3125 C59.79610284 198.92832263 75.39590434 170.8787829 78.7890625 141.41357422 C81.56027652 109.70498417 72.98797548 79.16690704 52.70654297 54.421875 C37.47310201 36.42023654 16.88239187 23.08411423 -6 17 C-6.97710937 16.72285156 -7.95421875 16.44570313 -8.9609375 16.16015625 C-25.06887491 12.23271533 -43.83402734 12.23591754 -60 16 C-61.13308594 16.23332031 -62.26617187 16.46664062 -63.43359375 16.70703125 C-77.14101685 19.88367216 -90.36721953 26.08949078 -101.9921875 34.00390625 C-104.49428024 35.24521685 -106.23896557 35.24894573 -109 35 C-111.25 34 -111.25 34 -113 32 C-113.97505754 29.26983888 -114.30180342 26.88706289 -114 24 C-112.34859481 21.58187098 -111.33461412 20.62669887 -109 19 C-108.26652344 18.47921875 -107.53304687 17.9584375 -106.77734375 17.421875 C-75.9743943 -3.20634454 -35.84905352 -10.96798238 0 0 Z " fill="#2C2C2C" transform="translate(289,47)"/>
<path d="M0 0 C2.9375 1.375 2.9375 1.375 5 4 C6.26655914 9.68840598 4.82477579 15.01058539 3.17578125 20.47265625 C-6.73803626 54.33657695 -11.98962681 89.56993769 -14.73535156 124.6887207 C-14.89872429 126.73283903 -15.07505374 128.77602604 -15.27246094 130.81713867 C-17.67438159 156.06186052 -19.67451796 182.9697947 -8.33398438 206.25927734 C-6.97823804 209.0447108 -5.7388123 211.8611401 -4.515625 214.70703125 C-0.56138075 223.76805114 3.78155812 232.61620087 8.29296875 241.41015625 C9.03704842 242.86839778 9.78110767 244.32664973 10.52514648 245.78491211 C11.98256163 248.63909495 13.46277416 251.4797882 14.95727539 254.31469727 C15.63362046 255.62873712 16.30934951 256.94309429 16.984375 258.2578125 C17.58991211 259.4142627 18.19544922 260.57071289 18.81933594 261.76220703 C20.15651952 265.42923116 20.11487994 267.29279222 19 271 C16.875 273.4375 16.875 273.4375 14 275 C10.4375 275.0625 10.4375 275.0625 7 274 C3.36840083 270.15181258 1.1406045 265.73254693 -1.1953125 261.04296875 C-1.58471512 260.27099152 -1.97411774 259.49901428 -2.37532043 258.7036438 C-3.63291822 256.20203423 -4.87994487 253.69537331 -6.125 251.1875 C-6.55007843 250.33529877 -6.97515686 249.48309753 -7.41311646 248.60507202 C-15.9660689 231.43190375 -23.5269182 214.0680786 -30 196 C-48.02528299 210.64554243 -61.54642018 233.70155635 -64.58203125 256.9609375 C-65.33260684 264.36818037 -65.27718425 271.85888952 -65.32592773 279.29980469 C-65.34142817 281.28862959 -65.38328496 283.27719376 -65.42578125 285.265625 C-65.44036377 286.43899414 -65.45494629 287.61236328 -65.4699707 288.82128906 C-66.10190022 292.61111972 -67.31834938 294.29562089 -70 297 C-72.21875 297.6640625 -72.21875 297.6640625 -74.5 297.625 C-75.2528125 297.63789062 -76.005625 297.65078125 -76.78125 297.6640625 C-80.08356199 296.67569447 -81.11088792 294.82525961 -83 292 C-83.50170898 289.16357422 -83.50170898 289.16357422 -83.49609375 286.0546875 C-83.49915527 284.90468262 -83.5022168 283.75467773 -83.50537109 282.56982422 C-83.48297363 281.35053223 -83.46057617 280.13124023 -83.4375 278.875 C-83.42283691 277.6183252 -83.40817383 276.36165039 -83.39306641 275.06689453 C-82.73499257 242.3015238 -71.40306577 214.21570715 -49.5625 189.75 C-49.10649414 189.23469727 -48.65048828 188.71939453 -48.18066406 188.18847656 C-45.16029649 184.90380018 -42.17949105 182.95900774 -38.3125 180.8125 C-35.59281398 178.70527871 -34.20780087 177.18846607 -33.60693359 173.75195312 C-33.29991703 168.60776223 -33.54977876 163.49180913 -33.765625 158.34765625 C-34.0916528 150.53251584 -33.75002391 142.79688971 -33.25 135 C-33.18455994 133.96069336 -33.18455994 133.96069336 -33.11779785 132.90039062 C-26.12123472 24.36283836 -26.12123472 24.36283836 -8.5703125 1.10546875 C-5.76319608 -0.87068535 -3.29421654 -0.39757786 0 0 Z " fill="#2B2B2B" transform="translate(83,215)"/>
<path d="M0 0 C3.06125482 0.38961425 4.92815542 0.70026144 7.4375 2.4375 C9.06248314 5.68746628 9.15401918 8.93807149 8.4375 12.4375 C7.0625 14.16796875 7.0625 14.16796875 5.375 15.8125 C3.04278127 18.21512761 3.04278127 18.21512761 2.27050781 21.3659668 C2.42277832 22.45905151 2.42277832 22.45905151 2.578125 23.57421875 C2.75589478 24.90404785 2.75589478 24.90404785 2.93725586 26.26074219 C3.10233643 27.30907227 3.26741699 28.35740234 3.4375 29.4375 C3.7305603 31.3232373 3.7305603 31.3232373 4.02954102 33.24707031 C4.49448751 36.18417502 4.97213272 39.11898373 5.45629883 42.05297852 C7.89505703 56.83306151 10.07890539 71.61245389 11.75 86.5 C11.83085846 87.21517792 11.91171692 87.93035583 11.99502563 88.66720581 C19.0313934 151.39749058 14.11422393 203.99216958 -26.1484375 254.71875 C-37.92363974 269.2344375 -51.42685511 282.47026226 -66.5625 293.4375 C-67.18205566 293.89125 -67.80161133 294.345 -68.43994141 294.8125 C-84.39463027 306.47777137 -84.39463027 306.47777137 -89.1875 306.3125 C-92.5625 305.4375 -92.5625 305.4375 -94.5 304.375 C-96.23337217 301.21414487 -96.51481479 297.85831498 -95.5625 294.4375 C-92.41745629 290.79646374 -88.98834643 288.24248131 -84.9375 285.6875 C-75.04395686 279.22517341 -66.16959972 271.51283925 -57.5625 263.4375 C-56.77552734 262.70152588 -56.77552734 262.70152588 -55.97265625 261.95068359 C-28.69887547 236.227981 -9.40580991 202.60260872 -3.5625 165.4375 C-3.3665625 164.21804688 -3.170625 162.99859375 -2.96875 161.7421875 C-2.24363596 155.58864079 -2.41426389 149.37333895 -2.4375 143.1875 C-2.43971558 142.51778168 -2.44193115 141.84806335 -2.44421387 141.15805054 C-2.58835567 103.88353394 -6.9533037 66.15826037 -14.34375 29.6237793 C-16.99838601 16.03616402 -16.99838601 16.03616402 -14.20703125 10.984375 C-13.30017578 10.09492188 -13.30017578 10.09492188 -12.375 9.1875 C-11.73175781 8.54296875 -11.08851563 7.8984375 -10.42578125 7.234375 C-9.81089844 6.64140625 -9.19601562 6.0484375 -8.5625 5.4375 C-7.325 3.9525 -7.325 3.9525 -6.0625 2.4375 C-3.5625 0.4375 -3.5625 0.4375 0 0 Z " fill="#2B2B2B" transform="translate(453.5625,151.5625)"/>
<path d="M0 0 C12.03330678 6.03364959 20.45339937 16.45028474 24.68359375 29.10546875 C26.76888023 38.02389738 25.7422481 46.62986575 22.375 55.0625 C22.0965625 55.75988281 21.818125 56.45726562 21.53125 57.17578125 C16.78779447 67.70543468 8.19829163 74.64702165 -2.2734375 79.21875 C-11.98103483 82.70187462 -23.64211009 82.24205646 -33.06640625 78.31640625 C-45.20067016 72.36969065 -52.96016627 63.77567347 -57.625 51.0625 C-58.9132094 47.20607696 -58.84525757 43.27638086 -58.875 39.25 C-58.895625 38.56357422 -58.91625 37.87714844 -58.9375 37.16992188 C-58.9816003 31.34317018 -57.56601842 27.07107855 -54.375 22.125 C-51.35869958 20.29367474 -49.05116627 20.58992534 -45.625 21.0625 C-42.625 23.125 -42.625 23.125 -40.625 26.0625 C-40.8125 29.125 -40.8125 29.125 -41.20703125 30.921875 C-42.75153814 38.8320598 -42.18047844 45.8431322 -38.17578125 52.87109375 C-34.21611769 58.46648734 -29.21286925 62.08613922 -22.625 64.0625 C-13.338158 65.20571307 -6.97430361 62.93468163 0.6875 57.875 C6.22643536 52.07843974 7.6461382 46.59493276 8 38.625 C7.72633206 30.08998097 5.35870013 25.1616697 -0.51171875 19.12109375 C-7.09904627 14.02389777 -14.29296409 14.6404187 -22.22485352 15.19482422 C-28.95677494 15.56050884 -28.95677494 15.56050884 -32.72265625 12.75390625 C-34.625 10.0625 -34.625 10.0625 -35.25 7.0625 C-34.41956673 3.07642031 -32.74243323 1.59994565 -29.625 -0.9375 C-20.93163136 -3.83528955 -8.47948249 -3.22552863 0 0 Z " fill="#2E2E2E" transform="translate(324.625,152.9375)"/>
<path d="M0 0 C12.03330678 6.03364959 20.45339937 16.45028474 24.68359375 29.10546875 C26.76888023 38.02389738 25.7422481 46.62986575 22.375 55.0625 C22.0965625 55.75988281 21.818125 56.45726562 21.53125 57.17578125 C16.78779447 67.70543468 8.19829163 74.64702165 -2.2734375 79.21875 C-11.98119975 82.7019338 -23.63603625 82.23887156 -33.0625 78.3203125 C-45.71686044 72.10887338 -52.59473078 63.19454046 -57.7421875 50.25390625 C-58.77936056 46.50447975 -58.95575154 42.98337579 -58.9375 39.125 C-58.95361328 38.44759766 -58.96972656 37.77019531 -58.98632812 37.07226562 C-58.99192405 31.23572058 -57.52361671 27.0053559 -54.375 22.125 C-51.35869958 20.29367474 -49.05116627 20.58992534 -45.625 21.0625 C-42.625 23.125 -42.625 23.125 -40.625 26.0625 C-40.8125 29.125 -40.8125 29.125 -41.20703125 30.921875 C-42.75153814 38.8320598 -42.18047844 45.8431322 -38.17578125 52.87109375 C-34.21611769 58.46648734 -29.21286925 62.08613922 -22.625 64.0625 C-13.338158 65.20571307 -6.97430361 62.93468163 0.6875 57.875 C6.22643536 52.07843974 7.6461382 46.59493276 8 38.625 C7.72633206 30.08998097 5.35870013 25.1616697 -0.51171875 19.12109375 C-7.09904627 14.02389777 -14.29296409 14.6404187 -22.22485352 15.19482422 C-28.95677494 15.56050884 -28.95677494 15.56050884 -32.72265625 12.75390625 C-34.625 10.0625 -34.625 10.0625 -35.25 7.0625 C-34.41956673 3.07642031 -32.74243323 1.59994565 -29.625 -0.9375 C-20.93163136 -3.83528955 -8.47948249 -3.22552863 0 0 Z " fill="#2E2E2E" transform="translate(220.625,152.9375)"/>
<path d="M0 0 C5.94 0 11.88 0 18 0 C18.13020833 2.50651042 18.26041667 5.01302083 18.390625 7.51953125 C18.80307232 10.11615265 18.80307232 10.11615265 20.8203125 11.8359375 C24.10554017 13.59041393 26.47094101 12.84958828 30 12 C33.01512945 9.40133391 33.01512945 9.40133391 33 1 C39.27 1 45.54 1 52 1 C52.66 4.63 53.32 8.26 54 12 C55.2375 12.185625 56.475 12.37125 57.75 12.5625 C58.44609375 12.66691406 59.1421875 12.77132813 59.859375 12.87890625 C62.33941547 13.12547949 62.33941547 13.12547949 66 12 C66.66 8.37 67.32 4.74 68 1 C73.61 1 79.22 1 85 1 C85.495 4.465 85.495 4.465 86 8 C87.9594012 11.1264113 87.9594012 11.1264113 91 13 C95.02034924 12.93185849 97.1176825 12.8823175 100 10 C100.4230689 7.83000806 100.4230689 7.83000806 100.5625 5.4375 C100.90277778 1.09722222 100.90277778 1.09722222 102 0 C103.34267413 -0.08631874 104.68974322 -0.10706473 106.03515625 -0.09765625 C106.76355713 -0.09515869 107.49195801 -0.09266113 108.24243164 -0.09008789 C109.1730542 -0.08098389 110.10367676 -0.07187988 111.0625 -0.0625 C115.4865625 -0.0315625 115.4865625 -0.0315625 120 0 C120 9.9 120 19.8 120 30 C80.4 30 40.8 30 0 30 C0 20.1 0 10.2 0 0 Z " fill="#F8F8F8" transform="translate(196,314)"/>
<path d="M0 0 C0.61488281 0.66257813 1.22976563 1.32515625 1.86328125 2.0078125 C6.36118378 4.86451274 10.00493988 4.19048386 15.1875 3.875 C22.41729801 3.66793987 28.09952411 3.55557903 34.1171875 8.07421875 C40.72126609 14.82901283 43.33913412 20.68073532 43.38500977 30.04272461 C43.22539307 37.27724363 41.12718328 42.43258218 36.390625 47.8359375 C30.92661769 52.97410951 25.05578278 55.10229613 17.625 55.5 C10.60898268 55.26678059 5.13033604 52.81789195 -0.07421875 48.1328125 C-6.46164232 41.2499284 -8.37336955 35.17618834 -8.1875 25.87109375 C-8.03356749 23.51400212 -7.73374512 21.36532835 -7.25 19.0625 C-6.67031467 15.84295663 -6.67031467 15.84295663 -8.9375 13.0625 C-9.618125 12.381875 -10.29875 11.70125 -11 11 C-9.92173635 9.72486237 -8.83714481 8.45507431 -7.75 7.1875 C-7.14671875 6.47980469 -6.5434375 5.77210938 -5.921875 5.04296875 C-4.07629602 3.08110329 -2.20054668 1.54330375 0 0 Z " fill="#BBBBBB" transform="translate(290,163)"/>
<path d="M0 0 C0.61488281 0.66257813 1.22976562 1.32515625 1.86328125 2.0078125 C6.36118378 4.86451274 10.00493988 4.19048386 15.1875 3.875 C22.41729801 3.66793987 28.09952411 3.55557903 34.1171875 8.07421875 C40.72126609 14.82901283 43.33913412 20.68073532 43.38500977 30.04272461 C43.22539307 37.27724363 41.12718328 42.43258218 36.390625 47.8359375 C30.92661769 52.97410951 25.05578278 55.10229613 17.625 55.5 C10.60898268 55.26678059 5.13033604 52.81789195 -0.07421875 48.1328125 C-6.46164232 41.2499284 -8.37336955 35.17618834 -8.1875 25.87109375 C-8.03356749 23.51400212 -7.73374512 21.36532835 -7.25 19.0625 C-6.67031467 15.84295663 -6.67031467 15.84295663 -8.9375 13.0625 C-9.618125 12.381875 -10.29875 11.70125 -11 11 C-9.73347137 9.53792657 -8.46161082 8.08047074 -7.1875 6.625 C-6.47980469 5.81289062 -5.77210938 5.00078125 -5.04296875 4.1640625 C-3 2 -3 2 0 0 Z " fill="#BBBBBB" transform="translate(186,163)"/>
<path d="M0 0 C16.20930693 5.03986854 30.26283102 28.12315282 37.76953125 42.23046875 C45.49755906 57.39686108 50.38065631 73.59358034 50.5625 90.703125 C50.57057175 91.4383992 50.57864349 92.1736734 50.58695984 92.93122864 C50.60069472 94.47325348 50.61146347 96.01530738 50.61938477 97.55737305 C50.630981 99.13135716 50.65155138 100.70529969 50.6809082 102.27905273 C50.72348439 104.56651198 50.73972893 106.85281942 50.75 109.140625 C50.76750809 109.84172897 50.78501617 110.54283295 50.80305481 111.2651825 C50.7878089 114.69320362 50.55745161 116.42330731 48.42260742 119.16333008 C46.14823934 120.85342769 45.12113025 121.26635799 42.32421875 121.22265625 C41.33421875 121.238125 41.33421875 121.238125 40.32421875 121.25390625 C37.38830222 120.47405342 36.22957018 119.06181754 34.32421875 116.72265625 C33.81005859 113.92041016 33.81005859 113.92041016 33.78515625 110.69921875 C33.76356445 109.52004883 33.74197266 108.34087891 33.71972656 107.12597656 C33.71295898 105.87913086 33.70619141 104.63228516 33.69921875 103.34765625 C33.64422817 100.79285846 33.58439456 98.23815995 33.51953125 95.68359375 C33.47554199 93.85973145 33.47554199 93.85973145 33.43066406 91.99902344 C32.3844242 59.79595236 15.17762868 35.40658061 -7.4609375 14.1015625 C-9.67578125 11.72265625 -9.67578125 11.72265625 -10.23828125 8.72265625 C-9.14094013 2.87017026 -6.31774354 -0.45543807 0 0 Z " fill="#2B2B2B" transform="translate(461.67578125,391.27734375)"/>
<path d="M0 0 C0.66 -0.00128906 1.32 -0.00257813 2 -0.00390625 C5.11352762 0.8778545 6.1491009 1.87544911 8 4.5625 C8.59314172 7.88478157 8.55800122 11.13351244 8.5 14.5 C8.51546875 15.39396484 8.5309375 16.28792969 8.546875 17.20898438 C8.52186823 21.41949865 8.35342415 23.94943311 6.21875 27.65234375 C3.89471927 29.65313781 3.01549359 30.24639636 0 30.1875 C-0.66 30.20039063 -1.32 30.21328125 -2 30.2265625 C-5.28848147 29.13468389 -6.26749109 27.5336008 -8 24.5625 C-8.57119175 21.38046143 -8.55926893 18.2877177 -8.5 15.0625 C-8.51546875 14.22074219 -8.5309375 13.37898437 -8.546875 12.51171875 C-8.52117219 8.43139812 -8.30671457 6.08916121 -6.21875 2.50390625 C-3.88052879 0.45796269 -3.04783698 -0.10119771 0 0 Z " fill="#2D2D2D" transform="translate(270,229.4375)"/>
<path d="M0 0 C0.66 -0.02191406 1.32 -0.04382813 2 -0.06640625 C5.30919614 0.97418082 6.27025623 2.59234787 8 5.5625 C8.57112932 8.74455881 8.55926918 11.83726881 8.5 15.0625 C8.51546875 15.90425781 8.5309375 16.74601562 8.546875 17.61328125 C8.52117944 21.69245162 8.30810241 24.03413139 6.21875 27.6171875 C3.89435128 29.65512863 3.03677879 30.24681209 0 30.1875 C-0.66 30.20039063 -1.32 30.21328125 -2 30.2265625 C-5.31118698 29.12714495 -6.26669423 27.56917733 -8 24.5625 C-8.57466337 21.19449873 -8.55899168 17.90922732 -8.5 14.5 C-8.51546875 13.60216797 -8.5309375 12.70433594 -8.546875 11.77929688 C-8.50833931 5.30048382 -8.50833931 5.30048382 -6.21875 1.9765625 C-3.90845717 0.50415757 -2.71376363 -0.00530032 0 0 Z " fill="#2D2D2D" transform="translate(242,229.4375)"/>
</svg>
