<?xml version="1.0" encoding="UTF-8"?>
<svg version="1.1" xmlns="http://www.w3.org/2000/svg" width="512" height="512">
<path d="M0 0 C0.65210449 0.20898926 1.30420898 0.41797852 1.97607422 0.63330078 C27.66586101 9.18801901 48.93328257 28.80131403 60.9765625 52.8515625 C66.68924637 64.86979808 70.03382513 77.71509556 71 91 C73.74317143 91 75.19207672 89.61124847 77.39086914 88.10400391 C98.52580685 73.64643135 123.68431343 69.2281366 148.81152344 73.55029297 C164.44731291 76.76326979 178.85607881 83.65851609 191 94 C191.72574219 94.58136719 192.45148438 95.16273437 193.19921875 95.76171875 C210.13501923 109.86010763 220.84701517 131.32743104 224 153 C225.71588165 181.01502225 221.10703495 206.78358455 202.046875 228.40625 C199.41672043 231.32210826 196.72602151 234.17375711 194 237 C195.47098883 241.17421961 197.57127633 244.47823519 200.0625 248.125 C209.35346082 262.23869176 215.74063124 277.68500848 220 294 C220.21027832 294.79535156 220.42055664 295.59070313 220.63720703 296.41015625 C227.9765368 325.37232534 225.9694869 355.7623519 210.86328125 381.7578125 C205.95850773 389.84324426 200.2528589 397.68568113 192.90246582 403.72276306 C190.35781526 406.76869019 190.50683153 408.58441189 190.51757812 412.52172852 C190.51170937 413.49096504 190.51170937 413.49096504 190.50572205 414.4797821 C190.49975586 415.87985321 190.50290134 417.27998643 190.5141449 418.6800251 C190.53146015 420.9059212 190.52386864 423.13052406 190.5098877 425.35643005 C190.48028123 430.88956565 190.49335296 436.4224534 190.50506592 441.95562744 C190.51332346 446.62520908 190.50509463 451.29422568 190.47593689 455.96372795 C190.46891882 458.1390791 190.48542968 460.31339342 190.50305176 462.48866272 C190.50038443 475.64584947 187.12299143 486.57305903 177.89453125 496.1953125 C173.35104758 500.4338119 168.79949839 503.73404512 163 506 C162.12085938 506.35578125 161.24171875 506.7115625 160.3359375 507.078125 C148.33628433 510.39418841 135.35344907 508.56871486 124.5859375 502.6796875 C114.48337751 496.49651533 108.39075158 487.61069706 104.87109375 476.40625 C103.61866266 471.13650534 103.78311257 465.88601723 103.875 460.5 C103.88402344 459.48679687 103.89304687 458.47359375 103.90234375 457.4296875 C103.92570853 454.95302128 103.96157189 452.47647829 104 450 C96.575 451.98 96.575 451.98 89 454 C88.97421875 455.74925781 88.9484375 457.49851562 88.921875 459.30078125 C88.8655554 461.63804446 88.80820898 463.97528308 88.75 466.3125 C88.73582031 467.46041016 88.72164063 468.60832031 88.70703125 469.79101562 C88.39564141 480.7830771 85.94867373 490.98367798 78 499 C71.16506797 504.63269643 64.99001004 508.22334735 55.95385742 508.29052734 C54.19624336 508.3096669 54.19624336 508.3096669 52.40312195 508.32919312 C51.14989639 508.33141876 49.89667084 508.33364441 48.60546875 508.3359375 C47.3035408 508.3425943 46.00161285 508.3492511 44.66023254 508.35610962 C41.90911544 508.36805048 39.15812359 508.37179382 36.40698242 508.37060547 C32.90345115 508.37040259 29.40073391 508.3976849 25.89739513 508.43214989 C22.5292427 508.45990669 19.1612338 508.45857175 15.79296875 508.4609375 C14.54581589 508.47530853 13.29866302 508.48967957 12.01371765 508.50448608 C4.76227262 508.4667109 -0.68618164 507.64965812 -7 504 C-7.79792969 503.54238281 -8.59585937 503.08476562 -9.41796875 502.61328125 C-16.92878345 497.09208634 -22.37805902 489.28803808 -24 480 C-24.2244846 475.30078897 -24.13719154 470.71024295 -24 466 C-29.28 466 -34.56 466 -40 466 C-39.9175 468.083125 -39.835 470.16625 -39.75 472.3125 C-39.77076257 482.60035402 -42.65172645 491.58918796 -50 499 C-56.83493203 504.63269643 -63.00998996 508.22334735 -72.04614258 508.29052734 C-73.80375664 508.3096669 -73.80375664 508.3096669 -75.59687805 508.32919312 C-76.85010361 508.33141876 -78.10332916 508.33364441 -79.39453125 508.3359375 C-80.6964592 508.3425943 -81.99838715 508.3492511 -83.33976746 508.35610962 C-86.09088456 508.36805048 -88.84187641 508.37179382 -91.59301758 508.37060547 C-95.09654885 508.37040259 -98.59926609 508.3976849 -102.10260487 508.43214989 C-105.4707573 508.45990669 -108.8387662 508.45857175 -112.20703125 508.4609375 C-113.45418411 508.47530853 -114.70133698 508.48967957 -115.98628235 508.50448608 C-123.23772738 508.4667109 -128.68618164 507.64965812 -135 504 C-135.79792969 503.54238281 -136.59585938 503.08476562 -137.41796875 502.61328125 C-145.14759474 496.9312383 -149.9562669 489.37497708 -152 480 C-152.33966075 475.46967415 -152.28547732 470.97711578 -152.1875 466.4375 C-152.17396484 465.23802734 -152.16042969 464.03855469 -152.14648438 462.80273438 C-152.11141137 459.86829293 -152.05761477 456.93408541 -152 454 C-157.28 452.68 -162.56 451.36 -168 450 C-167.95359375 451.43730469 -167.9071875 452.87460937 -167.859375 454.35546875 C-167.47174092 471.30524806 -168.86090835 484.02314442 -180.84375 496.99609375 C-191.08727853 506.75683303 -202.72426645 508.49011756 -216.21484375 508.2734375 C-228.21477145 507.80064924 -236.68692968 501.73012568 -244.75 493.25 C-251.01286759 485.79281813 -254.17649642 477.11419828 -254.03076172 467.47827148 C-254.01466124 466.1392817 -253.9989635 464.80028703 -253.98361206 463.46128845 C-253.97407375 462.75465498 -253.96453545 462.04802151 -253.9547081 461.3199749 C-253.90283514 456.761232 -253.90892819 452.20210194 -253.90334892 447.64311123 C-253.89515226 443.64884758 -253.86755371 439.65653953 -253.79785156 435.6628418 C-253.73134034 431.78643926 -253.71949142 427.91313301 -253.74310684 424.03627205 C-253.7425012 422.56873913 -253.72271433 421.10106985 -253.68233871 419.63409233 C-253.4943442 412.43282303 -253.73485263 406.59901322 -258.87752724 401.17683506 C-261.16469804 399.01438094 -263.58402934 397.01614115 -266 395 C-267.9353383 392.75371667 -269.5942581 390.43488671 -271.1875 387.9375 C-271.58984863 387.31593018 -271.99219727 386.69436035 -272.40673828 386.05395508 C-289.18418161 359.27291979 -291.87704674 329.29349158 -285.19482422 298.62866211 C-283.11268197 289.82830218 -280.51280637 281.33350765 -277 273 C-276.70754395 272.30503418 -276.41508789 271.61006836 -276.11376953 270.89404297 C-271.34107954 259.77966325 -265.64012378 246.64012378 -257 238 C-257.60134766 237.45085937 -257.60134766 237.45085937 -258.21484375 236.890625 C-276.4352946 219.53781466 -286.7655504 196.25016803 -288.21875 171.234375 C-288.77599292 147.55155078 -281.76372665 123.20804575 -265.4375 105.5625 C-263.64304161 103.68961355 -261.82316138 101.84526031 -260 100 C-259.12601562 99.01773438 -259.12601562 99.01773438 -258.234375 98.015625 C-244.6956004 83.10929741 -221.5415024 73.96421433 -201.73925781 72.87573242 C-178.72000162 72.13605676 -153.86934445 75.97920843 -136 92 C-134.15972066 90.15972066 -134.47670201 87.49339562 -134.15161133 85.02026367 C-131.45644923 64.98991206 -124.21419001 47.47786282 -111 32 C-110.34644531 31.20207031 -109.69289062 30.40414062 -109.01953125 29.58203125 C-82.86646784 -1.14424543 -38.15557213 -12.37708716 0 0 Z " fill="#020101" transform="translate(288,4)"/>
<path d="M0 0 C0.33 0 0.66 0 1 0 C1.23783203 1.47146484 1.23783203 1.47146484 1.48046875 2.97265625 C4.75365926 22.29075631 11.09712991 38.95557471 24 54 C24.45632813 54.60070312 24.91265625 55.20140625 25.3828125 55.8203125 C37.95521092 72.00633442 60.12509471 82.126427 80 85 C98.9332604 86.03855983 115.15031354 84.80272282 132.625 77.40234375 C135.71739966 76.11742306 138.81070751 75.01610081 142 74 C146.95709052 80.00178534 151.00422738 86.08120862 154.5625 93 C155.27019531 94.36596313 155.27019531 94.36596313 155.9921875 95.75952148 C162.00117354 107.62126821 166.25771162 119.97867039 169 133 C169.20496094 133.91394531 169.40992188 134.82789063 169.62109375 135.76953125 C174.1608739 158.65628497 170.02498575 183.46252138 157 203 C155.515 203.99 155.515 203.99 154 205 C153.99589111 203.93563721 153.99178223 202.87127441 153.98754883 201.7746582 C153.96572552 197.81388366 153.91140394 193.85409805 153.84741211 189.89379883 C153.82425975 188.18198141 153.80984285 186.4700221 153.80444336 184.75805664 C153.79513297 182.29223502 153.75410221 179.82863626 153.70703125 177.36328125 C153.71293022 176.22080681 153.71293022 176.22080681 153.71894836 175.05525208 C153.61039818 171.07440147 153.13126568 169.17119987 150.68237305 165.97729492 C148.06908046 163.6415138 148.06908046 163.6415138 144.375 164 C141.04003766 164.98813699 140.00290675 165.30998828 138 168 C137.55494189 170.42512489 137.55494189 170.42512489 137.63491821 173.19081116 C137.62960587 174.26590942 137.62429352 175.34100769 137.61882019 176.44868469 C137.6281105 177.62843369 137.63740082 178.80818268 137.64697266 180.02368164 C137.64373238 181.88756027 137.64373238 181.88756027 137.64042664 183.78909302 C137.63733349 186.49355572 137.63958043 189.19742558 137.65044022 191.9018116 C137.66680528 196.18531851 137.65833177 200.46855377 137.64559937 204.75205994 C137.61548127 216.1664095 137.61688151 227.58071128 137.63585222 238.99508041 C137.64821773 246.48879294 137.64622759 253.98219749 137.61746442 261.47587484 C137.60229548 265.72592246 137.60961787 269.97513092 137.63417459 274.22512543 C137.64669497 277.5069983 137.62663177 280.78871077 137.61181641 284.07055664 C137.62515518 285.23613602 137.63849396 286.40171539 137.65223694 287.60261536 C137.56797159 296.0263611 135.84795344 302.82580285 130.02485085 309.1426096 C124.40253489 314.45431129 118.96997062 317.11236736 111.1875 317.5 C104.04407349 317.29436945 98.54333882 315.08637546 93.15234375 310.390625 C87.20477898 304.01927798 85.54327956 296.83094521 85.64697266 288.3684082 C85.64481247 287.54621796 85.64265228 286.72402771 85.64042664 285.87692261 C85.63735784 284.10639206 85.64089135 282.33583987 85.65044022 280.56533241 C85.66425718 277.76127296 85.65769643 274.95791486 85.64559937 272.15385437 C85.61473683 264.18707503 85.61956271 256.22046408 85.63964844 248.25366211 C85.65056203 243.36835586 85.63739133 238.483581 85.60975266 233.59834862 C85.60431458 231.74082965 85.60836967 229.88325744 85.62215042 228.02578163 C85.64118976 225.43106559 85.62980862 222.83809398 85.61181641 220.2434082 C85.62515518 219.47914017 85.63849396 218.71487213 85.65223694 217.92744446 C85.59104643 213.95768556 85.13947344 212.1771063 82.65316772 209.01994324 C80.1337135 206.78604006 80.1337135 206.78604006 76.9375 206.4375 C73.14641527 207.16345239 72.2387012 207.83941131 70 211 C69.37496001 214.47687165 69.3950201 217.92760717 69.390625 221.453125 C69.37408875 222.46848328 69.35755249 223.48384155 69.34051514 224.52996826 C69.2919661 227.77003995 69.2706484 231.00964205 69.25 234.25 C69.22184617 236.44794038 69.19191958 238.64585882 69.16015625 240.84375 C69.08620557 246.22908122 69.0346035 251.61428 69 257 C65.07692477 258.74172561 61.36757561 260.3221316 57.171875 261.28125 C56.29885742 261.48194092 55.42583984 261.68263184 54.52636719 261.8894043 C53.61016602 262.09090088 52.69396484 262.29239746 51.75 262.5 C50.7899707 262.71503174 49.82994141 262.93006348 48.84082031 263.15161133 C41.05549638 264.85569236 33.24455323 266.18298988 25.359375 267.32421875 C22.36785367 267.75959975 19.44356254 268.33254327 16.4921875 268.984375 C9.92367582 270.32626783 3.26879493 270.82338871 -3.40185547 271.37768555 C-5.60047212 271.56046095 -7.79828438 271.75114335 -9.99609375 271.94335938 C-24.74050718 273.21101596 -39.38656769 274.15518676 -54.19140625 274.16796875 C-55.59317556 274.17120154 -56.99494456 274.17456691 -58.39671326 274.17805481 C-61.31176532 274.18397701 -64.22678807 274.18590203 -67.1418457 274.18530273 C-70.07647906 274.18522173 -73.01095544 274.19213534 -75.94555664 274.20581055 C-93.39313726 274.28571842 -110.64054693 273.96391245 -128 272 C-129.66283027 271.82110053 -131.3256719 271.64230655 -132.98852539 271.46362305 C-137.74850275 270.93903272 -142.4999089 270.35715176 -147.25 269.75 C-148.07608765 269.64528381 -148.90217529 269.54056763 -149.7532959 269.43267822 C-168.54339701 267.0218779 -186.73420612 263.01069087 -205 258 C-205.00364563 257.42006287 -205.00729126 256.84012573 -205.01104736 256.24261475 C-205.05285068 250.20772191 -205.12218059 244.17359115 -205.20751953 238.13916016 C-205.23574911 235.88695904 -205.2569537 233.63465848 -205.27099609 231.38232422 C-205.2923976 228.14498917 -205.33903495 224.90885226 -205.390625 221.671875 C-205.39185364 220.66445251 -205.39308228 219.65703003 -205.39434814 218.61907959 C-205.44116389 213.14002216 -205.44116389 213.14002216 -207.85449219 208.36816406 C-210.85791976 206.45291507 -212.50249957 206.35760196 -216 207 C-219.62232315 209.75779291 -220.87350164 211.22873418 -221.61904907 215.77436829 C-221.64200854 217.26387327 -221.63781188 218.75395311 -221.61181641 220.2434082 C-221.61748123 221.06034149 -221.62314606 221.87727478 -221.62898254 222.71896362 C-221.64246099 225.41337284 -221.62155208 228.10643116 -221.6015625 230.80078125 C-221.60706469 232.68020039 -221.6151911 234.55961351 -221.62582397 236.43901062 C-221.64871197 241.38607463 -221.64449153 246.33269691 -221.63201904 251.27978516 C-221.61371895 259.18669889 -221.62376772 267.09335188 -221.65787888 275.00020409 C-221.66396016 277.75443287 -221.65074889 280.50809877 -221.63589478 283.26228333 C-221.63884487 284.9643264 -221.64250079 286.66636845 -221.64697266 288.3684082 C-221.63768234 289.12660355 -221.62839203 289.88479889 -221.61882019 290.66596985 C-221.67564549 298.35672263 -224.02476132 304.73930115 -229.25 310.4609375 C-235.18466866 315.68026663 -242.28680934 317.43808706 -250.01953125 317.3359375 C-257.87662448 316.45034115 -263.47097 312.18210091 -268.52734375 306.35546875 C-273.21827246 298.85247137 -273.4220503 292.03729618 -273.35302734 283.40527344 C-273.35518753 282.16207336 -273.35734772 280.91887329 -273.35957336 279.63800049 C-273.36265283 276.94888663 -273.36047851 274.26037721 -273.34955978 271.57134247 C-273.33312426 267.31848748 -273.34169767 263.06590385 -273.35440063 258.81304932 C-273.38444377 247.49026013 -273.38302185 236.1675223 -273.36414778 224.84471345 C-273.35181972 217.3920971 -273.35365135 209.93979015 -273.38253558 202.48720956 C-273.39777043 198.25974258 -273.39028963 194.03311629 -273.36582541 189.80570173 C-273.35340108 186.56278523 -273.3733231 183.32003733 -273.38818359 180.07714844 C-273.37484482 178.90720337 -273.36150604 177.7372583 -273.34776306 176.53186035 C-273.27758996 170.3666193 -273.27758996 170.3666193 -276.31167603 165.24517822 C-280.00693879 163.53360597 -282.13097983 163.85362365 -286 165 C-288.72310328 167.50729824 -289.00387931 169.03372434 -289.43237305 172.75878906 C-289.47363884 174.26073373 -289.49919858 175.76316572 -289.51171875 177.265625 C-289.53864555 178.45572174 -289.53864555 178.45572174 -289.56611633 179.66986084 C-289.62016926 182.19652031 -289.65409812 184.72299144 -289.6875 187.25 C-289.7206776 188.96617201 -289.75516767 190.68231919 -289.79101562 192.3984375 C-289.87589255 196.59882232 -289.94272721 200.79915177 -290 205 C-293.83767114 201.30311032 -296.39948187 197.91129721 -298.5625 193.0625 C-298.85914551 192.41152344 -299.15579102 191.76054687 -299.46142578 191.08984375 C-310.88719583 165.23053677 -308.45414579 137.54054179 -298.97900391 111.51660156 C-287.61192533 82.29668985 -287.61192533 82.29668985 -278.19140625 74.50390625 C-274.7208273 73.70585868 -272.29111898 75.51051232 -269.3125 77.125 C-249.77719483 86.76459887 -224.17636435 89.26033493 -203.33203125 82.3203125 C-201.68267578 81.66675781 -201.68267578 81.66675781 -200 81 C-199.35853027 80.75862305 -198.71706055 80.51724609 -198.05615234 80.26855469 C-188.044541 76.46667696 -179.46932745 71.55800625 -171 65 C-170.19046875 64.37480469 -169.3809375 63.74960938 -168.546875 63.10546875 C-150.28474445 47.94023796 -139.89089002 24.17026777 -137 1 C-133.41250744 2.6229133 -130.42672395 4.81099042 -127.25 7.125 C-104.98763897 22.7738031 -78.89121328 29.14015817 -51.8125 25.375 C-33.06923346 21.55148058 -13.6905842 13.6905842 0 0 Z " fill="#F14234" transform="translate(324,178)"/>
<path d="M0 0 C14.30588752 13.06957625 26.51427572 33.00171771 27.67651367 52.78515625 C27.92740045 81.40243484 22.77815219 104.0043981 2.28125 125.125 C-6.54237637 133.85166345 -16.98849464 139.68507399 -28.46875 144.3125 C-29.20351563 144.60898438 -29.93828125 144.90546875 -30.6953125 145.2109375 C-50.00279895 152.3020507 -72.41505371 150.67657628 -91.24609375 142.8828125 C-101.47526952 137.89841413 -110.41594023 131.35163777 -118.46875 123.3125 C-119.62310547 122.17554688 -119.62310547 122.17554688 -120.80078125 121.015625 C-138.14162386 102.93624565 -143.0765649 80.35772709 -142.73828125 56.08203125 C-142.02925187 34.58412069 -130.41276486 14.59125985 -115.15625 0 C-81.44207941 -29.29186048 -33.70066312 -28.66493185 0 0 Z " fill="#FCFDFD" transform="translate(313.46875,38.6875)"/>
<path d="M0 0 C3.34265205 1.20706879 3.94704566 1.92056849 6 5 C6.34556229 6.59342613 6.63228818 8.20020006 6.875 9.8125 C7.75344089 14.38438556 8.80679928 17.47067289 12 21 C19.38069164 25.93466064 26.79616096 25.56789617 35.36108398 25.51757812 C36.91415054 25.52300489 38.46721194 25.53013066 40.02026367 25.53881836 C44.2208029 25.55699041 48.42094734 25.55000928 52.6214931 25.53730202 C57.02819517 25.52714069 61.43486453 25.53657654 65.84156799 25.54284668 C73.24152666 25.55011475 80.64132541 25.54055829 88.04125977 25.52148438 C96.58124984 25.49972525 105.12085775 25.50676333 113.66083854 25.52879 C121.00803428 25.54697762 128.35511537 25.54948569 135.70232636 25.53903532 C140.08388118 25.53281779 144.46525674 25.53191644 148.84679985 25.54518127 C152.9682301 25.55678797 157.08917071 25.54862685 161.2105484 25.52560425 C162.71773277 25.5203424 164.22495877 25.52178743 165.73212624 25.53065491 C177.45710375 25.65700264 177.45710375 25.65700264 188 21 C192.24975227 16.2537861 193.6305116 11.45704263 194.34765625 5.19921875 C195.20748993 2.30049801 196.42650443 1.5023906 199 0 C203.10415963 -0.71376689 204.73370577 -0.15287261 208.375 1.9375 C210.84463634 4.23860473 211.43903026 5.89279889 211.5625 9.25 C210.80470299 19.42131993 206.17094739 28.34661071 198.75 35.3125 C191.89780279 40.80646659 183.3349743 43.13837252 174.703125 43.09765625 C173.49785156 43.09443359 172.29257812 43.09121094 171.05078125 43.08789062 C169.79652344 43.07951172 168.54226563 43.07113281 167.25 43.0625 C165.98027344 43.05798828 164.71054687 43.05347656 163.40234375 43.04882812 C160.26818164 43.03704556 157.13411459 43.02059416 154 43 C154.37243413 44.67595359 154.7448913 46.35190205 155.11743164 48.02783203 C155.46331478 49.58472207 155.8088406 51.14169151 156.15405273 52.69873047 C157.25972611 57.68256865 158.37389807 62.66438561 159.49609375 67.64453125 C161.99953054 78.78580441 164.4743689 89.90914719 166.45703125 101.15625 C166.94625916 104.05993534 166.94625916 104.05993534 168 107 C169.55207891 125.24633371 166.30162197 141.35804886 154.29223633 155.72412109 C143.12576492 168.30124243 126.84146084 177.31402133 110 179 C88.51545912 180.2462089 68.81643827 176.48763622 52.1640625 162.03515625 C51.09285156 161.02775391 51.09285156 161.02775391 50 160 C49.30648437 159.35933594 48.61296875 158.71867188 47.8984375 158.05859375 C43.46366418 153.54676838 40.47508215 148.59359488 37.625 143 C37.29097168 142.34773437 36.95694336 141.69546875 36.61279297 141.0234375 C27.60178215 122.39851755 32.50502167 102.48899212 37.1875 83.37158203 C38.44280707 78.16251032 39.56566795 72.92663874 40.6875 67.6875 C41.09085467 65.82545774 41.49448906 63.96347604 41.8984375 62.1015625 C43.27415525 55.7361949 44.64091679 49.36894089 46 43 C45.20940186 43.02094727 44.41880371 43.04189453 43.60424805 43.06347656 C39.96546536 43.14746278 36.32688757 43.19892088 32.6875 43.25 C30.82254883 43.30027344 30.82254883 43.30027344 28.91992188 43.3515625 C17.35846786 43.47294259 7.55345394 41.12108154 -1 33 C-7.06465982 26.47099267 -11.06878187 18.66783243 -11.5625 9.6875 C-11.39568796 6.03489145 -11.02322112 5.0341487 -8.875 1.875 C-5.50480335 -0.32295434 -3.94656718 -0.5877866 0 0 Z " fill="#040001" transform="translate(156,256)"/>
<path d="M0 0 C8.5016583 7.58326929 12.65016319 14.37109191 15.92358398 25.13427734 C17.32613286 29.55576311 19.17719606 32.89268012 21.8125 36.75 C28.39675417 48.39130715 26.67602848 65.620286 23.60375977 78.24047852 C17.79123118 98.18828688 4.42717159 114.42536028 -13.3125 124.96875 C-30.80973361 134.35362985 -52.34859658 137.76445077 -71.78637695 132.55932617 C-92.22216063 126.08786763 -108.29387373 112.83166815 -119.17578125 94.53125 C-128.39903478 76.67724318 -131.25389786 55.06960606 -125.3984375 35.73828125 C-121.65977112 25.74413678 -116.939297 16.16624516 -110 8 C-109.2575 7.01 -108.515 6.02 -107.75 5 C-96.7436724 -7.94034683 -78.62341984 -17.29230564 -61.7578125 -18.8359375 C-37.97363605 -20.25086018 -18.59929812 -15.59751266 0 0 Z " fill="#FBFCFC" transform="translate(145,113)"/>
<path d="M0 0 C1.39767403 1.18203289 2.77216203 2.39190475 4.125 3.625 C5.35283203 4.71554688 5.35283203 4.71554688 6.60546875 5.828125 C21.11131688 19.43421553 29.82491037 38.62726549 30.5300293 58.49658203 C30.81642593 80.02585708 22.75206625 100.32420044 7.85546875 116.015625 C-9.75515258 132.74429276 -29.48679444 138.12811614 -53.19921875 137.828125 C-69.72446329 137.38492956 -84.47222213 130.36333582 -96.875 119.625 C-97.865 118.903125 -98.855 118.18125 -99.875 117.4375 C-108.64661918 109.95368087 -114.4113724 99.04398568 -118.875 88.625 C-119.52855469 87.11486328 -119.52855469 87.11486328 -120.1953125 85.57421875 C-124.58630366 73.24566664 -126.20826778 55.12847575 -121.25390625 42.8515625 C-119.66777115 39.57181052 -117.76589881 36.51154487 -115.84863281 33.41796875 C-114.21118304 30.40256476 -113.4536181 27.17055016 -112.5625 23.875 C-109.92694006 15.43408506 -105.16993836 10.54278086 -98.875 4.625 C-98.24980469 3.97144531 -97.62460937 3.31789063 -96.98046875 2.64453125 C-87.90984596 -6.30323886 -74.30843229 -12.36845185 -61.875 -14.375 C-60.7715625 -14.55417969 -59.668125 -14.73335938 -58.53125 -14.91796875 C-37.40703766 -17.55849529 -17.19337691 -12.7592955 0 0 Z " fill="#FBFCFD" transform="translate(464.875,109.375)"/>
<path d="M0 0 C10.03600133 7.46107672 17.03158017 17.57935672 21.33984375 29.25390625 C21.65824219 30.11371094 21.97664063 30.97351563 22.3046875 31.859375 C26.06728223 43.597977 25.12150224 55.66336853 21.33984375 67.25390625 C21.07300781 68.1046875 20.80617188 68.95546875 20.53125 69.83203125 C15.21600338 84.8564617 3.42234815 96.56884257 -10.73193359 103.40820312 C-24.75378432 109.55807536 -41.221357 110.672568 -55.671875 105.5078125 C-65.1314616 101.53849577 -72.39511919 96.5061302 -79.66015625 89.25390625 C-80.52447266 88.40699219 -80.52447266 88.40699219 -81.40625 87.54296875 C-91.56524196 76.72430199 -95.66015625 61.67052789 -95.66015625 47.25390625 C-90.05015625 47.25390625 -84.44015625 47.25390625 -78.66015625 47.25390625 C-78.59828125 46.01640625 -78.53640625 44.77890625 -78.47265625 43.50390625 C-77.25228796 33.13891153 -72.84334017 25.62249418 -65.35546875 18.5078125 C-63.38644086 16.38262374 -63.38644086 16.38262374 -63.75390625 13.6953125 C-64.62731275 11.3423855 -65.53061024 9.62584914 -67.03515625 7.62890625 C-67.45539063 7.05914062 -67.875625 6.489375 -68.30859375 5.90234375 C-69.66982571 4.24211287 -71.11601855 2.74386368 -72.66015625 1.25390625 C-49.93157737 -14.3967206 -23.36587634 -15.33707301 0 0 Z " fill="#000202" transform="translate(291.66015625,53.74609375)"/>
<path d="M0 0 C9.24 0 18.48 0 28 0 C28.05607422 6.51814453 28.05607422 6.51814453 28.11328125 13.16796875 C28.1514027 16.63855741 28.19247539 20.10908328 28.2355423 23.57961273 C28.28015645 27.23998418 28.31960108 30.90024238 28.34643555 34.56079102 C28.37249545 38.08826179 28.41291592 41.61530546 28.46318626 45.14251137 C28.48792576 47.13927679 28.49789298 49.13620755 28.50764465 51.13310242 C28.53733589 52.96443474 28.53733589 52.96443474 28.56762695 54.83276367 C28.58428154 56.44159676 28.58428154 56.44159676 28.60127258 58.08293152 C29.05547047 61.40581899 30.02606942 63.31076108 32 66 C34.84083641 67.42041821 36.85477278 67.31452272 40 67 C42.30275556 65.1329009 43.67823871 63.64352259 45 61 C45.12005547 59.06028622 45.17733344 57.11656384 45.20532227 55.17333984 C45.22526749 53.95222504 45.24521271 52.73111023 45.26576233 51.47299194 C45.28274656 50.13564177 45.29962537 48.79829025 45.31640625 47.4609375 C45.33697603 46.09615447 45.35797251 44.73137782 45.37937927 43.36660767 C45.43459759 39.77292027 45.48400787 36.1791754 45.53222656 32.58538818 C45.58244337 28.91885263 45.63807555 25.25239958 45.69335938 21.5859375 C45.80145127 14.39068802 45.90047572 7.19539357 46 0 C55.24 0 64.48 0 74 0 C74.59167969 2.92101562 75.18335938 5.84203125 75.79296875 8.8515625 C76.38200813 11.7511605 76.97194439 14.65057452 77.56204224 17.54995728 C77.97827565 19.59635532 78.39386637 21.64288419 78.80880737 23.68954468 C81.05833524 34.7779019 83.36908939 45.82289108 86.0625 56.8125 C89.36109454 70.67709441 89.35188128 83.29146148 82.4375 96.0625 C75.14509321 107.47592291 64.00465471 114.15888535 51.1875 117.875 C36.58817565 121.07276596 20.53049066 119.52209751 7.59765625 111.7890625 C-0.58618814 106.15267042 -6.65406805 99.9787241 -11 91 C-11.33902344 90.31679688 -11.67804688 89.63359375 -12.02734375 88.9296875 C-17.65990023 75.27657825 -12.96036244 60.01888241 -9.7265625 46.40625 C-7.87331005 38.59866322 -6.29397224 30.74815994 -4.75 22.875 C-4.26616704 20.41395588 -3.78182097 17.95301255 -3.296875 15.4921875 C-2.99281738 13.93540283 -2.99281738 13.93540283 -2.68261719 12.34716797 C-1.84100321 8.22036984 -0.91365528 4.11144876 0 0 Z " fill="#E61D62" transform="translate(219,299)"/>
<path d="M0 0 C7.77919011 6.3357857 13.94204402 16.16243726 15.30322266 26.24633789 C15.43696491 28.61036998 15.46770273 30.94494144 15.4375 33.3125 C15.42992676 34.14628174 15.42235352 34.98006348 15.41455078 35.83911133 C15.13558021 46.31679789 11.90373267 54.14345193 5 62 C4.24783203 62.90878906 4.24783203 62.90878906 3.48046875 63.8359375 C-2.35956857 70.34381364 -11.20353966 75.3471299 -20.0078125 76.19287109 C-34.00042004 76.72533886 -44.83988642 75.33844219 -55.96875 66.00390625 C-62.67640094 59.38655061 -66.24455339 51.90335169 -69 43 C-69.495 41.515 -69.495 41.515 -70 40 C-71.13677782 27.0481871 -68.09428958 16.18186792 -60 6 C-59.52175781 5.38511719 -59.04351562 4.77023438 -58.55078125 4.13671875 C-43.57073071 -12.88092053 -17.42923417 -12.86011202 0 0 Z " fill="#000202" transform="translate(121,137)"/>
<path d="M0 0 C8.83188678 6.81972909 15.02943187 16.96481846 17 28 C18.19891495 40.62607305 14.9795243 52.10372313 7 62 C4.625 64.6875 4.625 64.6875 2 67 C1.44957031 67.49242187 0.89914062 67.98484375 0.33203125 68.4921875 C-9.41899135 76.57447839 -20.78090772 78.13179801 -33.04345703 77.22314453 C-44.55347067 75.91042274 -53.29296121 68.66805916 -60.5 60.04296875 C-62.81039712 56.89625601 -64.54860835 53.61816116 -66 50 C-66.35835938 49.11183594 -66.71671875 48.22367188 -67.0859375 47.30859375 C-68.22367454 43.19037462 -68.34308947 39.43943617 -68.3125 35.1875 C-68.30758545 34.38578369 -68.3026709 33.58406738 -68.29760742 32.75805664 C-68.18386354 27.02711499 -67.59504551 22.17966915 -65 17 C-64.47212891 15.86884766 -64.47212891 15.86884766 -63.93359375 14.71484375 C-58.55534726 4.08260069 -49.68806897 -2.55551053 -38.6875 -6.875 C-25.27788992 -10.88601611 -11.52932228 -7.14817981 0 0 Z " fill="#000202" transform="translate(444,136)"/>
<path d="M0 0 C10.03600133 7.46107672 17.03158017 17.57935672 21.33984375 29.25390625 C21.65824219 30.11371094 21.97664063 30.97351563 22.3046875 31.859375 C26.06728223 43.597977 25.12150224 55.66336853 21.33984375 67.25390625 C21.07300781 68.1046875 20.80617188 68.95546875 20.53125 69.83203125 C15.21600338 84.8564617 3.42234815 96.56884257 -10.73193359 103.40820312 C-24.75378432 109.55807536 -41.221357 110.672568 -55.671875 105.5078125 C-65.1314616 101.53849577 -72.39511919 96.5061302 -79.66015625 89.25390625 C-80.52447266 88.40699219 -80.52447266 88.40699219 -81.40625 87.54296875 C-91.56524196 76.72430199 -95.66015625 61.67052789 -95.66015625 47.25390625 C-90.05015625 47.25390625 -84.44015625 47.25390625 -78.66015625 47.25390625 C-78.66015625 45.60390625 -78.66015625 43.95390625 -78.66015625 42.25390625 C-78.33015625 42.25390625 -78.00015625 42.25390625 -77.66015625 42.25390625 C-77.634375 43.36507812 -77.60859375 44.47625 -77.58203125 45.62109375 C-77.07957417 60.60712912 -73.62284265 70.96344325 -62.41015625 81.50390625 C-52.4097868 89.62637827 -41.10630644 90.99004219 -28.66015625 90.25390625 C-16.9614656 88.31779756 -7.58599092 81.71280082 -0.66015625 72.25390625 C0.90063892 69.66187142 2.17803308 67.04471071 3.33984375 64.25390625 C3.73171875 63.38765625 4.12359375 62.52140625 4.52734375 61.62890625 C8.1669356 50.99009931 6.8115674 40.37412294 2.33984375 30.25390625 C-3.5212855 19.39308173 -11.24133604 12.88988503 -22.66015625 8.25390625 C-35.51658431 4.74180256 -48.44645808 7.15731482 -59.84765625 13.50390625 C-60.77578125 14.08140625 -61.70390625 14.65890625 -62.66015625 15.25390625 C-63.046875 14.5784375 -63.43359375 13.90296875 -63.83203125 13.20703125 C-64.61320312 11.86898437 -64.61320312 11.86898437 -65.41015625 10.50390625 C-65.920625 9.6221875 -66.43109375 8.74046875 -66.95703125 7.83203125 C-68.63728173 5.28853282 -70.43434657 3.324877 -72.66015625 1.25390625 C-49.93157737 -14.3967206 -23.36587634 -15.33707301 0 0 Z " fill="#02BAD2" transform="translate(291.66015625,53.74609375)"/>
<path d="M0 0 C15.6794049 -0.79391813 30.02414281 4.66727594 42.13671875 14.6796875 C54.67727997 26.41062457 62.04017636 41.33031902 62.73046875 58.65234375 C62.09875394 75.23995189 56.48639973 90.84687913 44.85546875 102.9296875 C30.88043373 115.42819352 15.40067019 120.38523674 -3.1953125 119.62890625 C-8.7081942 119.27236845 -13.6427022 118.37942389 -18.76953125 116.27734375 C-20.20619141 115.70886719 -20.20619141 115.70886719 -21.671875 115.12890625 C-37.35266935 108.14621018 -48.12777989 95.09974008 -54.60546875 79.51171875 C-57.07039568 72.66286136 -56.84906428 66.51484949 -56.76953125 59.27734375 C-48.35453125 58.78234375 -48.35453125 58.78234375 -39.76953125 58.27734375 C-39.64578125 60.65953125 -39.64578125 60.65953125 -39.51953125 63.08984375 C-38.36634458 75.22947098 -33.34489542 84.28929984 -24.45703125 92.52734375 C-13.99293202 101.02646507 -2.78375993 102.34618841 10.23046875 101.27734375 C20.70800611 99.29865069 29.69909925 94.09637302 36.10546875 85.52734375 C42.50967465 75.64915823 45.21333157 64.94710935 44.23046875 53.27734375 C41.57776861 41.10523966 35.34766744 31.54462732 25.23046875 24.27734375 C19.47721097 21.01635516 13.89173676 18.6218921 7.23046875 18.27734375 C5.81507813 18.16712891 5.81507813 18.16712891 4.37109375 18.0546875 C-5.82595848 17.5789877 -14.60942743 20.08002659 -22.76953125 26.27734375 C-23.42953125 26.27734375 -24.08953125 26.27734375 -24.76953125 26.27734375 C-26.171875 24.16015625 -26.171875 24.16015625 -27.70703125 21.40234375 C-29.59316313 18.01598932 -30.49161935 16.46261835 -33.76953125 14.27734375 C-32.72863517 10.9132883 -31.53872551 10.13136876 -28.49609375 8.20703125 C-27.13816309 7.50396064 -25.77025123 6.81993531 -24.39453125 6.15234375 C-23.67136719 5.79978516 -22.94820313 5.44722656 -22.203125 5.08398438 C-14.7979787 1.61732739 -8.10941382 0.59665117 0 0 Z " fill="#02BAD2" transform="translate(415.76953125,110.72265625)"/>
<path d="M0 0 C11.31416451 9.02026145 20.43600414 21.27505428 23.22998047 35.71142578 C24.29562035 48.14778165 24.59641417 61.22565574 19.22998047 72.71142578 C18.76720703 73.70787109 18.30443359 74.70431641 17.82763672 75.73095703 C9.97816486 90.6814181 -2.99600397 101.19395345 -19.03808594 106.21850586 C-34.72890684 110.45549848 -50.59280937 108.81467543 -64.78173828 101.06689453 C-79.60444233 92.1085618 -89.57807449 79.75143308 -94.58642578 62.97705078 C-95.79917241 57.51545056 -95.95002186 52.29149802 -95.77001953 46.71142578 C-95.24923828 46.87513672 -94.72845703 47.03884766 -94.19189453 47.20751953 C-91.09433203 47.85201237 -88.18160859 47.80554167 -85.02001953 47.77392578 C-83.84955078 47.76490234 -82.67908203 47.75587891 -81.47314453 47.74658203 C-80.58111328 47.73498047 -79.68908203 47.72337891 -78.77001953 47.71142578 C-78.54958984 49.01853516 -78.54958984 49.01853516 -78.32470703 50.35205078 C-75.99330339 62.73260807 -71.88014945 74.73835413 -61.14501953 82.27392578 C-50.00745678 89.65598619 -39.98273193 91.14202491 -26.77001953 89.71142578 C-23.06403911 88.85690255 -20.05040371 87.61255752 -16.77001953 85.71142578 C-16.06876953 85.33759766 -15.36751953 84.96376953 -14.64501953 84.57861328 C-4.73599495 78.91095149 0.11606811 71.35963157 4.34326172 60.97705078 C7.18111419 50.52575269 6.55317578 37.19238311 1.22998047 27.71142578 C-5.81505154 16.43207402 -15.4101872 10.16636235 -28.24267578 7.12548828 C-41.22499063 4.99855571 -51.48398504 8.63617743 -62.77001953 14.71142578 C-63.15673828 14.11974609 -63.54345703 13.52806641 -63.94189453 12.91845703 C-66.72386902 8.69729277 -69.51631304 4.59084506 -72.77001953 0.71142578 C-49.6616273 -13.76147123 -23.11770961 -16.8296926 0 0 Z " fill="#02BAD2" transform="translate(129.77001953125,122.28857421875)"/>
<path d="M0 0 C15.967987 2.8546122 27.84531481 10.58168858 39 22 C39.73863281 22.71800781 40.47726562 23.43601562 41.23828125 24.17578125 C54.73928037 38.09622889 60.3125 57.42399545 60.3125 76.4074707 C59.98337967 96.11542018 51.25831111 115.14098727 37.73046875 129.390625 C27.24836926 139.34777282 14.82858882 146.01322952 1 150 C0.34 149.67 -0.32 149.34 -1 149 C-0.20078125 148.48953125 0.5984375 147.9790625 1.421875 147.453125 C19.59570519 135.42256135 34.64175614 118.681969 39.48730469 96.79931641 C42.18864501 83.26198106 43.32618721 70.56559613 39.75390625 57.0703125 C39 54 39 54 38.6171875 50.625 C37.88149542 46.3039731 36.4397163 42.81032553 34.5625 38.875 C34.21195557 38.13652832 33.86141113 37.39805664 33.50024414 36.63720703 C26.99907962 23.47579334 17.43713163 12.68803158 5.234375 4.578125 C3.25634026 3.18105151 1.64190774 1.76984861 0 0 Z " fill="#CBD4D8" transform="translate(435,96)"/>
<path d="M0 0 C1.61852762 0.20201192 3.23705159 0.4040531 4.8555603 0.60621643 C6.29192289 0.78559384 7.72830449 0.96481905 9.16470337 1.14390564 C12.80679808 1.59853266 16.44843314 2.05617349 20.08886719 2.52392578 C38.74282468 4.91674447 57.17047795 6.71131053 76 7 C76.75823541 23.36524754 76.75823541 23.36524754 72 29 C67.39735714 32.5693965 63.88076625 34.10799838 58.10473633 34.19287109 C57.1097261 34.20893402 56.11471588 34.22499695 55.08955383 34.24154663 C50.53423833 34.28614278 45.97906699 34.32707288 41.42358398 34.35009766 C39.02504765 34.36663817 36.62656022 34.39390266 34.22827148 34.43212891 C30.76259899 34.48705997 27.29808123 34.50879886 23.83203125 34.5234375 C22.76716995 34.54610687 21.70230865 34.56877625 20.60517883 34.59213257 C13.83286237 34.5730369 9.17837524 33.52545904 4 29 C-0.70180925 23.137524 -0.49739734 17.87499447 -0.25 10.5625 C-0.23195312 9.54478516 -0.21390625 8.52707031 -0.1953125 7.47851562 C-0.14847997 4.98468345 -0.08291427 2.49284953 0 0 Z " fill="#F04234" transform="translate(154,461)"/>
<path d="M0 0 C0.11709643 3.52054914 0.1875469 7.04059112 0.25 10.5625 C0.28351563 11.55314453 0.31703125 12.54378906 0.3515625 13.56445312 C0.43679336 19.97807498 -0.1471224 23.80518657 -4 29 C-8.60264286 32.5693965 -12.11923375 34.10799838 -17.89526367 34.19287109 C-18.8902739 34.20893402 -19.88528412 34.22499695 -20.91044617 34.24154663 C-25.46576167 34.28614278 -30.02093301 34.32707288 -34.57641602 34.35009766 C-36.97495235 34.36663817 -39.37343978 34.39390266 -41.77172852 34.43212891 C-45.23740101 34.48705997 -48.70191877 34.50879886 -52.16796875 34.5234375 C-53.23283005 34.54610687 -54.29769135 34.56877625 -55.39482117 34.59213257 C-62.1885888 34.57297641 -66.78712089 33.49954625 -72 29 C-76.06406859 24.22471941 -76.18042373 20.98299073 -76.09375 14.74609375 C-76.08021484 13.48337646 -76.06667969 12.22065918 -76.05273438 10.91967773 C-76.03533203 9.95618408 -76.01792969 8.99269043 -76 8 C-75.07703125 7.93006836 -74.1540625 7.86013672 -73.203125 7.78808594 C-56.09465572 6.47367538 -39.02549273 5.0320265 -22 2.875 C-20.97326172 2.74587219 -20.97326172 2.74587219 -19.92578125 2.61413574 C-12.84245085 1.82856294 -12.84245085 1.82856294 -5.8671875 0.44580078 C-4 0 -4 0 0 0 Z " fill="#F04234" transform="translate(358,461)"/>
<path d="M0 0 C0.87205078 0.48533203 0.87205078 0.48533203 1.76171875 0.98046875 C1.87776772 14.62835347 1.96651332 28.27612006 2.02077961 41.92439842 C2.04682988 48.26243949 2.08214544 54.60014202 2.13891602 60.93798828 C2.19339724 67.05882706 2.22317364 73.17934098 2.23610497 79.30040359 C2.24531582 81.63112117 2.26330247 83.96182175 2.29036903 86.29240036 C2.3268722 89.56690096 2.33165504 92.84007351 2.3293457 96.11474609 C2.34732208 97.06997162 2.36529846 98.02519714 2.38381958 99.0093689 C2.3247378 106.79413959 0.11892971 113.32839796 -5.215312 119.13113976 C-9.85537891 123.49949615 -14.66747608 126.75254502 -21.17578125 127.16796875 C-21.85640625 127.10609375 -22.53703125 127.04421875 -23.23828125 126.98046875 C-21.80057174 123.14657671 -20.0399758 119.56483006 -18.140625 115.9453125 C-16.56342593 112.5109786 -16.11318926 109.3826577 -16.11129761 105.62281799 C-16.10847778 104.75788727 -16.10565796 103.89295654 -16.10275269 103.0018158 C-16.10578903 101.59048119 -16.10578903 101.59048119 -16.10888672 100.15063477 C-16.10625824 98.65487915 -16.10625824 98.65487915 -16.10357666 97.12890625 C-16.09917339 93.83071149 -16.10209103 90.53257031 -16.10546875 87.234375 C-16.10479522 84.94278452 -16.10382478 82.65119411 -16.10256958 80.35960388 C-16.10109463 75.55540283 -16.10324049 70.75122037 -16.10791016 65.94702148 C-16.11360409 59.78882395 -16.11032926 53.63067003 -16.10433769 47.4724741 C-16.10072389 42.73959525 -16.1018745 38.00672674 -16.10446548 33.27384758 C-16.10513265 31.00324435 -16.10431366 28.73264018 -16.10198593 26.46203804 C-16.09944638 23.28789918 -16.10331862 20.11383088 -16.10888672 16.93969727 C-16.10686249 16.00083176 -16.10483826 15.06196625 -16.10275269 14.09465027 C-16.1162902 9.92872135 -16.17440078 6.0411208 -17.23828125 1.98046875 C-11.61330998 -0.83201688 -6.12498065 -2.78991265 0 0 Z " fill="#C12727" transform="translate(459.23828125,368.01953125)"/>
<path d="M0 0 C7.15753291 4.0965944 12.06445391 9.70568291 14.24609375 17.71875 C15.63567828 24.9003196 14.92554155 30.08950248 11.37890625 36.56640625 C7.45394882 42.21363138 2.31840049 46.92721472 -4.3125 49 C-12.15200633 49.95360332 -19.54487059 49.25815609 -26.3125 45 C-32.30631156 39.70010287 -35.78401083 34.74527647 -36.68359375 26.66796875 C-36.8543647 17.71756177 -35.82358287 11.8646832 -29.66796875 5.2265625 C-21.30722429 -2.51137256 -10.53901575 -4.75540955 0 0 Z " fill="#36464E" transform="translate(429.3125,147)"/>
<path d="M0 0 C5.73321099 3.47332394 9.90732289 8.62937233 12 15 C13.07296826 23.13197 12.85919876 31.13433433 8 38 C2.70206656 43.98947785 -2.93567571 47.45250548 -10.890625 48.3125 C-19.7316359 48.66791752 -25.24768309 46.72369719 -31.75 40.8125 C-36.37308004 35.85088779 -39.15167295 30.33603023 -39.4375 23.5 C-38.95284061 15.04049063 -36.09454942 9.07704711 -30.23828125 2.953125 C-21.29162482 -4.85373053 -10.50583155 -4.59956804 0 0 Z " fill="#36464E" transform="translate(107,148)"/>
<path d="M0 0 C5.81928009 4.10714496 9.47044083 8.70979824 11.296875 15.62109375 C12.1891295 25.06508619 11.4502707 31.74885135 5.609375 39.30859375 C0.96803972 44.45920273 -5.11524386 47.05766975 -11.9296875 47.89453125 C-19.84308963 48.22962645 -25.89661406 46.0476572 -31.81640625 40.71875 C-38.07222722 33.97075264 -39.1301421 27.79493152 -38.9453125 18.73828125 C-38.35819956 11.18156955 -34.30967639 5.48855174 -28.703125 0.62109375 C-19.48676819 -4.98408407 -9.37504212 -5.26972909 0 0 Z " fill="#36464E" transform="translate(269.703125,80.37890625)"/>
<path d="M0 0 C13.80414685 11.02631032 20.63519171 35.13640936 24.90234375 51.51953125 C25.25167969 52.72480469 25.60101563 53.93007813 25.9609375 55.171875 C32.89677067 79.83581288 28.37381279 104.14652219 16.33203125 126.375 C14.90234375 128.51953125 14.90234375 128.51953125 11.90234375 130.51953125 C11.75648393 125.50637592 11.61442994 120.49313076 11.47592163 115.47976685 C11.42687592 113.71483324 11.37709176 111.94992 11.3265686 110.18502808 C11.07334313 101.28521405 10.8322776 92.40792786 11.03686523 83.50463867 C11.60668942 57.44765508 3.3682196 33.2647601 -8.26904297 10.27099609 C-9.09765625 8.51953125 -9.09765625 8.51953125 -10.09765625 5.51953125 C-11.08765625 5.18953125 -12.07765625 4.85953125 -13.09765625 4.51953125 C-11.35736323 3.6253807 -9.60495475 2.75477947 -7.84765625 1.89453125 C-6.873125 1.40726563 -5.89859375 0.92 -4.89453125 0.41796875 C-2.09765625 -0.48046875 -2.09765625 -0.48046875 0 0 Z " fill="#C12727" transform="translate(466.09765625,252.48046875)"/>
<path d="M0 0 C1.18414294 3.55242882 0.69535532 4.69830562 -0.4375 8.1875 C-0.72496094 9.08855469 -1.01242187 9.98960937 -1.30859375 10.91796875 C-1.53675781 11.60503906 -1.76492188 12.29210937 -2 13 C-2.99 13 -3.98 13 -5 13 C-3.58192622 8.52761347 -1.88695626 4.28853694 0 0 Z " fill="#E0F2F5" transform="translate(475,188)"/>
<path d="M0 0 C2.29633824 3.44450737 2.54016485 5.93812283 3 10 C0.86746245 7.40386733 -0.55075623 5.36932827 -1 2 C-0.67 1.34 -0.34 0.68 0 0 Z " fill="#EBF5F6" transform="translate(472,140)"/>
</svg>
