<?xml version="1.0" encoding="UTF-8"?>
<svg version="1.1" xmlns="http://www.w3.org/2000/svg" width="512" height="512">
<path d="M0 0 C1.74947182 -0.0099852 1.74947182 -0.0099852 3.5342865 -0.02017212 C5.99248694 -0.03024936 8.45071447 -0.03499068 10.90893555 -0.03466797 C14.61749876 -0.03902159 18.32485135 -0.07534289 22.03320312 -0.11328125 C39.87114826 -0.19783583 55.32113181 1.45406492 71.58984375 9.3359375 C72.65847656 9.85027344 73.72710937 10.36460938 74.828125 10.89453125 C87.74127275 17.46491078 101.47782476 28.03448765 109.58984375 40.3359375 C109.58984375 40.9959375 109.58984375 41.6559375 109.58984375 42.3359375 C110.24984375 42.3359375 110.90984375 42.3359375 111.58984375 42.3359375 C111.89921875 41.19125 111.89921875 41.19125 112.21484375 40.0234375 C117.4650336 25.94338291 124.95532251 18.15242573 138.3203125 11.68359375 C154.42884325 5.04387677 173.12828022 9.93798381 188.5625 16.12695312 C191.16280051 17.21368779 193.7318225 18.34091868 196.27734375 19.55078125 C198.94194642 20.45548587 200.03612727 20.48403693 202.58984375 19.3359375 C204.06959521 17.85306824 204.06959521 17.85306824 205.33984375 16.0234375 C209.20427719 11.23468664 213.85696024 9.24689867 219.58984375 7.3359375 C230.60635404 6.38138192 239.76153826 7.86616372 248.46484375 14.9609375 C255.00230955 21.29923319 258.23597487 28.42194476 258.7421875 37.5078125 C258.48225687 42.3331914 257.14821169 46.78409441 255.58984375 51.3359375 C256.60304688 51.67431641 256.60304688 51.67431641 257.63671875 52.01953125 C271.71865596 58.29679691 284.23178081 70.45824243 290.58984375 84.3359375 C290.93015625 85.01785156 291.27046875 85.69976562 291.62109375 86.40234375 C295.45583246 95.47434134 295.27064259 108.33391031 291.65234375 117.3984375 C290.66647041 119.39524875 289.64110687 121.37276475 288.58984375 123.3359375 C287.90166731 124.74449568 287.21701916 126.15478097 286.53515625 127.56640625 C279.85433496 141.1296507 272.41009599 150.28527307 257.58984375 155.3359375 C240.59239775 159.85877276 225.32181004 154.98485791 209.43066406 148.94677734 C207.59672724 148.23095632 207.59672724 148.23095632 205.58984375 148.3359375 C204.92984375 150.3159375 204.26984375 152.2959375 203.58984375 154.3359375 C205.48545209 155.70732503 207.38137504 157.07827241 209.27783203 158.44848633 C210.92073198 159.63663447 212.56230694 160.8266166 214.20263672 162.01831055 C217.88169392 164.68589517 221.55884581 167.3415795 225.33984375 169.86328125 C239.54720092 179.4098309 251.77267681 191.62295412 260.58984375 206.3359375 C261.27304687 207.45871094 261.95625 208.58148438 262.66015625 209.73828125 C270.25864866 222.78194153 275.96822195 238.28824105 277.58984375 253.3359375 C277.698125 254.30402344 277.80640625 255.27210938 277.91796875 256.26953125 C281.00177168 288.12196945 273.17489457 320.57890737 252.87841797 345.77587891 C241.35413861 359.72816104 228.67734818 370.12288458 212.58984375 378.3359375 C211.98301758 378.6462793 211.37619141 378.95662109 210.75097656 379.27636719 C202.81220796 383.27408867 194.62965886 386.58081001 186.33984375 389.7734375 C185.42178955 390.12801025 184.50373535 390.48258301 183.55786133 390.84790039 C182.26658325 391.33504517 182.26658325 391.33504517 180.94921875 391.83203125 C180.18061523 392.12263428 179.41201172 392.4132373 178.62011719 392.71264648 C176.58984375 393.3359375 176.58984375 393.3359375 173.58984375 393.3359375 C174.10933594 393.94179688 174.62882812 394.54765625 175.1640625 395.171875 C185.44140929 407.51988871 189.63214373 419.22082396 188.78076172 435.2734375 C188.12054803 442.40577153 185.08975028 448.46735091 181.75097656 454.69384766 C177.68984773 462.08444255 177.68984773 462.08444255 177.7265625 470.23828125 C179.11245758 473.60581816 181.04426387 476.47912602 183.21484375 479.390625 C186.88261356 484.5796857 186.28471952 491.28845428 185.58984375 497.3359375 C183.53559258 503.3687779 180.78017911 506.89014152 175.19946289 509.9375 C169.26705252 512.82480435 164.05781429 513.03033277 157.546875 512.9296875 C156.4202092 512.92972778 155.2935434 512.92976807 154.13273621 512.92980957 C151.76022739 512.92447558 149.38771775 512.90698464 147.01538086 512.87792969 C143.42961076 512.83625441 139.84573623 512.83685722 136.25976562 512.84375 C115.36290235 512.78642739 97.17052988 511.49079714 81.2734375 496.33203125 C75.36342821 490.04087075 70.22029316 482.14630973 66.58984375 474.3359375 C65.94144531 474.408125 65.29304688 474.4803125 64.625 474.5546875 C56.61882075 475.31217095 48.62832195 475.50716864 40.58984375 475.5859375 C39.49164307 475.60720703 38.39344238 475.62847656 37.26196289 475.65039062 C35.69176392 475.6571582 35.69176392 475.6571582 34.08984375 475.6640625 C33.15140625 475.6734082 32.21296875 475.68275391 31.24609375 475.69238281 C28.05432232 475.26407525 26.17722912 474.22432302 23.58984375 472.3359375 C23.30367187 471.62953125 23.0175 470.923125 22.72265625 470.1953125 C22.34882813 469.58171875 21.975 468.968125 21.58984375 468.3359375 C18.25009003 467.62805315 18.25009003 467.62805315 14.46484375 467.5859375 C13.18351563 467.52921875 11.9021875 467.4725 10.58203125 467.4140625 C9.59460938 467.38828125 8.6071875 467.3625 7.58984375 467.3359375 C7.52796875 468.0990625 7.46609375 468.8621875 7.40234375 469.6484375 C6.58984375 472.3359375 6.58984375 472.3359375 4.58740234 474.01196289 C0.4970347 475.81861411 -2.78737602 475.49706122 -7.18359375 475.20703125 C-8.9126573 475.13986859 -10.64183131 475.07550203 -12.37109375 475.01367188 C-15.08183756 474.90240267 -17.78689898 474.773323 -20.49414062 474.59545898 C-29.03967277 473.93790165 -29.03967277 473.93790165 -37.41015625 475.3359375 C-41.10269969 478.84985916 -42.63553851 482.62458659 -44.41015625 487.3359375 C-51.58209025 498.88825446 -62.56883433 506.33519893 -75.41015625 510.3359375 C-83.30105601 512.15373942 -90.93781263 512.65552083 -99.015625 512.671875 C-100.17967361 512.6785318 -101.34372223 512.6851886 -102.54304504 512.69204712 C-104.98595615 512.70210729 -107.42889437 512.70686621 -109.87182617 512.70654297 C-113.59795105 512.71093785 -117.32291042 512.74738943 -121.04882812 512.78515625 C-123.43358974 512.79102154 -125.81835692 512.79499286 -128.203125 512.796875 C-129.3085112 512.81124603 -130.4138974 512.82561707 -131.55278015 512.84042358 C-139.76776789 512.79205193 -145.28427093 511.39235871 -151.22265625 505.5859375 C-155.20427012 499.67039689 -157.65531407 493.60163861 -156.41015625 486.3359375 C-154.92345563 481.86058742 -152.88807198 478.03232899 -150.22265625 474.1484375 C-148.18289838 470.98329598 -147.70834895 469.07022765 -147.41015625 465.3359375 C-148.17350381 462.45414636 -148.17350381 462.45414636 -149.53515625 459.6484375 C-149.99792969 458.60558594 -150.46070313 457.56273437 -150.9375 456.48828125 C-151.8777343 454.47563117 -152.82733306 452.46731157 -153.7890625 450.46484375 C-156.63892508 444.46737174 -158.45365877 438.91721121 -159.41015625 432.3359375 C-160.37953125 432.5628125 -161.34890625 432.7896875 -162.34765625 433.0234375 C-167.23153022 433.6746207 -171.07312987 432.58522233 -175.41015625 430.3359375 C-181.71373785 424.86594525 -185.06008062 417.66763138 -188.47265625 410.2109375 C-189.25080688 408.54478394 -189.25080688 408.54478394 -190.04467773 406.8449707 C-191.51489686 403.68195409 -192.96518291 400.51054815 -194.41015625 397.3359375 C-194.7659375 396.56717285 -195.12171875 395.7984082 -195.48828125 395.00634766 C-201.918488 381.09353273 -205.61278894 367.67878249 -202.41015625 352.3359375 C-201.50156208 342.6393014 -203.96279099 335.96107486 -208.421875 327.50390625 C-213.31233138 318.18081876 -216.26092015 311.30085074 -214.78515625 300.6015625 C-214.2541844 295.47652986 -215.06093769 291.39788444 -216.34765625 286.4609375 C-222.59398963 258.93139165 -218.50785273 231.04049403 -203.72265625 207.0859375 C-201.58353006 203.79811586 -199.46064449 200.83073907 -196.41015625 198.3359375 C-194.33203125 198.26171875 -194.33203125 198.26171875 -192.16015625 198.6484375 C-188.85472452 198.82813972 -187.77729757 198.64113582 -185.1875 196.48828125 C-183.16716384 194.16583875 -181.29254022 191.77054118 -179.41015625 189.3359375 C-178.66894531 188.65660156 -177.92773438 187.97726563 -177.1640625 187.27734375 C-176.58527344 186.63667969 -176.00648438 185.99601563 -175.41015625 185.3359375 C-175.49265625 184.0778125 -175.57515625 182.8196875 -175.66015625 181.5234375 C-175.74319657 179.0137744 -175.68833812 177.75033256 -174.27734375 175.6484375 C-164.79848228 166.80716761 -151.96591385 160.45747193 -140.47265625 154.6484375 C-139.80492187 154.30949463 -139.1371875 153.97055176 -138.44921875 153.62133789 C-135.57426002 152.21038166 -133.65588638 151.3359375 -130.41015625 151.3359375 C-130.41015625 150.6759375 -130.41015625 150.0159375 -130.41015625 149.3359375 C-131.28220703 148.94728516 -131.28220703 148.94728516 -132.171875 148.55078125 C-143.40903184 142.45173103 -149.20416992 129.18447138 -154.34765625 118.1484375 C-154.74976318 117.30506836 -155.15187012 116.46169922 -155.56616211 115.59277344 C-157.97957572 110.23944056 -159.29455453 106.20956192 -158.41015625 100.3359375 C-155.23362277 95.3295758 -151.50578324 92.79110887 -146.28515625 90.1484375 C-145.62572021 89.80675537 -144.96628418 89.46507324 -144.28686523 89.11303711 C-129.20518517 81.5365365 -113.84229745 81.754838 -97.41015625 83.3359375 C-97.17941406 82.32015625 -96.94867188 81.304375 -96.7109375 80.2578125 C-92.64704947 62.88988229 -85.99810103 48.02863143 -74.41015625 34.3359375 C-73.96414062 33.74425781 -73.518125 33.15257812 -73.05859375 32.54296875 C-56.31918222 10.92550785 -26.50585417 0.05372176 0 0 Z " fill="#010201" transform="translate(218.41015625,-0.3359375)"/>
<path d="M0 0 C1.39316185 -0.00855011 1.39316185 -0.00855011 2.81446838 -0.01727295 C4.77693559 -0.0266858 6.73941833 -0.03324209 8.7019043 -0.03710938 C11.65117374 -0.04674357 14.59972393 -0.07777305 17.54882812 -0.109375 C45.00584413 -0.26404163 68.21646284 6.78664051 88.44140625 26.078125 C92.63718425 30.40079145 96.00369714 35.14458877 99.25390625 40.203125 C99.71796875 40.88761719 100.18203125 41.57210937 100.66015625 42.27734375 C104.06959945 47.7345318 105.52333942 53.40127245 106.91088867 59.61962891 C107.68936956 63.107325 108.66256369 66.02698862 110.25390625 69.203125 C111.06092781 73.22019296 111.37652533 77.02454101 111.36743164 81.11669922 C111.36735611 82.25742889 111.36728058 83.39815857 111.36720276 84.57345581 C111.36204147 85.78929352 111.35688019 87.00513123 111.3515625 88.2578125 C111.34944008 90.14283981 111.34944008 90.14283981 111.34727478 92.06594849 C111.34263699 95.3900444 111.33366805 98.71407042 111.3225708 102.03814697 C111.31230026 105.43688354 111.30776512 108.83562735 111.30273438 112.234375 C111.29172324 118.89064417 111.27499847 125.54688055 111.25390625 132.203125 C110.00738281 132.06003906 108.76085937 131.91695312 107.4765625 131.76953125 C106.77539307 131.68904541 106.07422363 131.60855957 105.35180664 131.52563477 C103.25390625 131.203125 103.25390625 131.203125 99.69140625 130.140625 C94.84852298 128.81983865 91.0633932 128.35869776 86.44140625 130.515625 C84.03352107 132.18704708 84.03352107 132.18704708 82.25390625 135.203125 C82.01369455 137.81105891 81.8812693 140.32199645 81.83984375 142.93359375 C81.8204776 143.68401443 81.80111145 144.43443512 81.78115845 145.20759583 C81.72143166 147.60182367 81.6750056 149.99609977 81.62890625 152.390625 C81.59072005 154.0149948 81.55166794 155.63934448 81.51171875 157.26367188 C81.415736 161.24332605 81.33167989 165.22307501 81.25390625 169.203125 C74.72051665 169.58395668 74.72051665 169.58395668 72.66821289 167.90893555 C72.33684326 167.30863525 72.00547363 166.70833496 71.6640625 166.08984375 C71.27629639 165.4237207 70.88853027 164.75759766 70.48901367 164.07128906 C70.10205322 163.35166992 69.71509277 162.63205078 69.31640625 161.890625 C68.46272698 160.41877545 67.60593123 158.94872925 66.74609375 157.48046875 C66.32811523 156.75327637 65.91013672 156.02608398 65.47949219 155.27685547 C63.7710092 152.3860478 61.90236255 149.67996424 59.94140625 146.953125 C59.34714844 146.12296875 58.75289062 145.2928125 58.140625 144.4375 C54.99783708 140.71560624 51.62754329 137.48767329 46.6796875 136.89453125 C45.65230469 136.85199219 44.62492188 136.80945313 43.56640625 136.765625 C42.55191406 136.70503906 41.53742188 136.64445313 40.4921875 136.58203125 C34.73307805 137.68661316 31.69992989 141.1980535 28.34301758 145.8527832 C26.34362605 148.89784071 24.41114665 151.97455946 22.50390625 155.078125 C21.20634526 157.18570938 19.8995337 159.2876362 18.58203125 161.3828125 C18.01387695 162.30819824 17.44572266 163.23358398 16.86035156 164.18701172 C16.33022461 164.8523291 15.80009766 165.51764648 15.25390625 166.203125 C14.26390625 166.203125 13.27390625 166.203125 12.25390625 166.203125 C10.52392578 164.06347656 10.52392578 164.06347656 8.63671875 161.09375 C7.60224609 159.49660156 7.60224609 159.49660156 6.546875 157.8671875 C5.82318661 156.72982274 5.10053918 155.59179501 4.37890625 154.453125 C2.97259821 152.24504207 1.55877942 150.04172087 0.13671875 147.84375 C-0.48831543 146.85922852 -1.11334961 145.87470703 -1.75732422 144.86035156 C-4.57116129 141.10073916 -7.27481701 138.69355058 -11.74609375 137.203125 C-13.51191016 137.03402798 -15.28531155 136.93722578 -17.05859375 136.890625 C-17.98285156 136.85324219 -18.90710938 136.81585938 -19.859375 136.77734375 C-24.86944617 137.5163123 -27.96483549 140.21990659 -31.0637207 144.11987305 C-31.78003662 145.22371338 -32.49635254 146.32755371 -33.234375 147.46484375 C-33.81737617 148.35173637 -33.81737617 148.35173637 -34.41215515 149.25654602 C-35.63880843 151.12755668 -36.84898734 153.00855943 -38.05859375 154.890625 C-39.28967387 156.78084343 -40.52398219 158.66892391 -41.7585907 160.55683899 C-42.86937973 162.25938249 -43.97260156 163.96685589 -45.07543945 165.67456055 C-46.74609375 168.203125 -46.74609375 168.203125 -47.74609375 169.203125 C-49.74567739 169.24393283 -51.74654629 169.24566856 -53.74609375 169.203125 C-53.76067627 168.22964111 -53.77525879 167.25615723 -53.7902832 166.25317383 C-53.84842671 162.62797024 -53.92565752 159.0033774 -54.00854492 155.37866211 C-54.04171907 153.81235699 -54.06977433 152.24593449 -54.0925293 150.67944336 C-54.12621491 148.42250737 -54.17853424 146.16663974 -54.234375 143.91015625 C-54.24076492 143.21412796 -54.24715485 142.51809967 -54.2537384 141.80097961 C-54.38387297 137.45986134 -55.09494005 134.66463285 -57.74609375 131.203125 C-62.76052936 128.27803756 -67.99107859 128.79319445 -73.4921875 130.078125 C-74.71035156 130.449375 -75.92851562 130.820625 -77.18359375 131.203125 C-78.41980469 131.574375 -79.65601563 131.945625 -80.9296875 132.328125 C-82.32380859 132.76125 -82.32380859 132.76125 -83.74609375 133.203125 C-83.81625172 125.7696153 -83.86923346 118.33614082 -83.90153027 110.90237331 C-83.91704753 107.44887358 -83.93802301 103.99560379 -83.97241211 100.54223633 C-84.25810105 71.06079599 -81.20332351 47.31760324 -59.74609375 25.203125 C-59.20597656 24.58953125 -58.66585937 23.9759375 -58.109375 23.34375 C-43.53049119 7.33268365 -21.05915071 0.10215309 0 0 Z " fill="#6ECC90" transform="translate(219.74609375,14.796875)"/>
<path d="M0 0 C3.10540948 1.16898174 5.83851206 2.39649501 8.56640625 4.28515625 C9.21053467 4.72843262 9.85466309 5.17170898 10.51831055 5.62841797 C11.19289307 6.10166504 11.86747559 6.57491211 12.5625 7.0625 C13.26995361 7.55637207 13.97740723 8.05024414 14.70629883 8.55908203 C16.13948446 9.56397979 17.57042375 10.5720894 18.99902344 11.58349609 C20.74620394 12.82033617 22.50135189 14.04590582 24.2578125 15.26953125 C47.82981384 32.20994288 63.12332513 56.3222803 68.54638672 84.87695312 C70.62631831 99.19691269 69.9984596 115.09442592 66 129 C65.67128906 130.20011719 65.34257812 131.40023437 65.00390625 132.63671875 C57.38963335 157.85076432 41.12359135 180.28942565 17.80859375 193.04394531 C-12.37589377 209 -12.37589377 209 -21 209 C-20.49943128 205.84107119 -19.93895244 202.7248115 -19.24609375 199.6015625 C-13.67387939 173.22325491 -13.67207828 137.4440007 -28.03515625 113.625 C-30.99813406 109.66650877 -34.44482827 106.90969994 -39 105 C-44.00249676 104.52008568 -49.13112211 104.70163256 -54 106 C-52.4598625 100.7338582 -50.10827644 96.17518558 -47.515625 91.375 C-46.60776969 89.67238349 -45.70089905 87.96924163 -44.79492188 86.265625 C-44.33045654 85.39357422 -43.86599121 84.52152344 -43.38745117 83.62304688 C-41.1941427 79.47648587 -39.05561094 75.30245175 -36.921875 71.125 C-36.50177155 70.30328308 -36.08166809 69.48156616 -35.64883423 68.63494873 C-34.78865443 66.95160369 -33.92884493 65.26806939 -33.06939697 63.58435059 C-30.79143181 59.12241781 -28.50902785 54.66275701 -26.2265625 50.203125 C-25.7771933 49.32505188 -25.3278241 48.44697876 -24.86483765 47.54229736 C-20.97014013 39.93520846 -17.05682402 32.33796088 -13.125 24.75 C-12.33367676 23.22052734 -12.33367676 23.22052734 -11.52636719 21.66015625 C-7.75796512 14.39962083 -3.89443961 7.19351406 0 0 Z " fill="#6ECC90" transform="translate(412,168)"/>
<path d="M0 0 C32.34 0 64.68 0 98 0 C99.1221567 7.85509688 99.1221567 7.85509688 96.91015625 11.8203125 C96.45447266 12.67890869 95.99878906 13.53750488 95.52929688 14.42211914 C94.80323242 15.76004517 94.80323242 15.76004517 94.0625 17.125 C90.01459196 25.1368317 86.77206952 31.88131185 89 41 C92.14957005 50.54168638 97.22093308 56.52931749 106.12109375 61.0859375 C113.55746343 64.06048537 122.75468648 64.36084985 130.375 61.875 C138.32127574 58.09962012 142.47969186 52.2722903 146.4375 44.625 C146.88287109 43.79355469 147.32824219 42.96210938 147.78710938 42.10546875 C148.87135496 40.07688024 149.94174205 38.04222971 151 36 C151.70608398 36.00523682 152.41216797 36.01047363 153.13964844 36.01586914 C156.34308988 36.03667413 159.5465171 36.04967141 162.75 36.0625 C163.86117187 36.07087891 164.97234375 36.07925781 166.1171875 36.08789062 C167.18710937 36.09111328 168.25703125 36.09433594 169.359375 36.09765625 C170.34389648 36.10289307 171.32841797 36.10812988 172.34277344 36.11352539 C174.74807039 36.01076326 176.69487354 35.63900615 179 35 C186.6027178 34.18542309 192.17019882 36.81275945 199 40 C198.33848133 53.23037338 192.35219048 63.00069342 184 73 C183.18595703 73.98613281 183.18595703 73.98613281 182.35546875 74.9921875 C170.4675341 88.0538676 150.13575781 97.25316049 132.66088867 98.36694336 C128.21231547 98.54426801 123.7640901 98.5658823 119.3125 98.5625 C117.02892851 98.5661228 114.74610644 98.57567632 112.46269226 98.60325623 C110.42097017 98.62748027 108.37902367 98.62997159 106.3371582 98.63110352 C102.81125471 99.0208643 101.39664952 99.4233923 99 102 C98.505 103.98 98.505 103.98 98 106 C93.05 106 88.1 106 83 106 C82.01 104.02 81.02 102.04 80 100 C77.29797185 99.09932395 75.72441471 98.87171186 72.95019531 98.8581543 C72.13794495 98.85111984 71.32569458 98.84408539 70.48883057 98.83683777 C69.61079773 98.83267349 68.73276489 98.82850922 67.828125 98.82421875 C65.94660385 98.80098408 64.06509344 98.77686538 62.18359375 98.75195312 C59.23511952 98.71714779 56.28703153 98.68767078 53.33837891 98.67407227 C38.17435214 98.59055577 24.43207053 97.5263791 10.75 90.3125 C9.75806641 89.8009436 9.75806641 89.8009436 8.74609375 89.27905273 C-9.43205761 79.55683028 -20.58043009 63.98112649 -27.15234375 44.8359375 C-28 42 -28 42 -28 40 C-27.27554688 39.97421875 -26.55109375 39.9484375 -25.8046875 39.921875 C-18.22320641 39.47709478 -13.91684741 38.23218226 -8.6875 32.4375 C-6.02323887 28.58912282 -5.86369975 25.63345293 -5.875 21.0625 C-5.87242187 20.02222656 -5.86984375 18.98195313 -5.8671875 17.91015625 C-5.87678149 15.08910541 -5.87678149 15.08910541 -6.65234375 12.83984375 C-7 11 -7 11 -6.07421875 9.21875 C-5.61660156 8.6515625 -5.15898437 8.084375 -4.6875 7.5 C-2.6878687 4.97897486 -1.48658785 2.97317569 0 0 Z " fill="#D57757" transform="translate(143,361)"/>
<path d="M0 0 C1.15838379 0.40234863 2.31676758 0.80469727 3.51025391 1.21923828 C15.40315496 5.45686415 26.81935113 10.58633959 38.125 16.1875 C39.04007324 16.63883301 39.95514648 17.09016602 40.89794922 17.55517578 C95.20321174 44.57635267 95.20321174 44.57635267 102.5 65.65234375 C104.57472146 74.06793267 102.86063911 80.55926214 99.125 88.1875 C98.69840088 89.08106201 98.69840088 89.08106201 98.26318359 89.99267578 C93.50805871 99.86147631 89.44860251 107.1134824 79.0625 111.5625 C67.59914742 115.1854779 57.04042332 113.26224789 46.0625 109.0625 C44.87221191 108.62164062 43.68192383 108.18078125 42.45556641 107.7265625 C16.2503582 97.74493185 -8.8658792 84.48324224 -31.90820312 68.5390625 C-33.65783288 67.336735 -35.4290971 66.16602773 -37.203125 65 C-46.23154236 58.88238386 -52.66177363 51.04371984 -54.875 40.1875 C-55.85677666 31.56072708 -53.87444324 25.51428164 -49.875 17.9375 C-49.41738281 16.99648438 -48.95976562 16.05546875 -48.48828125 15.0859375 C-44.22071695 6.73788021 -38.30073935 0.36163222 -29.4609375 -3.16259766 C-19.35683356 -5.70197876 -9.55334709 -3.43120215 0 0 Z " fill="#E8E8EA" transform="translate(393.875,27.8125)"/>
<path d="M0 0 C-0.48855469 0.804375 -0.97710937 1.60875 -1.48046875 2.4375 C-3.35550519 6.83347231 -3.40971582 10.28697696 -3.3125 15 C-3.31733398 16.17175781 -3.31733398 16.17175781 -3.32226562 17.3671875 C-3.27935931 22.00106975 -2.58088007 25.60438226 -1 30 C-1.27587198 33.31046376 -1.51017799 36.02035598 -3 39 C-5.08874692 52.7260512 10.43080688 70.74151051 17.6875 81.828125 C19 84 19 84 20 87 C21.7665379 88.10851304 21.7665379 88.10851304 24 89 C24.8765625 89.41378906 25.753125 89.82757813 26.65625 90.25390625 C27.5946875 90.68574219 28.533125 91.11757812 29.5 91.5625 C30.90765625 92.21412109 30.90765625 92.21412109 32.34375 92.87890625 C34.57707043 93.82149884 36.63569535 94.50371907 39 95 C35.39079277 107.40664987 29.64179372 119.57730241 22 130 C20.60007813 128.89011719 20.60007813 128.89011719 19.171875 127.7578125 C14.54884168 124.46790062 9.59318706 122.68788297 4.25 120.875 C3.23212402 120.52953125 2.21424805 120.1840625 1.16552734 119.828125 C-20.20476874 112.83263217 -43.923317 111.39744065 -66 116 C-66.66402832 116.13422363 -67.32805664 116.26844727 -68.01220703 116.40673828 C-76.87605412 118.22625497 -85.18959925 120.56939543 -93.55859375 124.046875 C-96 125 -96 125 -98 125 C-104.90648587 108.48827538 -104.14899547 86.70844307 -98 70 C-94.99500082 62.77388782 -91.33894218 55.8895941 -87 49.375 C-84.86619629 45.77420624 -84.3486911 44.09394163 -85 40 C-85.63742406 38.65244192 -86.29980241 37.31603403 -87 36 C-85.58791833 34.39179588 -84.17013964 32.78859292 -82.75 31.1875 C-81.96109375 30.29417969 -81.1721875 29.40085938 -80.359375 28.48046875 C-78.33111742 26.34811186 -76.47729585 24.57694531 -74 23 C-72.1875 23.3125 -72.1875 23.3125 -70 24 C-64.12719896 24.56100518 -61.05318643 23.20059792 -56.5 19.75 C-46.60936758 12.71964885 -35.85702994 7.36705222 -25 2 C-24.32146973 1.6596875 -23.64293945 1.319375 -22.94384766 0.96875 C-14.71533626 -3.10346553 -8.31254682 -4.47170487 0 0 Z " fill="#00AD61" transform="translate(117,163)"/>
<path d="M0 0 C3.5195162 0.0057135 7.03895706 0.00229931 10.55847073 -0.00343895 C38.22371853 -0.04180307 38.22371853 -0.04180307 51.52905273 1.13037109 C52.45177979 1.20336426 53.37450684 1.27635742 54.32519531 1.3515625 C56.74968665 1.54967901 59.17033463 1.77085718 61.59155273 2.00537109 C62.44644287 2.08706543 63.30133301 2.16875977 64.18212891 2.25292969 C74.66204484 3.29099443 85.09648886 4.70078181 95.52905273 6.13037109 C94.51908089 13.63394993 90.39808501 20.49067181 87.10498047 27.20581055 C86.26494157 28.94254025 85.44570118 30.68948942 84.64794922 32.44604492 C77.99162506 47.0729293 77.99162506 47.0729293 71.93237305 49.67480469 C68.38049737 50.17010277 65.1062236 50.22523803 61.52905273 50.13037109 C53.82886956 51.74953622 47.26936402 55.4480778 42.52905273 61.81787109 C39.08166435 65.80391391 34.68401273 66.92552206 29.58642578 67.41009521 C26.0950439 67.52644406 22.6160893 67.54613766 19.12280273 67.52880859 C17.84352905 67.53167877 16.56425537 67.53454895 15.24621582 67.5375061 C12.54985574 67.54190644 9.85379565 67.53557323 7.1574707 67.52148438 C3.72125106 67.50439331 0.28573463 67.51424694 -3.15045929 67.53220177 C-6.4552599 67.54572014 -9.75987675 67.53622329 -13.06469727 67.52880859 C-14.28886353 67.53488129 -15.51302979 67.54095398 -16.77429199 67.54721069 C-31.0049346 67.43067798 -31.0049346 67.43067798 -36.43188477 62.26318359 C-36.89852539 61.60060547 -37.36516602 60.93802734 -37.84594727 60.25537109 C-43.82789574 52.87627819 -52.28704576 50.24439465 -61.47094727 49.13037109 C-63.51216018 48.99816818 -65.55386464 48.87338089 -67.59594727 48.75537109 C-72.85714268 48.3631483 -77.23894831 47.40055211 -81.47094727 44.13037109 C-84.18962908 40.91280718 -86.47672022 37.63941052 -88.59985352 34.00537109 C-89.15995117 33.05146484 -89.72004883 32.09755859 -90.29711914 31.11474609 C-90.87010742 30.12990234 -91.4430957 29.14505859 -92.03344727 28.13037109 C-93.18052685 26.17200506 -94.32766046 24.21367066 -95.47485352 22.25537109 C-95.97831299 21.39169922 -96.48177246 20.52802734 -97.00048828 19.63818359 C-98.02464111 17.89152945 -99.07836755 16.16202246 -100.15429688 14.44677734 C-101.47094727 12.13037109 -101.47094727 12.13037109 -101.53344727 9.94287109 C-99.82619054 7.03049197 -97.71657048 6.99426444 -94.47094727 6.13037109 C-90.48456067 5.50006601 -86.48326694 5.060733 -82.47094727 4.63037109 C-81.31973389 4.50291504 -80.16852051 4.37545898 -78.98242188 4.24414062 C-71.67134704 3.44594659 -64.35572642 2.69333469 -57.03344727 2.00537109 C-56.24518555 1.92996094 -55.45692383 1.85455078 -54.64477539 1.77685547 C-51.92165253 1.53289531 -49.19801544 1.32573156 -46.47094727 1.13037109 C-45.22579346 1.04062012 -43.98063965 0.95086914 -42.69775391 0.85839844 C-28.47730257 -0.06833952 -14.24361022 -0.02333746 0 0 Z " fill="#4CC075" transform="translate(230.470947265625,195.86962890625)"/>
<path d="M0 0 C5.36507913 1.16790838 8.97754657 2.48797771 12.4375 6.875 C17.16963688 12.86462781 23.55784011 15.76321259 31 17 C33.08222592 17.10862102 35.16728532 17.16826439 37.25219727 17.19287109 C38.49441544 17.20893402 39.73663361 17.22499695 41.01649475 17.24154663 C42.36645818 17.25303989 43.7164294 17.26364745 45.06640625 17.2734375 C46.09618749 17.28142302 46.09618749 17.28142302 47.14677238 17.28956985 C50.78509271 17.31623771 54.42337959 17.33562738 58.06176758 17.35009766 C61.05003782 17.36339147 64.03761783 17.39116687 67.02563477 17.43212891 C70.65602736 17.4818755 74.28579852 17.50626935 77.91651726 17.51332474 C79.28825622 17.51997039 80.65998501 17.53501423 82.03152657 17.55921555 C92.51653282 17.73358323 102.03201697 16.2408465 110.4375 9.5 C112.18788102 7.7923112 113.91629472 6.06188874 115.625 4.3125 C117.76506895 2.22874865 119.17877113 0.91007383 122 0 C123.34302277 0.29185394 124.6789271 0.62098116 126 1 C124.86618595 3.47871051 123.69715529 5.92708544 122.5 8.375 C122.18546875 9.07367188 121.8709375 9.77234375 121.546875 10.4921875 C119.01631007 15.55331736 119.01631007 15.55331736 116.03027344 16.86572266 C114.04051878 17.33932241 112.0194501 17.67559035 110 18 C105.18273806 20.84656387 102.73281801 24.77474981 101 30 C100.82671265 31.72499677 100.70243437 33.45555131 100.625 35.1875 C100.37393598 39.29867337 100.29965529 39.7133732 97.125 42.75 C96.09375 43.4925 95.0625 44.235 94 45 C91.46575214 48.75767786 90.89731605 51.64324944 90.6875 56.0625 C90.39662042 60.20289226 90.30729385 60.70606675 87.125 63.75 C86.09375 64.4925 85.0625 65.235 84 66 C80.97324245 70.48795085 80.65080922 74.36341339 80.6015625 79.6328125 C79.68793795 83.22798444 78.15457242 84.07953956 75 86 C71.65701516 86.57144294 68.36135984 86.50559244 64.97729492 86.45410156 C63.97194702 86.45468567 62.96659912 86.45526978 61.93078613 86.45587158 C58.61366029 86.45308882 55.29743728 86.42198672 51.98046875 86.390625 C49.67833446 86.38316332 47.37619382 86.37747004 45.0740509 86.37347412 C39.01911844 86.3582122 32.96457066 86.318925 26.90979004 86.2746582 C20.7296265 86.23371789 14.54940072 86.21546572 8.36914062 86.1953125 C-3.75407513 86.15243176 -15.87700556 86.08417321 -28 86 C-29.65296119 82.92043712 -31.29610171 79.83573921 -32.9375 76.75 C-33.64036133 75.44095703 -33.64036133 75.44095703 -34.35742188 74.10546875 C-34.80537109 73.26113281 -35.25332031 72.41679687 -35.71484375 71.546875 C-36.12855225 70.77182617 -36.54226074 69.99677734 -36.96850586 69.19824219 C-37.95639008 67.09293816 -38.68655557 65.30520521 -39 63 C-37.296875 60.94921875 -37.296875 60.94921875 -34.75 58.6875 C-19.2420739 43.78433982 -8.2700777 23.75402665 -1.76953125 3.3515625 C-1 1 -1 1 0 0 Z " fill="#6DCC8F" transform="translate(171,260)"/>
<path d="M0 0 C-0.23074219 0.50112305 -0.46148437 1.00224609 -0.69921875 1.51855469 C-13.09717745 28.53189355 -22.57839054 54.49086735 -27 84 C-27.17724609 85.10480713 -27.35449219 86.20961426 -27.53710938 87.34790039 C-28.27521926 93.17141609 -28.18595423 98.99790845 -28.18530273 104.8581543 C-28.18747019 107.03259434 -28.20561188 109.20651003 -28.22460938 111.38085938 C-28.25589594 119.43823867 -27.7761502 127.0834142 -26.4309082 135.04467773 C-25.53521465 141.18766384 -26.06603484 143.72078242 -29.68359375 148.921875 C-30.05855484 149.46732971 -30.43351593 150.01278442 -30.81983948 150.57476807 C-32.01499222 152.3075757 -33.22598049 154.02860763 -34.4375 155.75 C-35.24908866 156.92245663 -36.05964736 158.09562693 -36.86914062 159.26953125 C-42.70842534 167.70842534 -42.70842534 167.70842534 -44 169 C-45.99958364 169.04080783 -48.00045254 169.04254356 -50 169 C-50.01458252 168.02651611 -50.02916504 167.05303223 -50.04418945 166.05004883 C-50.10233296 162.42484524 -50.17956377 158.8002524 -50.26245117 155.17553711 C-50.29562532 153.60923199 -50.32368058 152.04280949 -50.34643555 150.47631836 C-50.38012116 148.21938237 -50.43244049 145.96351474 -50.48828125 143.70703125 C-50.49467117 143.01100296 -50.5010611 142.31497467 -50.50764465 141.59785461 C-50.63777922 137.25673634 -51.3488463 134.46150785 -54 131 C-59.01443561 128.07491256 -64.24498484 128.59006945 -69.74609375 129.875 C-70.96425781 130.24625 -72.18242187 130.6175 -73.4375 131 C-74.67371094 131.37125 -75.90992188 131.7425 -77.18359375 132.125 C-78.57771484 132.558125 -78.57771484 132.558125 -80 133 C-80.07015797 125.5664903 -80.12313971 118.13301582 -80.15543652 110.69924831 C-80.17095378 107.24574858 -80.19192926 103.79247879 -80.22631836 100.33911133 C-80.5120073 70.85767099 -77.45722976 47.11447824 -56 25 C-55.45988281 24.38640625 -54.91976562 23.7728125 -54.36328125 23.140625 C-41.09633092 8.57037224 -19.4325926 -0.1355132 0 0 Z " fill="#4CC075" transform="translate(216,15)"/>
<path d="M0 0 C6.94166078 -0.0758805 13.88321518 -0.12852796 20.82519531 -0.16479492 C23.1881917 -0.179909 25.55115991 -0.20040076 27.9140625 -0.22631836 C31.30475809 -0.26258629 34.69508379 -0.27969999 38.0859375 -0.29296875 C39.14743011 -0.30845261 40.20892273 -0.32393646 41.30258179 -0.33988953 C42.77388046 -0.34022942 42.77388046 -0.34022942 44.27490234 -0.34057617 C45.57396011 -0.35056892 45.57396011 -0.35056892 46.89926147 -0.36076355 C47.93912704 -0.18218559 47.93912704 -0.18218559 49 0 C51 3 51 3 50.91015625 5.125 C49.84678427 8.48397757 48.33565725 11.41664446 46.70922852 14.53491211 C42.36493224 22.95579126 38.80970467 30.3450775 41 40 C44.13034001 49.54174012 49.23099723 55.53447004 58.12109375 60.0859375 C65.55746343 63.06048537 74.75468648 63.36084985 82.375 60.875 C90.32127574 57.09962012 94.47969186 51.2722903 98.4375 43.625 C98.88287109 42.79355469 99.32824219 41.96210938 99.78710938 41.10546875 C100.87135496 39.07688024 101.94174205 37.04222971 103 35 C103.70608398 35.00523682 104.41216797 35.01047363 105.13964844 35.01586914 C108.34308988 35.03667413 111.5465171 35.04967141 114.75 35.0625 C115.86117187 35.07087891 116.97234375 35.07925781 118.1171875 35.08789062 C119.18710937 35.09111328 120.25703125 35.09433594 121.359375 35.09765625 C122.34389648 35.10289307 123.32841797 35.10812988 124.34277344 35.11352539 C126.74807039 35.01076326 128.69487354 34.63900615 131 34 C138.6027178 33.18542309 144.17019882 35.81275945 151 39 C150.33848133 52.23037338 144.35219048 62.00069342 136 72 C135.18595703 72.98613281 135.18595703 72.98613281 134.35546875 73.9921875 C121.69980936 87.897393 100.7187283 96.5014373 82.22657776 97.58491516 C79.10752787 97.70180902 75.99320616 97.74250548 72.87207031 97.74121094 C70.47186325 97.75010425 68.07863555 97.82343994 65.6796875 97.8984375 C54.58100182 98.06063694 54.58100182 98.06063694 50.4987793 95.32202148 C48.73338372 93.30520005 47.36469442 91.30108645 46 89 C44.60649567 87.518639 43.21099301 86.0391523 41.8125 84.5625 C23.58275252 64.28307052 0 28.40453134 0 0 Z " fill="#DF8D7F" transform="translate(191,362)"/>
<path d="M0 0 C2.83290291 1.01300289 5.42230379 2.37810225 8.0625 3.8125 C8.74376953 4.16892578 9.42503906 4.52535156 10.12695312 4.89257812 C11.46447675 5.59281864 12.79720201 6.30231544 14.12451172 7.02172852 C15.83771187 7.91534906 17.61101341 8.69123067 19.38671875 9.453125 C22 11 22 11 23.171875 13.27734375 C23.36265625 14.15519531 23.5534375 15.03304688 23.75 15.9375 C23.96785156 16.93265625 24.18570313 17.9278125 24.41015625 18.953125 C24.60480469 19.95859375 24.79945313 20.9640625 25 22 C25.20496094 22.84046875 25.40992188 23.6809375 25.62109375 24.546875 C30.78361196 48.61489095 26.65708011 75.3066832 18 98 C16.81019531 97.83757812 15.62039063 97.67515625 14.39453125 97.5078125 C10.80986422 97.06081502 7.30397565 96.86561874 3.6875 96.875 C2.17736328 96.87113281 2.17736328 96.87113281 0.63671875 96.8671875 C-2.10894856 96.88737044 -2.10894856 96.88737044 -5 98 C-7.53573152 98.1496686 -10.02596611 98.23112347 -12.5625 98.25 C-13.22830078 98.270625 -13.89410156 98.29125 -14.58007812 98.3125 C-25.1644894 98.39322001 -34.19876856 93.71360751 -43.5 89.125 C-44.56347656 88.60808594 -45.62695312 88.09117187 -46.72265625 87.55859375 C-48.8181479 86.53784505 -50.90944575 85.50843408 -52.99609375 84.46972656 C-54.97108505 83.50341905 -56.96347373 82.57175429 -58.97265625 81.67871094 C-59.87886719 81.2665332 -60.78507812 80.85435547 -61.71875 80.4296875 C-62.9243457 79.9035083 -62.9243457 79.9035083 -64.15429688 79.36669922 C-66 78 -66 78 -66.83984375 75.4609375 C-67 73 -67 73 -65.84375 71.1953125 C-63.52985129 69.6952002 -62.23194855 69.72018958 -59.5 69.875 C-56.49419149 70.02529043 -54.92274209 69.97424736 -52 69 C-51.10943082 65.0133366 -51.10943082 65.0133366 -51 61 C-53.39585286 58.35412766 -53.39585286 58.35412766 -56 56 C-56.4375 52.8125 -56.4375 52.8125 -56 50 C-54 48 -54 48 -51.72265625 47.9453125 C-49.95145277 48.06495326 -48.18060222 48.18994093 -46.41015625 48.3203125 C-43.86809227 48.22774837 -43.86809227 48.22774837 -42.1796875 46.21484375 C-40.38425975 42.84395788 -41.01695179 40.60451012 -42 37 C-43.30915279 35.96854629 -44.64082143 34.96457834 -46 34 C-46.375 31.4375 -46.375 31.4375 -46 29 C-44 27 -44 27 -41.9765625 26.9453125 C-41.20054687 27.00460937 -40.42453125 27.06390625 -39.625 27.125 C-36.34016571 27.18847506 -35.28944913 27.18355311 -32.4375 25.375 C-30.53456349 22.23101795 -30.3353707 20.61853729 -31 17 C-31.845625 16.175 -32.69125 15.35 -33.5625 14.5 C-34.366875 13.675 -35.17125 12.85 -36 12 C-35.8125 8.6875 -35.8125 8.6875 -35 6 C-33.58249437 6.11509661 -32.16598831 6.24253658 -30.75 6.375 C-29.96109375 6.44460938 -29.1721875 6.51421875 -28.359375 6.5859375 C-25.90286815 7.01704632 -24.21061604 7.88566906 -22 9 C-18.38270964 9.06698686 -16.0017872 8.93332794 -13.28515625 6.40234375 C-12.24271011 5.1610937 -11.23257019 3.89176507 -10.26171875 2.59375 C-7.49282313 -0.90380236 -4.17236486 -0.32353685 0 0 Z " fill="#F5ED86" transform="translate(322,285)"/>
<path d="M0 0 C0.68487488 -0.00167175 1.36974976 -0.00334351 2.07537842 -0.00506592 C26.19403512 -0.008594 26.19403512 -0.008594 36.875 5.25 C38.45239258 7.29370117 38.45239258 7.29370117 39.76953125 9.79296875 C40.48979492 11.15711914 40.48979492 11.15711914 41.22460938 12.54882812 C41.94874023 13.9787207 41.94874023 13.9787207 42.6875 15.4375 C43.44063477 16.83838867 43.44063477 16.83838867 44.20898438 18.26757812 C46.91915865 23.50724839 48.66177806 27.3337375 47.875 33.25 C46.42627578 36.60494031 45.50354481 37.92076224 42.25 39.625 C39.54832458 41.11161204 39.54832458 41.11161204 38.875 44.5 C38.875 48.82457992 40.10061832 51.3463603 41.875 55.25 C42.125 58.625 42.125 58.625 41.875 61.25 C40.875 62.25 40.875 62.25 38.125 62.625 C33.86364943 62.1333057 32.80151369 60.25155251 29.875 57.25 C26.66449624 56.79135661 24.96713585 57.21928805 21.875 58.25 C21.730625 59.44625 21.58625 60.6425 21.4375 61.875 C21.00460657 65.3505158 20.47883744 68.79950034 19.875 72.25 C17.6875 73.0625 17.6875 73.0625 14.875 73.25 C14.09125 72.445625 13.3075 71.64125 12.5 70.8125 C10.04424369 67.90751144 10.04424369 67.90751144 6.25 67.75 C2.99269653 67.97204034 2.99269653 67.97204034 1.1640625 69.46484375 C-0.58036843 71.88061628 -0.33264072 73.37524894 -0.125 76.3125 C0.0625 78.97265625 0.0625 78.97265625 -0.125 81.25 C-3.125 83.25 -3.125 83.25 -5.5625 83.125 C-8.125 82.25 -8.125 82.25 -10 80.1875 C-12.09342736 77.91265223 -12.09342736 77.91265223 -15.6875 77.75 C-19.05795152 77.96291366 -19.05795152 77.96291366 -21.0625 79.6875 C-22.42914847 82.98353455 -22.26364289 85.69966609 -22.03515625 89.2265625 C-22.125 91.25 -22.125 91.25 -24.125 93.25 C-26.5625 93.6875 -26.5625 93.6875 -29.125 93.25 C-32.83218624 87.79659528 -35.54530153 81.63277803 -38.5 75.75 C-39.06460938 74.64140625 -39.62921875 73.5328125 -40.2109375 72.390625 C-51.06681056 50.77939623 -51.06681056 50.77939623 -50.5 39.6875 C-50.47873047 38.53797852 -50.47873047 38.53797852 -50.45703125 37.36523438 C-50.36500593 33.84066474 -49.9898733 30.65017285 -49.125 27.25 C-49.03217264 25.31427651 -48.99502454 23.37544159 -49 21.4375 C-48.99742188 20.44105469 -48.99484375 19.44460938 -48.9921875 18.41796875 C-49.13647316 14.97633128 -49.58739744 11.65054954 -50.125 8.25 C-46.7293274 7.2734343 -43.33266498 6.3005963 -39.93359375 5.3359375 C-37.6518231 4.68534033 -35.37231005 4.02662105 -33.09765625 3.3515625 C-31.74994141 2.96097656 -31.74994141 2.96097656 -30.375 2.5625 C-29.59640625 2.33175781 -28.8178125 2.10101563 -28.015625 1.86328125 C-18.81107751 -0.08957545 -9.36941613 0.0120961 0 0 Z " fill="#F8D887" transform="translate(81.125,323.75)"/>
<path d="M0 0 C5.27241801 1.72015182 8.48072344 6.52535014 11.2734375 11.07421875 C14.68017177 17.80312297 15.15885126 24.34402364 13.33984375 31.65234375 C11.94736354 35.75744776 10.26836254 39.51269501 8.17578125 43.3125 C2.75945266 53.15637508 0.9763478 61.85808598 4.1875 72.9375 C5.32595968 75.88764311 6.78789032 78.22977921 8.6875 80.75 C11 84 11 84 11.625 86.6875 C10.66859501 90.22619847 9.11663632 91.09701708 6 93 C2.64532404 93.58024519 -0.66114828 93.53684987 -4.05859375 93.49609375 C-5.03933365 93.49754898 -6.02007355 93.49900421 -7.03053284 93.50050354 C-9.1075436 93.4988452 -11.18456672 93.48729127 -13.26147461 93.46655273 C-16.39557041 93.43788355 -19.52794191 93.44588931 -22.66210938 93.45898438 C-39.13542507 93.44298138 -54.4222242 93.03584041 -67.05859375 81.046875 C-77 70.18615591 -77 70.18615591 -77 64 C-75.92363281 63.53851563 -74.84726562 63.07703125 -73.73828125 62.6015625 C-50.73126062 52.44323673 -35.35503907 37.03795514 -25 14 C-23.85971442 11.01430524 -22.89965185 8.06940042 -22 5 C-20.62328125 5.08701172 -20.62328125 5.08701172 -19.21875 5.17578125 C-9.65883433 5.53842741 -9.65883433 5.53842741 -1.6484375 0.8984375 C-1.10445313 0.60195313 -0.56046875 0.30546875 0 0 Z " fill="#D57657" transform="translate(378,404)"/>
<path d="M0 0 C-0.99 0 -1.98 0 -3 0 C2.65964744 10.63399311 8.35303115 20.64943508 16 30 C16.41330566 30.51336914 16.82661133 31.02673828 17.25244141 31.55566406 C26.74947506 43.32069936 37.12694951 54.06928435 49.05078125 63.390625 C50.01564453 64.18726563 50.01564453 64.18726563 51 65 C51 65.33 51 65.66 51 66 C43.45612085 66.07628992 35.91234183 66.12870068 28.36816406 66.16479492 C25.80367312 66.17984779 23.23920777 66.20029461 20.67480469 66.22631836 C16.98105537 66.26285467 13.28764754 66.27976194 9.59375 66.29296875 C8.4538562 66.30845261 7.3139624 66.32393646 6.13952637 66.33988953 C-0.84209165 66.34135363 -7.61545782 66.2227314 -12.9609375 61.1328125 C-13.42757812 60.47023438 -13.89421875 59.80765625 -14.375 59.125 C-20.35694847 51.7459071 -28.8160985 49.11402355 -38 48 C-40.04121292 47.86779709 -42.08291737 47.7430098 -44.125 47.625 C-49.38619542 47.23277721 -53.76800104 46.27018101 -58 43 C-60.71868181 39.78243608 -63.00577296 36.50903942 -65.12890625 32.875 C-65.68900391 31.92109375 -66.24910156 30.9671875 -66.82617188 29.984375 C-67.39916016 28.99953125 -67.97214844 28.0146875 -68.5625 27 C-69.70957958 25.04163396 -70.85671319 23.08329957 -72.00390625 21.125 C-72.50736572 20.26132813 -73.0108252 19.39765625 -73.52954102 18.5078125 C-74.55369385 16.76115836 -75.60742029 15.03165137 -76.68334961 13.31640625 C-78 11 -78 11 -78.0625 8.8125 C-76.35524327 5.90012088 -74.24562321 5.86389335 -71 5 C-67.01361341 4.36969492 -63.01231968 3.93036191 -59 3.5 C-57.84878662 3.37254395 -56.69757324 3.24508789 -55.51147461 3.11376953 C-41.15579027 1.54647309 -26.79354341 0.14847834 -12.375 -0.6875 C-11.58681885 -0.73600098 -10.7986377 -0.78450195 -9.98657227 -0.83447266 C-6.43166789 -1.01878651 -3.4173217 -0.97468863 0 0 Z " fill="#3BB666" transform="translate(207,197)"/>
<path d="M0 0 C3.56323107 0.58131144 6.35895772 1.51626235 9.5390625 3.21484375 C10.36664063 3.65376953 11.19421875 4.09269531 12.046875 4.54492188 C13.32304687 5.23424805 13.32304687 5.23424805 14.625 5.9375 C15.48351562 6.39318359 16.34203125 6.84886719 17.2265625 7.31835938 C20.58422672 9.10998802 23.83057954 10.88705303 27 13 C26.42691735 16.46273735 25.56565356 19.19959034 23.91015625 22.2890625 C23.46518799 23.12937012 23.02021973 23.96967773 22.56176758 24.83544922 C22.06700928 25.75600098 21.57225098 26.67655273 21.0625 27.625 C19.96231287 29.70247472 18.86343933 31.78064543 17.765625 33.859375 C17.16298828 34.99826172 16.56035156 36.13714844 15.93945312 37.31054688 C12.73017677 43.39857611 9.59663279 49.52592634 6.45477295 55.64892578 C4.91130006 58.65686291 3.36612412 61.66392394 1.8210144 64.67102051 C1.03848187 66.19400889 0.25603169 67.71703958 -0.52633667 69.2401123 C-4.18346195 76.35918646 -7.84749028 83.47469478 -11.51348877 90.58920288 C-12.5577646 92.6158101 -13.60189605 94.64249166 -14.64599609 96.66918945 C-17.93493985 103.05305786 -21.224829 109.43643761 -24.51612854 115.8190918 C-26.07366042 118.83969173 -27.63082887 121.86047894 -29.18795776 124.88128662 C-29.9272963 126.31534134 -30.66681339 127.74930402 -31.40652466 129.1831665 C-34.97636932 136.10301532 -38.54261293 143.02301067 -42 150 C-44.76251673 149.14999485 -47.43400506 148.28738503 -50.015625 146.9765625 C-58.04312537 142.90506052 -65.30415103 143.43398328 -74 145 C-67.45119372 130.74880367 -60.32164939 116.81959398 -53.07640076 102.91398621 C-49.59279306 96.22575369 -46.1392664 89.52213667 -42.68865967 82.8168335 C-41.62044257 80.74114431 -40.5517516 78.66569978 -39.48291016 76.59033203 C-37.32162635 72.39371621 -35.16077389 68.19687839 -33 64 C-30.125321 58.41650133 -27.25041679 52.83311876 -24.375 47.25 C-24.026651 46.57359467 -23.678302 45.89718933 -23.31939697 45.20028687 C-17.41132737 33.72932628 -11.48835412 22.26611531 -5.55615234 10.80761719 C-4.97043457 9.67614258 -4.3847168 8.54466797 -3.78125 7.37890625 C-3.26626953 6.3844751 -2.75128906 5.39004395 -2.22070312 4.36547852 C-1.47200674 2.91465467 -0.73012822 1.46025645 0 0 Z " fill="#F09A75" transform="translate(382,127)"/>
<path d="M0 0 C2.3828125 -0.29296875 2.3828125 -0.29296875 5.125 -0.1875 C6.03507812 -0.16042969 6.94515625 -0.13335937 7.8828125 -0.10546875 C8.58148438 -0.07066406 9.28015625 -0.03585937 10 0 C10.51046875 1.41539062 10.51046875 1.41539062 11.03125 2.859375 C15.98186012 16.14858748 23.02188437 26.84433783 33 37 C33.60070312 37.61359375 34.20140625 38.2271875 34.8203125 38.859375 C43.45675546 47.00978438 54.79932198 53.22472491 66 57 C67.19625 57.4125 68.3925 57.825 69.625 58.25 C70.40875 58.4975 71.1925 58.745 72 59 C66.26936984 69.97354712 59.40039658 78.40038982 47.2613678 82.35751343 C39.33273172 84.61015107 31.43123397 85.3159709 23.22265625 85.3359375 C22.24888535 85.3425943 21.27511444 85.3492511 20.27183533 85.35610962 C18.23584868 85.36614691 16.19982972 85.37092944 14.16381836 85.37060547 C11.04552368 85.37502406 7.92859629 85.41156056 4.81054688 85.44921875 C2.82292147 85.45507974 0.8352894 85.45905393 -1.15234375 85.4609375 C-2.54609474 85.48249405 -2.54609474 85.48249405 -3.96800232 85.50448608 C-10.36450694 85.45899063 -10.36450694 85.45899063 -13.57641602 83.13916016 C-15.63662936 80.04336367 -15.69464904 78.68163989 -15 75 C-13.62928402 72.63467913 -12.13084619 70.44542202 -10.5078125 68.24609375 C-6.23253089 61.87747478 -6.17762715 55.46009655 -7 48 C-8.27278744 43.78717877 -10.06215568 39.94395957 -12 36 C-12.92131203 33.98128029 -13.83817728 31.96052359 -14.75 29.9375 C-15.15734375 29.05964844 -15.5646875 28.18179687 -15.984375 27.27734375 C-17.78434565 23.24125572 -18.10971294 20.20330374 -18.0625 15.8125 C-18.05347656 14.72582031 -18.04445313 13.63914062 -18.03515625 12.51953125 C-18.02355469 11.68808594 -18.01195313 10.85664063 -18 10 C-17.02160156 9.74476563 -17.02160156 9.74476563 -16.0234375 9.484375 C-9.32347865 7.6265693 -4.00416551 6.00624826 0 0 Z " fill="#D26541" transform="translate(93,412)"/>
<path d="M0 0 C7.67856237 1.67152378 11.29189044 4.85728642 16 11 C16.66 11.66 17.32 12.32 18 13 C17.84254085 15.62332886 17.57745977 18.09788695 17.1875 20.6875 C17.09146484 21.38294922 16.99542969 22.07839844 16.89648438 22.79492188 C16.45415002 25.97438558 15.97662252 29.14640833 15.47045898 32.31640625 C15.00767858 35.93987833 14.87064977 39.39981239 14.8671875 43.05078125 C14.86623077 43.70845993 14.86527405 44.36613861 14.86428833 45.04374695 C14.8636117 46.43289282 14.86542967 47.82204195 14.86962891 49.21118164 C14.87488912 51.26912148 14.86971616 53.32683334 14.86328125 55.38476562 C14.87305827 65.65552436 15.42826129 75.70870317 16 86 C1.48 86 -13.04 86 -28 86 C-38 67 -38 67 -39 63 C-37.296875 60.94921875 -37.296875 60.94921875 -34.75 58.6875 C-19.2420739 43.78433982 -8.2700777 23.75402665 -1.76953125 3.3515625 C-1 1 -1 1 0 0 Z " fill="#4CBF75" transform="translate(171,260)"/>
<path d="M0 0 C1.22847656 -0.01998047 2.45695312 -0.03996094 3.72265625 -0.06054688 C12.23650456 -0.05598426 18.90307623 0.81970019 25.5 6.47265625 C26.03625 7.14167969 26.5725 7.81070313 27.125 8.5 C27.681875 9.17160156 28.23875 9.84320313 28.8125 10.53515625 C32.83908017 16.37130072 32.06821755 25.63896473 31.125 32.4375 C28.77828422 41.00342 23.72169712 48.73609579 16.125 53.4375 C8.4437906 57.76549108 0.2432157 59.06581252 -8.35546875 56.77734375 C-18.00664538 52.94012895 -24.5293366 45.72921451 -28.875 36.4375 C-29.93826148 33.44196525 -30.52320466 30.59283359 -30.875 27.4375 C-30.96910156 26.63441406 -31.06320313 25.83132812 -31.16015625 25.00390625 C-31.57608173 18.16779773 -29.64996996 13.10515462 -25.875 7.4375 C-18.4799138 -0.15219373 -9.99774197 -0.05733846 0 0 Z " fill="#010202" transform="translate(232.875,85.5625)"/>
<path d="M0 0 C1.27340403 6.40514604 1.27340403 6.40514604 0.06640625 9.03125 C-3.12670583 12.1497179 -4.27377091 13 -8.9375 13 C-11.45305241 12.46841157 -13.84701283 11.74429801 -16.3125 11 C-41.57764779 4.1484345 -73.85591771 8.19812733 -97.92578125 17.30078125 C-100 18 -100 18 -103 18 C-103.7104474 16.82608476 -104.39226744 15.63483071 -105.0625 14.4375 C-105.44535156 13.77621094 -105.82820313 13.11492187 -106.22265625 12.43359375 C-107.35844055 8.87784693 -107.03919738 6.56587337 -106 3 C-103.4375 1.1796875 -103.4375 1.1796875 -100 -0.125 C-99.38133057 -0.36379883 -98.76266113 -0.60259766 -98.12524414 -0.84863281 C-96.09630028 -1.60989638 -94.05518112 -2.31287476 -92 -3 C-90.95175049 -3.35239746 -90.95175049 -3.35239746 -89.88232422 -3.71191406 C-59.71438361 -13.62768517 -29.2201787 -12.06489279 0 0 Z " fill="#E6C55D" transform="translate(126,301)"/>
<path d="M0 0 C3.39052707 0.86566649 4.14083851 1.9261971 5.94946289 4.81982422 C7.88036283 8.59192576 8.96902341 12.62506799 10.125 16.6875 C10.51461914 17.98977539 10.51461914 17.98977539 10.91210938 19.31835938 C13.70726068 28.87387664 14.15207228 38.07489977 14.17773438 47.98046875 C14.18735601 50.21653674 14.21839788 52.45165019 14.25 54.6875 C14.35145823 68.18405748 12.12202117 80.57375871 7.5 93.3125 C7.21318359 94.14845703 6.92636719 94.98441406 6.63085938 95.84570312 C4.92781868 100.64380219 3.12013303 104.75098015 -0.0625 108.75 C-5.40485961 109.96417264 -9.53049319 107.3265724 -14.0625 104.75 C-13.64710168 103.2079911 -13.23006168 101.66642449 -12.8125 100.125 C-12.40257812 98.60712891 -12.40257812 98.60712891 -11.984375 97.05859375 C-11.37632274 94.87630449 -10.74139221 92.70130273 -10.078125 90.53515625 C-2.53319477 65.66590545 -0.69107018 37.90312381 -8.0625 12.75 C-8.6761746 8.45427783 -8.28835813 7.10871586 -5.9375 3.375 C-3.0625 0.75 -3.0625 0.75 0 0 Z " fill="#F5D585" transform="translate(367.0625,286.25)"/>
<path d="M0 0 C0.69544922 -0.00773437 1.39089844 -0.01546875 2.10742188 -0.0234375 C8.03376811 -0.00170937 12.63784285 1.04006857 18.6875 2.25 C18.6875 17.76 18.6875 33.27 18.6875 49.25 C11.92090099 49.25 11.92090099 49.25 8.953125 47.81640625 C8.30142334 47.5021167 7.64972168 47.18782715 6.97827148 46.86401367 C6.30481689 46.51701416 5.6313623 46.17001465 4.9375 45.8125 C4.23375244 45.45196533 3.53000488 45.09143066 2.80493164 44.7199707 C-11.29875927 37.20802892 -19.86221892 25.11896957 -25.3125 10.25 C-25.3125 9.26 -25.3125 8.27 -25.3125 7.25 C-23.79579636 6.45044999 -22.27388002 5.66078612 -20.75 4.875 C-19.90308594 4.43414062 -19.05617188 3.99328125 -18.18359375 3.5390625 C-12.06897543 0.79372366 -6.60059679 -0.07220343 0 0 Z " fill="#3AB264" transform="translate(102.3125,97.75)"/>
<path d="M0 0 C1.7570887 1.11729011 3.51406587 2.23475562 5.27099609 3.35229492 C6.73863907 4.28569954 6.73863907 4.28569954 8.2359314 5.23796082 C11.38000144 7.24224342 14.51066638 9.26229884 17.625 11.3125 C18.62789063 11.96863281 19.63078125 12.62476562 20.6640625 13.30078125 C23 15 23 15 24 17 C22.83178711 19.71459961 22.83178711 19.71459961 21.02734375 23.15234375 C20.70721817 23.76711075 20.38709259 24.38187775 20.05726624 25.01527405 C19.02477716 26.99334308 17.9812182 28.96533706 16.9375 30.9375 C16.26035782 32.2320508 15.58391756 33.52696901 14.90820312 34.82226562 C11.01940495 42.25895049 7.04815279 49.64867695 3 57 C2.01 56.34 1.02 55.68 0 55 C-0.36076355 52.67147827 -0.36076355 52.67147827 -0.34057617 49.72412109 C-0.34034958 48.6231308 -0.34012299 47.5221405 -0.33988953 46.38778687 C-0.32440567 45.19505157 -0.30892181 44.00231628 -0.29296875 42.7734375 C-0.28872391 41.55548492 -0.28447906 40.33753235 -0.28010559 39.08267212 C-0.26326831 35.17989296 -0.22560595 31.27762396 -0.1875 27.375 C-0.17245974 24.73438244 -0.15877019 22.09375681 -0.14648438 19.453125 C-0.11334822 12.96857496 -0.06309861 6.48432392 0 0 Z " fill="#4AB971" transform="translate(346,103)"/>
<path d="M0 0 C5.35248142 2.1013933 10.5427135 4.5025138 15.75 6.9375 C16.72066406 7.38029297 17.69132812 7.82308594 18.69140625 8.27929688 C19.61308594 8.71177734 20.53476562 9.14425781 21.484375 9.58984375 C22.32709961 9.98034912 23.16982422 10.37085449 24.03808594 10.77319336 C26 12 26 12 27 15 C25.77734375 17.99609375 25.77734375 17.99609375 23.9375 21.4375 C23.34839844 22.57058594 22.75929688 23.70367187 22.15234375 24.87109375 C19.24620615 29.09580558 16.33390358 31.51861164 11.25390625 32.56640625 C5.62035974 32.55822984 1.73018805 32.16294966 -2.62890625 28.41015625 C-5.77573696 25.17367224 -7.19106765 22.48669677 -7.625 18 C-7.46638979 11.3043833 -3.37301691 5.56719883 0 0 Z " fill="#EE9874" transform="translate(253,378)"/>
<path d="M0 0 C1.00224609 -0.00064453 2.00449219 -0.00128906 3.03710938 -0.00195312 C4.07802734 0.01802734 5.11894531 0.03800781 6.19140625 0.05859375 C7.22845703 0.05150391 8.26550781 0.04441406 9.33398438 0.03710938 C19.34919176 0.12073025 19.34919176 0.12073025 22.75390625 3.49609375 C24.30575423 9.46251549 23.00529484 15.57835393 19.96484375 20.83984375 C17.43165015 24.30459886 14.78177515 26.15347078 10.75390625 27.49609375 C4.62935507 27.99810614 1.62872979 27.59537719 -3.24609375 23.49609375 C-8.15509557 18.17800844 -9.43793216 13.73742261 -9.70703125 6.6796875 C-8.6090624 1.4782927 -4.89734126 -0.00996363 0 0 Z " fill="#47535E" transform="translate(226.24609375,100.50390625)"/>
<path d="M0 0 C0 8.91 0 17.82 0 27 C-7.78272718 28.2971212 -14.29967823 29.30664998 -22 29 C-23.86136836 22.62252481 -24.3387573 15.58188908 -21.25 9.625 C-16.20144257 4.70776343 -7.06868809 0 0 0 Z " fill="#D4D2D6" transform="translate(151,159)"/>
<path d="M0 0 C12.43347639 3.39094811 12.43347639 3.39094811 16 5.9375 C16.70125 6.42089844 17.4025 6.90429688 18.125 7.40234375 C21.58382783 10.3495533 22.90321796 12.17043966 23.4375 16.75 C23.28752111 21.44345712 21.36541677 25.029479 19 29 C16.95809019 28.85761163 14.91647955 28.71092972 12.875 28.5625 C11.73804688 28.48128906 10.60109375 28.40007812 9.4296875 28.31640625 C6.26939737 28.02485329 3.13052852 27.52175475 0 27 C0 18.09 0 9.18 0 0 Z " fill="#E3E3E5" transform="translate(316,159)"/>
<path d="M0 0 C2.1875 1.46875 2.1875 1.46875 4 4 C4.58790498 7.01188241 4.55865552 9.940137 4.5 13 C4.51546875 13.80695313 4.5309375 14.61390625 4.546875 15.4453125 C4.52159961 19.2745336 4.46201833 21.35576323 2.1875 24.52734375 C-1.05723844 26.71174802 -3.18603091 26.61295932 -7 26 C-10.05774483 23.20434759 -11.24449963 20.98859774 -11.53125 16.93359375 C-11.54179492 15.43489673 -11.53086866 13.93591619 -11.5 12.4375 C-11.51546875 11.68275391 -11.5309375 10.92800781 -11.546875 10.15039062 C-11.52176226 6.58752119 -11.30426908 4.41902573 -9.1875 1.50390625 C-5.97613157 -0.70390955 -3.80211705 -0.54315958 0 0 Z " fill="#010301" transform="translate(162,80)"/>
<path d="M0 0 C1.0209375 -0.01160156 1.0209375 -0.01160156 2.0625 -0.0234375 C4.60636841 0.49969673 5.3897883 1.35593455 7 3.375 C7.38818359 5.50390625 7.38818359 5.50390625 7.3984375 7.9375 C7.40230469 8.81664063 7.40617187 9.69578125 7.41015625 10.6015625 C7.39855469 11.51679687 7.38695312 12.43203125 7.375 13.375 C7.38660156 14.29023437 7.39820313 15.20546875 7.41015625 16.1484375 C7.40628906 17.02757813 7.40242188 17.90671875 7.3984375 18.8125 C7.39505371 19.61558594 7.39166992 20.41867188 7.38818359 21.24609375 C6.90966493 23.87042255 6.0826251 24.75744566 4 26.375 C2.0625 26.7734375 2.0625 26.7734375 0 26.75 C-0.680625 26.75773437 -1.36125 26.76546875 -2.0625 26.7734375 C-4.60636841 26.25030327 -5.3897883 25.39406545 -7 23.375 C-7.38818359 21.24609375 -7.38818359 21.24609375 -7.3984375 18.8125 C-7.40230469 17.93335937 -7.40617187 17.05421875 -7.41015625 16.1484375 C-7.39855469 15.23320313 -7.38695312 14.31796875 -7.375 13.375 C-7.39240234 12.00214844 -7.39240234 12.00214844 -7.41015625 10.6015625 C-7.40628906 9.72242187 -7.40242188 8.84328125 -7.3984375 7.9375 C-7.39336182 6.73287109 -7.39336182 6.73287109 -7.38818359 5.50390625 C-6.61692998 1.27413799 -4.06888728 -0.04623736 0 0 Z " fill="#010201" transform="translate(308,79.625)"/>
<path d="M0 0 C5.11226583 2.3375788 8.35721207 5.15973664 10.9140625 10.2734375 C11.04821722 12.9457996 10.95724791 15.59594238 10.9140625 18.2734375 C6.6449405 18.2734375 5.17261499 17.61133216 1.4921875 15.6484375 C0.46738281 15.10703125 -0.55742187 14.565625 -1.61328125 14.0078125 C-2.67675781 13.43546875 -3.74023438 12.863125 -4.8359375 12.2734375 C-5.91488281 11.70109375 -6.99382812 11.12875 -8.10546875 10.5390625 C-10.76961545 9.12447133 -13.42946961 7.7023816 -16.0859375 6.2734375 C-12.95962814 -0.57332146 -7.18062358 -2.50111608 0 0 Z " fill="#E99672" transform="translate(450.0859375,22.7265625)"/>
<path d="M0 0 C1.703125 0.09765625 1.703125 0.09765625 4 1 C5.74482924 3.12326075 7.25088855 5.15465113 8.75 7.4375 C9.16121094 8.03626953 9.57242187 8.63503906 9.99609375 9.25195312 C13 13.70791373 13 13.70791373 13 16 C5.74 15.67 -1.52 15.34 -9 15 C-7.36050837 10.90127093 -5.89848388 8.19233872 -3.375 4.6875 C-2.74335938 3.80449219 -2.11171875 2.92148438 -1.4609375 2.01171875 C-0.97882813 1.34785156 -0.49671875 0.68398437 0 0 Z " fill="#E1E1E3" transform="translate(262,166)"/>
<path d="M0 0 C1.734375 0.12890625 1.734375 0.12890625 4 1 C6.140625 3.65234375 6.140625 3.65234375 8.25 6.9375 C8.95640625 8.01902344 9.6628125 9.10054687 10.390625 10.21484375 C12 13 12 13 12 15 C1.11 15.495 1.11 15.495 -10 16 C-8.26230366 11.65575915 -6.62691121 8.87151017 -3.875 5.1875 C-3.15054688 4.21167969 -2.42609375 3.23585937 -1.6796875 2.23046875 C-0.84824219 1.12638672 -0.84824219 1.12638672 0 0 Z " fill="#E5E5E7" transform="translate(202,166)"/>
<path d="M0 0 C0.33 0 0.66 0 1 0 C1 1.65 1 3.3 1 5 C2.32 5.33 3.64 5.66 5 6 C2.36 6 -0.28 6 -3 6 C-1.125 1.125 -1.125 1.125 0 0 Z " fill="#C0BFC2" transform="translate(195,176)"/>
</svg>
