<?xml version="1.0" encoding="UTF-8"?>
<svg version="1.1" xmlns="http://www.w3.org/2000/svg" width="512" height="512">
<path d="M0 0 C4.11495862 2.29179443 8.07677052 4.82030216 12.0625 7.328125 C21.73074102 13.25487982 32.43053706 17.1910775 42.94140625 21.33203125 C56.92167154 26.84814635 70.02265434 32.93266555 82.50390625 41.39453125 C83.29152344 40.76546875 84.07914063 40.13640625 84.890625 39.48828125 C105.80339039 22.96778093 128.95722284 10.88361505 155.76953125 8.28515625 C157.05617928 8.15975212 157.05617928 8.15975212 158.36882019 8.03181458 C168.18012205 7.14779675 177.97149151 7.04245163 187.81640625 7.08203125 C188.76657623 7.08385406 189.71674622 7.08567688 190.69570923 7.08755493 C222.18265799 7.18848834 253.51066279 10.27181158 283.50390625 20.39453125 C284.16648437 20.6172168 284.8290625 20.83990234 285.51171875 21.06933594 C295.32198428 24.42622699 304.55989642 28.64338476 313.73193359 33.46582031 C315.30044264 34.28789367 316.87994662 35.08891358 318.4609375 35.88671875 C337.85034403 45.93627938 356.72533842 61.61565427 369.50390625 79.39453125 C370.08785156 78.4509375 370.08785156 78.4509375 370.68359375 77.48828125 C375.11446786 70.70924805 379.95891018 66.1045734 386.50390625 61.39453125 C387.74720703 60.46640625 387.74720703 60.46640625 389.015625 59.51953125 C396.19959193 54.28662598 404.29393575 48.39453125 413.50390625 48.39453125 C415.16796875 49.65234375 415.16796875 49.65234375 416.50390625 51.39453125 C417.86033438 63.40860896 412.72315912 73.49240336 406.50390625 83.39453125 C407.17446045 83.6054541 407.84501465 83.81637695 408.53588867 84.03369141 C411.59466068 85.00858407 414.64268951 86.0136559 417.69140625 87.01953125 C418.74650391 87.35082031 419.80160156 87.68210937 420.88867188 88.0234375 C427.14095646 90.11410679 431.00722978 91.68903346 434.50390625 97.39453125 C436.79705717 103.46463662 436.05605565 110.61394724 433.53515625 116.484375 C428.33833908 126.11029771 419.43923567 129.96232654 409.50390625 133.39453125 C410.20515625 133.93980469 410.90640625 134.48507813 411.62890625 135.046875 C431.31018021 150.6902789 431.31018021 150.6902789 432.87890625 162.12890625 C433.13549887 168.06261059 432.62297105 171.84188068 428.50390625 176.39453125 C424.18798373 180.53015414 420.87003257 182.54476496 414.81640625 182.45703125 C414.00816406 182.44800781 413.19992187 182.43898437 412.3671875 182.4296875 C411.44486328 182.41228516 411.44486328 182.41228516 410.50390625 182.39453125 C412.99368891 187.08681396 415.67185892 190.97274724 419.234375 194.9140625 C421.75171816 197.8496719 421.84906648 200.49667435 421.7734375 204.3125 C421.04846283 209.91266665 416.36641884 214.03549804 412.23828125 217.52734375 C403.67649276 223.37382217 393.4215392 227.50940167 383.50390625 230.39453125 C384.76041154 234.26875589 386.13611187 238.08214658 387.56640625 241.89453125 C388.96324553 245.75271558 390.15401199 249.28327373 390.50390625 253.39453125 C390.59865234 254.39419922 390.59865234 254.39419922 390.6953125 255.4140625 C391.51906791 271.4374338 384.78943935 286.50947165 374.36669922 298.33520508 C368.94279018 304.24774655 363.08776188 309.71613289 357.04833984 314.99438477 C356.48453613 315.49768311 355.92073242 316.00098145 355.33984375 316.51953125 C354.8401709 316.95523437 354.34049805 317.3909375 353.82568359 317.83984375 C350.06961838 322.25776457 350.24036193 327.28210647 350.32446289 332.80224609 C350.32898972 333.63719604 350.33351654 334.472146 350.33818054 335.33239746 C350.34911983 337.14227803 350.36461117 338.95213557 350.38414192 340.76194382 C350.41442283 343.63971261 350.43115059 346.51727666 350.44419861 349.39517212 C350.483828 357.57691903 350.54847688 365.75842057 350.62036133 373.93994141 C350.66345187 378.95129054 350.69132085 383.96255461 350.71066093 388.97404861 C350.72112843 390.87079656 350.73740942 392.76752279 350.7599659 394.6641655 C350.98677422 413.78348874 348.97238179 429.79260314 337.70092773 445.73779297 C333.47187829 451.96501678 330.53435549 458.64824298 327.50390625 465.51953125 C319.25438716 484.01853249 308.87272213 497.59159947 289.50390625 505.39453125 C262.03499402 515.6436503 230.50147979 508.71133093 204.50390625 497.39453125 C191.12391133 491.1863192 178.49596475 483.96337408 166.50390625 475.39453125 C165.0183936 474.35263011 163.53270761 473.31097606 162.046875 472.26953125 C153.92686994 466.53259894 146.1413213 460.57137513 138.62890625 454.0625 C135.42015215 451.29323206 132.10128616 448.68082902 128.75390625 446.08203125 C123.42791194 441.941751 118.19862959 437.69828048 113.00390625 433.39453125 C107.77557994 429.06845125 102.526133 424.77647132 97.19140625 420.58203125 C96.61745117 420.12965088 96.04349609 419.67727051 95.45214844 419.21118164 C92.87246968 417.19206131 90.27974879 415.23644443 87.6015625 413.34765625 C64.73427261 397.16175559 46.55323565 375.48053127 40.87954712 347.66516113 C39.71856064 340.64736617 39.81565781 333.48878059 39.75390625 326.39453125 C39.72565186 324.73304325 39.69571183 323.07158304 39.6640625 321.41015625 C39.59133976 317.40500002 39.54109046 313.40016849 39.50390625 309.39453125 C38.90352539 309.73516602 38.30314453 310.07580078 37.68457031 310.42675781 C36.88760742 310.8750293 36.09064453 311.32330078 35.26953125 311.78515625 C34.48352539 312.22891602 33.69751953 312.67267578 32.88769531 313.12988281 C23.11919615 318.31226971 12.33702199 320.06157896 1.45703125 317.74609375 C-6.09313967 315.30584514 -11.00755336 311.73536326 -14.97045898 304.82275391 C-18.6025291 297.63153461 -21.30659048 290.43588118 -23.74609375 282.76953125 C-27.25217483 272.19554026 -31.63542357 262.88100699 -37.34130859 253.34814453 C-47.62546206 235.94987899 -51.76272238 217.01622355 -47.43359375 196.95703125 C-43.47241394 183.93906944 -36.36983912 173.1541416 -26.76953125 163.6328125 C-25.96692871 162.83528564 -25.16432617 162.03775879 -24.33740234 161.21606445 C-23.72977051 160.6149585 -23.12213867 160.01385254 -22.49609375 159.39453125 C-23.16664795 159.05196289 -23.83720215 158.70939453 -24.52807617 158.35644531 C-27.58294156 156.79163575 -30.63327377 155.21818163 -33.68359375 153.64453125 C-34.73869141 153.10570312 -35.79378906 152.566875 -36.88085938 152.01171875 C-37.90244141 151.48320312 -38.92402344 150.9546875 -39.9765625 150.41015625 C-41.38264771 149.68747559 -41.38264771 149.68747559 -42.81713867 148.95019531 C-49.72352408 144.93967058 -49.72352408 144.93967058 -51.49609375 141.39453125 C-52.92287468 124.62400783 -47.41665996 109.69450334 -36.7578125 96.86328125 C-27.73404995 87.01350935 -27.73404995 87.01350935 -22.49609375 84.39453125 C-23.71425781 84.224375 -24.93242188 84.05421875 -26.1875 83.87890625 C-27.81131092 83.6348653 -29.4350028 83.39003136 -31.05859375 83.14453125 C-31.85845703 83.03496094 -32.65832031 82.92539063 -33.48242188 82.8125 C-40.51682017 81.72145047 -46.23903398 79.55172937 -50.87109375 73.83203125 C-51.35320313 73.25324219 -51.8353125 72.67445312 -52.33203125 72.078125 C-55.19096481 67.94322445 -55.05060306 63.21131363 -54.49609375 58.39453125 C-51.49447944 51.43624353 -45.06341035 48.29043748 -38.33642578 45.49804688 C-29.53573302 42.03512219 -20.60773079 38.93383993 -11.49609375 36.39453125 C-12.66527344 35.81445312 -13.83445313 35.234375 -15.0390625 34.63671875 C-16.58760347 33.84837062 -18.13576047 33.05926794 -19.68359375 32.26953125 C-20.45251953 31.89054687 -21.22144531 31.5115625 -22.01367188 31.12109375 C-27.654824 28.21577935 -31.5882473 25.21022414 -34.49609375 19.39453125 C-35.12022056 13.79785317 -35.13489068 8.68365429 -31.859375 3.93359375 C-23.77445142 -5.19379848 -10.57708276 -4.93132524 0 0 Z " fill="#27A1DA" transform="translate(65.49609375,2.60546875)"/>
<path d="M0 0 C4.11495862 2.29179443 8.07677052 4.82030216 12.0625 7.328125 C21.73074102 13.25487982 32.43053706 17.1910775 42.94140625 21.33203125 C56.92167154 26.84814635 70.02265434 32.93266555 82.50390625 41.39453125 C83.29152344 40.76546875 84.07914063 40.13640625 84.890625 39.48828125 C105.80339039 22.96778093 128.95722284 10.88361505 155.76953125 8.28515625 C157.05617928 8.15975212 157.05617928 8.15975212 158.36882019 8.03181458 C168.18012205 7.14779675 177.97149151 7.04245163 187.81640625 7.08203125 C188.76657623 7.08385406 189.71674622 7.08567688 190.69570923 7.08755493 C222.18265799 7.18848834 253.51066279 10.27181158 283.50390625 20.39453125 C284.16648437 20.6172168 284.8290625 20.83990234 285.51171875 21.06933594 C295.32198428 24.42622699 304.55989642 28.64338476 313.73193359 33.46582031 C315.30044264 34.28789367 316.87994662 35.08891358 318.4609375 35.88671875 C337.85034403 45.93627938 356.72533842 61.61565427 369.50390625 79.39453125 C370.08785156 78.4509375 370.08785156 78.4509375 370.68359375 77.48828125 C375.11446786 70.70924805 379.95891018 66.1045734 386.50390625 61.39453125 C387.74720703 60.46640625 387.74720703 60.46640625 389.015625 59.51953125 C396.19959193 54.28662598 404.29393575 48.39453125 413.50390625 48.39453125 C415.16796875 49.65234375 415.16796875 49.65234375 416.50390625 51.39453125 C417.86033438 63.40860896 412.72315912 73.49240336 406.50390625 83.39453125 C407.17446045 83.6054541 407.84501465 83.81637695 408.53588867 84.03369141 C411.59466068 85.00858407 414.64268951 86.0136559 417.69140625 87.01953125 C418.74650391 87.35082031 419.80160156 87.68210937 420.88867188 88.0234375 C427.14095646 90.11410679 431.00722978 91.68903346 434.50390625 97.39453125 C436.79705717 103.46463662 436.05605565 110.61394724 433.53515625 116.484375 C428.33833908 126.11029771 419.43923567 129.96232654 409.50390625 133.39453125 C410.20515625 133.93980469 410.90640625 134.48507813 411.62890625 135.046875 C431.31018021 150.6902789 431.31018021 150.6902789 432.87890625 162.12890625 C433.13549887 168.06261059 432.62297105 171.84188068 428.50390625 176.39453125 C424.18798373 180.53015414 420.87003257 182.54476496 414.81640625 182.45703125 C414.00816406 182.44800781 413.19992187 182.43898437 412.3671875 182.4296875 C411.44486328 182.41228516 411.44486328 182.41228516 410.50390625 182.39453125 C412.99368891 187.08681396 415.67185892 190.97274724 419.234375 194.9140625 C421.75171816 197.8496719 421.84906648 200.49667435 421.7734375 204.3125 C421.04846283 209.91266665 416.36641884 214.03549804 412.23828125 217.52734375 C403.67649276 223.37382217 393.4215392 227.50940167 383.50390625 230.39453125 C384.76041154 234.26875589 386.13611187 238.08214658 387.56640625 241.89453125 C388.96324553 245.75271558 390.15401199 249.28327373 390.50390625 253.39453125 C390.59865234 254.39419922 390.59865234 254.39419922 390.6953125 255.4140625 C391.51906791 271.4374338 384.78943935 286.50947165 374.36669922 298.33520508 C368.94279018 304.24774655 363.08776188 309.71613289 357.04833984 314.99438477 C356.48453613 315.49768311 355.92073242 316.00098145 355.33984375 316.51953125 C354.8401709 316.95523437 354.34049805 317.3909375 353.82568359 317.83984375 C350.06961838 322.25776457 350.24036193 327.28210647 350.32446289 332.80224609 C350.32898972 333.63719604 350.33351654 334.472146 350.33818054 335.33239746 C350.34911983 337.14227803 350.36461117 338.95213557 350.38414192 340.76194382 C350.41442283 343.63971261 350.43115059 346.51727666 350.44419861 349.39517212 C350.483828 357.57691903 350.54847688 365.75842057 350.62036133 373.93994141 C350.66345187 378.95129054 350.69132085 383.96255461 350.71066093 388.97404861 C350.72112843 390.87079656 350.73740942 392.76752279 350.7599659 394.6641655 C350.98677422 413.78348874 348.97238179 429.79260314 337.70092773 445.73779297 C333.47187829 451.96501678 330.53435549 458.64824298 327.50390625 465.51953125 C319.25438716 484.01853249 308.87272213 497.59159947 289.50390625 505.39453125 C262.03499402 515.6436503 230.50147979 508.71133093 204.50390625 497.39453125 C191.12391133 491.1863192 178.49596475 483.96337408 166.50390625 475.39453125 C165.0183936 474.35263011 163.53270761 473.31097606 162.046875 472.26953125 C153.92686994 466.53259894 146.1413213 460.57137513 138.62890625 454.0625 C135.42015215 451.29323206 132.10128616 448.68082902 128.75390625 446.08203125 C123.42791194 441.941751 118.19862959 437.69828048 113.00390625 433.39453125 C107.77557994 429.06845125 102.526133 424.77647132 97.19140625 420.58203125 C96.61745117 420.12965088 96.04349609 419.67727051 95.45214844 419.21118164 C92.87246968 417.19206131 90.27974879 415.23644443 87.6015625 413.34765625 C64.73427261 397.16175559 46.55323565 375.48053127 40.87954712 347.66516113 C39.71856064 340.64736617 39.81565781 333.48878059 39.75390625 326.39453125 C39.72565186 324.73304325 39.69571183 323.07158304 39.6640625 321.41015625 C39.59133976 317.40500002 39.54109046 313.40016849 39.50390625 309.39453125 C38.90352539 309.73516602 38.30314453 310.07580078 37.68457031 310.42675781 C36.88760742 310.8750293 36.09064453 311.32330078 35.26953125 311.78515625 C34.48352539 312.22891602 33.69751953 312.67267578 32.88769531 313.12988281 C23.11919615 318.31226971 12.33702199 320.06157896 1.45703125 317.74609375 C-6.09313967 315.30584514 -11.00755336 311.73536326 -14.97045898 304.82275391 C-18.6025291 297.63153461 -21.30659048 290.43588118 -23.74609375 282.76953125 C-27.25217483 272.19554026 -31.63542357 262.88100699 -37.34130859 253.34814453 C-47.62546206 235.94987899 -51.76272238 217.01622355 -47.43359375 196.95703125 C-43.47241394 183.93906944 -36.36983912 173.1541416 -26.76953125 163.6328125 C-25.96692871 162.83528564 -25.16432617 162.03775879 -24.33740234 161.21606445 C-23.72977051 160.6149585 -23.12213867 160.01385254 -22.49609375 159.39453125 C-23.16664795 159.05196289 -23.83720215 158.70939453 -24.52807617 158.35644531 C-27.58294156 156.79163575 -30.63327377 155.21818163 -33.68359375 153.64453125 C-34.73869141 153.10570312 -35.79378906 152.566875 -36.88085938 152.01171875 C-37.90244141 151.48320312 -38.92402344 150.9546875 -39.9765625 150.41015625 C-41.38264771 149.68747559 -41.38264771 149.68747559 -42.81713867 148.95019531 C-49.72352408 144.93967058 -49.72352408 144.93967058 -51.49609375 141.39453125 C-52.92287468 124.62400783 -47.41665996 109.69450334 -36.7578125 96.86328125 C-27.73404995 87.01350935 -27.73404995 87.01350935 -22.49609375 84.39453125 C-23.71425781 84.224375 -24.93242188 84.05421875 -26.1875 83.87890625 C-27.81131092 83.6348653 -29.4350028 83.39003136 -31.05859375 83.14453125 C-31.85845703 83.03496094 -32.65832031 82.92539063 -33.48242188 82.8125 C-40.51682017 81.72145047 -46.23903398 79.55172937 -50.87109375 73.83203125 C-51.35320313 73.25324219 -51.8353125 72.67445312 -52.33203125 72.078125 C-55.19096481 67.94322445 -55.05060306 63.21131363 -54.49609375 58.39453125 C-51.49447944 51.43624353 -45.06341035 48.29043748 -38.33642578 45.49804688 C-29.53573302 42.03512219 -20.60773079 38.93383993 -11.49609375 36.39453125 C-12.66527344 35.81445312 -13.83445313 35.234375 -15.0390625 34.63671875 C-16.58760347 33.84837062 -18.13576047 33.05926794 -19.68359375 32.26953125 C-20.45251953 31.89054687 -21.22144531 31.5115625 -22.01367188 31.12109375 C-27.654824 28.21577935 -31.5882473 25.21022414 -34.49609375 19.39453125 C-35.12022056 13.79785317 -35.13489068 8.68365429 -31.859375 3.93359375 C-23.77445142 -5.19379848 -10.57708276 -4.93132524 0 0 Z M139.19140625 24.70703125 C138.53664307 24.92649414 137.88187988 25.14595703 137.20727539 25.37207031 C135.29826445 26.02355263 133.40068493 26.70824951 131.50390625 27.39453125 C130.4675 27.76449219 129.43109375 28.13445313 128.36328125 28.515625 C115.34177109 33.54666301 103.94282557 41.21435896 93.50390625 50.39453125 C94.83318341 53.81842697 96.92300081 55.8858826 99.59277344 58.35253906 C106.76833304 64.9933288 114.51770724 73.35530999 115.19140625 83.64453125 C113.41042657 93.35896586 108.83012422 99.89401239 100.78320312 105.61865234 C97.55489325 107.81954509 94.28184789 109.95005328 91.0078125 112.08203125 C83.33692515 117.10017966 77.47819519 122.47166442 74.50390625 131.39453125 C73.78230411 141.26037031 73.97214354 149.39270894 80.10546875 157.515625 C84.93550341 163.93659524 85.21175716 168.47706854 84.50390625 176.39453125 C83.66050281 182.09464989 82.46277717 187.72696354 81.25073242 193.3581543 C80.69223397 195.95318529 80.1502759 198.55123596 79.61132812 201.15039062 C74.55244486 225.34599264 74.55244486 225.34599264 71.50390625 228.39453125 C69.5078125 228.25390625 69.5078125 228.25390625 67.50390625 227.39453125 C64.34017205 223.00578212 63.19923532 217.4065894 62.06640625 212.20703125 C57.8683065 193.10456678 49.15718013 175.84636076 32.62890625 164.51953125 C22.67422558 158.91378923 11.84554054 156.40416811 0.58984375 159.08984375 C-17.20259614 165.05407008 -27.38557802 177.00002962 -35.671875 193.34765625 C-38.17411061 199.56173899 -38.82248646 205.10037853 -38.74609375 211.70703125 C-38.73932617 212.55007812 -38.73255859 213.393125 -38.72558594 214.26171875 C-38.62728245 220.17821728 -38.20586167 225.70200981 -36.49609375 231.39453125 C-36.29757813 232.16539062 -36.0990625 232.93625 -35.89453125 233.73046875 C-33.83495262 240.49171171 -30.30672037 246.17551581 -26.62109375 252.14453125 C-20.69373289 261.7658063 -16.46411585 271.29170349 -12.984375 282.0390625 C-12.7251123 282.83554199 -12.46584961 283.63202148 -12.19873047 284.45263672 C-11.70672852 285.9826466 -11.22684437 287.51663482 -10.76220703 289.05517578 C-8.44179562 296.42520451 -5.10289946 303.04794855 1.50390625 307.39453125 C10.65198604 310.44389118 20.61178094 308.31782681 29.03125 304.140625 C35.22228882 300.63968317 40.33960296 296.24884895 45.50390625 291.39453125 C52.52522614 302.54617332 53.46427301 311.58070824 53.25390625 324.51953125 C53.14762628 338.49125898 53.56293036 350.84195737 60.19140625 363.51953125 C60.54605957 364.20418457 60.90071289 364.88883789 61.26611328 365.59423828 C70.15694137 382.27587627 85.60174212 396.64384364 101.1953125 407.1015625 C104.75581908 409.50503592 108.00231598 412.21765439 111.25390625 415.01953125 C111.79297607 415.48399658 112.3320459 415.94846191 112.88745117 416.42700195 C113.41314697 416.88034912 113.93884277 417.33369629 114.48046875 417.80078125 C117.94115484 420.76963857 121.48578352 423.61348702 125.05859375 426.4453125 C127.6452615 428.507209 130.20055184 430.60404985 132.75390625 432.70703125 C138.69225153 437.57480161 144.71810263 442.32453781 150.77490234 447.04345703 C152.39419756 448.30880294 154.00597765 449.58374963 155.6171875 450.859375 C178.15824719 468.53133666 204.2735892 486.5779425 232.50390625 493.39453125 C233.6846875 493.69101562 234.86546875 493.9875 236.08203125 494.29296875 C244.06704111 496.0548434 251.76355316 496.67137699 259.94140625 496.70703125 C261.30833618 496.71524902 261.30833618 496.71524902 262.70288086 496.72363281 C277.34576608 496.56844097 292.06105644 492.00635921 302.50390625 481.39453125 C308.39272227 474.83348396 311.86045891 467.82303897 315.31640625 459.76953125 C318.71504699 452.09408832 322.13003907 444.80835368 327.00390625 437.95703125 C337.19764359 423.58745053 337.8096659 408.18818026 337.56254005 391.13418198 C337.52262231 388.26563806 337.49858423 385.39734559 337.47892761 382.52859497 C337.42132514 374.38123858 337.34366186 366.23426309 337.23657227 358.08740234 C337.17187509 353.08097198 337.13199881 348.07483843 337.10739708 343.06805801 C337.09321942 341.17270719 337.06972232 339.27740056 337.03638649 337.38228989 C336.83637866 325.86088145 336.93070663 317.25891484 344.48925781 307.94921875 C345.11799805 307.39492188 345.74673828 306.840625 346.39453125 306.26953125 C347.09980957 305.63120361 347.80508789 304.99287598 348.53173828 304.33520508 C349.63171143 303.37457153 349.63171143 303.37457153 350.75390625 302.39453125 C352.27968648 301.00517258 353.80314419 299.61325888 355.32421875 298.21875 C356.04899414 297.5592334 356.77376953 296.8997168 357.52050781 296.22021484 C367.88493871 286.67993737 375.45374298 276.15870473 376.84765625 261.87109375 C377.29763573 250.77909949 374.45172771 243.20711722 369.50390625 233.39453125 C366.73385128 225.08436634 369.09133106 216.09308041 370.81640625 207.76953125 C371.27616816 205.46486898 371.73580387 203.16018153 372.1953125 200.85546875 C372.41977051 199.7478418 372.64422852 198.64021484 372.87548828 197.49902344 C373.69136405 193.4684577 374.48239015 189.43379296 375.25390625 185.39453125 C375.475625 184.26015625 375.69734375 183.12578125 375.92578125 181.95703125 C377.47780106 172.39323351 377.74995678 162.86485667 377.79907227 153.19311523 C377.81053693 151.63149922 377.83090053 150.06992067 377.8605957 148.50854492 C378.1638628 132.46927359 375.54139466 117.96627195 368.50390625 103.39453125 C367.87742187 102.06421875 367.87742187 102.06421875 367.23828125 100.70703125 C350.93090644 68.46716381 316.1335854 45.46338943 282.71875 34.0546875 C266.25876446 28.700466 249.67702522 24.54479036 232.50390625 22.39453125 C231.77133606 22.3026503 231.03876587 22.21076935 230.28399658 22.11610413 C217.31513062 20.54361516 204.47901321 20.08018448 191.42114258 20.13378906 C188.30856018 20.1445584 185.19655005 20.13379312 182.08398438 20.12109375 C160.33629987 20.09908319 160.33629987 20.09908319 139.19140625 24.70703125 Z " fill="#63798A" transform="translate(65.49609375,2.60546875)"/>
<path d="M0 0 C3.24331096 1.3621906 4.75052347 2.78897624 7.125 5.3125 C6.55652344 5.725 5.98804688 6.1375 5.40234375 6.5625 C-5.55963173 14.76110604 -14.89064606 25.74670445 -18.4453125 39.28515625 C-19.92021002 49.67647972 -19.90587157 61.22148055 -16.875 71.3125 C-16.67648438 72.08335937 -16.47796875 72.85421875 -16.2734375 73.6484375 C-14.21385887 80.40968046 -10.68562662 86.09348456 -7 92.0625 C-1.07263914 101.68377505 3.1569779 111.20967224 6.63671875 121.95703125 C6.89598145 122.75351074 7.15524414 123.54999023 7.42236328 124.37060547 C7.91436523 125.90061535 8.39424938 127.43460357 8.85888672 128.97314453 C10.94538279 135.60021762 13.74188863 141.36710296 19.1875 145.8125 C26.36205595 149.32179367 35.39723588 147.84663123 42.68359375 145.35546875 C50.93719869 141.82952872 57.81578598 136.62171402 64.125 130.3125 C65.08802356 131.87211362 66.04521004 133.43533225 67 135 C67.53367187 135.87011719 68.06734375 136.74023438 68.6171875 137.63671875 C71.67913538 143.07048635 72.41629451 147.48521139 72.43359375 153.69140625 C72.45877809 155.35221668 72.48417571 157.01302389 72.50976562 158.67382812 C72.53831741 161.26471931 72.56235784 163.85555386 72.58129883 166.4465332 C72.6965974 179.66785845 73.56863255 191.49411809 79.8125 203.4375 C80.16642822 204.12142822 80.52035645 204.80535645 80.88500977 205.51000977 C89.59165734 221.85793454 104.53246446 235.71155522 119.78125 245.984375 C124.51976192 249.20058461 128.77084246 252.98395191 133.1015625 256.71875 C136.56224859 259.68760732 140.10687727 262.53145577 143.6796875 265.36328125 C146.26635525 267.42517775 148.82164559 269.5220186 151.375 271.625 C157.31334528 276.49277036 163.33919638 281.24250656 169.39599609 285.96142578 C171.01529131 287.22677169 172.6270714 288.50171838 174.23828125 289.77734375 C196.77934094 307.44930541 222.89468295 325.49591125 251.125 332.3125 C252.30578125 332.60898437 253.4865625 332.90546875 254.703125 333.2109375 C262.68813486 334.97281215 270.38464691 335.58934574 278.5625 335.625 C279.92942993 335.63321777 279.92942993 335.63321777 281.32397461 335.64160156 C294.97139833 335.49696007 307.9756937 331.41733594 318.7109375 322.86328125 C325.47738931 315.71361615 329.61309957 307.60299119 333.4375 298.625 C336.6441898 291.33015799 339.94957036 284.5087133 344.5625 278 C354.77106987 263.55179474 355.43191309 248.18574688 355.1836338 231.05215073 C355.14371606 228.18360681 355.11967798 225.31531434 355.10002136 222.44656372 C355.04241889 214.29920733 354.96475561 206.15223184 354.85766602 198.00537109 C354.79296884 192.99894073 354.75309256 187.99280718 354.72849083 182.98602676 C354.71431317 181.09067594 354.69081607 179.19536931 354.65748024 177.30025864 C354.44595281 165.11526633 354.65897203 155.93640398 363.4375 146.625 C364.64958863 145.5021127 365.87929257 144.3979712 367.125 143.3125 C368.08792969 142.46945312 368.08792969 142.46945312 369.0703125 141.609375 C369.72773438 141.03703125 370.38515625 140.4646875 371.0625 139.875 C382.9736411 129.50448912 392.884575 118.02685623 394.46875 101.7890625 C394.91823819 90.70917865 392.07194243 83.11804661 387.125 73.3125 C387.125 72.9825 387.125 72.6525 387.125 72.3125 C388.51917773 71.97230848 389.91544658 71.64068221 391.3125 71.3125 C392.08980469 71.126875 392.86710937 70.94125 393.66796875 70.75 C396.20490225 70.29827257 398.55379903 70.23942857 401.125 70.3125 C404.87558377 77.83725612 408.23692265 84.88964135 409.125 93.3125 C409.2075 94.06402344 409.29 94.81554687 409.375 95.58984375 C410.21885283 111.43845471 403.26943036 126.58753682 392.98779297 138.25317383 C387.56388393 144.1657153 381.70885563 149.63410164 375.66943359 154.91235352 C375.10562988 155.41565186 374.54182617 155.9189502 373.9609375 156.4375 C373.46126465 156.87320313 372.9615918 157.30890625 372.44677734 157.7578125 C368.69071213 162.17573332 368.86145568 167.20007522 368.94555664 172.72021484 C368.95008347 173.55516479 368.95461029 174.39011475 368.95927429 175.25036621 C368.97021358 177.06024678 368.98570492 178.87010432 369.00523567 180.67991257 C369.03551658 183.55768136 369.05224434 186.43524541 369.06529236 189.31314087 C369.10492175 197.49488778 369.16957063 205.67638932 369.24145508 213.85791016 C369.28454562 218.86925929 369.3124146 223.88052336 369.33175468 228.89201736 C369.34222218 230.78876531 369.35850317 232.68549154 369.38105965 234.58213425 C369.60786797 253.70145749 367.59347554 269.71057189 356.32202148 285.65576172 C352.09297204 291.88298553 349.15544924 298.56621173 346.125 305.4375 C337.87548091 323.93650124 327.49381588 337.50956822 308.125 345.3125 C280.65608777 355.56161905 249.12257354 348.62929968 223.125 337.3125 C209.74500508 331.10428795 197.1170585 323.88134283 185.125 315.3125 C183.63948735 314.27059886 182.15380136 313.22894481 180.66796875 312.1875 C172.54796369 306.45056769 164.76241505 300.48934388 157.25 293.98046875 C154.0412459 291.21120081 150.72237991 288.59879777 147.375 286 C142.04900569 281.85971975 136.81972334 277.61624923 131.625 273.3125 C126.39667369 268.98642 121.14722675 264.69444007 115.8125 260.5 C115.23854492 260.04761963 114.66458984 259.59523926 114.07324219 259.12915039 C111.49356343 257.11003006 108.90084254 255.15441318 106.22265625 253.265625 C83.35536636 237.07972434 65.1743294 215.39850002 59.50064087 187.58312988 C58.33965439 180.56533492 58.43675156 173.40674934 58.375 166.3125 C58.34674561 164.651012 58.31680558 162.98955179 58.28515625 161.328125 C58.21243351 157.32296877 58.16218421 153.31813724 58.125 149.3125 C57.52461914 149.65313477 56.92423828 149.99376953 56.30566406 150.34472656 C55.50870117 150.79299805 54.71173828 151.24126953 53.890625 151.703125 C53.10461914 152.14688477 52.31861328 152.59064453 51.50878906 153.04785156 C41.7402899 158.23023846 30.95811574 159.97954771 20.078125 157.6640625 C12.52795408 155.22381389 7.61354039 151.65333201 3.65063477 144.74072266 C0.01856465 137.54950336 -2.68549673 130.35384993 -5.125 122.6875 C-8.63108108 112.11350901 -13.01432982 102.79897574 -18.72021484 93.26611328 C-29.00436831 75.86784774 -33.14162863 56.9341923 -28.8125 36.875 C-24.42002911 22.43964964 -16.02751924 10.3625863 -4.875 0.3125 C-2.875 -0.6875 -2.875 -0.6875 0 0 Z " fill="#1C75A1" transform="translate(46.875,162.6875)"/>
<path d="M0 0 C7.82175685 2.19986911 13.43191112 8.81319087 17.6171875 15.45703125 C25.97443603 30.82586966 27.99512711 48.78896111 23.375 65.8125 C22.6406584 67.896099 21.85121461 69.96135436 21 72 C20.59910156 73.00546875 20.19820313 74.0109375 19.78515625 75.046875 C13.0733134 90.06583929 1.16966688 101.71880981 -14 108 C-24.84854445 111.63501576 -35.66079656 110.80236225 -46 106 C-58.17597308 98.45537864 -65.48597498 87.15499658 -68.875 73.3125 C-70.39914942 65.17769069 -70.41832887 57.23271208 -70 49 C-69.97679687 48.1234375 -69.95359375 47.246875 -69.9296875 46.34375 C-69.11408178 39.08222807 -63.24406907 34.31099492 -58.34375 29.37646484 C-56.58142335 27.57123272 -54.94460388 25.67301129 -53.3125 23.75 C-52.20979839 22.49870739 -51.10562719 21.24870835 -50 20 C-49.40058594 19.29875 -48.80117187 18.5975 -48.18359375 17.875 C-40.35910667 9.27596773 -31.37469136 7.83095163 -20.29077148 6.71508789 C-9.06450083 5.82562313 -9.06450083 5.82562313 0 0 Z " fill="#E4E9ED" transform="translate(259,104)"/>
<path d="M0 0 C3.96140841 1.46865843 5.71240258 3.94381934 8.14453125 7.24609375 C14.31499097 13.07880199 24.12884681 13.55754313 32.10742188 15.01757812 C47.52898851 18.01271583 54.43383242 25.52672927 63.5546875 37.8125 C65.03038384 39.78472476 66.49038348 41.51656053 68.1953125 43.3125 C72.48233599 47.89458178 73.45499163 51.11980235 73.5625 57.4375 C73.26236421 63.44621857 72.59593771 69.1984151 71 75 C70.80535156 75.74507813 70.61070312 76.49015625 70.41015625 77.2578125 C67.22410263 88.07908337 60.78146688 98.04486239 50.92578125 103.79296875 C40.3073363 109.18544803 30.09127704 110.86587639 18.375 108.1640625 C1.89650776 102.26191023 -9.68245571 90.14905829 -17.15234375 74.6015625 C-24.33961142 57.84031186 -25.42252272 39.97281523 -18.75 22.9375 C-14.72264169 13.77907585 -9.28794759 4.6439738 0 0 Z " fill="#E5EBEE" transform="translate(342,126)"/>
<path d="M0 0 C0.7734375 -0.00257813 1.546875 -0.00515625 2.34375 -0.0078125 C4.5 0.125 4.5 0.125 7.5 1.125 C7.02231 4.27775397 6.24970149 6.68566866 4.9375 9.625 C3.59882468 12.88438338 2.92693124 14.68658741 3.5 18.125 C5.96499111 21.4202138 9.02968233 22.16418431 12.875 23.3125 C13.99648438 23.65667969 15.11796875 24.00085938 16.2734375 24.35546875 C20.52176064 25.36868867 23.35768147 25.50577284 27.5 24.125 C28.49 18.515 29.48 12.905 30.5 7.125 C34.5 6.125 34.5 6.125 42.5 6.125 C42.83 12.725 43.16 19.325 43.5 26.125 C46.7175 26.145625 49.935 26.16625 53.25 26.1875 C54.25772461 26.196604 55.26544922 26.20570801 56.30371094 26.21508789 C57.50688965 26.21883423 57.50688965 26.21883423 58.734375 26.22265625 C59.95979004 26.23051147 59.95979004 26.23051147 61.20996094 26.23852539 C63.43968135 26.12799021 65.36133755 25.74555567 67.5 25.125 C67.60469338 19.36686425 67.24016701 13.83485978 66.5 8.125 C72.07067277 6.53337921 76.71101581 5.91825056 82.5 6.125 C83.87584192 11.16975372 84.7868475 15.92672087 85.15625 21.14453125 C85.41693416 23.43832493 85.41693416 23.43832493 87.5 26.125 C94.89107947 27.10118031 101.59994635 24.64792711 108.5 22.125 C109.85066528 20.9904902 109.85066528 20.9904902 109.75 18 C109.46428435 13.57140738 108.34062396 11.11301859 106.5 7.125 C106.5 6.135 106.5 5.145 106.5 4.125 C112.0561802 0.97691596 117.28789981 1.66117254 123.375 2.9375 C127.45066354 5.79046448 128.04888865 7.99898036 129.0703125 12.765625 C131.18813725 29.32316392 128.34208834 44.07581816 121.5 59.125 C120.89478516 60.45917969 120.89478516 60.45917969 120.27734375 61.8203125 C117.68054681 66.73221994 117.68054681 66.73221994 114.41015625 67.8203125 C112.1875 68.125 112.1875 68.125 108.5 68.125 C108.17 63.835 107.84 59.545 107.5 55.125 C95.45838424 54.9164181 95.45838424 54.9164181 83.5 56.125 C83.005 61.075 83.005 61.075 82.5 66.125 C78.54 66.125 74.58 66.125 70.5 66.125 C70.59765625 63.35807292 70.6953125 60.59114583 70.79296875 57.82421875 C70.73607884 55.10737566 70.73607884 55.10737566 69.11328125 53.33203125 C66.37706441 51.28483754 64.64974189 50.99717473 61.2890625 50.9921875 C60.45632813 50.99089844 59.62359375 50.98960937 58.765625 50.98828125 C57.89421875 50.99214844 57.0228125 50.99601562 56.125 51 C54.82949219 50.99419922 54.82949219 50.99419922 53.5078125 50.98828125 C52.25484375 50.99021484 52.25484375 50.99021484 50.9765625 50.9921875 C49.8330835 50.99387939 49.8330835 50.99387939 48.66650391 50.99560547 C46.49502536 51.12529711 44.58733046 51.52836595 42.5 52.125 C42.32975495 53.52040141 42.1639851 54.91634909 42 56.3125 C41.9071875 57.08980469 41.814375 57.86710937 41.71875 58.66796875 C41.49622834 61.16736386 41.46436423 63.61713246 41.5 66.125 C37.53882278 64.70322032 34.42669631 63.19032929 31.5 60.125 C30.58916871 54.99755564 30.91015146 50.27634391 31.5 45.125 C27.57667194 42.561759 23.47380691 42.64804589 18.9375 42.4375 C18.16986328 42.39044922 17.40222656 42.34339844 16.61132812 42.29492188 C13.26436048 42.11692272 10.70728456 42.05590515 7.5 43.125 C7.65275391 44.71828125 7.65275391 44.71828125 7.80859375 46.34375 C8.01855563 50.72910187 8.17511585 54.99785753 6.5 59.125 C2.93688645 62.78715686 -1.96751296 64.373219 -6.62255859 66.22802734 C-10.51878983 68.08950375 -13.46889098 71.09389098 -16.5 74.125 C-17.96815389 72.90758021 -19.42416847 71.67551239 -20.875 70.4375 C-21.68710938 69.75300781 -22.49921875 69.06851563 -23.3359375 68.36328125 C-28.94274518 62.56418233 -27.90656434 54.85324976 -27.92553711 47.30786133 C-27.93733881 45.09275503 -27.9864708 42.88052694 -28.03710938 40.66601562 C-28.14272531 31.44343253 -26.90591756 24.42436558 -22.5 16.125 C-21.92636719 14.990625 -21.35273438 13.85625 -20.76171875 12.6875 C-15.79349412 4.60026586 -9.91634319 -0.03305448 0 0 Z " fill="#3B566B" transform="translate(243.5,336.875)"/>
<path d="M0 0 C4.0351583 2.5933616 7.18777835 6.23721314 10.49194336 9.67456055 C16.00605543 15.29908812 21.86778659 18.30692293 29.75 18.9375 C40.8365844 18.22223649 49.55885808 12.73159461 58.625 6.6875 C68.58449161 7.2427954 81.11310785 16.1052035 88.01953125 22.7578125 C90.36859847 25.58126556 91.53277672 28.1923855 92.625 31.6875 C91.655625 31.3575 90.68625 31.0275 89.6875 30.6875 C84.0258773 29.06496179 78.28503068 29.09042588 72.625 30.6875 C72.91375 31.32816406 73.2025 31.96882813 73.5 32.62890625 C77.62544663 42.24062391 77.62544663 42.24062391 76.625 47.6875 C71.93965814 52.06048574 63.4854718 53.79964352 57.1875 54.125 C53.625 53.6875 53.625 53.6875 51.9765625 52.20703125 C50.02224737 48.56387154 49.80591666 45.01374308 49.4375 40.9375 C49.35564453 40.14472656 49.27378906 39.35195313 49.18945312 38.53515625 C48.98994997 36.58706666 48.80594062 34.63740129 48.625 32.6875 C47.97273438 32.831875 47.32046875 32.97625 46.6484375 33.125 C41.89879823 34.13377294 37.51090812 34.94465306 32.625 34.6875 C32.8415625 35.55761719 32.8415625 35.55761719 33.0625 36.4453125 C35.15375083 45.24599306 35.15375083 45.24599306 34.625 49.6875 C33.07993534 51.72417615 31.90353844 52.54823078 29.625 53.6875 C26.6520759 53.94901272 23.6706726 53.91892772 20.6875 53.9375 C19.86314453 53.958125 19.03878906 53.97875 18.18945312 54 C17.39603516 54.00515625 16.60261719 54.0103125 15.78515625 54.015625 C14.69666382 54.02964355 14.69666382 54.02964355 13.58618164 54.04394531 C11.00855156 53.57546032 10.14895439 52.7995695 8.625 50.6875 C8.28442383 48.69458008 8.28442383 48.69458008 8.33203125 46.45703125 C8.3465332 45.25336914 8.3465332 45.25336914 8.36132812 44.02539062 C8.38646484 43.19201172 8.41160156 42.35863281 8.4375 41.5 C8.45103516 40.65501953 8.46457031 39.81003906 8.47851562 38.93945312 C8.51384201 36.85519616 8.56764861 34.77126723 8.625 32.6875 C2.685 33.1825 2.685 33.1825 -3.375 33.6875 C-3.560625 35.9459375 -3.560625 35.9459375 -3.75 38.25 C-4.19871423 42.64366017 -4.82238526 46.54719404 -6.375 50.6875 C-9.77680752 52.95537168 -11.13084921 52.78719403 -15.05078125 52.1640625 C-20.39090132 51.06911351 -25.45664026 49.93666448 -30.0625 46.9375 C-31.58694612 44.32416379 -31.61310863 42.71294067 -31.00390625 39.76953125 C-29.752891 35.62797145 -28.09121571 31.65475212 -26.375 27.6875 C-34.67585731 27.17404491 -40.89435975 27.98028005 -48.375 31.6875 C-41.47860735 16.89523749 -17.7248292 -6.89298914 0 0 Z " fill="#E26354" transform="translate(277.375,310.3125)"/>
<path d="M0 0 C0.95016998 0.00182281 1.90033997 0.00364563 2.87930298 0.00552368 C34.36625174 0.10645709 65.69425654 3.18978033 95.6875 13.3125 C96.35007812 13.53518555 97.01265625 13.75787109 97.6953125 13.98730469 C107.50557803 17.34419574 116.74349017 21.56135351 125.91552734 26.38378906 C127.48403639 27.20586242 129.06354037 28.00688233 130.64453125 28.8046875 C149.46928677 38.5615886 169.90727526 54.42973261 181.6875 72.3125 C182.55787643 79.13044873 180.34879967 85.73652212 178.6875 92.3125 C175.99190618 88.9980502 173.46019618 85.61672498 171 82.125 C144.02174283 45.011265 100.52089073 25.85883463 56.40673828 17.89819336 C52.50905877 17.29993293 48.60011908 16.80240197 44.6875 16.3125 C43.95492981 16.22061905 43.22235962 16.1287381 42.46759033 16.03407288 C29.49872437 14.46158391 16.66260696 13.99815323 3.60473633 14.05175781 C0.49215393 14.06252715 -2.6198562 14.05176187 -5.73242188 14.0390625 C-27.48010638 14.01705194 -27.48010638 14.01705194 -48.625 18.625 C-49.60714478 18.95419434 -49.60714478 18.95419434 -50.60913086 19.29003906 C-52.5181418 19.94152138 -54.41572132 20.62621826 -56.3125 21.3125 C-57.34890625 21.68246094 -58.3853125 22.05242188 -59.453125 22.43359375 C-72.47463516 27.46463176 -83.87358068 35.13232771 -94.3125 44.3125 C-98.37948374 41.93605124 -101.82779023 39.47305073 -105.3125 36.3125 C-105.3125 35.6525 -105.3125 34.9925 -105.3125 34.3125 C-103.45331488 32.67544338 -101.60013498 31.17401371 -99.625 29.6875 C-99.03412598 29.24092041 -98.44325195 28.79434082 -97.83447266 28.33422852 C-78.28541779 13.77238937 -56.4562413 3.56870769 -32.046875 1.203125 C-30.76022697 1.07772087 -30.76022697 1.07772087 -29.44758606 0.94978333 C-19.6362842 0.0657655 -9.84491474 -0.03957962 0 0 Z " fill="#1C75A1" transform="translate(253.3125,9.6875)"/>
<path d="M0 0 C12.84748864 5.45696006 20.56209692 18.81081571 26 31 C31.67668189 45.28435086 35.25327318 62.24512384 30.4375 77.3125 C28.31664981 82.05670147 25.77758886 85.72973354 21 88 C16.51188145 89.07744568 12.80569638 88.83951626 8.60546875 86.88671875 C6.24919445 85.39748917 4.13672066 83.78860325 2 82 C1.39414063 81.51660156 0.78828125 81.03320312 0.1640625 80.53515625 C-5.82654368 75.20866704 -9.34826278 68.01292751 -13 61 C-13.49886719 60.05640625 -13.99773438 59.1128125 -14.51171875 58.140625 C-19.6570307 47.69548723 -21.25039807 37.19667119 -21.375 25.6875 C-21.38893799 24.86386963 -21.40287598 24.04023926 -21.41723633 23.19165039 C-21.35615818 15.29670468 -19.74460929 7.74460929 -14 2 C-9.4697947 -0.70848445 -5.14057614 -0.83401678 0 0 Z " fill="#2C93BA" transform="translate(75,194)"/>
<path d="M0 0 C0.75087891 0.04060547 1.50175781 0.08121094 2.27539062 0.12304688 C6.61595661 0.43990437 10.32293873 0.78216732 13.5625 3.9375 C13.76953125 7.3359375 13.76953125 7.3359375 13.375 11.3125 C12.95608513 16.5398164 12.95608513 16.5398164 15.32421875 21.03515625 C17.37719381 22.264075 19.28890902 23.20162792 21.5625 23.9375 C21.53929687 23.33421875 21.51609375 22.7309375 21.4921875 22.109375 C21.47414063 21.31015625 21.45609375 20.5109375 21.4375 19.6875 C21.41429687 18.89859375 21.39109375 18.1096875 21.3671875 17.296875 C21.58776139 14.63234241 22.06100436 13.1472483 23.5625 10.9375 C27.92598345 8.28847413 32.03507475 8.60617921 37 8.625 C38.2694043 8.60083008 38.2694043 8.60083008 39.56445312 8.57617188 C44.37043644 8.57240838 47.6849822 8.76919023 51.5625 11.9375 C53.13420996 15.08091993 52.79425783 18.49521451 52.5625 21.9375 C52.0675 23.4225 52.0675 23.4225 51.5625 24.9375 C55.5225 24.9375 59.4825 24.9375 63.5625 24.9375 C63.500625 23.679375 63.43875 22.42125 63.375 21.125 C63.39567236 17.22481426 63.39567236 17.22481426 64.6875 15 C69.1527146 12.46971173 74.74474234 12.7518763 79.75 12.6875 C80.96042969 12.66171875 82.17085938 12.6359375 83.41796875 12.609375 C86.5625 12.9375 86.5625 12.9375 88.4765625 14.09765625 C90.00334499 16.68439925 89.8551393 18.64605307 89.75 21.625 C89.70939453 23.11580078 89.70939453 23.11580078 89.66796875 24.63671875 C89.63316406 25.39597656 89.59835937 26.15523438 89.5625 26.9375 C91.8725 26.6075 94.1825 26.2775 96.5625 25.9375 C92.53296514 31.1530327 89.15961634 35.14293668 82.34765625 36.3203125 C76.97956989 36.7104104 73.72508747 35.71726714 69.125 32.9375 C63.4752719 29.60010788 59.03902941 28.56341314 52.5625 29.9375 C46.88018816 32.22286208 42.04650176 35.48392543 37.25 39.25 C34.03968657 41.72148366 31.76966919 43.2118806 27.5625 42.9375 C22.72470112 40.15833894 20.83006689 36.7971865 18.1875 31.9375 C14.79995391 25.83090362 11.27597832 22.32168845 4.52734375 20.33984375 C-1.5139272 19.10276441 -7.13038906 19.81618434 -12.4375 22.9375 C-15.26905274 25.19633803 -17.98096412 27.59381174 -20.60595703 30.08911133 C-24.40947013 33.56756286 -27.11857926 34.65579171 -32.4375 34.9375 C-33.0975 33.6175 -33.7575 32.2975 -34.4375 30.9375 C-28.28436457 24.65423784 -21.50309903 21.29406789 -13.4375 17.9375 C-13.41171875 16.97328125 -13.3859375 16.0090625 -13.359375 15.015625 C-13.30265625 13.75234375 -13.2459375 12.4890625 -13.1875 11.1875 C-13.14109375 9.93453125 -13.0946875 8.6815625 -13.046875 7.390625 C-12.4375 3.9375 -12.4375 3.9375 -10.91796875 1.48046875 C-7.31900264 -0.7582582 -4.06126164 -0.36416095 0 0 Z " fill="#DE6557" transform="translate(262.4375,378.0625)"/>
<path d="M0 0 C1.81637485 1.61234371 2.05412604 2.90685329 2.42578125 5.265625 C-1.9592167 9.65062295 -6.51647682 11.55293385 -12.25952148 13.81616211 C-16.30482914 15.49597971 -19.15315202 17.38944732 -22.26171875 20.453125 C-28.48619757 26.42725915 -35.57006927 27.09506881 -43.85058594 27.96850586 C-59.89266965 29.66113239 -67.84644472 34.3586091 -78.57421875 46.265625 C-79.32445312 47.08675781 -80.0746875 47.90789062 -80.84765625 48.75390625 C-83.07693747 51.25126559 -85.1946107 53.70217536 -87.06640625 56.48046875 C-87.56398437 57.06957031 -88.0615625 57.65867188 -88.57421875 58.265625 C-89.56421875 58.265625 -90.55421875 58.265625 -91.57421875 58.265625 C-93.74089689 53.93226873 -93.1893803 48.36185485 -91.85546875 43.81640625 C-88.29336547 35.35641095 -83.35190946 30.81629286 -75.78125 25.87890625 C-73.34182418 24.29011445 -73.34182418 24.29011445 -71.57421875 21.265625 C-71.53296875 20.193125 -71.49171875 19.120625 -71.44921875 18.015625 C-70.17261513 12.54446661 -67.09076477 10.37817892 -62.57421875 7.265625 C-52.72577395 1.2839574 -42.54278466 -0.01850846 -31.26171875 -1.359375 C-30.21048828 -1.4934375 -29.15925781 -1.6275 -28.07617188 -1.765625 C-8.01593026 -4.18222448 -8.01593026 -4.18222448 0 0 Z " fill="#1D76A2" transform="translate(282.57421875,83.734375)"/>
<path d="M0 0 C1.18335938 0.20439697 2.36671875 0.40879395 3.5859375 0.61938477 C13.39227003 2.43407731 22.76348254 4.66015823 30.8125 10.8125 C31.71097656 11.48410156 32.60945313 12.15570313 33.53515625 12.84765625 C37.04025919 15.85821204 37.84320424 17.94834027 38.1875 22.375 C39.30498473 28.6438168 43.09934133 30.81638886 47.97265625 34.4921875 C52.25450518 37.97307172 55.02845775 41.4791052 56.75 46.75 C57.20374887 51.81603138 57.11568783 56.6710024 56.75 61.75 C52.75 61.75 52.75 61.75 50.453125 59.4765625 C49.64359375 58.45304687 48.8340625 57.42953125 48 56.375 C47.56461914 55.83351318 47.12923828 55.29202637 46.68066406 54.73413086 C45.35697009 53.08289757 44.05069418 51.41939095 42.75 49.75 C33.35076284 37.68654245 25.87599133 32.75156442 10.890625 29.75390625 C10.05104248 29.58576416 9.21145996 29.41762207 8.34643555 29.24438477 C6.6918491 28.92156585 5.03444028 28.61280533 3.37426758 28.32006836 C-3.54053688 27.00437182 -8.5775499 24.14128858 -13.25 18.75 C-13.25 18.09 -13.25 17.43 -13.25 16.75 C-13.93835938 16.49089844 -14.62671875 16.23179688 -15.3359375 15.96484375 C-18.62912632 14.591946 -21.72843815 12.99428306 -24.875 11.3125 C-26.00164062 10.71566406 -27.12828125 10.11882812 -28.2890625 9.50390625 C-32.54496318 6.98293078 -32.54496318 6.98293078 -34.25 4.75 C-34.1875 2.1875 -34.1875 2.1875 -33.25 -0.25 C-24.5228957 -6.08156853 -9.52338192 -1.66771488 0 0 Z " fill="#1D76A1" transform="translate(359.25,111.25)"/>
<path d="M0 0 C9.79765193 7.14035519 16.35165638 16.37634864 18.640625 28.3515625 C19.67953985 36.87451212 19.67953985 36.87451212 17 41.3125 C13.27280803 43.40904549 11.21407809 43.68957641 7 43 C2.82774519 39.87474499 1.91974831 36.08790186 0.6875 31.25 C-1.19337269 24.54622155 -3.49909706 19.55868279 -9 15 C-12.79587462 13.10206269 -16.87355836 13.4226628 -21 14 C-29.05773743 16.95301979 -32.41683695 25.4971585 -36.1171875 32.61328125 C-38 36 -38 36 -40 37 C-47.0521327 37.56872038 -47.0521327 37.56872038 -50.5 35.5 C-52.67626061 31.87289898 -52.84786897 29.03559338 -52 25 C-47.84534489 13.6178128 -40.10661818 3.28776624 -29 -2 C-19.67779268 -5.83855595 -8.52517487 -5.49436175 0 0 Z " fill="#1C75A1" transform="translate(311,255)"/>
<path d="M0 0 C6.49989164 3.64325137 11.46746805 8.83391131 13.75 16 C14.8318411 24.68889219 13.86690209 31.79594047 8.75 39 C4.36058015 44.00442098 -0.95433341 46.59857898 -7.45703125 47.390625 C-15.9089831 47.79353495 -21.77427477 46.59099617 -28.25 41 C-34.27252069 34.63577601 -35.46829414 28.04333413 -35.515625 19.48828125 C-35.25 17 -35.25 17 -33.25 14 C-33.188125 15.216875 -33.12625 16.43375 -33.0625 17.6875 C-32.62927659 20.89677339 -32.14048311 22.16957455 -30.3125 25 C-25.95871661 27.84328711 -22.30691394 27.99480274 -17.25 27 C-13.91666667 25.33333333 -13.91666667 25.33333333 -12.25 22 C-11.26123375 16.97377154 -11.4730827 13.29486216 -14.125 8.875 C-18.42096296 6.29742222 -22.34608673 6.04313887 -27.25 7 C-29.52110924 8.43489368 -29.52110924 8.43489368 -31.25 10 C-29.27013359 4.65436071 -24.80381822 1.88354369 -20.0625 -0.8125 C-13.04915237 -2.99698533 -6.7619917 -3.04649854 0 0 Z " fill="#3D576C" transform="translate(236.25,132)"/>
<path d="M0 0 C5.8917204 3.89075875 9.77642064 9.32926191 12 16 C12.94077699 24.07724247 11.72349246 30.32352508 7 37 C2.29992201 42.1170204 -2.20514838 45.61008693 -9.26953125 46.3359375 C-17.78576573 46.42983204 -23.67595494 46.1177288 -29.96484375 40.12890625 C-35.55519396 34.08126768 -37.33106962 29.46991365 -37.125 21.1875 C-37.11597656 20.49462891 -37.10695313 19.80175781 -37.09765625 19.08789062 C-37.07426157 17.39177605 -37.03839641 15.69584129 -37 14 C-36.67 14 -36.34 14 -36 14 C-35.7525 15.2375 -35.505 16.475 -35.25 17.75 C-34.2470317 21.57212243 -33.52940834 23.882355 -30 26 C-25.06650944 26.80137918 -21.28172163 26.75856994 -16.9375 24.1875 C-14.40691114 21.33038355 -14.03784785 19.40875682 -13.6875 15.625 C-14.05115027 11.40665686 -15.04884992 9.95115008 -18 7 C-20.36595143 5.81702429 -21.80776319 5.89863689 -24.4375 5.9375 C-25.21996094 5.94652344 -26.00242187 5.95554688 -26.80859375 5.96484375 C-27.89333984 5.98224609 -27.89333984 5.98224609 -29 6 C-29.99 6 -30.98 6 -32 6 C-22.93241432 -4.20103389 -12.36051249 -5.23107013 0 0 Z " fill="#3D576C" transform="translate(397,179)"/>
<path d="M0 0 C0.33 0 0.66 0 1 0 C-0.12975213 12.99214951 -6.71244956 22.77495679 -16.44140625 31.109375 C-26.72283418 38.70664388 -38.24456386 42.55312305 -51 41 C-63.80078812 37.09916812 -75.63070834 24.22985772 -82.625 13.1875 C-84.08399206 9.80529114 -84.24277136 8.41762123 -83 5 C-78.15483092 5.42169322 -76.30981069 7.32846095 -73.1875 10.9375 C-72.00220703 12.28134766 -72.00220703 12.28134766 -70.79296875 13.65234375 C-69 16 -69 16 -69 18 C-54.20193269 25.96819009 -37.95611568 21.53282051 -22.80078125 17.0546875 C-12.75377594 13.71969829 -5.86942903 8.80414354 0 0 Z " fill="#2C93BA" transform="translate(412,238)"/>
<path d="M0 0 C2.2265625 0.015625 2.2265625 0.015625 5 1 C7.29462009 4.01377088 8.78121817 7.52724926 10.4296875 10.921875 C13.73122146 17.33628384 17.38962119 20.77078543 24.26269531 23.11083984 C30.11046584 24.50211109 35.93767898 24.37193039 41.91308594 24.37060547 C44.09911853 24.37494858 46.28307745 24.41124565 48.46875 24.44921875 C61.48247961 24.55473423 72.49827226 22.14087422 83 14 C81.45030316 22.91075686 75.40327074 29.50309744 68.3125 34.8125 C57.16938997 42.12030704 44.49753502 45.77465492 31.2734375 43.5390625 C18.98276899 40.30467605 12.35261915 31.45150392 5.8125 21.125 C-1.50171447 8.52174334 -1.50171447 8.52174334 -0.59765625 2.17578125 C-0.40042969 1.45777344 -0.20320312 0.73976562 0 0 Z " fill="#2C93BA" transform="translate(180,214)"/>
<path d="M0 0 C1.91796875 1.1015625 1.91796875 1.1015625 4.79296875 3.1015625 C3.62041166 6.43884036 2.60428471 8.87593737 -0.20703125 11.1015625 C-0.86703125 11.1015625 -1.52703125 11.1015625 -2.20703125 11.1015625 C-2.45453125 11.6378125 -2.70203125 12.1740625 -2.95703125 12.7265625 C-4.20703125 15.1015625 -4.20703125 15.1015625 -6.20703125 18.0390625 C-9.64555086 23.30429565 -10.46665973 27.57090949 -10.64453125 33.7890625 C-11.02257804 42.03085858 -11.87805798 49.49244482 -17.20703125 56.1015625 C-22.15554117 46.20454267 -23.48159287 35.71655547 -23.58203125 24.7890625 C-23.59580811 23.96575439 -23.60958496 23.14244629 -23.6237793 22.29418945 C-23.56431091 14.39916674 -21.95149314 6.84602439 -16.20703125 1.1015625 C-11.32641183 -1.84975223 -5.28790945 -2.15260031 0 0 Z " fill="#1C75A1" transform="translate(77.20703125,194.8984375)"/>
<path d="M0 0 C2.93776444 0.81155368 5.87521836 1.62420234 8.8125 2.4375 C9.64587891 2.66759766 10.47925781 2.89769531 11.33789062 3.13476562 C12.14033203 3.35712891 12.94277344 3.57949219 13.76953125 3.80859375 C14.50792236 4.01282959 15.24631348 4.21706543 16.00708008 4.42749023 C17.68415002 4.9092652 19.34464396 5.44821465 21 6 C20.61096272 9.25392935 20.18399009 12.5017855 19.75 15.75 C19.58564453 17.13058594 19.58564453 17.13058594 19.41796875 18.5390625 C18.48441548 25.3196073 18.48441548 25.3196073 16.1171875 28.64453125 C13.37834365 30.3979977 11.42234601 30.13363221 8.2890625 29.546875 C7.53367187 29.36640625 6.77828125 29.1859375 6 29 C5.14148438 28.79890625 4.28296875 28.5978125 3.3984375 28.390625 C-5.67773778 25.98102094 -5.67773778 25.98102094 -8 22 C-7.62069136 16.76682659 -6.14169387 12.36299257 -4 7.625 C-3.72671875 6.99722656 -3.4534375 6.36945313 -3.171875 5.72265625 C-1.16276544 1.16276544 -1.16276544 1.16276544 0 0 Z " fill="#DEE2E5" transform="translate(254,333)"/>
<path d="M0 0 C0.50688605 2.54046458 1.00566874 5.08208876 1.5 7.625 C1.64308594 8.33785156 1.78617187 9.05070312 1.93359375 9.78515625 C2.72735781 13.90516973 3.29263358 17.78225947 3 22 C1.45493534 24.03667615 0.27853844 24.86073078 -2 26 C-4.9729241 26.26151272 -7.9543274 26.23142772 -10.9375 26.25 C-11.76185547 26.270625 -12.58621094 26.29125 -13.43554688 26.3125 C-14.22896484 26.31765625 -15.02238281 26.3228125 -15.83984375 26.328125 C-16.92833618 26.34214355 -16.92833618 26.34214355 -18.03881836 26.35644531 C-20.61220797 25.88873103 -21.47250413 25.10263667 -23 23 C-23.35644531 21.07055664 -23.35644531 21.07055664 -23.328125 18.91015625 C-23.32296875 18.12576172 -23.3178125 17.34136719 -23.3125 16.53320312 C-23.291875 15.71787109 -23.27125 14.90253906 -23.25 14.0625 C-23.24484375 13.25103516 -23.2396875 12.43957031 -23.234375 11.60351562 C-23.18561556 7.88865571 -23.00866288 4.59348785 -22 1 C-19.8336229 0.82961079 -17.6668791 0.66388161 -15.5 0.5 C-13.69015625 0.36078125 -13.69015625 0.36078125 -11.84375 0.21875 C-7.87856457 -0.00691096 -3.9701925 -0.03513445 0 0 Z " fill="#DEE3E6" transform="translate(309,338)"/>
<path d="M0 0 C1.18315062 2.51419508 2.34638285 5.03478674 3.5 7.5625 C3.83386719 8.26697266 4.16773438 8.97144531 4.51171875 9.69726562 C6.58230742 14.28214055 7.55954597 17.866491 7 23 C2.31465814 27.37298574 -6.1395282 29.11214352 -12.4375 29.4375 C-16 29 -16 29 -17.6484375 27.58203125 C-19.71275179 23.63835569 -19.83398728 19.6413415 -20.1875 15.25 C-20.26935547 14.36183594 -20.35121094 13.47367187 -20.43554688 12.55859375 C-20.63529088 10.37315929 -20.8230145 8.18737551 -21 6 C-16.59001985 4.32336218 -12.20658145 2.67471115 -7.6875 1.3125 C-6.45580078 0.93544922 -6.45580078 0.93544922 -5.19921875 0.55078125 C-3 0 -3 0 0 0 Z " fill="#DFE3E6" transform="translate(347,335)"/>
<path d="M0 0 C1.2694043 -0.02416992 1.2694043 -0.02416992 2.56445312 -0.04882812 C7.37043644 -0.05259162 10.6849822 0.14419023 14.5625 3.3125 C16.6726445 7.53278899 15.81121787 12.89243514 14.5625 17.3125 C12.0229163 17.98811372 9.48131165 18.65315828 6.9375 19.3125 C6.22464844 19.50328125 5.51179688 19.6940625 4.77734375 19.890625 C-0.04685822 21.12986954 -4.66344063 22.3013767 -9.51953125 20.5703125 C-12.45423996 18.64917135 -14.12875356 17.32906408 -15.171875 13.89453125 C-15.71720557 9.49942657 -16.02860745 6.08950616 -13.4375 2.3125 C-9.07260634 -0.33525205 -4.96585629 -0.01882432 0 0 Z " fill="#EAEDF0" transform="translate(299.4375,386.6875)"/>
<path d="M0 0 C0.75087891 0.04060547 1.50175781 0.08121094 2.27539062 0.12304688 C6.66655206 0.4435978 10.13908474 0.92435651 13.5625 3.9375 C14.0859375 6.27734375 14.0859375 6.27734375 13.9375 8.875 C13.90398437 9.72964844 13.87046875 10.58429688 13.8359375 11.46484375 C13.58775897 13.70908678 13.17654738 15.76820148 12.5625 17.9375 C12.01722656 17.793125 11.47195313 17.64875 10.91015625 17.5 C2.64171011 15.46469018 -4.33768082 15.18011475 -12.4375 17.9375 C-12.54573773 15.68856046 -12.62319645 13.43812425 -12.6875 11.1875 C-12.73390625 9.93453125 -12.7803125 8.6815625 -12.828125 7.390625 C-12.4375 3.9375 -12.4375 3.9375 -10.94921875 1.48046875 C-7.32827277 -0.74390708 -4.07477049 -0.36537225 0 0 Z " fill="#E8ECEF" transform="translate(262.4375,378.0625)"/>
<path d="M0 0 C1.21042969 -0.02578125 2.42085938 -0.0515625 3.66796875 -0.078125 C6.8125 0.25 6.8125 0.25 8.7265625 1.37890625 C10.31082289 4.1086211 10.10084369 6.31134565 10 9.4375 C9.97292969 10.52417969 9.94585937 11.61085938 9.91796875 12.73046875 C9.88316406 13.56191406 9.84835937 14.39335937 9.8125 15.25 C1.19002633 15.79778068 -6.84361292 14.32789704 -15.1875 12.25 C-16.1875 11.25 -16.1875 11.25 -16.4375 7.875 C-16.1875 4.25 -16.1875 4.25 -15.0625 2.375 C-10.65996832 -0.26651901 -4.99502367 0.06424468 0 0 Z " fill="#E9E9EC" transform="translate(342.1875,390.75)"/>
<path d="M0 0 C1.28293945 -0.0309375 1.28293945 -0.0309375 2.59179688 -0.0625 C7.43613848 -0.09251916 10.78198241 0.03827695 14.6875 3.25 C16.29475635 6.46451269 15.74498185 9.68612536 15.6875 13.25 C15.3575 11.93 15.0275 10.61 14.6875 9.25 C5.1175 8.92 -4.4525 8.59 -14.3125 8.25 C-14.6425 9.24 -14.9725 10.23 -15.3125 11.25 C-14.69977783 4.755145 -14.69977783 4.755145 -12.875 2.375 C-8.8453824 -0.52632467 -4.8022958 0.02856384 0 0 Z " fill="#CDD0D6" transform="translate(299.3125,386.75)"/>
<path d="M0 0 C0.75539063 0.03158203 1.51078125 0.06316406 2.2890625 0.09570312 C6.71435017 0.36261296 10.19106344 0.73753511 13.625 3.8125 C14.11328125 6.29296875 14.11328125 6.29296875 13.9375 9 C13.86982422 10.35158203 13.86982422 10.35158203 13.80078125 11.73046875 C13.74277344 12.41753906 13.68476563 13.10460937 13.625 13.8125 C12.779375 13.214375 11.93375 12.61625 11.0625 12 C3.06309094 6.79668068 -2.87333878 6.42671827 -12.375 6.8125 C-12.0625 4.4375 -12.0625 4.4375 -11.375 1.8125 C-7.48796289 -0.77885808 -4.46457803 -0.29788992 0 0 Z " fill="#CFD2D7" transform="translate(262.375,378.1875)"/>
<path d="M0 0 C1.08203125 1.66796875 1.08203125 1.66796875 1.08203125 4.66796875 C-0.85349609 4.75884766 -0.85349609 4.75884766 -2.828125 4.8515625 C-4.5455813 4.93602756 -6.26302877 5.02067252 -7.98046875 5.10546875 C-8.82802734 5.14478516 -9.67558594 5.18410156 -10.54882812 5.22460938 C-15.39797084 5.46800264 -20.12425087 5.89394917 -24.91796875 6.66796875 C-24.58796875 4.68796875 -24.25796875 2.70796875 -23.91796875 0.66796875 C-17.28875927 -1.45337828 -6.04791288 -4.20028165 0 0 Z " fill="#D3D4DA" transform="translate(350.91796875,392.33203125)"/>
<path d="M0 0 C0.99 0.66 1.98 1.32 3 2 C2.01 3.98 1.02 5.96 0 8 C-0.66 7.67 -1.32 7.34 -2 7 C-1.34 4.69 -0.68 2.38 0 0 Z " fill="#CDDCE5" transform="translate(407,208)"/>
</svg>
